G04 #@! TF.FileFunction,Legend,Top*
%FSLAX46Y46*%
G04 Gerber Fmt 4.6, Leading zero omitted, Abs format (unit mm)*
G04 Created by KiCad (PCBNEW 4.0.4-1.fc25-product) date Wed Mar 29 04:27:01 2017*
%MOMM*%
%LPD*%
G01*
G04 APERTURE LIST*
%ADD10C,0.100000*%
%ADD11C,0.101600*%
%ADD12C,0.152400*%
%ADD13C,0.040640*%
%ADD14C,0.150000*%
G04 APERTURE END LIST*
D10*
D11*
X110533301Y-74915970D02*
X110533301Y-75278827D01*
X110509111Y-75351398D01*
X110460730Y-75399779D01*
X110388158Y-75423970D01*
X110339777Y-75423970D01*
X110775206Y-74915970D02*
X110775206Y-75327208D01*
X110799397Y-75375589D01*
X110823587Y-75399779D01*
X110871968Y-75423970D01*
X110968730Y-75423970D01*
X111017111Y-75399779D01*
X111041302Y-75375589D01*
X111065492Y-75327208D01*
X111065492Y-74915970D01*
X111307396Y-75423970D02*
X111307396Y-74915970D01*
X111476730Y-75278827D01*
X111646063Y-74915970D01*
X111646063Y-75423970D01*
X111887967Y-75423970D02*
X111887967Y-74915970D01*
X112081491Y-74915970D01*
X112129872Y-74940160D01*
X112154063Y-74964350D01*
X112178253Y-75012731D01*
X112178253Y-75085303D01*
X112154063Y-75133684D01*
X112129872Y-75157874D01*
X112081491Y-75182065D01*
X111887967Y-75182065D01*
X112395967Y-75157874D02*
X112565301Y-75157874D01*
X112637872Y-75423970D02*
X112395967Y-75423970D01*
X112395967Y-74915970D01*
X112637872Y-74915970D01*
X113145872Y-75423970D02*
X112976539Y-75182065D01*
X112855586Y-75423970D02*
X112855586Y-74915970D01*
X113049110Y-74915970D01*
X113097491Y-74940160D01*
X113121682Y-74964350D01*
X113145872Y-75012731D01*
X113145872Y-75085303D01*
X113121682Y-75133684D01*
X113097491Y-75157874D01*
X113049110Y-75182065D01*
X112855586Y-75182065D01*
D12*
X109531817Y-78761046D02*
X109531817Y-79777046D01*
X109531817Y-78809427D02*
X109628579Y-78761046D01*
X109822102Y-78761046D01*
X109918864Y-78809427D01*
X109967245Y-78857808D01*
X110015626Y-78954570D01*
X110015626Y-79244855D01*
X109967245Y-79341617D01*
X109918864Y-79389998D01*
X109822102Y-79438379D01*
X109628579Y-79438379D01*
X109531817Y-79389998D01*
X110886483Y-79438379D02*
X110886483Y-78422379D01*
X110886483Y-79389998D02*
X110789721Y-79438379D01*
X110596198Y-79438379D01*
X110499436Y-79389998D01*
X110451055Y-79341617D01*
X110402674Y-79244855D01*
X110402674Y-78954570D01*
X110451055Y-78857808D01*
X110499436Y-78809427D01*
X110596198Y-78761046D01*
X110789721Y-78761046D01*
X110886483Y-78809427D01*
X111370293Y-78761046D02*
X111370293Y-79777046D01*
X111370293Y-78809427D02*
X111467055Y-78761046D01*
X111660578Y-78761046D01*
X111757340Y-78809427D01*
X111805721Y-78857808D01*
X111854102Y-78954570D01*
X111854102Y-79244855D01*
X111805721Y-79341617D01*
X111757340Y-79389998D01*
X111660578Y-79438379D01*
X111467055Y-79438379D01*
X111370293Y-79389998D01*
X112192769Y-78422379D02*
X112870102Y-78422379D01*
X112434674Y-79438379D01*
X113982864Y-78373998D02*
X113112007Y-79680284D01*
X114321531Y-79438379D02*
X114321531Y-78422379D01*
X114418293Y-79051331D02*
X114708578Y-79438379D01*
X114708578Y-78761046D02*
X114321531Y-79148093D01*
X115144007Y-79438379D02*
X115144007Y-78761046D01*
X115144007Y-78422379D02*
X115095626Y-78470760D01*
X115144007Y-78519141D01*
X115192388Y-78470760D01*
X115144007Y-78422379D01*
X115144007Y-78519141D01*
X116063245Y-79389998D02*
X115966483Y-79438379D01*
X115772960Y-79438379D01*
X115676198Y-79389998D01*
X115627817Y-79341617D01*
X115579436Y-79244855D01*
X115579436Y-78954570D01*
X115627817Y-78857808D01*
X115676198Y-78809427D01*
X115772960Y-78761046D01*
X115966483Y-78761046D01*
X116063245Y-78809427D01*
X116934102Y-79438379D02*
X116934102Y-78906189D01*
X116885721Y-78809427D01*
X116788959Y-78761046D01*
X116595436Y-78761046D01*
X116498674Y-78809427D01*
X116934102Y-79389998D02*
X116837340Y-79438379D01*
X116595436Y-79438379D01*
X116498674Y-79389998D01*
X116450293Y-79293236D01*
X116450293Y-79196474D01*
X116498674Y-79099712D01*
X116595436Y-79051331D01*
X116837340Y-79051331D01*
X116934102Y-79002950D01*
X117853340Y-79438379D02*
X117853340Y-78422379D01*
X117853340Y-79389998D02*
X117756578Y-79438379D01*
X117563055Y-79438379D01*
X117466293Y-79389998D01*
X117417912Y-79341617D01*
X117369531Y-79244855D01*
X117369531Y-78954570D01*
X117417912Y-78857808D01*
X117466293Y-78809427D01*
X117563055Y-78761046D01*
X117756578Y-78761046D01*
X117853340Y-78809427D01*
X118337150Y-79051331D02*
X119111245Y-79051331D01*
X119449912Y-78761046D02*
X119836960Y-78761046D01*
X119595055Y-78422379D02*
X119595055Y-79293236D01*
X119643436Y-79389998D01*
X119740198Y-79438379D01*
X119836960Y-79438379D01*
X120562673Y-79389998D02*
X120465911Y-79438379D01*
X120272388Y-79438379D01*
X120175626Y-79389998D01*
X120127245Y-79293236D01*
X120127245Y-78906189D01*
X120175626Y-78809427D01*
X120272388Y-78761046D01*
X120465911Y-78761046D01*
X120562673Y-78809427D01*
X120611054Y-78906189D01*
X120611054Y-79002950D01*
X120127245Y-79099712D01*
X121433530Y-79389998D02*
X121336768Y-79438379D01*
X121143245Y-79438379D01*
X121046483Y-79389998D01*
X120998102Y-79293236D01*
X120998102Y-78906189D01*
X121046483Y-78809427D01*
X121143245Y-78761046D01*
X121336768Y-78761046D01*
X121433530Y-78809427D01*
X121481911Y-78906189D01*
X121481911Y-79002950D01*
X120998102Y-79099712D01*
X121917340Y-78761046D02*
X121917340Y-79438379D01*
X121917340Y-78857808D02*
X121965721Y-78809427D01*
X122062483Y-78761046D01*
X122207625Y-78761046D01*
X122304387Y-78809427D01*
X122352768Y-78906189D01*
X122352768Y-79438379D01*
X122788197Y-79389998D02*
X122884959Y-79438379D01*
X123078483Y-79438379D01*
X123175244Y-79389998D01*
X123223625Y-79293236D01*
X123223625Y-79244855D01*
X123175244Y-79148093D01*
X123078483Y-79099712D01*
X122933340Y-79099712D01*
X122836578Y-79051331D01*
X122788197Y-78954570D01*
X122788197Y-78906189D01*
X122836578Y-78809427D01*
X122933340Y-78761046D01*
X123078483Y-78761046D01*
X123175244Y-78809427D01*
X123562292Y-78761046D02*
X123804197Y-79438379D01*
X124046101Y-78761046D02*
X123804197Y-79438379D01*
X123707435Y-79680284D01*
X123659054Y-79728665D01*
X123562292Y-79777046D01*
X124433149Y-79051331D02*
X125207244Y-79051331D01*
X126078101Y-79389998D02*
X125981339Y-79438379D01*
X125787816Y-79438379D01*
X125691054Y-79389998D01*
X125642673Y-79293236D01*
X125642673Y-78906189D01*
X125691054Y-78809427D01*
X125787816Y-78761046D01*
X125981339Y-78761046D01*
X126078101Y-78809427D01*
X126126482Y-78906189D01*
X126126482Y-79002950D01*
X125642673Y-79099712D01*
X126561911Y-78761046D02*
X126561911Y-79777046D01*
X126561911Y-78809427D02*
X126658673Y-78761046D01*
X126852196Y-78761046D01*
X126948958Y-78809427D01*
X126997339Y-78857808D01*
X127045720Y-78954570D01*
X127045720Y-79244855D01*
X126997339Y-79341617D01*
X126948958Y-79389998D01*
X126852196Y-79438379D01*
X126658673Y-79438379D01*
X126561911Y-79389998D01*
X127916577Y-79438379D02*
X127916577Y-78906189D01*
X127868196Y-78809427D01*
X127771434Y-78761046D01*
X127577911Y-78761046D01*
X127481149Y-78809427D01*
X127916577Y-79389998D02*
X127819815Y-79438379D01*
X127577911Y-79438379D01*
X127481149Y-79389998D01*
X127432768Y-79293236D01*
X127432768Y-79196474D01*
X127481149Y-79099712D01*
X127577911Y-79051331D01*
X127819815Y-79051331D01*
X127916577Y-79002950D01*
X128400387Y-78761046D02*
X128400387Y-79777046D01*
X128400387Y-78809427D02*
X128497149Y-78761046D01*
X128690672Y-78761046D01*
X128787434Y-78809427D01*
X128835815Y-78857808D01*
X128884196Y-78954570D01*
X128884196Y-79244855D01*
X128835815Y-79341617D01*
X128787434Y-79389998D01*
X128690672Y-79438379D01*
X128497149Y-79438379D01*
X128400387Y-79389998D01*
X129706672Y-79389998D02*
X129609910Y-79438379D01*
X129416387Y-79438379D01*
X129319625Y-79389998D01*
X129271244Y-79293236D01*
X129271244Y-78906189D01*
X129319625Y-78809427D01*
X129416387Y-78761046D01*
X129609910Y-78761046D01*
X129706672Y-78809427D01*
X129755053Y-78906189D01*
X129755053Y-79002950D01*
X129271244Y-79099712D01*
X130190482Y-79438379D02*
X130190482Y-78761046D01*
X130190482Y-78954570D02*
X130238863Y-78857808D01*
X130287244Y-78809427D01*
X130384006Y-78761046D01*
X130480767Y-78761046D01*
X114998863Y-80195541D02*
X115047244Y-80147160D01*
X115144006Y-80098779D01*
X115385910Y-80098779D01*
X115482672Y-80147160D01*
X115531053Y-80195541D01*
X115579434Y-80292303D01*
X115579434Y-80389065D01*
X115531053Y-80534208D01*
X114950482Y-81114779D01*
X115579434Y-81114779D01*
X116208387Y-80098779D02*
X116305148Y-80098779D01*
X116401910Y-80147160D01*
X116450291Y-80195541D01*
X116498672Y-80292303D01*
X116547053Y-80485827D01*
X116547053Y-80727731D01*
X116498672Y-80921255D01*
X116450291Y-81018017D01*
X116401910Y-81066398D01*
X116305148Y-81114779D01*
X116208387Y-81114779D01*
X116111625Y-81066398D01*
X116063244Y-81018017D01*
X116014863Y-80921255D01*
X115966482Y-80727731D01*
X115966482Y-80485827D01*
X116014863Y-80292303D01*
X116063244Y-80195541D01*
X116111625Y-80147160D01*
X116208387Y-80098779D01*
X117514672Y-81114779D02*
X116934101Y-81114779D01*
X117224387Y-81114779D02*
X117224387Y-80098779D01*
X117127625Y-80243922D01*
X117030863Y-80340684D01*
X116934101Y-80389065D01*
X117853339Y-80098779D02*
X118530672Y-80098779D01*
X118095244Y-81114779D01*
X118917720Y-80727731D02*
X119691815Y-80727731D01*
X120369149Y-80098779D02*
X120465910Y-80098779D01*
X120562672Y-80147160D01*
X120611053Y-80195541D01*
X120659434Y-80292303D01*
X120707815Y-80485827D01*
X120707815Y-80727731D01*
X120659434Y-80921255D01*
X120611053Y-81018017D01*
X120562672Y-81066398D01*
X120465910Y-81114779D01*
X120369149Y-81114779D01*
X120272387Y-81066398D01*
X120224006Y-81018017D01*
X120175625Y-80921255D01*
X120127244Y-80727731D01*
X120127244Y-80485827D01*
X120175625Y-80292303D01*
X120224006Y-80195541D01*
X120272387Y-80147160D01*
X120369149Y-80098779D01*
X121046482Y-80098779D02*
X121675434Y-80098779D01*
X121336768Y-80485827D01*
X121481910Y-80485827D01*
X121578672Y-80534208D01*
X121627053Y-80582589D01*
X121675434Y-80679350D01*
X121675434Y-80921255D01*
X121627053Y-81018017D01*
X121578672Y-81066398D01*
X121481910Y-81114779D01*
X121191625Y-81114779D01*
X121094863Y-81066398D01*
X121046482Y-81018017D01*
X122110863Y-80727731D02*
X122884958Y-80727731D01*
X123320387Y-80195541D02*
X123368768Y-80147160D01*
X123465530Y-80098779D01*
X123707434Y-80098779D01*
X123804196Y-80147160D01*
X123852577Y-80195541D01*
X123900958Y-80292303D01*
X123900958Y-80389065D01*
X123852577Y-80534208D01*
X123272006Y-81114779D01*
X123900958Y-81114779D01*
X124384768Y-81114779D02*
X124578292Y-81114779D01*
X124675053Y-81066398D01*
X124723434Y-81018017D01*
X124820196Y-80872874D01*
X124868577Y-80679350D01*
X124868577Y-80292303D01*
X124820196Y-80195541D01*
X124771815Y-80147160D01*
X124675053Y-80098779D01*
X124481530Y-80098779D01*
X124384768Y-80147160D01*
X124336387Y-80195541D01*
X124288006Y-80292303D01*
X124288006Y-80534208D01*
X124336387Y-80630970D01*
X124384768Y-80679350D01*
X124481530Y-80727731D01*
X124675053Y-80727731D01*
X124771815Y-80679350D01*
X124820196Y-80630970D01*
X124868577Y-80534208D01*
D13*
X110389520Y-53478760D02*
X114239520Y-53478760D01*
D10*
X113701323Y-72078760D02*
G75*
G03X113701323Y-72078760I-111803J0D01*
G01*
D13*
X110389520Y-53478760D02*
X110389520Y-72628760D01*
X114239520Y-72628760D02*
X114239520Y-53478760D01*
X110389520Y-72628760D02*
X114239520Y-72628760D01*
D12*
X113202720Y-74660760D02*
X113202720Y-73390760D01*
X110472220Y-74660760D02*
X110472220Y-73390760D01*
D14*
X113202720Y-74660760D02*
X110472220Y-74660760D01*
X110472220Y-73390760D02*
X113202720Y-73390760D01*
X145742067Y-80110081D02*
X146075400Y-81110081D01*
X146408734Y-80110081D01*
X146742067Y-81110081D02*
X146742067Y-80110081D01*
X147218257Y-81110081D02*
X147218257Y-80110081D01*
X147789686Y-81110081D01*
X147789686Y-80110081D01*
X149806067Y-82650081D02*
X149806067Y-83364367D01*
X149758447Y-83507224D01*
X149663209Y-83602462D01*
X149520352Y-83650081D01*
X149425114Y-83650081D01*
X150806067Y-83650081D02*
X150234638Y-83650081D01*
X150520352Y-83650081D02*
X150520352Y-82650081D01*
X150425114Y-82792938D01*
X150329876Y-82888176D01*
X150234638Y-82935795D01*
X144313495Y-78284367D02*
X144789686Y-78284367D01*
X144218257Y-78570081D02*
X144551590Y-77570081D01*
X144884924Y-78570081D01*
X145742067Y-77617700D02*
X145646829Y-77570081D01*
X145503972Y-77570081D01*
X145361114Y-77617700D01*
X145265876Y-77712938D01*
X145218257Y-77808176D01*
X145170638Y-77998652D01*
X145170638Y-78141510D01*
X145218257Y-78331986D01*
X145265876Y-78427224D01*
X145361114Y-78522462D01*
X145503972Y-78570081D01*
X145599210Y-78570081D01*
X145742067Y-78522462D01*
X145789686Y-78474843D01*
X145789686Y-78141510D01*
X145599210Y-78141510D01*
X146218257Y-78570081D02*
X146218257Y-77570081D01*
X146789686Y-78570081D01*
X146789686Y-77570081D01*
X147265876Y-78570081D02*
X147265876Y-77570081D01*
X147503971Y-77570081D01*
X147646829Y-77617700D01*
X147742067Y-77712938D01*
X147789686Y-77808176D01*
X147837305Y-77998652D01*
X147837305Y-78141510D01*
X147789686Y-78331986D01*
X147742067Y-78427224D01*
X147646829Y-78522462D01*
X147503971Y-78570081D01*
X147265876Y-78570081D01*
X144932544Y-75030081D02*
X145551592Y-75030081D01*
X145218258Y-75411033D01*
X145361116Y-75411033D01*
X145456354Y-75458652D01*
X145503973Y-75506271D01*
X145551592Y-75601510D01*
X145551592Y-75839605D01*
X145503973Y-75934843D01*
X145456354Y-75982462D01*
X145361116Y-76030081D01*
X145075401Y-76030081D01*
X144980163Y-75982462D01*
X144932544Y-75934843D01*
X145980163Y-75934843D02*
X146027782Y-75982462D01*
X145980163Y-76030081D01*
X145932544Y-75982462D01*
X145980163Y-75934843D01*
X145980163Y-76030081D01*
X146361115Y-75030081D02*
X146980163Y-75030081D01*
X146646829Y-75411033D01*
X146789687Y-75411033D01*
X146884925Y-75458652D01*
X146932544Y-75506271D01*
X146980163Y-75601510D01*
X146980163Y-75839605D01*
X146932544Y-75934843D01*
X146884925Y-75982462D01*
X146789687Y-76030081D01*
X146503972Y-76030081D01*
X146408734Y-75982462D01*
X146361115Y-75934843D01*
X147265877Y-75030081D02*
X147599210Y-76030081D01*
X147932544Y-75030081D01*
X146313495Y-72585319D02*
X146361114Y-72537700D01*
X146456352Y-72490081D01*
X146694448Y-72490081D01*
X146789686Y-72537700D01*
X146837305Y-72585319D01*
X146884924Y-72680557D01*
X146884924Y-72775795D01*
X146837305Y-72918652D01*
X146265876Y-73490081D01*
X146884924Y-73490081D01*
X147218257Y-72490081D02*
X147837305Y-72490081D01*
X147503971Y-72871033D01*
X147646829Y-72871033D01*
X147742067Y-72918652D01*
X147789686Y-72966271D01*
X147837305Y-73061510D01*
X147837305Y-73299605D01*
X147789686Y-73394843D01*
X147742067Y-73442462D01*
X147646829Y-73490081D01*
X147361114Y-73490081D01*
X147265876Y-73442462D01*
X147218257Y-73394843D01*
X146313495Y-70045319D02*
X146361114Y-69997700D01*
X146456352Y-69950081D01*
X146694448Y-69950081D01*
X146789686Y-69997700D01*
X146837305Y-70045319D01*
X146884924Y-70140557D01*
X146884924Y-70235795D01*
X146837305Y-70378652D01*
X146265876Y-70950081D01*
X146884924Y-70950081D01*
X147265876Y-70045319D02*
X147313495Y-69997700D01*
X147408733Y-69950081D01*
X147646829Y-69950081D01*
X147742067Y-69997700D01*
X147789686Y-70045319D01*
X147837305Y-70140557D01*
X147837305Y-70235795D01*
X147789686Y-70378652D01*
X147218257Y-70950081D01*
X147837305Y-70950081D01*
X146313495Y-67505319D02*
X146361114Y-67457700D01*
X146456352Y-67410081D01*
X146694448Y-67410081D01*
X146789686Y-67457700D01*
X146837305Y-67505319D01*
X146884924Y-67600557D01*
X146884924Y-67695795D01*
X146837305Y-67838652D01*
X146265876Y-68410081D01*
X146884924Y-68410081D01*
X147837305Y-68410081D02*
X147265876Y-68410081D01*
X147551590Y-68410081D02*
X147551590Y-67410081D01*
X147456352Y-67552938D01*
X147361114Y-67648176D01*
X147265876Y-67695795D01*
X146313495Y-64965319D02*
X146361114Y-64917700D01*
X146456352Y-64870081D01*
X146694448Y-64870081D01*
X146789686Y-64917700D01*
X146837305Y-64965319D01*
X146884924Y-65060557D01*
X146884924Y-65155795D01*
X146837305Y-65298652D01*
X146265876Y-65870081D01*
X146884924Y-65870081D01*
X147503971Y-64870081D02*
X147599210Y-64870081D01*
X147694448Y-64917700D01*
X147742067Y-64965319D01*
X147789686Y-65060557D01*
X147837305Y-65251033D01*
X147837305Y-65489129D01*
X147789686Y-65679605D01*
X147742067Y-65774843D01*
X147694448Y-65822462D01*
X147599210Y-65870081D01*
X147503971Y-65870081D01*
X147408733Y-65822462D01*
X147361114Y-65774843D01*
X147313495Y-65679605D01*
X147265876Y-65489129D01*
X147265876Y-65251033D01*
X147313495Y-65060557D01*
X147361114Y-64965319D01*
X147408733Y-64917700D01*
X147503971Y-64870081D01*
X146884924Y-63330081D02*
X146313495Y-63330081D01*
X146599209Y-63330081D02*
X146599209Y-62330081D01*
X146503971Y-62472938D01*
X146408733Y-62568176D01*
X146313495Y-62615795D01*
X147361114Y-63330081D02*
X147551590Y-63330081D01*
X147646829Y-63282462D01*
X147694448Y-63234843D01*
X147789686Y-63091986D01*
X147837305Y-62901510D01*
X147837305Y-62520557D01*
X147789686Y-62425319D01*
X147742067Y-62377700D01*
X147646829Y-62330081D01*
X147456352Y-62330081D01*
X147361114Y-62377700D01*
X147313495Y-62425319D01*
X147265876Y-62520557D01*
X147265876Y-62758652D01*
X147313495Y-62853890D01*
X147361114Y-62901510D01*
X147456352Y-62949129D01*
X147646829Y-62949129D01*
X147742067Y-62901510D01*
X147789686Y-62853890D01*
X147837305Y-62758652D01*
X146884924Y-60790081D02*
X146313495Y-60790081D01*
X146599209Y-60790081D02*
X146599209Y-59790081D01*
X146503971Y-59932938D01*
X146408733Y-60028176D01*
X146313495Y-60075795D01*
X147456352Y-60218652D02*
X147361114Y-60171033D01*
X147313495Y-60123414D01*
X147265876Y-60028176D01*
X147265876Y-59980557D01*
X147313495Y-59885319D01*
X147361114Y-59837700D01*
X147456352Y-59790081D01*
X147646829Y-59790081D01*
X147742067Y-59837700D01*
X147789686Y-59885319D01*
X147837305Y-59980557D01*
X147837305Y-60028176D01*
X147789686Y-60123414D01*
X147742067Y-60171033D01*
X147646829Y-60218652D01*
X147456352Y-60218652D01*
X147361114Y-60266271D01*
X147313495Y-60313890D01*
X147265876Y-60409129D01*
X147265876Y-60599605D01*
X147313495Y-60694843D01*
X147361114Y-60742462D01*
X147456352Y-60790081D01*
X147646829Y-60790081D01*
X147742067Y-60742462D01*
X147789686Y-60694843D01*
X147837305Y-60599605D01*
X147837305Y-60409129D01*
X147789686Y-60313890D01*
X147742067Y-60266271D01*
X147646829Y-60218652D01*
X146884924Y-58250081D02*
X146313495Y-58250081D01*
X146599209Y-58250081D02*
X146599209Y-57250081D01*
X146503971Y-57392938D01*
X146408733Y-57488176D01*
X146313495Y-57535795D01*
X147218257Y-57250081D02*
X147884924Y-57250081D01*
X147456352Y-58250081D01*
X146884924Y-55710081D02*
X146313495Y-55710081D01*
X146599209Y-55710081D02*
X146599209Y-54710081D01*
X146503971Y-54852938D01*
X146408733Y-54948176D01*
X146313495Y-54995795D01*
X147742067Y-54710081D02*
X147551590Y-54710081D01*
X147456352Y-54757700D01*
X147408733Y-54805319D01*
X147313495Y-54948176D01*
X147265876Y-55138652D01*
X147265876Y-55519605D01*
X147313495Y-55614843D01*
X147361114Y-55662462D01*
X147456352Y-55710081D01*
X147646829Y-55710081D01*
X147742067Y-55662462D01*
X147789686Y-55614843D01*
X147837305Y-55519605D01*
X147837305Y-55281510D01*
X147789686Y-55186271D01*
X147742067Y-55138652D01*
X147646829Y-55091033D01*
X147456352Y-55091033D01*
X147361114Y-55138652D01*
X147313495Y-55186271D01*
X147265876Y-55281510D01*
X146884924Y-53170081D02*
X146313495Y-53170081D01*
X146599209Y-53170081D02*
X146599209Y-52170081D01*
X146503971Y-52312938D01*
X146408733Y-52408176D01*
X146313495Y-52455795D01*
X147789686Y-52170081D02*
X147313495Y-52170081D01*
X147265876Y-52646271D01*
X147313495Y-52598652D01*
X147408733Y-52551033D01*
X147646829Y-52551033D01*
X147742067Y-52598652D01*
X147789686Y-52646271D01*
X147837305Y-52741510D01*
X147837305Y-52979605D01*
X147789686Y-53074843D01*
X147742067Y-53122462D01*
X147646829Y-53170081D01*
X147408733Y-53170081D01*
X147313495Y-53122462D01*
X147265876Y-53074843D01*
X146884924Y-50630081D02*
X146313495Y-50630081D01*
X146599209Y-50630081D02*
X146599209Y-49630081D01*
X146503971Y-49772938D01*
X146408733Y-49868176D01*
X146313495Y-49915795D01*
X147742067Y-49963414D02*
X147742067Y-50630081D01*
X147503971Y-49582462D02*
X147265876Y-50296748D01*
X147884924Y-50296748D01*
X146884924Y-48090081D02*
X146313495Y-48090081D01*
X146599209Y-48090081D02*
X146599209Y-47090081D01*
X146503971Y-47232938D01*
X146408733Y-47328176D01*
X146313495Y-47375795D01*
X147218257Y-47090081D02*
X147837305Y-47090081D01*
X147503971Y-47471033D01*
X147646829Y-47471033D01*
X147742067Y-47518652D01*
X147789686Y-47566271D01*
X147837305Y-47661510D01*
X147837305Y-47899605D01*
X147789686Y-47994843D01*
X147742067Y-48042462D01*
X147646829Y-48090081D01*
X147361114Y-48090081D01*
X147265876Y-48042462D01*
X147218257Y-47994843D01*
X167840162Y-77570081D02*
X167935401Y-77570081D01*
X168030639Y-77617700D01*
X168078258Y-77665319D01*
X168125877Y-77760557D01*
X168173496Y-77951033D01*
X168173496Y-78189129D01*
X168125877Y-78379605D01*
X168078258Y-78474843D01*
X168030639Y-78522462D01*
X167935401Y-78570081D01*
X167840162Y-78570081D01*
X167744924Y-78522462D01*
X167697305Y-78474843D01*
X167649686Y-78379605D01*
X167602067Y-78189129D01*
X167602067Y-77951033D01*
X167649686Y-77760557D01*
X167697305Y-77665319D01*
X167744924Y-77617700D01*
X167840162Y-77570081D01*
X168173496Y-80157700D02*
X168078258Y-80110081D01*
X167935401Y-80110081D01*
X167792543Y-80157700D01*
X167697305Y-80252938D01*
X167649686Y-80348176D01*
X167602067Y-80538652D01*
X167602067Y-80681510D01*
X167649686Y-80871986D01*
X167697305Y-80967224D01*
X167792543Y-81062462D01*
X167935401Y-81110081D01*
X168030639Y-81110081D01*
X168173496Y-81062462D01*
X168221115Y-81014843D01*
X168221115Y-80681510D01*
X168030639Y-80681510D01*
X168649686Y-81110081D02*
X168649686Y-80110081D01*
X169221115Y-81110081D01*
X169221115Y-80110081D01*
X169697305Y-81110081D02*
X169697305Y-80110081D01*
X169935400Y-80110081D01*
X170078258Y-80157700D01*
X170173496Y-80252938D01*
X170221115Y-80348176D01*
X170268734Y-80538652D01*
X170268734Y-80681510D01*
X170221115Y-80871986D01*
X170173496Y-80967224D01*
X170078258Y-81062462D01*
X169935400Y-81110081D01*
X169697305Y-81110081D01*
X162291781Y-45724557D02*
X163291781Y-45391224D01*
X162291781Y-45057890D01*
X162767971Y-44391223D02*
X162815590Y-44248366D01*
X162863210Y-44200747D01*
X162958448Y-44153128D01*
X163101305Y-44153128D01*
X163196543Y-44200747D01*
X163244162Y-44248366D01*
X163291781Y-44343604D01*
X163291781Y-44724557D01*
X162291781Y-44724557D01*
X162291781Y-44391223D01*
X162339400Y-44295985D01*
X162387019Y-44248366D01*
X162482257Y-44200747D01*
X162577495Y-44200747D01*
X162672733Y-44248366D01*
X162720352Y-44295985D01*
X162767971Y-44391223D01*
X162767971Y-44724557D01*
X163006067Y-43772176D02*
X163006067Y-43295985D01*
X163291781Y-43867414D02*
X162291781Y-43534081D01*
X163291781Y-43200747D01*
X162291781Y-43010271D02*
X162291781Y-42438842D01*
X163291781Y-42724557D02*
X162291781Y-42724557D01*
X159751781Y-45557890D02*
X159751781Y-44938842D01*
X160132733Y-45272176D01*
X160132733Y-45129318D01*
X160180352Y-45034080D01*
X160227971Y-44986461D01*
X160323210Y-44938842D01*
X160561305Y-44938842D01*
X160656543Y-44986461D01*
X160704162Y-45034080D01*
X160751781Y-45129318D01*
X160751781Y-45415033D01*
X160704162Y-45510271D01*
X160656543Y-45557890D01*
X160656543Y-44510271D02*
X160704162Y-44462652D01*
X160751781Y-44510271D01*
X160704162Y-44557890D01*
X160656543Y-44510271D01*
X160751781Y-44510271D01*
X159751781Y-44129319D02*
X159751781Y-43510271D01*
X160132733Y-43843605D01*
X160132733Y-43700747D01*
X160180352Y-43605509D01*
X160227971Y-43557890D01*
X160323210Y-43510271D01*
X160561305Y-43510271D01*
X160656543Y-43557890D01*
X160704162Y-43605509D01*
X160751781Y-43700747D01*
X160751781Y-43986462D01*
X160704162Y-44081700D01*
X160656543Y-44129319D01*
X159751781Y-43224557D02*
X160751781Y-42891224D01*
X159751781Y-42557890D01*
X157259400Y-44843604D02*
X157211781Y-44938842D01*
X157211781Y-45081699D01*
X157259400Y-45224557D01*
X157354638Y-45319795D01*
X157449876Y-45367414D01*
X157640352Y-45415033D01*
X157783210Y-45415033D01*
X157973686Y-45367414D01*
X158068924Y-45319795D01*
X158164162Y-45224557D01*
X158211781Y-45081699D01*
X158211781Y-44986461D01*
X158164162Y-44843604D01*
X158116543Y-44795985D01*
X157783210Y-44795985D01*
X157783210Y-44986461D01*
X158211781Y-44367414D02*
X157211781Y-44367414D01*
X158211781Y-43795985D01*
X157211781Y-43795985D01*
X158211781Y-43319795D02*
X157211781Y-43319795D01*
X157211781Y-43081700D01*
X157259400Y-42938842D01*
X157354638Y-42843604D01*
X157449876Y-42795985D01*
X157640352Y-42748366D01*
X157783210Y-42748366D01*
X157973686Y-42795985D01*
X158068924Y-42843604D01*
X158164162Y-42938842D01*
X158211781Y-43081700D01*
X158211781Y-43319795D01*
X155671781Y-45415033D02*
X154671781Y-45415033D01*
X154671781Y-45034080D01*
X154719400Y-44938842D01*
X154767019Y-44891223D01*
X154862257Y-44843604D01*
X155005114Y-44843604D01*
X155100352Y-44891223D01*
X155147971Y-44938842D01*
X155195590Y-45034080D01*
X155195590Y-45415033D01*
X154719400Y-43891223D02*
X154671781Y-43986461D01*
X154671781Y-44129318D01*
X154719400Y-44272176D01*
X154814638Y-44367414D01*
X154909876Y-44415033D01*
X155100352Y-44462652D01*
X155243210Y-44462652D01*
X155433686Y-44415033D01*
X155528924Y-44367414D01*
X155624162Y-44272176D01*
X155671781Y-44129318D01*
X155671781Y-44034080D01*
X155624162Y-43891223D01*
X155576543Y-43843604D01*
X155243210Y-43843604D01*
X155243210Y-44034080D01*
X155671781Y-43415033D02*
X154671781Y-43415033D01*
X155386067Y-43081699D01*
X154671781Y-42748366D01*
X155671781Y-42748366D01*
X153131781Y-45272176D02*
X152131781Y-45272176D01*
X152131781Y-45034081D01*
X152179400Y-44891223D01*
X152274638Y-44795985D01*
X152369876Y-44748366D01*
X152560352Y-44700747D01*
X152703210Y-44700747D01*
X152893686Y-44748366D01*
X152988924Y-44795985D01*
X153084162Y-44891223D01*
X153131781Y-45034081D01*
X153131781Y-45272176D01*
X152846067Y-44319795D02*
X152846067Y-43843604D01*
X153131781Y-44415033D02*
X152131781Y-44081700D01*
X153131781Y-43748366D01*
X153036543Y-42843604D02*
X153084162Y-42891223D01*
X153131781Y-43034080D01*
X153131781Y-43129318D01*
X153084162Y-43272176D01*
X152988924Y-43367414D01*
X152893686Y-43415033D01*
X152703210Y-43462652D01*
X152560352Y-43462652D01*
X152369876Y-43415033D01*
X152274638Y-43367414D01*
X152179400Y-43272176D01*
X152131781Y-43129318D01*
X152131781Y-43034080D01*
X152179400Y-42891223D01*
X152227019Y-42843604D01*
X168173496Y-76030081D02*
X167602067Y-76030081D01*
X167887781Y-76030081D02*
X167887781Y-75030081D01*
X167792543Y-75172938D01*
X167697305Y-75268176D01*
X167602067Y-75315795D01*
X167602067Y-72585319D02*
X167649686Y-72537700D01*
X167744924Y-72490081D01*
X167983020Y-72490081D01*
X168078258Y-72537700D01*
X168125877Y-72585319D01*
X168173496Y-72680557D01*
X168173496Y-72775795D01*
X168125877Y-72918652D01*
X167554448Y-73490081D01*
X168173496Y-73490081D01*
X167554448Y-69950081D02*
X168173496Y-69950081D01*
X167840162Y-70331033D01*
X167983020Y-70331033D01*
X168078258Y-70378652D01*
X168125877Y-70426271D01*
X168173496Y-70521510D01*
X168173496Y-70759605D01*
X168125877Y-70854843D01*
X168078258Y-70902462D01*
X167983020Y-70950081D01*
X167697305Y-70950081D01*
X167602067Y-70902462D01*
X167554448Y-70854843D01*
X168078258Y-67743414D02*
X168078258Y-68410081D01*
X167840162Y-67362462D02*
X167602067Y-68076748D01*
X168221115Y-68076748D01*
X168125877Y-64870081D02*
X167649686Y-64870081D01*
X167602067Y-65346271D01*
X167649686Y-65298652D01*
X167744924Y-65251033D01*
X167983020Y-65251033D01*
X168078258Y-65298652D01*
X168125877Y-65346271D01*
X168173496Y-65441510D01*
X168173496Y-65679605D01*
X168125877Y-65774843D01*
X168078258Y-65822462D01*
X167983020Y-65870081D01*
X167744924Y-65870081D01*
X167649686Y-65822462D01*
X167602067Y-65774843D01*
X168078258Y-62330081D02*
X167887781Y-62330081D01*
X167792543Y-62377700D01*
X167744924Y-62425319D01*
X167649686Y-62568176D01*
X167602067Y-62758652D01*
X167602067Y-63139605D01*
X167649686Y-63234843D01*
X167697305Y-63282462D01*
X167792543Y-63330081D01*
X167983020Y-63330081D01*
X168078258Y-63282462D01*
X168125877Y-63234843D01*
X168173496Y-63139605D01*
X168173496Y-62901510D01*
X168125877Y-62806271D01*
X168078258Y-62758652D01*
X167983020Y-62711033D01*
X167792543Y-62711033D01*
X167697305Y-62758652D01*
X167649686Y-62806271D01*
X167602067Y-62901510D01*
X167554448Y-59790081D02*
X168221115Y-59790081D01*
X167792543Y-60790081D01*
X167792543Y-57678652D02*
X167697305Y-57631033D01*
X167649686Y-57583414D01*
X167602067Y-57488176D01*
X167602067Y-57440557D01*
X167649686Y-57345319D01*
X167697305Y-57297700D01*
X167792543Y-57250081D01*
X167983020Y-57250081D01*
X168078258Y-57297700D01*
X168125877Y-57345319D01*
X168173496Y-57440557D01*
X168173496Y-57488176D01*
X168125877Y-57583414D01*
X168078258Y-57631033D01*
X167983020Y-57678652D01*
X167792543Y-57678652D01*
X167697305Y-57726271D01*
X167649686Y-57773890D01*
X167602067Y-57869129D01*
X167602067Y-58059605D01*
X167649686Y-58154843D01*
X167697305Y-58202462D01*
X167792543Y-58250081D01*
X167983020Y-58250081D01*
X168078258Y-58202462D01*
X168125877Y-58154843D01*
X168173496Y-58059605D01*
X168173496Y-57869129D01*
X168125877Y-57773890D01*
X168078258Y-57726271D01*
X167983020Y-57678652D01*
X167697305Y-55710081D02*
X167887781Y-55710081D01*
X167983020Y-55662462D01*
X168030639Y-55614843D01*
X168125877Y-55471986D01*
X168173496Y-55281510D01*
X168173496Y-54900557D01*
X168125877Y-54805319D01*
X168078258Y-54757700D01*
X167983020Y-54710081D01*
X167792543Y-54710081D01*
X167697305Y-54757700D01*
X167649686Y-54805319D01*
X167602067Y-54900557D01*
X167602067Y-55138652D01*
X167649686Y-55233890D01*
X167697305Y-55281510D01*
X167792543Y-55329129D01*
X167983020Y-55329129D01*
X168078258Y-55281510D01*
X168125877Y-55233890D01*
X168173496Y-55138652D01*
X168173495Y-53170081D02*
X167602066Y-53170081D01*
X167887780Y-53170081D02*
X167887780Y-52170081D01*
X167792542Y-52312938D01*
X167697304Y-52408176D01*
X167602066Y-52455795D01*
X168792542Y-52170081D02*
X168887781Y-52170081D01*
X168983019Y-52217700D01*
X169030638Y-52265319D01*
X169078257Y-52360557D01*
X169125876Y-52551033D01*
X169125876Y-52789129D01*
X169078257Y-52979605D01*
X169030638Y-53074843D01*
X168983019Y-53122462D01*
X168887781Y-53170081D01*
X168792542Y-53170081D01*
X168697304Y-53122462D01*
X168649685Y-53074843D01*
X168602066Y-52979605D01*
X168554447Y-52789129D01*
X168554447Y-52551033D01*
X168602066Y-52360557D01*
X168649685Y-52265319D01*
X168697304Y-52217700D01*
X168792542Y-52170081D01*
X168173495Y-50630081D02*
X167602066Y-50630081D01*
X167887780Y-50630081D02*
X167887780Y-49630081D01*
X167792542Y-49772938D01*
X167697304Y-49868176D01*
X167602066Y-49915795D01*
X169125876Y-50630081D02*
X168554447Y-50630081D01*
X168840161Y-50630081D02*
X168840161Y-49630081D01*
X168744923Y-49772938D01*
X168649685Y-49868176D01*
X168554447Y-49915795D01*
X168173495Y-48090081D02*
X167602066Y-48090081D01*
X167887780Y-48090081D02*
X167887780Y-47090081D01*
X167792542Y-47232938D01*
X167697304Y-47328176D01*
X167602066Y-47375795D01*
X168554447Y-47185319D02*
X168602066Y-47137700D01*
X168697304Y-47090081D01*
X168935400Y-47090081D01*
X169030638Y-47137700D01*
X169078257Y-47185319D01*
X169125876Y-47280557D01*
X169125876Y-47375795D01*
X169078257Y-47518652D01*
X168506828Y-48090081D01*
X169125876Y-48090081D01*
X111956187Y-72981141D02*
X111956187Y-73695427D01*
X111908567Y-73838284D01*
X111813329Y-73933522D01*
X111670472Y-73981141D01*
X111575234Y-73981141D01*
X112384758Y-73076379D02*
X112432377Y-73028760D01*
X112527615Y-72981141D01*
X112765711Y-72981141D01*
X112860949Y-73028760D01*
X112908568Y-73076379D01*
X112956187Y-73171617D01*
X112956187Y-73266855D01*
X112908568Y-73409712D01*
X112337139Y-73981141D01*
X112956187Y-73981141D01*
X109174554Y-74795641D02*
X108841220Y-74319450D01*
X108603125Y-74795641D02*
X108603125Y-73795641D01*
X108984078Y-73795641D01*
X109079316Y-73843260D01*
X109126935Y-73890879D01*
X109174554Y-73986117D01*
X109174554Y-74128974D01*
X109126935Y-74224212D01*
X109079316Y-74271831D01*
X108984078Y-74319450D01*
X108603125Y-74319450D01*
X109555506Y-73890879D02*
X109603125Y-73843260D01*
X109698363Y-73795641D01*
X109936459Y-73795641D01*
X110031697Y-73843260D01*
X110079316Y-73890879D01*
X110126935Y-73986117D01*
X110126935Y-74081355D01*
X110079316Y-74224212D01*
X109507887Y-74795641D01*
X110126935Y-74795641D01*
M02*
