G04 #@! TF.FileFunction,Soldermask,Top*
%FSLAX46Y46*%
G04 Gerber Fmt 4.6, Leading zero omitted, Abs format (unit mm)*
G04 Created by KiCad (PCBNEW 4.0.6) date Wed Aug 30 21:06:07 2017*
%MOMM*%
%LPD*%
G01*
G04 APERTURE LIST*
%ADD10C,0.100000*%
G04 APERTURE END LIST*
D10*
G36*
X96188170Y-84737730D02*
X95388070Y-84737730D01*
X95388070Y-82936870D01*
X96188170Y-82936870D01*
X96188170Y-84737730D01*
X96188170Y-84737730D01*
G37*
G36*
X92318120Y-84286160D02*
X91018120Y-84286160D01*
X91018120Y-82786160D01*
X92318120Y-82786160D01*
X92318120Y-84286160D01*
X92318120Y-84286160D01*
G37*
G36*
X82317340Y-83858260D02*
X80817340Y-83858260D01*
X80817340Y-82608260D01*
X82317340Y-82608260D01*
X82317340Y-83858260D01*
X82317340Y-83858260D01*
G37*
G36*
X79817340Y-83858260D02*
X78317340Y-83858260D01*
X78317340Y-82608260D01*
X79817340Y-82608260D01*
X79817340Y-83858260D01*
X79817340Y-83858260D01*
G37*
G36*
X88258120Y-83836160D02*
X85758120Y-83836160D01*
X85758120Y-81336160D01*
X88258120Y-81336160D01*
X88258120Y-83836160D01*
X88258120Y-83836160D01*
G37*
G36*
X97138170Y-81735450D02*
X96338070Y-81735450D01*
X96338070Y-79934590D01*
X97138170Y-79934590D01*
X97138170Y-81735450D01*
X97138170Y-81735450D01*
G37*
G36*
X95238170Y-81735450D02*
X94438070Y-81735450D01*
X94438070Y-79934590D01*
X95238170Y-79934590D01*
X95238170Y-81735450D01*
X95238170Y-81735450D01*
G37*
G36*
X92318120Y-81586160D02*
X91018120Y-81586160D01*
X91018120Y-80086160D01*
X92318120Y-80086160D01*
X92318120Y-81586160D01*
X92318120Y-81586160D01*
G37*
G36*
X88258120Y-80336160D02*
X85758120Y-80336160D01*
X85758120Y-77836160D01*
X88258120Y-77836160D01*
X88258120Y-80336160D01*
X88258120Y-80336160D01*
G37*
G36*
X82865360Y-79539680D02*
X81645360Y-79539680D01*
X81645360Y-78629680D01*
X82865360Y-78629680D01*
X82865360Y-79539680D01*
X82865360Y-79539680D01*
G37*
G36*
X75964180Y-79539680D02*
X74744180Y-79539680D01*
X74744180Y-78629680D01*
X75964180Y-78629680D01*
X75964180Y-79539680D01*
X75964180Y-79539680D01*
G37*
G36*
X79568440Y-79455860D02*
X78348440Y-79455860D01*
X78348440Y-78545860D01*
X79568440Y-78545860D01*
X79568440Y-79455860D01*
X79568440Y-79455860D01*
G37*
G36*
X107338826Y-77603134D02*
X107504731Y-77637189D01*
X107660858Y-77702819D01*
X107801260Y-77797520D01*
X107920605Y-77917702D01*
X108014324Y-78058760D01*
X108078864Y-78215346D01*
X108111707Y-78381215D01*
X108111707Y-78381227D01*
X108111757Y-78381480D01*
X108109056Y-78574922D01*
X108108998Y-78575177D01*
X108108998Y-78575183D01*
X108071536Y-78740073D01*
X108002650Y-78894794D01*
X107905027Y-79033183D01*
X107782377Y-79149981D01*
X107639384Y-79240727D01*
X107481480Y-79301974D01*
X107314698Y-79331383D01*
X107145369Y-79327835D01*
X106979960Y-79291468D01*
X106824767Y-79223666D01*
X106685696Y-79127009D01*
X106568046Y-79005179D01*
X106476301Y-78862818D01*
X106413956Y-78705354D01*
X106383383Y-78538772D01*
X106385748Y-78369428D01*
X106420959Y-78203771D01*
X106487678Y-78048104D01*
X106583363Y-77908360D01*
X106704363Y-77789868D01*
X106846080Y-77697131D01*
X107003113Y-77633685D01*
X107169470Y-77601951D01*
X107338826Y-77603134D01*
X107338826Y-77603134D01*
G37*
G36*
X122578826Y-77603134D02*
X122744731Y-77637189D01*
X122900858Y-77702819D01*
X123041260Y-77797520D01*
X123160605Y-77917702D01*
X123254324Y-78058760D01*
X123318864Y-78215346D01*
X123351707Y-78381215D01*
X123351707Y-78381227D01*
X123351757Y-78381480D01*
X123349056Y-78574922D01*
X123348998Y-78575177D01*
X123348998Y-78575183D01*
X123311536Y-78740073D01*
X123242650Y-78894794D01*
X123145027Y-79033183D01*
X123022377Y-79149981D01*
X122879384Y-79240727D01*
X122721480Y-79301974D01*
X122554698Y-79331383D01*
X122385369Y-79327835D01*
X122219960Y-79291468D01*
X122064767Y-79223666D01*
X121925696Y-79127009D01*
X121808046Y-79005179D01*
X121716301Y-78862818D01*
X121653956Y-78705354D01*
X121623383Y-78538772D01*
X121625748Y-78369428D01*
X121660959Y-78203771D01*
X121727678Y-78048104D01*
X121823363Y-77908360D01*
X121944363Y-77789868D01*
X122086080Y-77697131D01*
X122243113Y-77633685D01*
X122409470Y-77601951D01*
X122578826Y-77603134D01*
X122578826Y-77603134D01*
G37*
G36*
X122578826Y-75063134D02*
X122744731Y-75097189D01*
X122900858Y-75162819D01*
X123041260Y-75257520D01*
X123160605Y-75377702D01*
X123254324Y-75518760D01*
X123318864Y-75675346D01*
X123351707Y-75841215D01*
X123351707Y-75841227D01*
X123351757Y-75841480D01*
X123349056Y-76034922D01*
X123348998Y-76035177D01*
X123348998Y-76035183D01*
X123311536Y-76200073D01*
X123242650Y-76354794D01*
X123145027Y-76493183D01*
X123022377Y-76609981D01*
X122879384Y-76700727D01*
X122721480Y-76761974D01*
X122554698Y-76791383D01*
X122385369Y-76787835D01*
X122219960Y-76751468D01*
X122064767Y-76683666D01*
X121925696Y-76587009D01*
X121808046Y-76465179D01*
X121716301Y-76322818D01*
X121653956Y-76165354D01*
X121623383Y-75998772D01*
X121625748Y-75829428D01*
X121660959Y-75663771D01*
X121727678Y-75508104D01*
X121823363Y-75368360D01*
X121944363Y-75249868D01*
X122086080Y-75157131D01*
X122243113Y-75093685D01*
X122409470Y-75061951D01*
X122578826Y-75063134D01*
X122578826Y-75063134D01*
G37*
G36*
X107338826Y-75063134D02*
X107504731Y-75097189D01*
X107660858Y-75162819D01*
X107801260Y-75257520D01*
X107920605Y-75377702D01*
X108014324Y-75518760D01*
X108078864Y-75675346D01*
X108111707Y-75841215D01*
X108111707Y-75841227D01*
X108111757Y-75841480D01*
X108109056Y-76034922D01*
X108108998Y-76035177D01*
X108108998Y-76035183D01*
X108071536Y-76200073D01*
X108002650Y-76354794D01*
X107905027Y-76493183D01*
X107782377Y-76609981D01*
X107639384Y-76700727D01*
X107481480Y-76761974D01*
X107314698Y-76791383D01*
X107145369Y-76787835D01*
X106979960Y-76751468D01*
X106824767Y-76683666D01*
X106685696Y-76587009D01*
X106568046Y-76465179D01*
X106476301Y-76322818D01*
X106413956Y-76165354D01*
X106383383Y-75998772D01*
X106385748Y-75829428D01*
X106420959Y-75663771D01*
X106487678Y-75508104D01*
X106583363Y-75368360D01*
X106704363Y-75249868D01*
X106846080Y-75157131D01*
X107003113Y-75093685D01*
X107169470Y-75061951D01*
X107338826Y-75063134D01*
X107338826Y-75063134D01*
G37*
G36*
X86438120Y-76431160D02*
X84938120Y-76431160D01*
X84938120Y-75181160D01*
X86438120Y-75181160D01*
X86438120Y-76431160D01*
X86438120Y-76431160D01*
G37*
G36*
X88938120Y-76431160D02*
X87438120Y-76431160D01*
X87438120Y-75181160D01*
X88938120Y-75181160D01*
X88938120Y-76431160D01*
X88938120Y-76431160D01*
G37*
G36*
X75964180Y-76269680D02*
X74744180Y-76269680D01*
X74744180Y-75359680D01*
X75964180Y-75359680D01*
X75964180Y-76269680D01*
X75964180Y-76269680D01*
G37*
G36*
X82865360Y-76269680D02*
X81645360Y-76269680D01*
X81645360Y-75359680D01*
X82865360Y-75359680D01*
X82865360Y-76269680D01*
X82865360Y-76269680D01*
G37*
G36*
X79568440Y-76185860D02*
X78348440Y-76185860D01*
X78348440Y-75275860D01*
X79568440Y-75275860D01*
X79568440Y-76185860D01*
X79568440Y-76185860D01*
G37*
G36*
X122578826Y-72523134D02*
X122744731Y-72557189D01*
X122900858Y-72622819D01*
X123041260Y-72717520D01*
X123160605Y-72837702D01*
X123254324Y-72978760D01*
X123318864Y-73135346D01*
X123351707Y-73301215D01*
X123351707Y-73301227D01*
X123351757Y-73301480D01*
X123349056Y-73494922D01*
X123348998Y-73495177D01*
X123348998Y-73495183D01*
X123311536Y-73660073D01*
X123242650Y-73814794D01*
X123145027Y-73953183D01*
X123022377Y-74069981D01*
X122879384Y-74160727D01*
X122721480Y-74221974D01*
X122554698Y-74251383D01*
X122385369Y-74247835D01*
X122219960Y-74211468D01*
X122064767Y-74143666D01*
X121925696Y-74047009D01*
X121808046Y-73925179D01*
X121716301Y-73782818D01*
X121653956Y-73625354D01*
X121623383Y-73458772D01*
X121625748Y-73289428D01*
X121660959Y-73123771D01*
X121727678Y-72968104D01*
X121823363Y-72828360D01*
X121944363Y-72709868D01*
X122086080Y-72617131D01*
X122243113Y-72553685D01*
X122409470Y-72521951D01*
X122578826Y-72523134D01*
X122578826Y-72523134D01*
G37*
G36*
X107338826Y-72523134D02*
X107504731Y-72557189D01*
X107660858Y-72622819D01*
X107801260Y-72717520D01*
X107920605Y-72837702D01*
X108014324Y-72978760D01*
X108078864Y-73135346D01*
X108111707Y-73301215D01*
X108111707Y-73301227D01*
X108111757Y-73301480D01*
X108109056Y-73494922D01*
X108108998Y-73495177D01*
X108108998Y-73495183D01*
X108071536Y-73660073D01*
X108002650Y-73814794D01*
X107905027Y-73953183D01*
X107782377Y-74069981D01*
X107639384Y-74160727D01*
X107481480Y-74221974D01*
X107314698Y-74251383D01*
X107145369Y-74247835D01*
X106979960Y-74211468D01*
X106824767Y-74143666D01*
X106685696Y-74047009D01*
X106568046Y-73925179D01*
X106476301Y-73782818D01*
X106413956Y-73625354D01*
X106383383Y-73458772D01*
X106385748Y-73289428D01*
X106420959Y-73123771D01*
X106487678Y-72968104D01*
X106583363Y-72828360D01*
X106704363Y-72709868D01*
X106846080Y-72617131D01*
X107003113Y-72553685D01*
X107169470Y-72521951D01*
X107338826Y-72523134D01*
X107338826Y-72523134D01*
G37*
G36*
X107338826Y-69983134D02*
X107504731Y-70017189D01*
X107660858Y-70082819D01*
X107801260Y-70177520D01*
X107920605Y-70297702D01*
X108014324Y-70438760D01*
X108078864Y-70595346D01*
X108111707Y-70761215D01*
X108111707Y-70761227D01*
X108111757Y-70761480D01*
X108109056Y-70954922D01*
X108108998Y-70955177D01*
X108108998Y-70955183D01*
X108071536Y-71120073D01*
X108002650Y-71274794D01*
X107905027Y-71413183D01*
X107782377Y-71529981D01*
X107639384Y-71620727D01*
X107481480Y-71681974D01*
X107314698Y-71711383D01*
X107145369Y-71707835D01*
X106979960Y-71671468D01*
X106824767Y-71603666D01*
X106685696Y-71507009D01*
X106568046Y-71385179D01*
X106476301Y-71242818D01*
X106413956Y-71085354D01*
X106383383Y-70918772D01*
X106385748Y-70749428D01*
X106420959Y-70583771D01*
X106487678Y-70428104D01*
X106583363Y-70288360D01*
X106704363Y-70169868D01*
X106846080Y-70077131D01*
X107003113Y-70013685D01*
X107169470Y-69981951D01*
X107338826Y-69983134D01*
X107338826Y-69983134D01*
G37*
G36*
X122578826Y-69983134D02*
X122744731Y-70017189D01*
X122900858Y-70082819D01*
X123041260Y-70177520D01*
X123160605Y-70297702D01*
X123254324Y-70438760D01*
X123318864Y-70595346D01*
X123351707Y-70761215D01*
X123351707Y-70761227D01*
X123351757Y-70761480D01*
X123349056Y-70954922D01*
X123348998Y-70955177D01*
X123348998Y-70955183D01*
X123311536Y-71120073D01*
X123242650Y-71274794D01*
X123145027Y-71413183D01*
X123022377Y-71529981D01*
X122879384Y-71620727D01*
X122721480Y-71681974D01*
X122554698Y-71711383D01*
X122385369Y-71707835D01*
X122219960Y-71671468D01*
X122064767Y-71603666D01*
X121925696Y-71507009D01*
X121808046Y-71385179D01*
X121716301Y-71242818D01*
X121653956Y-71085354D01*
X121623383Y-70918772D01*
X121625748Y-70749428D01*
X121660959Y-70583771D01*
X121727678Y-70428104D01*
X121823363Y-70288360D01*
X121944363Y-70169868D01*
X122086080Y-70077131D01*
X122243113Y-70013685D01*
X122409470Y-69981951D01*
X122578826Y-69983134D01*
X122578826Y-69983134D01*
G37*
G36*
X78078840Y-71281800D02*
X76078840Y-71281800D01*
X76078840Y-69281800D01*
X78078840Y-69281800D01*
X78078840Y-71281800D01*
X78078840Y-71281800D01*
G37*
G36*
X85918120Y-71221160D02*
X84418120Y-71221160D01*
X84418120Y-69971160D01*
X85918120Y-69971160D01*
X85918120Y-71221160D01*
X85918120Y-71221160D01*
G37*
G36*
X88418120Y-71221160D02*
X86918120Y-71221160D01*
X86918120Y-69971160D01*
X88418120Y-69971160D01*
X88418120Y-71221160D01*
X88418120Y-71221160D01*
G37*
G36*
X122578826Y-67443134D02*
X122744731Y-67477189D01*
X122900858Y-67542819D01*
X123041260Y-67637520D01*
X123160605Y-67757702D01*
X123254324Y-67898760D01*
X123318864Y-68055346D01*
X123351707Y-68221215D01*
X123351707Y-68221227D01*
X123351757Y-68221480D01*
X123349056Y-68414922D01*
X123348998Y-68415177D01*
X123348998Y-68415183D01*
X123311536Y-68580073D01*
X123242650Y-68734794D01*
X123145027Y-68873183D01*
X123022377Y-68989981D01*
X122879384Y-69080727D01*
X122721480Y-69141974D01*
X122554698Y-69171383D01*
X122385369Y-69167835D01*
X122219960Y-69131468D01*
X122064767Y-69063666D01*
X121925696Y-68967009D01*
X121808046Y-68845179D01*
X121716301Y-68702818D01*
X121653956Y-68545354D01*
X121623383Y-68378772D01*
X121625748Y-68209428D01*
X121660959Y-68043771D01*
X121727678Y-67888104D01*
X121823363Y-67748360D01*
X121944363Y-67629868D01*
X122086080Y-67537131D01*
X122243113Y-67473685D01*
X122409470Y-67441951D01*
X122578826Y-67443134D01*
X122578826Y-67443134D01*
G37*
G36*
X107338826Y-67443134D02*
X107504731Y-67477189D01*
X107660858Y-67542819D01*
X107801260Y-67637520D01*
X107920605Y-67757702D01*
X108014324Y-67898760D01*
X108078864Y-68055346D01*
X108111707Y-68221215D01*
X108111707Y-68221227D01*
X108111757Y-68221480D01*
X108109056Y-68414922D01*
X108108998Y-68415177D01*
X108108998Y-68415183D01*
X108071536Y-68580073D01*
X108002650Y-68734794D01*
X107905027Y-68873183D01*
X107782377Y-68989981D01*
X107639384Y-69080727D01*
X107481480Y-69141974D01*
X107314698Y-69171383D01*
X107145369Y-69167835D01*
X106979960Y-69131468D01*
X106824767Y-69063666D01*
X106685696Y-68967009D01*
X106568046Y-68845179D01*
X106476301Y-68702818D01*
X106413956Y-68545354D01*
X106383383Y-68378772D01*
X106385748Y-68209428D01*
X106420959Y-68043771D01*
X106487678Y-67888104D01*
X106583363Y-67748360D01*
X106704363Y-67629868D01*
X106846080Y-67537131D01*
X107003113Y-67473685D01*
X107169470Y-67441951D01*
X107338826Y-67443134D01*
X107338826Y-67443134D01*
G37*
G36*
X80431840Y-69004800D02*
X79631840Y-69004800D01*
X79631840Y-68704800D01*
X80431840Y-68704800D01*
X80431840Y-69004800D01*
X80431840Y-69004800D01*
G37*
G36*
X80431840Y-68504800D02*
X79631840Y-68504800D01*
X79631840Y-68204800D01*
X80431840Y-68204800D01*
X80431840Y-68504800D01*
X80431840Y-68504800D01*
G37*
G36*
X80431840Y-68004800D02*
X79631840Y-68004800D01*
X79631840Y-67704800D01*
X80431840Y-67704800D01*
X80431840Y-68004800D01*
X80431840Y-68004800D01*
G37*
G36*
X80431840Y-67504800D02*
X79631840Y-67504800D01*
X79631840Y-67204800D01*
X80431840Y-67204800D01*
X80431840Y-67504800D01*
X80431840Y-67504800D01*
G37*
G36*
X80431840Y-67004800D02*
X79631840Y-67004800D01*
X79631840Y-66704800D01*
X80431840Y-66704800D01*
X80431840Y-67004800D01*
X80431840Y-67004800D01*
G37*
G36*
X122578826Y-64903134D02*
X122744731Y-64937189D01*
X122900858Y-65002819D01*
X123041260Y-65097520D01*
X123160605Y-65217702D01*
X123254324Y-65358760D01*
X123318864Y-65515346D01*
X123351707Y-65681215D01*
X123351707Y-65681227D01*
X123351757Y-65681480D01*
X123349056Y-65874922D01*
X123348998Y-65875177D01*
X123348998Y-65875183D01*
X123311536Y-66040073D01*
X123242650Y-66194794D01*
X123145027Y-66333183D01*
X123022377Y-66449981D01*
X122879384Y-66540727D01*
X122721480Y-66601974D01*
X122554698Y-66631383D01*
X122385369Y-66627835D01*
X122219960Y-66591468D01*
X122064767Y-66523666D01*
X121925696Y-66427009D01*
X121808046Y-66305179D01*
X121716301Y-66162818D01*
X121653956Y-66005354D01*
X121623383Y-65838772D01*
X121625748Y-65669428D01*
X121660959Y-65503771D01*
X121727678Y-65348104D01*
X121823363Y-65208360D01*
X121944363Y-65089868D01*
X122086080Y-64997131D01*
X122243113Y-64933685D01*
X122409470Y-64901951D01*
X122578826Y-64903134D01*
X122578826Y-64903134D01*
G37*
G36*
X107338826Y-64903134D02*
X107504731Y-64937189D01*
X107660858Y-65002819D01*
X107801260Y-65097520D01*
X107920605Y-65217702D01*
X108014324Y-65358760D01*
X108078864Y-65515346D01*
X108111707Y-65681215D01*
X108111707Y-65681227D01*
X108111757Y-65681480D01*
X108109056Y-65874922D01*
X108108998Y-65875177D01*
X108108998Y-65875183D01*
X108071536Y-66040073D01*
X108002650Y-66194794D01*
X107905027Y-66333183D01*
X107782377Y-66449981D01*
X107639384Y-66540727D01*
X107481480Y-66601974D01*
X107314698Y-66631383D01*
X107145369Y-66627835D01*
X106979960Y-66591468D01*
X106824767Y-66523666D01*
X106685696Y-66427009D01*
X106568046Y-66305179D01*
X106476301Y-66162818D01*
X106413956Y-66005354D01*
X106383383Y-65838772D01*
X106385748Y-65669428D01*
X106420959Y-65503771D01*
X106487678Y-65348104D01*
X106583363Y-65208360D01*
X106704363Y-65089868D01*
X106846080Y-64997131D01*
X107003113Y-64933685D01*
X107169470Y-64901951D01*
X107338826Y-64903134D01*
X107338826Y-64903134D01*
G37*
G36*
X80431840Y-66504800D02*
X79631840Y-66504800D01*
X79631840Y-66204800D01*
X80431840Y-66204800D01*
X80431840Y-66504800D01*
X80431840Y-66504800D01*
G37*
G36*
X80431840Y-66004800D02*
X79631840Y-66004800D01*
X79631840Y-65704800D01*
X80431840Y-65704800D01*
X80431840Y-66004800D01*
X80431840Y-66004800D01*
G37*
G36*
X80431840Y-65504800D02*
X79631840Y-65504800D01*
X79631840Y-65204800D01*
X80431840Y-65204800D01*
X80431840Y-65504800D01*
X80431840Y-65504800D01*
G37*
G36*
X80431840Y-65004800D02*
X79631840Y-65004800D01*
X79631840Y-64704800D01*
X80431840Y-64704800D01*
X80431840Y-65004800D01*
X80431840Y-65004800D01*
G37*
G36*
X80431840Y-64504800D02*
X79631840Y-64504800D01*
X79631840Y-64204800D01*
X80431840Y-64204800D01*
X80431840Y-64504800D01*
X80431840Y-64504800D01*
G37*
G36*
X122578826Y-62363134D02*
X122744731Y-62397189D01*
X122900858Y-62462819D01*
X123041260Y-62557520D01*
X123160605Y-62677702D01*
X123254324Y-62818760D01*
X123318864Y-62975346D01*
X123351707Y-63141215D01*
X123351707Y-63141227D01*
X123351757Y-63141480D01*
X123349056Y-63334922D01*
X123348998Y-63335177D01*
X123348998Y-63335183D01*
X123311536Y-63500073D01*
X123242650Y-63654794D01*
X123145027Y-63793183D01*
X123022377Y-63909981D01*
X122879384Y-64000727D01*
X122721480Y-64061974D01*
X122554698Y-64091383D01*
X122385369Y-64087835D01*
X122219960Y-64051468D01*
X122064767Y-63983666D01*
X121925696Y-63887009D01*
X121808046Y-63765179D01*
X121716301Y-63622818D01*
X121653956Y-63465354D01*
X121623383Y-63298772D01*
X121625748Y-63129428D01*
X121660959Y-62963771D01*
X121727678Y-62808104D01*
X121823363Y-62668360D01*
X121944363Y-62549868D01*
X122086080Y-62457131D01*
X122243113Y-62393685D01*
X122409470Y-62361951D01*
X122578826Y-62363134D01*
X122578826Y-62363134D01*
G37*
G36*
X107338826Y-62363134D02*
X107504731Y-62397189D01*
X107660858Y-62462819D01*
X107801260Y-62557520D01*
X107920605Y-62677702D01*
X108014324Y-62818760D01*
X108078864Y-62975346D01*
X108111707Y-63141215D01*
X108111707Y-63141227D01*
X108111757Y-63141480D01*
X108109056Y-63334922D01*
X108108998Y-63335177D01*
X108108998Y-63335183D01*
X108071536Y-63500073D01*
X108002650Y-63654794D01*
X107905027Y-63793183D01*
X107782377Y-63909981D01*
X107639384Y-64000727D01*
X107481480Y-64061974D01*
X107314698Y-64091383D01*
X107145369Y-64087835D01*
X106979960Y-64051468D01*
X106824767Y-63983666D01*
X106685696Y-63887009D01*
X106568046Y-63765179D01*
X106476301Y-63622818D01*
X106413956Y-63465354D01*
X106383383Y-63298772D01*
X106385748Y-63129428D01*
X106420959Y-62963771D01*
X106487678Y-62808104D01*
X106583363Y-62668360D01*
X106704363Y-62549868D01*
X106846080Y-62457131D01*
X107003113Y-62393685D01*
X107169470Y-62361951D01*
X107338826Y-62363134D01*
X107338826Y-62363134D01*
G37*
G36*
X80431840Y-64004800D02*
X79631840Y-64004800D01*
X79631840Y-63704800D01*
X80431840Y-63704800D01*
X80431840Y-64004800D01*
X80431840Y-64004800D01*
G37*
G36*
X80431840Y-63504800D02*
X79631840Y-63504800D01*
X79631840Y-63204800D01*
X80431840Y-63204800D01*
X80431840Y-63504800D01*
X80431840Y-63504800D01*
G37*
G36*
X80431840Y-63004800D02*
X79631840Y-63004800D01*
X79631840Y-62704800D01*
X80431840Y-62704800D01*
X80431840Y-63004800D01*
X80431840Y-63004800D01*
G37*
G36*
X80431840Y-62504800D02*
X79631840Y-62504800D01*
X79631840Y-62204800D01*
X80431840Y-62204800D01*
X80431840Y-62504800D01*
X80431840Y-62504800D01*
G37*
G36*
X80431840Y-62004800D02*
X79631840Y-62004800D01*
X79631840Y-61704800D01*
X80431840Y-61704800D01*
X80431840Y-62004800D01*
X80431840Y-62004800D01*
G37*
G36*
X122578826Y-59823134D02*
X122744731Y-59857189D01*
X122900858Y-59922819D01*
X123041260Y-60017520D01*
X123160605Y-60137702D01*
X123254324Y-60278760D01*
X123318864Y-60435346D01*
X123351707Y-60601215D01*
X123351707Y-60601227D01*
X123351757Y-60601480D01*
X123349056Y-60794922D01*
X123348998Y-60795177D01*
X123348998Y-60795183D01*
X123311536Y-60960073D01*
X123242650Y-61114794D01*
X123145027Y-61253183D01*
X123022377Y-61369981D01*
X122879384Y-61460727D01*
X122721480Y-61521974D01*
X122554698Y-61551383D01*
X122385369Y-61547835D01*
X122219960Y-61511468D01*
X122064767Y-61443666D01*
X121925696Y-61347009D01*
X121808046Y-61225179D01*
X121716301Y-61082818D01*
X121653956Y-60925354D01*
X121623383Y-60758772D01*
X121625748Y-60589428D01*
X121660959Y-60423771D01*
X121727678Y-60268104D01*
X121823363Y-60128360D01*
X121944363Y-60009868D01*
X122086080Y-59917131D01*
X122243113Y-59853685D01*
X122409470Y-59821951D01*
X122578826Y-59823134D01*
X122578826Y-59823134D01*
G37*
G36*
X107338826Y-59823134D02*
X107504731Y-59857189D01*
X107660858Y-59922819D01*
X107801260Y-60017520D01*
X107920605Y-60137702D01*
X108014324Y-60278760D01*
X108078864Y-60435346D01*
X108111707Y-60601215D01*
X108111707Y-60601227D01*
X108111757Y-60601480D01*
X108109056Y-60794922D01*
X108108998Y-60795177D01*
X108108998Y-60795183D01*
X108071536Y-60960073D01*
X108002650Y-61114794D01*
X107905027Y-61253183D01*
X107782377Y-61369981D01*
X107639384Y-61460727D01*
X107481480Y-61521974D01*
X107314698Y-61551383D01*
X107145369Y-61547835D01*
X106979960Y-61511468D01*
X106824767Y-61443666D01*
X106685696Y-61347009D01*
X106568046Y-61225179D01*
X106476301Y-61082818D01*
X106413956Y-60925354D01*
X106383383Y-60758772D01*
X106385748Y-60589428D01*
X106420959Y-60423771D01*
X106487678Y-60268104D01*
X106583363Y-60128360D01*
X106704363Y-60009868D01*
X106846080Y-59917131D01*
X107003113Y-59853685D01*
X107169470Y-59821951D01*
X107338826Y-59823134D01*
X107338826Y-59823134D01*
G37*
G36*
X80431840Y-61504800D02*
X79631840Y-61504800D01*
X79631840Y-61204800D01*
X80431840Y-61204800D01*
X80431840Y-61504800D01*
X80431840Y-61504800D01*
G37*
G36*
X80431840Y-61004800D02*
X79631840Y-61004800D01*
X79631840Y-60704800D01*
X80431840Y-60704800D01*
X80431840Y-61004800D01*
X80431840Y-61004800D01*
G37*
G36*
X80431840Y-60504800D02*
X79631840Y-60504800D01*
X79631840Y-60204800D01*
X80431840Y-60204800D01*
X80431840Y-60504800D01*
X80431840Y-60504800D01*
G37*
G36*
X80431840Y-60004800D02*
X79631840Y-60004800D01*
X79631840Y-59704800D01*
X80431840Y-59704800D01*
X80431840Y-60004800D01*
X80431840Y-60004800D01*
G37*
G36*
X80431840Y-59504800D02*
X79631840Y-59504800D01*
X79631840Y-59204800D01*
X80431840Y-59204800D01*
X80431840Y-59504800D01*
X80431840Y-59504800D01*
G37*
G36*
X107338826Y-57283134D02*
X107504731Y-57317189D01*
X107660858Y-57382819D01*
X107801260Y-57477520D01*
X107920605Y-57597702D01*
X108014324Y-57738760D01*
X108078864Y-57895346D01*
X108111707Y-58061215D01*
X108111707Y-58061227D01*
X108111757Y-58061480D01*
X108109056Y-58254922D01*
X108108998Y-58255177D01*
X108108998Y-58255183D01*
X108071536Y-58420073D01*
X108002650Y-58574794D01*
X107905027Y-58713183D01*
X107782377Y-58829981D01*
X107639384Y-58920727D01*
X107481480Y-58981974D01*
X107314698Y-59011383D01*
X107145369Y-59007835D01*
X106979960Y-58971468D01*
X106824767Y-58903666D01*
X106685696Y-58807009D01*
X106568046Y-58685179D01*
X106476301Y-58542818D01*
X106413956Y-58385354D01*
X106383383Y-58218772D01*
X106385748Y-58049428D01*
X106420959Y-57883771D01*
X106487678Y-57728104D01*
X106583363Y-57588360D01*
X106704363Y-57469868D01*
X106846080Y-57377131D01*
X107003113Y-57313685D01*
X107169470Y-57281951D01*
X107338826Y-57283134D01*
X107338826Y-57283134D01*
G37*
G36*
X122578826Y-57283134D02*
X122744731Y-57317189D01*
X122900858Y-57382819D01*
X123041260Y-57477520D01*
X123160605Y-57597702D01*
X123254324Y-57738760D01*
X123318864Y-57895346D01*
X123351707Y-58061215D01*
X123351707Y-58061227D01*
X123351757Y-58061480D01*
X123349056Y-58254922D01*
X123348998Y-58255177D01*
X123348998Y-58255183D01*
X123311536Y-58420073D01*
X123242650Y-58574794D01*
X123145027Y-58713183D01*
X123022377Y-58829981D01*
X122879384Y-58920727D01*
X122721480Y-58981974D01*
X122554698Y-59011383D01*
X122385369Y-59007835D01*
X122219960Y-58971468D01*
X122064767Y-58903666D01*
X121925696Y-58807009D01*
X121808046Y-58685179D01*
X121716301Y-58542818D01*
X121653956Y-58385354D01*
X121623383Y-58218772D01*
X121625748Y-58049428D01*
X121660959Y-57883771D01*
X121727678Y-57728104D01*
X121823363Y-57588360D01*
X121944363Y-57469868D01*
X122086080Y-57377131D01*
X122243113Y-57313685D01*
X122409470Y-57281951D01*
X122578826Y-57283134D01*
X122578826Y-57283134D01*
G37*
G36*
X80431840Y-59004800D02*
X79631840Y-59004800D01*
X79631840Y-58704800D01*
X80431840Y-58704800D01*
X80431840Y-59004800D01*
X80431840Y-59004800D01*
G37*
G36*
X80431840Y-58504800D02*
X79631840Y-58504800D01*
X79631840Y-58204800D01*
X80431840Y-58204800D01*
X80431840Y-58504800D01*
X80431840Y-58504800D01*
G37*
G36*
X80431840Y-58004800D02*
X79631840Y-58004800D01*
X79631840Y-57704800D01*
X80431840Y-57704800D01*
X80431840Y-58004800D01*
X80431840Y-58004800D01*
G37*
G36*
X80431840Y-57504800D02*
X79631840Y-57504800D01*
X79631840Y-57204800D01*
X80431840Y-57204800D01*
X80431840Y-57504800D01*
X80431840Y-57504800D01*
G37*
G36*
X80431840Y-57004800D02*
X79631840Y-57004800D01*
X79631840Y-56704800D01*
X80431840Y-56704800D01*
X80431840Y-57004800D01*
X80431840Y-57004800D01*
G37*
G36*
X80431840Y-56504800D02*
X79631840Y-56504800D01*
X79631840Y-56204800D01*
X80431840Y-56204800D01*
X80431840Y-56504800D01*
X80431840Y-56504800D01*
G37*
G36*
X122578826Y-54743134D02*
X122744731Y-54777189D01*
X122900858Y-54842819D01*
X123041260Y-54937520D01*
X123160605Y-55057702D01*
X123254324Y-55198760D01*
X123318864Y-55355346D01*
X123351707Y-55521215D01*
X123351707Y-55521227D01*
X123351757Y-55521480D01*
X123349056Y-55714922D01*
X123348998Y-55715177D01*
X123348998Y-55715183D01*
X123311536Y-55880073D01*
X123242650Y-56034794D01*
X123145027Y-56173183D01*
X123022377Y-56289981D01*
X122879384Y-56380727D01*
X122721480Y-56441974D01*
X122554698Y-56471383D01*
X122385369Y-56467835D01*
X122219960Y-56431468D01*
X122064767Y-56363666D01*
X121925696Y-56267009D01*
X121808046Y-56145179D01*
X121716301Y-56002818D01*
X121653956Y-55845354D01*
X121623383Y-55678772D01*
X121625748Y-55509428D01*
X121660959Y-55343771D01*
X121727678Y-55188104D01*
X121823363Y-55048360D01*
X121944363Y-54929868D01*
X122086080Y-54837131D01*
X122243113Y-54773685D01*
X122409470Y-54741951D01*
X122578826Y-54743134D01*
X122578826Y-54743134D01*
G37*
G36*
X107338826Y-54743134D02*
X107504731Y-54777189D01*
X107660858Y-54842819D01*
X107801260Y-54937520D01*
X107920605Y-55057702D01*
X108014324Y-55198760D01*
X108078864Y-55355346D01*
X108111707Y-55521215D01*
X108111707Y-55521227D01*
X108111757Y-55521480D01*
X108109056Y-55714922D01*
X108108998Y-55715177D01*
X108108998Y-55715183D01*
X108071536Y-55880073D01*
X108002650Y-56034794D01*
X107905027Y-56173183D01*
X107782377Y-56289981D01*
X107639384Y-56380727D01*
X107481480Y-56441974D01*
X107314698Y-56471383D01*
X107145369Y-56467835D01*
X106979960Y-56431468D01*
X106824767Y-56363666D01*
X106685696Y-56267009D01*
X106568046Y-56145179D01*
X106476301Y-56002818D01*
X106413956Y-55845354D01*
X106383383Y-55678772D01*
X106385748Y-55509428D01*
X106420959Y-55343771D01*
X106487678Y-55188104D01*
X106583363Y-55048360D01*
X106704363Y-54929868D01*
X106846080Y-54837131D01*
X107003113Y-54773685D01*
X107169470Y-54741951D01*
X107338826Y-54743134D01*
X107338826Y-54743134D01*
G37*
G36*
X80431840Y-56004800D02*
X79631840Y-56004800D01*
X79631840Y-55704800D01*
X80431840Y-55704800D01*
X80431840Y-56004800D01*
X80431840Y-56004800D01*
G37*
G36*
X80431840Y-55504800D02*
X79631840Y-55504800D01*
X79631840Y-55204800D01*
X80431840Y-55204800D01*
X80431840Y-55504800D01*
X80431840Y-55504800D01*
G37*
G36*
X80431840Y-55004800D02*
X79631840Y-55004800D01*
X79631840Y-54704800D01*
X80431840Y-54704800D01*
X80431840Y-55004800D01*
X80431840Y-55004800D01*
G37*
G36*
X80431840Y-54504800D02*
X79631840Y-54504800D01*
X79631840Y-54204800D01*
X80431840Y-54204800D01*
X80431840Y-54504800D01*
X80431840Y-54504800D01*
G37*
G36*
X80431840Y-54004800D02*
X79631840Y-54004800D01*
X79631840Y-53704800D01*
X80431840Y-53704800D01*
X80431840Y-54004800D01*
X80431840Y-54004800D01*
G37*
G36*
X122578826Y-52203134D02*
X122744731Y-52237189D01*
X122900858Y-52302819D01*
X123041260Y-52397520D01*
X123160605Y-52517702D01*
X123254324Y-52658760D01*
X123318864Y-52815346D01*
X123351707Y-52981215D01*
X123351707Y-52981227D01*
X123351757Y-52981480D01*
X123349056Y-53174922D01*
X123348998Y-53175177D01*
X123348998Y-53175183D01*
X123311536Y-53340073D01*
X123242650Y-53494794D01*
X123145027Y-53633183D01*
X123022377Y-53749981D01*
X122879384Y-53840727D01*
X122721480Y-53901974D01*
X122554698Y-53931383D01*
X122385369Y-53927835D01*
X122219960Y-53891468D01*
X122064767Y-53823666D01*
X121925696Y-53727009D01*
X121808046Y-53605179D01*
X121716301Y-53462818D01*
X121653956Y-53305354D01*
X121623383Y-53138772D01*
X121625748Y-52969428D01*
X121660959Y-52803771D01*
X121727678Y-52648104D01*
X121823363Y-52508360D01*
X121944363Y-52389868D01*
X122086080Y-52297131D01*
X122243113Y-52233685D01*
X122409470Y-52201951D01*
X122578826Y-52203134D01*
X122578826Y-52203134D01*
G37*
G36*
X107338826Y-52203134D02*
X107504731Y-52237189D01*
X107660858Y-52302819D01*
X107801260Y-52397520D01*
X107920605Y-52517702D01*
X108014324Y-52658760D01*
X108078864Y-52815346D01*
X108111707Y-52981215D01*
X108111707Y-52981227D01*
X108111757Y-52981480D01*
X108109056Y-53174922D01*
X108108998Y-53175177D01*
X108108998Y-53175183D01*
X108071536Y-53340073D01*
X108002650Y-53494794D01*
X107905027Y-53633183D01*
X107782377Y-53749981D01*
X107639384Y-53840727D01*
X107481480Y-53901974D01*
X107314698Y-53931383D01*
X107145369Y-53927835D01*
X106979960Y-53891468D01*
X106824767Y-53823666D01*
X106685696Y-53727009D01*
X106568046Y-53605179D01*
X106476301Y-53462818D01*
X106413956Y-53305354D01*
X106383383Y-53138772D01*
X106385748Y-52969428D01*
X106420959Y-52803771D01*
X106487678Y-52648104D01*
X106583363Y-52508360D01*
X106704363Y-52389868D01*
X106846080Y-52297131D01*
X107003113Y-52233685D01*
X107169470Y-52201951D01*
X107338826Y-52203134D01*
X107338826Y-52203134D01*
G37*
G36*
X80431840Y-53504800D02*
X79631840Y-53504800D01*
X79631840Y-53204800D01*
X80431840Y-53204800D01*
X80431840Y-53504800D01*
X80431840Y-53504800D01*
G37*
G36*
X80431840Y-53004800D02*
X79631840Y-53004800D01*
X79631840Y-52704800D01*
X80431840Y-52704800D01*
X80431840Y-53004800D01*
X80431840Y-53004800D01*
G37*
G36*
X80431840Y-52504800D02*
X79631840Y-52504800D01*
X79631840Y-52204800D01*
X80431840Y-52204800D01*
X80431840Y-52504800D01*
X80431840Y-52504800D01*
G37*
G36*
X78078840Y-51977800D02*
X76078840Y-51977800D01*
X76078840Y-49977800D01*
X78078840Y-49977800D01*
X78078840Y-51977800D01*
X78078840Y-51977800D01*
G37*
G36*
X99298120Y-51401160D02*
X97798120Y-51401160D01*
X97798120Y-50151160D01*
X99298120Y-50151160D01*
X99298120Y-51401160D01*
X99298120Y-51401160D01*
G37*
G36*
X96798120Y-51401160D02*
X95298120Y-51401160D01*
X95298120Y-50151160D01*
X96798120Y-50151160D01*
X96798120Y-51401160D01*
X96798120Y-51401160D01*
G37*
G36*
X107338826Y-49663134D02*
X107504731Y-49697189D01*
X107660858Y-49762819D01*
X107801260Y-49857520D01*
X107920605Y-49977702D01*
X108014324Y-50118760D01*
X108078864Y-50275346D01*
X108111707Y-50441215D01*
X108111707Y-50441227D01*
X108111757Y-50441480D01*
X108109056Y-50634922D01*
X108108998Y-50635177D01*
X108108998Y-50635183D01*
X108071536Y-50800073D01*
X108002650Y-50954794D01*
X107905027Y-51093183D01*
X107782377Y-51209981D01*
X107639384Y-51300727D01*
X107481480Y-51361974D01*
X107314698Y-51391383D01*
X107145369Y-51387835D01*
X106979960Y-51351468D01*
X106824767Y-51283666D01*
X106685696Y-51187009D01*
X106568046Y-51065179D01*
X106476301Y-50922818D01*
X106413956Y-50765354D01*
X106383383Y-50598772D01*
X106385748Y-50429428D01*
X106420959Y-50263771D01*
X106487678Y-50108104D01*
X106583363Y-49968360D01*
X106704363Y-49849868D01*
X106846080Y-49757131D01*
X107003113Y-49693685D01*
X107169470Y-49661951D01*
X107338826Y-49663134D01*
X107338826Y-49663134D01*
G37*
G36*
X122578826Y-49663134D02*
X122744731Y-49697189D01*
X122900858Y-49762819D01*
X123041260Y-49857520D01*
X123160605Y-49977702D01*
X123254324Y-50118760D01*
X123318864Y-50275346D01*
X123351707Y-50441215D01*
X123351707Y-50441227D01*
X123351757Y-50441480D01*
X123349056Y-50634922D01*
X123348998Y-50635177D01*
X123348998Y-50635183D01*
X123311536Y-50800073D01*
X123242650Y-50954794D01*
X123145027Y-51093183D01*
X123022377Y-51209981D01*
X122879384Y-51300727D01*
X122721480Y-51361974D01*
X122554698Y-51391383D01*
X122385369Y-51387835D01*
X122219960Y-51351468D01*
X122064767Y-51283666D01*
X121925696Y-51187009D01*
X121808046Y-51065179D01*
X121716301Y-50922818D01*
X121653956Y-50765354D01*
X121623383Y-50598772D01*
X121625748Y-50429428D01*
X121660959Y-50263771D01*
X121727678Y-50108104D01*
X121823363Y-49968360D01*
X121944363Y-49849868D01*
X122086080Y-49757131D01*
X122243113Y-49693685D01*
X122409470Y-49661951D01*
X122578826Y-49663134D01*
X122578826Y-49663134D01*
G37*
G36*
X107338826Y-47123134D02*
X107504731Y-47157189D01*
X107660858Y-47222819D01*
X107801260Y-47317520D01*
X107920605Y-47437702D01*
X108014324Y-47578760D01*
X108078864Y-47735346D01*
X108111707Y-47901215D01*
X108111707Y-47901227D01*
X108111757Y-47901480D01*
X108109056Y-48094922D01*
X108108998Y-48095177D01*
X108108998Y-48095183D01*
X108071536Y-48260073D01*
X108002650Y-48414794D01*
X107905027Y-48553183D01*
X107782377Y-48669981D01*
X107639384Y-48760727D01*
X107481480Y-48821974D01*
X107314698Y-48851383D01*
X107145369Y-48847835D01*
X106979960Y-48811468D01*
X106824767Y-48743666D01*
X106685696Y-48647009D01*
X106568046Y-48525179D01*
X106476301Y-48382818D01*
X106413956Y-48225354D01*
X106383383Y-48058772D01*
X106385748Y-47889428D01*
X106420959Y-47723771D01*
X106487678Y-47568104D01*
X106583363Y-47428360D01*
X106704363Y-47309868D01*
X106846080Y-47217131D01*
X107003113Y-47153685D01*
X107169470Y-47121951D01*
X107338826Y-47123134D01*
X107338826Y-47123134D01*
G37*
G36*
X122578826Y-47123134D02*
X122744731Y-47157189D01*
X122900858Y-47222819D01*
X123041260Y-47317520D01*
X123160605Y-47437702D01*
X123254324Y-47578760D01*
X123318864Y-47735346D01*
X123351707Y-47901215D01*
X123351707Y-47901227D01*
X123351757Y-47901480D01*
X123349056Y-48094922D01*
X123348998Y-48095177D01*
X123348998Y-48095183D01*
X123311536Y-48260073D01*
X123242650Y-48414794D01*
X123145027Y-48553183D01*
X123022377Y-48669981D01*
X122879384Y-48760727D01*
X122721480Y-48821974D01*
X122554698Y-48851383D01*
X122385369Y-48847835D01*
X122219960Y-48811468D01*
X122064767Y-48743666D01*
X121925696Y-48647009D01*
X121808046Y-48525179D01*
X121716301Y-48382818D01*
X121653956Y-48225354D01*
X121623383Y-48058772D01*
X121625748Y-47889428D01*
X121660959Y-47723771D01*
X121727678Y-47568104D01*
X121823363Y-47428360D01*
X121944363Y-47309868D01*
X122086080Y-47217131D01*
X122243113Y-47153685D01*
X122409470Y-47121951D01*
X122578826Y-47123134D01*
X122578826Y-47123134D01*
G37*
G36*
X96798120Y-48201160D02*
X95298120Y-48201160D01*
X95298120Y-46951160D01*
X96798120Y-46951160D01*
X96798120Y-48201160D01*
X96798120Y-48201160D01*
G37*
G36*
X99298120Y-48201160D02*
X97798120Y-48201160D01*
X97798120Y-46951160D01*
X99298120Y-46951160D01*
X99298120Y-48201160D01*
X99298120Y-48201160D01*
G37*
G36*
X122578826Y-44583134D02*
X122744731Y-44617189D01*
X122900858Y-44682819D01*
X123041260Y-44777520D01*
X123160605Y-44897702D01*
X123254324Y-45038760D01*
X123318864Y-45195346D01*
X123351707Y-45361215D01*
X123351707Y-45361227D01*
X123351757Y-45361480D01*
X123349056Y-45554922D01*
X123348998Y-45555177D01*
X123348998Y-45555183D01*
X123311536Y-45720073D01*
X123242650Y-45874794D01*
X123145027Y-46013183D01*
X123022377Y-46129981D01*
X122879384Y-46220727D01*
X122721480Y-46281974D01*
X122554698Y-46311383D01*
X122385369Y-46307835D01*
X122219960Y-46271468D01*
X122064767Y-46203666D01*
X121925696Y-46107009D01*
X121808046Y-45985179D01*
X121716301Y-45842818D01*
X121653956Y-45685354D01*
X121623383Y-45518772D01*
X121625748Y-45349428D01*
X121660959Y-45183771D01*
X121727678Y-45028104D01*
X121823363Y-44888360D01*
X121944363Y-44769868D01*
X122086080Y-44677131D01*
X122243113Y-44613685D01*
X122409470Y-44581951D01*
X122578826Y-44583134D01*
X122578826Y-44583134D01*
G37*
G36*
X107338826Y-44583134D02*
X107504731Y-44617189D01*
X107660858Y-44682819D01*
X107801260Y-44777520D01*
X107920605Y-44897702D01*
X108014324Y-45038760D01*
X108078864Y-45195346D01*
X108111707Y-45361215D01*
X108111707Y-45361227D01*
X108111757Y-45361480D01*
X108109056Y-45554922D01*
X108108998Y-45555177D01*
X108108998Y-45555183D01*
X108071536Y-45720073D01*
X108002650Y-45874794D01*
X107905027Y-46013183D01*
X107782377Y-46129981D01*
X107639384Y-46220727D01*
X107481480Y-46281974D01*
X107314698Y-46311383D01*
X107145369Y-46307835D01*
X106979960Y-46271468D01*
X106824767Y-46203666D01*
X106685696Y-46107009D01*
X106568046Y-45985179D01*
X106476301Y-45842818D01*
X106413956Y-45685354D01*
X106383383Y-45518772D01*
X106385748Y-45349428D01*
X106420959Y-45183771D01*
X106487678Y-45028104D01*
X106583363Y-44888360D01*
X106704363Y-44769868D01*
X106846080Y-44677131D01*
X107003113Y-44613685D01*
X107169470Y-44581951D01*
X107338826Y-44583134D01*
X107338826Y-44583134D01*
G37*
G36*
X99298120Y-44951160D02*
X97798120Y-44951160D01*
X97798120Y-43701160D01*
X99298120Y-43701160D01*
X99298120Y-44951160D01*
X99298120Y-44951160D01*
G37*
G36*
X96798120Y-44951160D02*
X95298120Y-44951160D01*
X95298120Y-43701160D01*
X96798120Y-43701160D01*
X96798120Y-44951160D01*
X96798120Y-44951160D01*
G37*
G36*
X132270120Y-42291160D02*
X131270120Y-42291160D01*
X131270120Y-38791160D01*
X132270120Y-38791160D01*
X132270120Y-42291160D01*
X132270120Y-42291160D01*
G37*
G36*
X130270120Y-42291160D02*
X129270120Y-42291160D01*
X129270120Y-38791160D01*
X130270120Y-38791160D01*
X130270120Y-42291160D01*
X130270120Y-42291160D01*
G37*
G36*
X99298120Y-41701160D02*
X97798120Y-41701160D01*
X97798120Y-40451160D01*
X99298120Y-40451160D01*
X99298120Y-41701160D01*
X99298120Y-41701160D01*
G37*
G36*
X96798120Y-41701160D02*
X95298120Y-41701160D01*
X95298120Y-40451160D01*
X96798120Y-40451160D01*
X96798120Y-41701160D01*
X96798120Y-41701160D01*
G37*
G36*
X107874120Y-41183160D02*
X106374120Y-41183160D01*
X106374120Y-39933160D01*
X107874120Y-39933160D01*
X107874120Y-41183160D01*
X107874120Y-41183160D01*
G37*
G36*
X105374120Y-41183160D02*
X103874120Y-41183160D01*
X103874120Y-39933160D01*
X105374120Y-39933160D01*
X105374120Y-41183160D01*
X105374120Y-41183160D01*
G37*
G36*
X99298120Y-38751160D02*
X97798120Y-38751160D01*
X97798120Y-37501160D01*
X99298120Y-37501160D01*
X99298120Y-38751160D01*
X99298120Y-38751160D01*
G37*
G36*
X96798120Y-38751160D02*
X95298120Y-38751160D01*
X95298120Y-37501160D01*
X96798120Y-37501160D01*
X96798120Y-38751160D01*
X96798120Y-38751160D01*
G37*
G36*
X128170120Y-36691160D02*
X126570120Y-36691160D01*
X126570120Y-33291160D01*
X128170120Y-33291160D01*
X128170120Y-36691160D01*
X128170120Y-36691160D01*
G37*
G36*
X134970120Y-36691160D02*
X133370120Y-36691160D01*
X133370120Y-33291160D01*
X134970120Y-33291160D01*
X134970120Y-36691160D01*
X134970120Y-36691160D01*
G37*
G36*
X96798120Y-35851160D02*
X95298120Y-35851160D01*
X95298120Y-34601160D01*
X96798120Y-34601160D01*
X96798120Y-35851160D01*
X96798120Y-35851160D01*
G37*
G36*
X99298120Y-35851160D02*
X97798120Y-35851160D01*
X97798120Y-34601160D01*
X99298120Y-34601160D01*
X99298120Y-35851160D01*
X99298120Y-35851160D01*
G37*
M02*
