G04 #@! TF.FileFunction,Copper,L2,Bot,Signal*
%FSLAX46Y46*%
G04 Gerber Fmt 4.6, Leading zero omitted, Abs format (unit mm)*
G04 Created by KiCad (PCBNEW 4.0.4-1.fc25-product) date Wed Mar 29 04:27:01 2017*
%MOMM*%
%LPD*%
G01*
G04 APERTURE LIST*
%ADD10C,0.100000*%
%ADD11R,1.500000X1.250000*%
%ADD12R,1.250000X1.500000*%
%ADD13R,1.220000X0.910000*%
%ADD14R,0.910000X1.220000*%
%ADD15C,1.727200*%
%ADD16R,2.500000X2.500000*%
%ADD17R,1.800860X0.800100*%
%ADD18R,1.500000X1.300000*%
%ADD19C,0.685800*%
%ADD20C,0.152400*%
%ADD21C,0.254000*%
G04 APERTURE END LIST*
D10*
D11*
X103773920Y-63281560D03*
X106273920Y-63281560D03*
D12*
X97497900Y-81775620D03*
X97497900Y-79275620D03*
D11*
X136880920Y-58023760D03*
X134380920Y-58023760D03*
X136995220Y-74406760D03*
X134495220Y-74406760D03*
X136830120Y-53959760D03*
X134330120Y-53959760D03*
X103776460Y-65829180D03*
X106276460Y-65829180D03*
X136779320Y-61935360D03*
X134279320Y-61935360D03*
X136687880Y-65933320D03*
X134187880Y-65933320D03*
X136995220Y-78140560D03*
X134495220Y-78140560D03*
X136728520Y-70139560D03*
X134228520Y-70139560D03*
D13*
X102092760Y-78496920D03*
X102092760Y-81766920D03*
D14*
X106257600Y-53492400D03*
X102987600Y-53492400D03*
D13*
X106730800Y-81766920D03*
X106730800Y-78496920D03*
D15*
X165379400Y-80657700D03*
X165379400Y-78117700D03*
X165379400Y-75577700D03*
X165379400Y-73037700D03*
X165379400Y-70497700D03*
X165379400Y-67957700D03*
X165379400Y-65417700D03*
X165379400Y-62877700D03*
X165379400Y-60337700D03*
X165379400Y-57797700D03*
X165379400Y-55257700D03*
X165379400Y-52717700D03*
X165379400Y-50177700D03*
X165379400Y-47637700D03*
X162839400Y-47637700D03*
X160299400Y-47637700D03*
X157759400Y-47637700D03*
X155219400Y-47637700D03*
X152679400Y-47637700D03*
X150139400Y-47637700D03*
X150139400Y-55257700D03*
X150139400Y-75577700D03*
X150139400Y-60337700D03*
X150139400Y-57797700D03*
X150139400Y-78117700D03*
X150139400Y-70497700D03*
X150139400Y-80657700D03*
X150139400Y-67957700D03*
X150139400Y-65417700D03*
X150139400Y-62877700D03*
X150139400Y-73037700D03*
X150139400Y-50177700D03*
X150139400Y-52717700D03*
D16*
X106565640Y-58333640D03*
X103065640Y-58333640D03*
D17*
X96979740Y-56774040D03*
X96979740Y-58674040D03*
X93977460Y-57724040D03*
D18*
X134357120Y-50060860D03*
X137057120Y-50060860D03*
D19*
X112181640Y-59329320D03*
X120149620Y-59329320D03*
X109385100Y-68328540D03*
X121980960Y-74401680D03*
X123019820Y-53952140D03*
X109476540Y-65829180D03*
X124416820Y-64546480D03*
X123687840Y-67325240D03*
X123502420Y-70147180D03*
X118424960Y-72765920D03*
X101376480Y-55514240D03*
X97566480Y-61036200D03*
X123299220Y-50040540D03*
X112059720Y-61325760D03*
X145790920Y-60309760D03*
X132633720Y-51876960D03*
X142488920Y-50149760D03*
X118770400Y-60350400D03*
X109418120Y-62341760D03*
X109418120Y-54518560D03*
X146248120Y-51673760D03*
X141224000Y-57790080D03*
X117490240Y-62717680D03*
X142913100Y-60007500D03*
X155646120Y-56499760D03*
X109522260Y-64317880D03*
X139847320Y-67015360D03*
X139898120Y-69199760D03*
X115572540Y-60822840D03*
X115422680Y-65313560D03*
X111061500Y-55039260D03*
X111043720Y-69471540D03*
D20*
X102092760Y-81766920D02*
X97506600Y-81766920D01*
X97506600Y-81766920D02*
X97497900Y-81775620D01*
X106730800Y-81766920D02*
X102092760Y-81766920D01*
X102987600Y-53492400D02*
X94965520Y-53492400D01*
X93977460Y-54480460D02*
X93977460Y-57724040D01*
X94965520Y-53492400D02*
X93977460Y-54480460D01*
X102987600Y-53492400D02*
X102987600Y-58255600D01*
X102987600Y-58255600D02*
X103065640Y-58333640D01*
X93977460Y-57724040D02*
X93977460Y-75755180D01*
X93977460Y-75755180D02*
X97497900Y-79275620D01*
X109095540Y-53489860D02*
X106260140Y-53489860D01*
X106260140Y-53489860D02*
X106257600Y-53492400D01*
X112181640Y-59329320D02*
X112196880Y-59314080D01*
X112196880Y-59314080D02*
X112196880Y-53355240D01*
X112196880Y-53355240D02*
X111724440Y-52882800D01*
X111724440Y-52882800D02*
X109702600Y-52882800D01*
X109702600Y-52882800D02*
X109095540Y-53489860D01*
X109095540Y-53489860D02*
X109087920Y-53497480D01*
X134380920Y-58023760D02*
X121455180Y-58023760D01*
X121455180Y-58023760D02*
X120149620Y-59329320D01*
X106730800Y-78496920D02*
X106730800Y-70982840D01*
X106730800Y-70982840D02*
X109385100Y-68328540D01*
X121986040Y-74406760D02*
X134495220Y-74406760D01*
X121980960Y-74401680D02*
X121986040Y-74406760D01*
X123027440Y-53959760D02*
X134330120Y-53959760D01*
X123019820Y-53952140D02*
X123027440Y-53959760D01*
X106276460Y-65829180D02*
X109476540Y-65829180D01*
X127027940Y-61935360D02*
X134279320Y-61935360D01*
X124416820Y-64546480D02*
X127027940Y-61935360D01*
X134187880Y-65933320D02*
X125079760Y-65933320D01*
X125079760Y-65933320D02*
X123687840Y-67325240D01*
X134228520Y-70139560D02*
X123510040Y-70139560D01*
X123510040Y-70139560D02*
X123502420Y-70147180D01*
X134495220Y-78140560D02*
X123799600Y-78140560D01*
X123799600Y-78140560D02*
X118424960Y-72765920D01*
X96979740Y-56774040D02*
X100116680Y-56774040D01*
X100116680Y-56774040D02*
X101376480Y-55514240D01*
X96979740Y-58674040D02*
X96979740Y-60449460D01*
X96979740Y-60449460D02*
X97566480Y-61036200D01*
X134357120Y-50060860D02*
X123319540Y-50060860D01*
X123319540Y-50060860D02*
X123299220Y-50040540D01*
X112059720Y-61325760D02*
X112059720Y-63103760D01*
X112059720Y-63103760D02*
X112516920Y-63560960D01*
X112516920Y-63560960D02*
X116428520Y-63560960D01*
X116428520Y-63560960D02*
X121102120Y-68234560D01*
X121102120Y-68234560D02*
X141625320Y-68234560D01*
X141625320Y-68234560D02*
X145790920Y-64068960D01*
X145790920Y-64068960D02*
X145790920Y-60309760D01*
X123337320Y-51930300D02*
X132580380Y-51930300D01*
X132580380Y-51930300D02*
X132633720Y-51876960D01*
X142488920Y-50149760D02*
X142516860Y-50177700D01*
X142516860Y-50177700D02*
X150139400Y-50177700D01*
X123337320Y-51930300D02*
X118770400Y-56497220D01*
X118770400Y-56497220D02*
X118770400Y-60350400D01*
X109418120Y-62341760D02*
X109418120Y-54518560D01*
X146248120Y-51673760D02*
X149832060Y-55257700D01*
X149832060Y-55257700D02*
X150139400Y-55257700D01*
X141224000Y-57790080D02*
X141231620Y-57797700D01*
X141231620Y-57797700D02*
X150139400Y-57797700D01*
X150139400Y-47637700D02*
X122880120Y-47637700D01*
X122880120Y-47637700D02*
X117490240Y-53027580D01*
X117490240Y-53027580D02*
X117490240Y-62717680D01*
X142913100Y-60007500D02*
X143865600Y-59055000D01*
X143865600Y-59055000D02*
X156502100Y-59055000D01*
X156502100Y-59055000D02*
X165379400Y-50177700D01*
X160299400Y-47637700D02*
X160299400Y-51846480D01*
X160299400Y-51846480D02*
X155646120Y-56499760D01*
X106565640Y-58333640D02*
X106565640Y-62989840D01*
X106565640Y-62989840D02*
X106273920Y-63281560D01*
X106273920Y-63281560D02*
X108485940Y-63281560D01*
X108485940Y-63281560D02*
X109522260Y-64317880D01*
X136687880Y-65933320D02*
X138765280Y-65933320D01*
X138765280Y-65933320D02*
X139847320Y-67015360D01*
X139898120Y-69199760D02*
X138958320Y-70139560D01*
X138958320Y-70139560D02*
X136728520Y-70139560D01*
X111043720Y-69471540D02*
X111061500Y-69453760D01*
X111061500Y-69453760D02*
X111061500Y-55039260D01*
D21*
G36*
X166318026Y-44434728D02*
X168676237Y-46449033D01*
X168625595Y-82101079D01*
X166109039Y-84617635D01*
X112973649Y-84693760D01*
X95272126Y-84693760D01*
X90596640Y-80018274D01*
X90562151Y-57323990D01*
X92429590Y-57323990D01*
X92429590Y-58124090D01*
X92473868Y-58359407D01*
X92612940Y-58575531D01*
X92825140Y-58720521D01*
X93077030Y-58771530D01*
X93266260Y-58771530D01*
X93266260Y-75755180D01*
X93320397Y-76027345D01*
X93474566Y-76258074D01*
X96225460Y-79008968D01*
X96225460Y-80025620D01*
X96269738Y-80260937D01*
X96408810Y-80477061D01*
X96478611Y-80524754D01*
X96421459Y-80561530D01*
X96276469Y-80773730D01*
X96225460Y-81025620D01*
X96225460Y-82525620D01*
X96269738Y-82760937D01*
X96408810Y-82977061D01*
X96621010Y-83122051D01*
X96872900Y-83173060D01*
X98122900Y-83173060D01*
X98358217Y-83128782D01*
X98574341Y-82989710D01*
X98719331Y-82777510D01*
X98770340Y-82525620D01*
X98770340Y-82478120D01*
X100893036Y-82478120D01*
X101018670Y-82673361D01*
X101230870Y-82818351D01*
X101482760Y-82869360D01*
X102702760Y-82869360D01*
X102938077Y-82825082D01*
X103154201Y-82686010D01*
X103296246Y-82478120D01*
X105531076Y-82478120D01*
X105656710Y-82673361D01*
X105868910Y-82818351D01*
X106120800Y-82869360D01*
X107340800Y-82869360D01*
X107576117Y-82825082D01*
X107792241Y-82686010D01*
X107937231Y-82473810D01*
X107988240Y-82221920D01*
X107988240Y-81311920D01*
X107943962Y-81076603D01*
X107865380Y-80954482D01*
X148640541Y-80954482D01*
X148868208Y-81505480D01*
X149289403Y-81927410D01*
X149840002Y-82156039D01*
X150436182Y-82156559D01*
X150987180Y-81928892D01*
X151204946Y-81711505D01*
X164505200Y-81711505D01*
X164587141Y-81964216D01*
X165147430Y-82167948D01*
X165743035Y-82141758D01*
X166171659Y-81964216D01*
X166253600Y-81711505D01*
X165379400Y-80837305D01*
X164505200Y-81711505D01*
X151204946Y-81711505D01*
X151409110Y-81507697D01*
X151637739Y-80957098D01*
X151638202Y-80425730D01*
X163869152Y-80425730D01*
X163895342Y-81021335D01*
X164072884Y-81449959D01*
X164325595Y-81531900D01*
X165199795Y-80657700D01*
X165559005Y-80657700D01*
X166433205Y-81531900D01*
X166685916Y-81449959D01*
X166889648Y-80889670D01*
X166863458Y-80294065D01*
X166685916Y-79865441D01*
X166433205Y-79783500D01*
X165559005Y-80657700D01*
X165199795Y-80657700D01*
X164325595Y-79783500D01*
X164072884Y-79865441D01*
X163869152Y-80425730D01*
X151638202Y-80425730D01*
X151638259Y-80360918D01*
X151410592Y-79809920D01*
X150989397Y-79387990D01*
X150948863Y-79371159D01*
X151013600Y-79171505D01*
X150139400Y-78297305D01*
X149265200Y-79171505D01*
X149329799Y-79370733D01*
X149291620Y-79386508D01*
X148869690Y-79807703D01*
X148641061Y-80358302D01*
X148640541Y-80954482D01*
X107865380Y-80954482D01*
X107804890Y-80860479D01*
X107592690Y-80715489D01*
X107340800Y-80664480D01*
X106120800Y-80664480D01*
X105885483Y-80708758D01*
X105669359Y-80847830D01*
X105527314Y-81055720D01*
X103292484Y-81055720D01*
X103166850Y-80860479D01*
X102954650Y-80715489D01*
X102702760Y-80664480D01*
X101482760Y-80664480D01*
X101247443Y-80708758D01*
X101031319Y-80847830D01*
X100889274Y-81055720D01*
X98770340Y-81055720D01*
X98770340Y-81025620D01*
X98726062Y-80790303D01*
X98586990Y-80574179D01*
X98517189Y-80526486D01*
X98574341Y-80489710D01*
X98719331Y-80277510D01*
X98770340Y-80025620D01*
X98770340Y-78782670D01*
X100847760Y-78782670D01*
X100847760Y-79078229D01*
X100944433Y-79311618D01*
X101123061Y-79490247D01*
X101356450Y-79586920D01*
X101807010Y-79586920D01*
X101965760Y-79428170D01*
X101965760Y-78623920D01*
X102219760Y-78623920D01*
X102219760Y-79428170D01*
X102378510Y-79586920D01*
X102829070Y-79586920D01*
X103062459Y-79490247D01*
X103241087Y-79311618D01*
X103337760Y-79078229D01*
X103337760Y-78782670D01*
X103179010Y-78623920D01*
X102219760Y-78623920D01*
X101965760Y-78623920D01*
X101006510Y-78623920D01*
X100847760Y-78782670D01*
X98770340Y-78782670D01*
X98770340Y-78525620D01*
X98726062Y-78290303D01*
X98586990Y-78074179D01*
X98374790Y-77929189D01*
X98307740Y-77915611D01*
X100847760Y-77915611D01*
X100847760Y-78211170D01*
X101006510Y-78369920D01*
X101965760Y-78369920D01*
X101965760Y-77565670D01*
X102219760Y-77565670D01*
X102219760Y-78369920D01*
X103179010Y-78369920D01*
X103337760Y-78211170D01*
X103337760Y-77915611D01*
X103241087Y-77682222D01*
X103062459Y-77503593D01*
X102829070Y-77406920D01*
X102378510Y-77406920D01*
X102219760Y-77565670D01*
X101965760Y-77565670D01*
X101807010Y-77406920D01*
X101356450Y-77406920D01*
X101123061Y-77503593D01*
X100944433Y-77682222D01*
X100847760Y-77915611D01*
X98307740Y-77915611D01*
X98122900Y-77878180D01*
X97106248Y-77878180D01*
X94688660Y-75460592D01*
X94688660Y-66114930D01*
X102391460Y-66114930D01*
X102391460Y-66580490D01*
X102488133Y-66813879D01*
X102666762Y-66992507D01*
X102900151Y-67089180D01*
X103490710Y-67089180D01*
X103649460Y-66930430D01*
X103649460Y-65956180D01*
X102550210Y-65956180D01*
X102391460Y-66114930D01*
X94688660Y-66114930D01*
X94688660Y-65077870D01*
X102391460Y-65077870D01*
X102391460Y-65543430D01*
X102550210Y-65702180D01*
X103649460Y-65702180D01*
X103649460Y-64727930D01*
X103490710Y-64569180D01*
X102900151Y-64569180D01*
X102666762Y-64665853D01*
X102488133Y-64844481D01*
X102391460Y-65077870D01*
X94688660Y-65077870D01*
X94688660Y-63567310D01*
X102388920Y-63567310D01*
X102388920Y-64032870D01*
X102485593Y-64266259D01*
X102664222Y-64444887D01*
X102897611Y-64541560D01*
X103488170Y-64541560D01*
X103646920Y-64382810D01*
X103646920Y-63408560D01*
X102547670Y-63408560D01*
X102388920Y-63567310D01*
X94688660Y-63567310D01*
X94688660Y-62530250D01*
X102388920Y-62530250D01*
X102388920Y-62995810D01*
X102547670Y-63154560D01*
X103646920Y-63154560D01*
X103646920Y-62180310D01*
X103488170Y-62021560D01*
X102897611Y-62021560D01*
X102664222Y-62118233D01*
X102485593Y-62296861D01*
X102388920Y-62530250D01*
X94688660Y-62530250D01*
X94688660Y-58771530D01*
X94877890Y-58771530D01*
X95113207Y-58727252D01*
X95329331Y-58588180D01*
X95431870Y-58438109D01*
X95431870Y-59074090D01*
X95476148Y-59309407D01*
X95615220Y-59525531D01*
X95827420Y-59670521D01*
X96079310Y-59721530D01*
X96268540Y-59721530D01*
X96268540Y-60449460D01*
X96322677Y-60721625D01*
X96476846Y-60952354D01*
X96588555Y-61064064D01*
X96588411Y-61229863D01*
X96736973Y-61589412D01*
X97011821Y-61864740D01*
X97371110Y-62013930D01*
X97760143Y-62014269D01*
X98119692Y-61865707D01*
X98395020Y-61590859D01*
X98544210Y-61231570D01*
X98544549Y-60842537D01*
X98395987Y-60482988D01*
X98121139Y-60207660D01*
X97761850Y-60058470D01*
X97690940Y-60058408D01*
X97690940Y-59721530D01*
X97880170Y-59721530D01*
X98115487Y-59677252D01*
X98331611Y-59538180D01*
X98476601Y-59325980D01*
X98527610Y-59074090D01*
X98527610Y-58273990D01*
X98483332Y-58038673D01*
X98344260Y-57822549D01*
X98199163Y-57723408D01*
X98331611Y-57638180D01*
X98436110Y-57485240D01*
X100116680Y-57485240D01*
X100388845Y-57431103D01*
X100619574Y-57276934D01*
X101404344Y-56492165D01*
X101561948Y-56492302D01*
X101364199Y-56619550D01*
X101219209Y-56831750D01*
X101168200Y-57083640D01*
X101168200Y-59583640D01*
X101212478Y-59818957D01*
X101351550Y-60035081D01*
X101563750Y-60180071D01*
X101815640Y-60231080D01*
X104315640Y-60231080D01*
X104550957Y-60186802D01*
X104767081Y-60047730D01*
X104814774Y-59977929D01*
X104851550Y-60035081D01*
X105063750Y-60180071D01*
X105315640Y-60231080D01*
X105854440Y-60231080D01*
X105854440Y-62009120D01*
X105523920Y-62009120D01*
X105288603Y-62053398D01*
X105072479Y-62192470D01*
X105025951Y-62260566D01*
X104883618Y-62118233D01*
X104650229Y-62021560D01*
X104059670Y-62021560D01*
X103900920Y-62180310D01*
X103900920Y-63154560D01*
X103920920Y-63154560D01*
X103920920Y-63408560D01*
X103900920Y-63408560D01*
X103900920Y-64382810D01*
X104059670Y-64541560D01*
X104650229Y-64541560D01*
X104883618Y-64444887D01*
X105024856Y-64303650D01*
X105059830Y-64358001D01*
X105272030Y-64502991D01*
X105523920Y-64554000D01*
X107023920Y-64554000D01*
X107259237Y-64509722D01*
X107475361Y-64370650D01*
X107620351Y-64158450D01*
X107653904Y-63992760D01*
X108191352Y-63992760D01*
X108544335Y-64345743D01*
X108544191Y-64511543D01*
X108692753Y-64871092D01*
X108872130Y-65050782D01*
X108804814Y-65117980D01*
X107657680Y-65117980D01*
X107629622Y-64968863D01*
X107490550Y-64752739D01*
X107278350Y-64607749D01*
X107026460Y-64556740D01*
X105526460Y-64556740D01*
X105291143Y-64601018D01*
X105075019Y-64740090D01*
X105028491Y-64808186D01*
X104886158Y-64665853D01*
X104652769Y-64569180D01*
X104062210Y-64569180D01*
X103903460Y-64727930D01*
X103903460Y-65702180D01*
X103923460Y-65702180D01*
X103923460Y-65956180D01*
X103903460Y-65956180D01*
X103903460Y-66930430D01*
X104062210Y-67089180D01*
X104652769Y-67089180D01*
X104886158Y-66992507D01*
X105027396Y-66851270D01*
X105062370Y-66905621D01*
X105274570Y-67050611D01*
X105526460Y-67101620D01*
X107026460Y-67101620D01*
X107261777Y-67057342D01*
X107477901Y-66918270D01*
X107622891Y-66706070D01*
X107656444Y-66540380D01*
X108804746Y-66540380D01*
X108921881Y-66657720D01*
X109281170Y-66806910D01*
X109670203Y-66807249D01*
X110029752Y-66658687D01*
X110305080Y-66383839D01*
X110350300Y-66274937D01*
X110350300Y-68103732D01*
X110214607Y-67775328D01*
X109939759Y-67500000D01*
X109580470Y-67350810D01*
X109191437Y-67350471D01*
X108831888Y-67499033D01*
X108556560Y-67773881D01*
X108407370Y-68133170D01*
X108407224Y-68300628D01*
X106227906Y-70479946D01*
X106073737Y-70710675D01*
X106055125Y-70804243D01*
X106019600Y-70982840D01*
X106019600Y-77413522D01*
X105885483Y-77438758D01*
X105669359Y-77577830D01*
X105524369Y-77790030D01*
X105473360Y-78041920D01*
X105473360Y-78951920D01*
X105517638Y-79187237D01*
X105656710Y-79403361D01*
X105868910Y-79548351D01*
X106120800Y-79599360D01*
X107340800Y-79599360D01*
X107576117Y-79555082D01*
X107792241Y-79416010D01*
X107937231Y-79203810D01*
X107988240Y-78951920D01*
X107988240Y-78041920D01*
X107943962Y-77806603D01*
X107804890Y-77590479D01*
X107592690Y-77445489D01*
X107442000Y-77414974D01*
X107442000Y-72959583D01*
X117446891Y-72959583D01*
X117595453Y-73319132D01*
X117870301Y-73594460D01*
X118229590Y-73743650D01*
X118397048Y-73743796D01*
X123296706Y-78643454D01*
X123527435Y-78797623D01*
X123799600Y-78851760D01*
X133114000Y-78851760D01*
X133142058Y-79000877D01*
X133281130Y-79217001D01*
X133493330Y-79361991D01*
X133745220Y-79413000D01*
X135245220Y-79413000D01*
X135480537Y-79368722D01*
X135696661Y-79229650D01*
X135743189Y-79161554D01*
X135885522Y-79303887D01*
X136118911Y-79400560D01*
X136709470Y-79400560D01*
X136868220Y-79241810D01*
X136868220Y-78267560D01*
X137122220Y-78267560D01*
X137122220Y-79241810D01*
X137280970Y-79400560D01*
X137871529Y-79400560D01*
X138104918Y-79303887D01*
X138283547Y-79125259D01*
X138380220Y-78891870D01*
X138380220Y-78426310D01*
X138221470Y-78267560D01*
X137122220Y-78267560D01*
X136868220Y-78267560D01*
X136848220Y-78267560D01*
X136848220Y-78013560D01*
X136868220Y-78013560D01*
X136868220Y-77039310D01*
X137122220Y-77039310D01*
X137122220Y-78013560D01*
X138221470Y-78013560D01*
X138349300Y-77885730D01*
X148629152Y-77885730D01*
X148655342Y-78481335D01*
X148832884Y-78909959D01*
X149085595Y-78991900D01*
X149959795Y-78117700D01*
X150319005Y-78117700D01*
X151193205Y-78991900D01*
X151445916Y-78909959D01*
X151649648Y-78349670D01*
X151623458Y-77754065D01*
X151445916Y-77325441D01*
X151193205Y-77243500D01*
X150319005Y-78117700D01*
X149959795Y-78117700D01*
X149085595Y-77243500D01*
X148832884Y-77325441D01*
X148629152Y-77885730D01*
X138349300Y-77885730D01*
X138380220Y-77854810D01*
X138380220Y-77389250D01*
X138283547Y-77155861D01*
X138104918Y-76977233D01*
X137871529Y-76880560D01*
X137280970Y-76880560D01*
X137122220Y-77039310D01*
X136868220Y-77039310D01*
X136709470Y-76880560D01*
X136118911Y-76880560D01*
X135885522Y-76977233D01*
X135744284Y-77118470D01*
X135709310Y-77064119D01*
X135497110Y-76919129D01*
X135245220Y-76868120D01*
X133745220Y-76868120D01*
X133509903Y-76912398D01*
X133293779Y-77051470D01*
X133148789Y-77263670D01*
X133115236Y-77429360D01*
X124094188Y-77429360D01*
X122044464Y-75379636D01*
X122174623Y-75379749D01*
X122534172Y-75231187D01*
X122647597Y-75117960D01*
X133114000Y-75117960D01*
X133142058Y-75267077D01*
X133281130Y-75483201D01*
X133493330Y-75628191D01*
X133745220Y-75679200D01*
X135245220Y-75679200D01*
X135480537Y-75634922D01*
X135696661Y-75495850D01*
X135743189Y-75427754D01*
X135885522Y-75570087D01*
X136118911Y-75666760D01*
X136709470Y-75666760D01*
X136868220Y-75508010D01*
X136868220Y-74533760D01*
X137122220Y-74533760D01*
X137122220Y-75508010D01*
X137280970Y-75666760D01*
X137871529Y-75666760D01*
X138104918Y-75570087D01*
X138283547Y-75391459D01*
X138380220Y-75158070D01*
X138380220Y-74692510D01*
X138221470Y-74533760D01*
X137122220Y-74533760D01*
X136868220Y-74533760D01*
X136848220Y-74533760D01*
X136848220Y-74279760D01*
X136868220Y-74279760D01*
X136868220Y-73305510D01*
X137122220Y-73305510D01*
X137122220Y-74279760D01*
X138221470Y-74279760D01*
X138380220Y-74121010D01*
X138380220Y-73655450D01*
X138283547Y-73422061D01*
X138104918Y-73243433D01*
X137871529Y-73146760D01*
X137280970Y-73146760D01*
X137122220Y-73305510D01*
X136868220Y-73305510D01*
X136709470Y-73146760D01*
X136118911Y-73146760D01*
X135885522Y-73243433D01*
X135744284Y-73384670D01*
X135709310Y-73330319D01*
X135497110Y-73185329D01*
X135245220Y-73134320D01*
X133745220Y-73134320D01*
X133509903Y-73178598D01*
X133293779Y-73317670D01*
X133148789Y-73529870D01*
X133115236Y-73695560D01*
X122657826Y-73695560D01*
X122535619Y-73573140D01*
X122176330Y-73423950D01*
X121787297Y-73423611D01*
X121427748Y-73572173D01*
X121152420Y-73847021D01*
X121003230Y-74206310D01*
X121003115Y-74338287D01*
X119402885Y-72738057D01*
X119403029Y-72572257D01*
X119254467Y-72212708D01*
X118979619Y-71937380D01*
X118620330Y-71788190D01*
X118231297Y-71787851D01*
X117871748Y-71936413D01*
X117596420Y-72211261D01*
X117447230Y-72570550D01*
X117446891Y-72959583D01*
X107442000Y-72959583D01*
X107442000Y-71277428D01*
X109412963Y-69306465D01*
X109578763Y-69306609D01*
X109938312Y-69158047D01*
X110213640Y-68883199D01*
X110350300Y-68554086D01*
X110350300Y-68781997D01*
X110215180Y-68916881D01*
X110065990Y-69276170D01*
X110065651Y-69665203D01*
X110214213Y-70024752D01*
X110489061Y-70300080D01*
X110848350Y-70449270D01*
X111237383Y-70449609D01*
X111596932Y-70301047D01*
X111872260Y-70026199D01*
X112021450Y-69666910D01*
X112021789Y-69277877D01*
X111873227Y-68918328D01*
X111772700Y-68817625D01*
X111772700Y-63822528D01*
X112014025Y-64063854D01*
X112137726Y-64146508D01*
X112244756Y-64218023D01*
X112516920Y-64272160D01*
X116133932Y-64272160D01*
X120599226Y-68737455D01*
X120829956Y-68891623D01*
X121102120Y-68945760D01*
X133189803Y-68945760D01*
X133027079Y-69050470D01*
X132882089Y-69262670D01*
X132848536Y-69428360D01*
X124166608Y-69428360D01*
X124057079Y-69318640D01*
X123697790Y-69169450D01*
X123308757Y-69169111D01*
X122949208Y-69317673D01*
X122673880Y-69592521D01*
X122524690Y-69951810D01*
X122524351Y-70340843D01*
X122672913Y-70700392D01*
X122947761Y-70975720D01*
X123307050Y-71124910D01*
X123696083Y-71125249D01*
X124055632Y-70976687D01*
X124181779Y-70850760D01*
X132847300Y-70850760D01*
X132875358Y-70999877D01*
X133014430Y-71216001D01*
X133226630Y-71360991D01*
X133478520Y-71412000D01*
X134978520Y-71412000D01*
X135213837Y-71367722D01*
X135429961Y-71228650D01*
X135476489Y-71160554D01*
X135618822Y-71302887D01*
X135852211Y-71399560D01*
X136442770Y-71399560D01*
X136601520Y-71240810D01*
X136601520Y-70266560D01*
X136855520Y-70266560D01*
X136855520Y-71240810D01*
X137014270Y-71399560D01*
X137604829Y-71399560D01*
X137838218Y-71302887D01*
X138016847Y-71124259D01*
X138113520Y-70890870D01*
X138113520Y-70425310D01*
X137954770Y-70266560D01*
X136855520Y-70266560D01*
X136601520Y-70266560D01*
X136581520Y-70266560D01*
X136581520Y-70012560D01*
X136601520Y-70012560D01*
X136601520Y-69992560D01*
X136855520Y-69992560D01*
X136855520Y-70012560D01*
X137954770Y-70012560D01*
X138113520Y-69853810D01*
X138113520Y-69388250D01*
X138016847Y-69154861D01*
X137838218Y-68976233D01*
X137764650Y-68945760D01*
X141625320Y-68945760D01*
X141897485Y-68891623D01*
X142128214Y-68737454D01*
X146293814Y-64571854D01*
X146447983Y-64341125D01*
X146502120Y-64068960D01*
X146502120Y-60981554D01*
X146619460Y-60864419D01*
X146768650Y-60505130D01*
X146768989Y-60116097D01*
X146624415Y-59766200D01*
X148754048Y-59766200D01*
X148641061Y-60038302D01*
X148640541Y-60634482D01*
X148868208Y-61185480D01*
X149289403Y-61607410D01*
X149290331Y-61607795D01*
X148869690Y-62027703D01*
X148641061Y-62578302D01*
X148640541Y-63174482D01*
X148868208Y-63725480D01*
X149289403Y-64147410D01*
X149290331Y-64147795D01*
X148869690Y-64567703D01*
X148641061Y-65118302D01*
X148640541Y-65714482D01*
X148868208Y-66265480D01*
X149289403Y-66687410D01*
X149290331Y-66687795D01*
X148869690Y-67107703D01*
X148641061Y-67658302D01*
X148640541Y-68254482D01*
X148868208Y-68805480D01*
X149289403Y-69227410D01*
X149290331Y-69227795D01*
X148869690Y-69647703D01*
X148641061Y-70198302D01*
X148640541Y-70794482D01*
X148868208Y-71345480D01*
X149289403Y-71767410D01*
X149290331Y-71767795D01*
X148869690Y-72187703D01*
X148641061Y-72738302D01*
X148640541Y-73334482D01*
X148868208Y-73885480D01*
X149289403Y-74307410D01*
X149290331Y-74307795D01*
X148869690Y-74727703D01*
X148641061Y-75278302D01*
X148640541Y-75874482D01*
X148868208Y-76425480D01*
X149289403Y-76847410D01*
X149329937Y-76864241D01*
X149265200Y-77063895D01*
X150139400Y-77938095D01*
X151013600Y-77063895D01*
X150949001Y-76864667D01*
X150987180Y-76848892D01*
X151409110Y-76427697D01*
X151637739Y-75877098D01*
X151638259Y-75280918D01*
X151410592Y-74729920D01*
X150989397Y-74307990D01*
X150988469Y-74307605D01*
X151409110Y-73887697D01*
X151637739Y-73337098D01*
X151638259Y-72740918D01*
X151410592Y-72189920D01*
X150989397Y-71767990D01*
X150988469Y-71767605D01*
X151409110Y-71347697D01*
X151637739Y-70797098D01*
X151638259Y-70200918D01*
X151410592Y-69649920D01*
X150989397Y-69227990D01*
X150988469Y-69227605D01*
X151409110Y-68807697D01*
X151637739Y-68257098D01*
X151638259Y-67660918D01*
X151410592Y-67109920D01*
X150989397Y-66687990D01*
X150988469Y-66687605D01*
X151409110Y-66267697D01*
X151637739Y-65717098D01*
X151638259Y-65120918D01*
X151410592Y-64569920D01*
X150989397Y-64147990D01*
X150988469Y-64147605D01*
X151409110Y-63727697D01*
X151637739Y-63177098D01*
X151638259Y-62580918D01*
X151410592Y-62029920D01*
X150989397Y-61607990D01*
X150988469Y-61607605D01*
X151409110Y-61187697D01*
X151637739Y-60637098D01*
X151638259Y-60040918D01*
X151524748Y-59766200D01*
X156502100Y-59766200D01*
X156774265Y-59712063D01*
X157004994Y-59557894D01*
X163880831Y-52682057D01*
X163880541Y-53014482D01*
X164108208Y-53565480D01*
X164529403Y-53987410D01*
X164530331Y-53987795D01*
X164109690Y-54407703D01*
X163881061Y-54958302D01*
X163880541Y-55554482D01*
X164108208Y-56105480D01*
X164529403Y-56527410D01*
X164530331Y-56527795D01*
X164109690Y-56947703D01*
X163881061Y-57498302D01*
X163880541Y-58094482D01*
X164108208Y-58645480D01*
X164529403Y-59067410D01*
X164530331Y-59067795D01*
X164109690Y-59487703D01*
X163881061Y-60038302D01*
X163880541Y-60634482D01*
X164108208Y-61185480D01*
X164529403Y-61607410D01*
X164530331Y-61607795D01*
X164109690Y-62027703D01*
X163881061Y-62578302D01*
X163880541Y-63174482D01*
X164108208Y-63725480D01*
X164529403Y-64147410D01*
X164530331Y-64147795D01*
X164109690Y-64567703D01*
X163881061Y-65118302D01*
X163880541Y-65714482D01*
X164108208Y-66265480D01*
X164529403Y-66687410D01*
X164530331Y-66687795D01*
X164109690Y-67107703D01*
X163881061Y-67658302D01*
X163880541Y-68254482D01*
X164108208Y-68805480D01*
X164529403Y-69227410D01*
X164530331Y-69227795D01*
X164109690Y-69647703D01*
X163881061Y-70198302D01*
X163880541Y-70794482D01*
X164108208Y-71345480D01*
X164529403Y-71767410D01*
X164530331Y-71767795D01*
X164109690Y-72187703D01*
X163881061Y-72738302D01*
X163880541Y-73334482D01*
X164108208Y-73885480D01*
X164529403Y-74307410D01*
X164530331Y-74307795D01*
X164109690Y-74727703D01*
X163881061Y-75278302D01*
X163880541Y-75874482D01*
X164108208Y-76425480D01*
X164529403Y-76847410D01*
X164530331Y-76847795D01*
X164109690Y-77267703D01*
X163881061Y-77818302D01*
X163880541Y-78414482D01*
X164108208Y-78965480D01*
X164529403Y-79387410D01*
X164569937Y-79404241D01*
X164505200Y-79603895D01*
X165379400Y-80478095D01*
X166253600Y-79603895D01*
X166189001Y-79404667D01*
X166227180Y-79388892D01*
X166649110Y-78967697D01*
X166877739Y-78417098D01*
X166878259Y-77820918D01*
X166650592Y-77269920D01*
X166229397Y-76847990D01*
X166228469Y-76847605D01*
X166649110Y-76427697D01*
X166877739Y-75877098D01*
X166878259Y-75280918D01*
X166650592Y-74729920D01*
X166229397Y-74307990D01*
X166228469Y-74307605D01*
X166649110Y-73887697D01*
X166877739Y-73337098D01*
X166878259Y-72740918D01*
X166650592Y-72189920D01*
X166229397Y-71767990D01*
X166228469Y-71767605D01*
X166649110Y-71347697D01*
X166877739Y-70797098D01*
X166878259Y-70200918D01*
X166650592Y-69649920D01*
X166229397Y-69227990D01*
X166228469Y-69227605D01*
X166649110Y-68807697D01*
X166877739Y-68257098D01*
X166878259Y-67660918D01*
X166650592Y-67109920D01*
X166229397Y-66687990D01*
X166228469Y-66687605D01*
X166649110Y-66267697D01*
X166877739Y-65717098D01*
X166878259Y-65120918D01*
X166650592Y-64569920D01*
X166229397Y-64147990D01*
X166228469Y-64147605D01*
X166649110Y-63727697D01*
X166877739Y-63177098D01*
X166878259Y-62580918D01*
X166650592Y-62029920D01*
X166229397Y-61607990D01*
X166228469Y-61607605D01*
X166649110Y-61187697D01*
X166877739Y-60637098D01*
X166878259Y-60040918D01*
X166650592Y-59489920D01*
X166229397Y-59067990D01*
X166228469Y-59067605D01*
X166649110Y-58647697D01*
X166877739Y-58097098D01*
X166878259Y-57500918D01*
X166650592Y-56949920D01*
X166229397Y-56527990D01*
X166228469Y-56527605D01*
X166649110Y-56107697D01*
X166877739Y-55557098D01*
X166878259Y-54960918D01*
X166650592Y-54409920D01*
X166229397Y-53987990D01*
X166228469Y-53987605D01*
X166649110Y-53567697D01*
X166877739Y-53017098D01*
X166878259Y-52420918D01*
X166650592Y-51869920D01*
X166229397Y-51447990D01*
X166228469Y-51447605D01*
X166649110Y-51027697D01*
X166877739Y-50477098D01*
X166878259Y-49880918D01*
X166650592Y-49329920D01*
X166229397Y-48907990D01*
X166228469Y-48907605D01*
X166649110Y-48487697D01*
X166877739Y-47937098D01*
X166878259Y-47340918D01*
X166650592Y-46789920D01*
X166229397Y-46367990D01*
X165678798Y-46139361D01*
X165082618Y-46138841D01*
X164531620Y-46366508D01*
X164109690Y-46787703D01*
X164109305Y-46788631D01*
X163689397Y-46367990D01*
X163138798Y-46139361D01*
X162542618Y-46138841D01*
X161991620Y-46366508D01*
X161569690Y-46787703D01*
X161569305Y-46788631D01*
X161149397Y-46367990D01*
X160598798Y-46139361D01*
X160002618Y-46138841D01*
X159451620Y-46366508D01*
X159029690Y-46787703D01*
X159012859Y-46828237D01*
X158813205Y-46763500D01*
X157939005Y-47637700D01*
X158813205Y-48511900D01*
X159012433Y-48447301D01*
X159028208Y-48485480D01*
X159449403Y-48907410D01*
X159588200Y-48965044D01*
X159588200Y-51551891D01*
X155618256Y-55521835D01*
X155452457Y-55521691D01*
X155092908Y-55670253D01*
X154817580Y-55945101D01*
X154668390Y-56304390D01*
X154668051Y-56693423D01*
X154816613Y-57052972D01*
X155091461Y-57328300D01*
X155450750Y-57477490D01*
X155839783Y-57477829D01*
X156199332Y-57329267D01*
X156474660Y-57054419D01*
X156623850Y-56695130D01*
X156623996Y-56527672D01*
X160802295Y-52349374D01*
X160956463Y-52118644D01*
X161010600Y-51846480D01*
X161010600Y-48965326D01*
X161147180Y-48908892D01*
X161569110Y-48487697D01*
X161569495Y-48486769D01*
X161989403Y-48907410D01*
X162540002Y-49136039D01*
X163136182Y-49136559D01*
X163687180Y-48908892D01*
X164109110Y-48487697D01*
X164109495Y-48486769D01*
X164529403Y-48907410D01*
X164530331Y-48907795D01*
X164109690Y-49327703D01*
X163881061Y-49878302D01*
X163880541Y-50474482D01*
X163937932Y-50613380D01*
X156207512Y-58343800D01*
X151535299Y-58343800D01*
X151637739Y-58097098D01*
X151638259Y-57500918D01*
X151410592Y-56949920D01*
X150989397Y-56527990D01*
X150988469Y-56527605D01*
X151409110Y-56107697D01*
X151637739Y-55557098D01*
X151638259Y-54960918D01*
X151410592Y-54409920D01*
X150989397Y-53987990D01*
X150988469Y-53987605D01*
X151409110Y-53567697D01*
X151637739Y-53017098D01*
X151638259Y-52420918D01*
X151410592Y-51869920D01*
X150989397Y-51447990D01*
X150988469Y-51447605D01*
X151409110Y-51027697D01*
X151637739Y-50477098D01*
X151638259Y-49880918D01*
X151410592Y-49329920D01*
X150989397Y-48907990D01*
X150988469Y-48907605D01*
X151409110Y-48487697D01*
X151409495Y-48486769D01*
X151829403Y-48907410D01*
X152380002Y-49136039D01*
X152976182Y-49136559D01*
X153527180Y-48908892D01*
X153949110Y-48487697D01*
X153949495Y-48486769D01*
X154369403Y-48907410D01*
X154920002Y-49136039D01*
X155516182Y-49136559D01*
X156067180Y-48908892D01*
X156284946Y-48691505D01*
X156885200Y-48691505D01*
X156967141Y-48944216D01*
X157527430Y-49147948D01*
X158123035Y-49121758D01*
X158551659Y-48944216D01*
X158633600Y-48691505D01*
X157759400Y-47817305D01*
X156885200Y-48691505D01*
X156284946Y-48691505D01*
X156489110Y-48487697D01*
X156505941Y-48447163D01*
X156705595Y-48511900D01*
X157579795Y-47637700D01*
X156705595Y-46763500D01*
X156506367Y-46828099D01*
X156490592Y-46789920D01*
X156284926Y-46583895D01*
X156885200Y-46583895D01*
X157759400Y-47458095D01*
X158633600Y-46583895D01*
X158551659Y-46331184D01*
X157991370Y-46127452D01*
X157395765Y-46153642D01*
X156967141Y-46331184D01*
X156885200Y-46583895D01*
X156284926Y-46583895D01*
X156069397Y-46367990D01*
X155518798Y-46139361D01*
X154922618Y-46138841D01*
X154371620Y-46366508D01*
X153949690Y-46787703D01*
X153949305Y-46788631D01*
X153529397Y-46367990D01*
X152978798Y-46139361D01*
X152382618Y-46138841D01*
X151831620Y-46366508D01*
X151409690Y-46787703D01*
X151409305Y-46788631D01*
X150989397Y-46367990D01*
X150438798Y-46139361D01*
X149842618Y-46138841D01*
X149291620Y-46366508D01*
X148869690Y-46787703D01*
X148812056Y-46926500D01*
X122880120Y-46926500D01*
X122607956Y-46980637D01*
X122607954Y-46980638D01*
X122607955Y-46980638D01*
X122377225Y-47134806D01*
X116987346Y-52524686D01*
X116833177Y-52755415D01*
X116833177Y-52755416D01*
X116779040Y-53027580D01*
X116779040Y-62045886D01*
X116661700Y-62163021D01*
X116512510Y-62522310D01*
X116512210Y-62866407D01*
X116428520Y-62849760D01*
X112811509Y-62849760D01*
X112770920Y-62809172D01*
X112770920Y-61997554D01*
X112888260Y-61880419D01*
X113037450Y-61521130D01*
X113037789Y-61132097D01*
X112889227Y-60772548D01*
X112614379Y-60497220D01*
X112255090Y-60348030D01*
X111866057Y-60347691D01*
X111772700Y-60386265D01*
X111772700Y-60218368D01*
X111986270Y-60307050D01*
X112375303Y-60307389D01*
X112734852Y-60158827D01*
X113010180Y-59883979D01*
X113159370Y-59524690D01*
X113159709Y-59135657D01*
X113011147Y-58776108D01*
X112908080Y-58672861D01*
X112908080Y-53355240D01*
X112853943Y-53083076D01*
X112853943Y-53083075D01*
X112699774Y-52852346D01*
X112227334Y-52379906D01*
X111996605Y-52225737D01*
X111724440Y-52171600D01*
X109702600Y-52171600D01*
X109430436Y-52225737D01*
X109416633Y-52234960D01*
X109199705Y-52379906D01*
X108800952Y-52778660D01*
X107340520Y-52778660D01*
X107315762Y-52647083D01*
X107176690Y-52430959D01*
X106964490Y-52285969D01*
X106712600Y-52234960D01*
X105802600Y-52234960D01*
X105567283Y-52279238D01*
X105351159Y-52418310D01*
X105206169Y-52630510D01*
X105155160Y-52882400D01*
X105155160Y-54102400D01*
X105199438Y-54337717D01*
X105338510Y-54553841D01*
X105550710Y-54698831D01*
X105802600Y-54749840D01*
X106712600Y-54749840D01*
X106947917Y-54705562D01*
X107164041Y-54566490D01*
X107309031Y-54354290D01*
X107340061Y-54201060D01*
X108491103Y-54201060D01*
X108440390Y-54323190D01*
X108440051Y-54712223D01*
X108588613Y-55071772D01*
X108706920Y-55190286D01*
X108706920Y-61669966D01*
X108589580Y-61787101D01*
X108440390Y-62146390D01*
X108440051Y-62535423D01*
X108454487Y-62570360D01*
X107655140Y-62570360D01*
X107627082Y-62421243D01*
X107488010Y-62205119D01*
X107276840Y-62060833D01*
X107276840Y-60231080D01*
X107815640Y-60231080D01*
X108050957Y-60186802D01*
X108267081Y-60047730D01*
X108412071Y-59835530D01*
X108463080Y-59583640D01*
X108463080Y-57083640D01*
X108418802Y-56848323D01*
X108279730Y-56632199D01*
X108067530Y-56487209D01*
X107815640Y-56436200D01*
X105315640Y-56436200D01*
X105080323Y-56480478D01*
X104864199Y-56619550D01*
X104816506Y-56689351D01*
X104779730Y-56632199D01*
X104567530Y-56487209D01*
X104315640Y-56436200D01*
X103698800Y-56436200D01*
X103698800Y-54692124D01*
X103894041Y-54566490D01*
X104039031Y-54354290D01*
X104090040Y-54102400D01*
X104090040Y-52882400D01*
X104045762Y-52647083D01*
X103906690Y-52430959D01*
X103694490Y-52285969D01*
X103442600Y-52234960D01*
X102532600Y-52234960D01*
X102297283Y-52279238D01*
X102081159Y-52418310D01*
X101936169Y-52630510D01*
X101905654Y-52781200D01*
X94965520Y-52781200D01*
X94693355Y-52835337D01*
X94462626Y-52989506D01*
X93474566Y-53977566D01*
X93320397Y-54208295D01*
X93296574Y-54328060D01*
X93266260Y-54480460D01*
X93266260Y-56676550D01*
X93077030Y-56676550D01*
X92841713Y-56720828D01*
X92625589Y-56859900D01*
X92480599Y-57072100D01*
X92429590Y-57323990D01*
X90562151Y-57323990D01*
X90546005Y-46700147D01*
X93059315Y-44383960D01*
X93060432Y-44383960D01*
X166318026Y-44434728D01*
X166318026Y-44434728D01*
G37*
X166318026Y-44434728D02*
X168676237Y-46449033D01*
X168625595Y-82101079D01*
X166109039Y-84617635D01*
X112973649Y-84693760D01*
X95272126Y-84693760D01*
X90596640Y-80018274D01*
X90562151Y-57323990D01*
X92429590Y-57323990D01*
X92429590Y-58124090D01*
X92473868Y-58359407D01*
X92612940Y-58575531D01*
X92825140Y-58720521D01*
X93077030Y-58771530D01*
X93266260Y-58771530D01*
X93266260Y-75755180D01*
X93320397Y-76027345D01*
X93474566Y-76258074D01*
X96225460Y-79008968D01*
X96225460Y-80025620D01*
X96269738Y-80260937D01*
X96408810Y-80477061D01*
X96478611Y-80524754D01*
X96421459Y-80561530D01*
X96276469Y-80773730D01*
X96225460Y-81025620D01*
X96225460Y-82525620D01*
X96269738Y-82760937D01*
X96408810Y-82977061D01*
X96621010Y-83122051D01*
X96872900Y-83173060D01*
X98122900Y-83173060D01*
X98358217Y-83128782D01*
X98574341Y-82989710D01*
X98719331Y-82777510D01*
X98770340Y-82525620D01*
X98770340Y-82478120D01*
X100893036Y-82478120D01*
X101018670Y-82673361D01*
X101230870Y-82818351D01*
X101482760Y-82869360D01*
X102702760Y-82869360D01*
X102938077Y-82825082D01*
X103154201Y-82686010D01*
X103296246Y-82478120D01*
X105531076Y-82478120D01*
X105656710Y-82673361D01*
X105868910Y-82818351D01*
X106120800Y-82869360D01*
X107340800Y-82869360D01*
X107576117Y-82825082D01*
X107792241Y-82686010D01*
X107937231Y-82473810D01*
X107988240Y-82221920D01*
X107988240Y-81311920D01*
X107943962Y-81076603D01*
X107865380Y-80954482D01*
X148640541Y-80954482D01*
X148868208Y-81505480D01*
X149289403Y-81927410D01*
X149840002Y-82156039D01*
X150436182Y-82156559D01*
X150987180Y-81928892D01*
X151204946Y-81711505D01*
X164505200Y-81711505D01*
X164587141Y-81964216D01*
X165147430Y-82167948D01*
X165743035Y-82141758D01*
X166171659Y-81964216D01*
X166253600Y-81711505D01*
X165379400Y-80837305D01*
X164505200Y-81711505D01*
X151204946Y-81711505D01*
X151409110Y-81507697D01*
X151637739Y-80957098D01*
X151638202Y-80425730D01*
X163869152Y-80425730D01*
X163895342Y-81021335D01*
X164072884Y-81449959D01*
X164325595Y-81531900D01*
X165199795Y-80657700D01*
X165559005Y-80657700D01*
X166433205Y-81531900D01*
X166685916Y-81449959D01*
X166889648Y-80889670D01*
X166863458Y-80294065D01*
X166685916Y-79865441D01*
X166433205Y-79783500D01*
X165559005Y-80657700D01*
X165199795Y-80657700D01*
X164325595Y-79783500D01*
X164072884Y-79865441D01*
X163869152Y-80425730D01*
X151638202Y-80425730D01*
X151638259Y-80360918D01*
X151410592Y-79809920D01*
X150989397Y-79387990D01*
X150948863Y-79371159D01*
X151013600Y-79171505D01*
X150139400Y-78297305D01*
X149265200Y-79171505D01*
X149329799Y-79370733D01*
X149291620Y-79386508D01*
X148869690Y-79807703D01*
X148641061Y-80358302D01*
X148640541Y-80954482D01*
X107865380Y-80954482D01*
X107804890Y-80860479D01*
X107592690Y-80715489D01*
X107340800Y-80664480D01*
X106120800Y-80664480D01*
X105885483Y-80708758D01*
X105669359Y-80847830D01*
X105527314Y-81055720D01*
X103292484Y-81055720D01*
X103166850Y-80860479D01*
X102954650Y-80715489D01*
X102702760Y-80664480D01*
X101482760Y-80664480D01*
X101247443Y-80708758D01*
X101031319Y-80847830D01*
X100889274Y-81055720D01*
X98770340Y-81055720D01*
X98770340Y-81025620D01*
X98726062Y-80790303D01*
X98586990Y-80574179D01*
X98517189Y-80526486D01*
X98574341Y-80489710D01*
X98719331Y-80277510D01*
X98770340Y-80025620D01*
X98770340Y-78782670D01*
X100847760Y-78782670D01*
X100847760Y-79078229D01*
X100944433Y-79311618D01*
X101123061Y-79490247D01*
X101356450Y-79586920D01*
X101807010Y-79586920D01*
X101965760Y-79428170D01*
X101965760Y-78623920D01*
X102219760Y-78623920D01*
X102219760Y-79428170D01*
X102378510Y-79586920D01*
X102829070Y-79586920D01*
X103062459Y-79490247D01*
X103241087Y-79311618D01*
X103337760Y-79078229D01*
X103337760Y-78782670D01*
X103179010Y-78623920D01*
X102219760Y-78623920D01*
X101965760Y-78623920D01*
X101006510Y-78623920D01*
X100847760Y-78782670D01*
X98770340Y-78782670D01*
X98770340Y-78525620D01*
X98726062Y-78290303D01*
X98586990Y-78074179D01*
X98374790Y-77929189D01*
X98307740Y-77915611D01*
X100847760Y-77915611D01*
X100847760Y-78211170D01*
X101006510Y-78369920D01*
X101965760Y-78369920D01*
X101965760Y-77565670D01*
X102219760Y-77565670D01*
X102219760Y-78369920D01*
X103179010Y-78369920D01*
X103337760Y-78211170D01*
X103337760Y-77915611D01*
X103241087Y-77682222D01*
X103062459Y-77503593D01*
X102829070Y-77406920D01*
X102378510Y-77406920D01*
X102219760Y-77565670D01*
X101965760Y-77565670D01*
X101807010Y-77406920D01*
X101356450Y-77406920D01*
X101123061Y-77503593D01*
X100944433Y-77682222D01*
X100847760Y-77915611D01*
X98307740Y-77915611D01*
X98122900Y-77878180D01*
X97106248Y-77878180D01*
X94688660Y-75460592D01*
X94688660Y-66114930D01*
X102391460Y-66114930D01*
X102391460Y-66580490D01*
X102488133Y-66813879D01*
X102666762Y-66992507D01*
X102900151Y-67089180D01*
X103490710Y-67089180D01*
X103649460Y-66930430D01*
X103649460Y-65956180D01*
X102550210Y-65956180D01*
X102391460Y-66114930D01*
X94688660Y-66114930D01*
X94688660Y-65077870D01*
X102391460Y-65077870D01*
X102391460Y-65543430D01*
X102550210Y-65702180D01*
X103649460Y-65702180D01*
X103649460Y-64727930D01*
X103490710Y-64569180D01*
X102900151Y-64569180D01*
X102666762Y-64665853D01*
X102488133Y-64844481D01*
X102391460Y-65077870D01*
X94688660Y-65077870D01*
X94688660Y-63567310D01*
X102388920Y-63567310D01*
X102388920Y-64032870D01*
X102485593Y-64266259D01*
X102664222Y-64444887D01*
X102897611Y-64541560D01*
X103488170Y-64541560D01*
X103646920Y-64382810D01*
X103646920Y-63408560D01*
X102547670Y-63408560D01*
X102388920Y-63567310D01*
X94688660Y-63567310D01*
X94688660Y-62530250D01*
X102388920Y-62530250D01*
X102388920Y-62995810D01*
X102547670Y-63154560D01*
X103646920Y-63154560D01*
X103646920Y-62180310D01*
X103488170Y-62021560D01*
X102897611Y-62021560D01*
X102664222Y-62118233D01*
X102485593Y-62296861D01*
X102388920Y-62530250D01*
X94688660Y-62530250D01*
X94688660Y-58771530D01*
X94877890Y-58771530D01*
X95113207Y-58727252D01*
X95329331Y-58588180D01*
X95431870Y-58438109D01*
X95431870Y-59074090D01*
X95476148Y-59309407D01*
X95615220Y-59525531D01*
X95827420Y-59670521D01*
X96079310Y-59721530D01*
X96268540Y-59721530D01*
X96268540Y-60449460D01*
X96322677Y-60721625D01*
X96476846Y-60952354D01*
X96588555Y-61064064D01*
X96588411Y-61229863D01*
X96736973Y-61589412D01*
X97011821Y-61864740D01*
X97371110Y-62013930D01*
X97760143Y-62014269D01*
X98119692Y-61865707D01*
X98395020Y-61590859D01*
X98544210Y-61231570D01*
X98544549Y-60842537D01*
X98395987Y-60482988D01*
X98121139Y-60207660D01*
X97761850Y-60058470D01*
X97690940Y-60058408D01*
X97690940Y-59721530D01*
X97880170Y-59721530D01*
X98115487Y-59677252D01*
X98331611Y-59538180D01*
X98476601Y-59325980D01*
X98527610Y-59074090D01*
X98527610Y-58273990D01*
X98483332Y-58038673D01*
X98344260Y-57822549D01*
X98199163Y-57723408D01*
X98331611Y-57638180D01*
X98436110Y-57485240D01*
X100116680Y-57485240D01*
X100388845Y-57431103D01*
X100619574Y-57276934D01*
X101404344Y-56492165D01*
X101561948Y-56492302D01*
X101364199Y-56619550D01*
X101219209Y-56831750D01*
X101168200Y-57083640D01*
X101168200Y-59583640D01*
X101212478Y-59818957D01*
X101351550Y-60035081D01*
X101563750Y-60180071D01*
X101815640Y-60231080D01*
X104315640Y-60231080D01*
X104550957Y-60186802D01*
X104767081Y-60047730D01*
X104814774Y-59977929D01*
X104851550Y-60035081D01*
X105063750Y-60180071D01*
X105315640Y-60231080D01*
X105854440Y-60231080D01*
X105854440Y-62009120D01*
X105523920Y-62009120D01*
X105288603Y-62053398D01*
X105072479Y-62192470D01*
X105025951Y-62260566D01*
X104883618Y-62118233D01*
X104650229Y-62021560D01*
X104059670Y-62021560D01*
X103900920Y-62180310D01*
X103900920Y-63154560D01*
X103920920Y-63154560D01*
X103920920Y-63408560D01*
X103900920Y-63408560D01*
X103900920Y-64382810D01*
X104059670Y-64541560D01*
X104650229Y-64541560D01*
X104883618Y-64444887D01*
X105024856Y-64303650D01*
X105059830Y-64358001D01*
X105272030Y-64502991D01*
X105523920Y-64554000D01*
X107023920Y-64554000D01*
X107259237Y-64509722D01*
X107475361Y-64370650D01*
X107620351Y-64158450D01*
X107653904Y-63992760D01*
X108191352Y-63992760D01*
X108544335Y-64345743D01*
X108544191Y-64511543D01*
X108692753Y-64871092D01*
X108872130Y-65050782D01*
X108804814Y-65117980D01*
X107657680Y-65117980D01*
X107629622Y-64968863D01*
X107490550Y-64752739D01*
X107278350Y-64607749D01*
X107026460Y-64556740D01*
X105526460Y-64556740D01*
X105291143Y-64601018D01*
X105075019Y-64740090D01*
X105028491Y-64808186D01*
X104886158Y-64665853D01*
X104652769Y-64569180D01*
X104062210Y-64569180D01*
X103903460Y-64727930D01*
X103903460Y-65702180D01*
X103923460Y-65702180D01*
X103923460Y-65956180D01*
X103903460Y-65956180D01*
X103903460Y-66930430D01*
X104062210Y-67089180D01*
X104652769Y-67089180D01*
X104886158Y-66992507D01*
X105027396Y-66851270D01*
X105062370Y-66905621D01*
X105274570Y-67050611D01*
X105526460Y-67101620D01*
X107026460Y-67101620D01*
X107261777Y-67057342D01*
X107477901Y-66918270D01*
X107622891Y-66706070D01*
X107656444Y-66540380D01*
X108804746Y-66540380D01*
X108921881Y-66657720D01*
X109281170Y-66806910D01*
X109670203Y-66807249D01*
X110029752Y-66658687D01*
X110305080Y-66383839D01*
X110350300Y-66274937D01*
X110350300Y-68103732D01*
X110214607Y-67775328D01*
X109939759Y-67500000D01*
X109580470Y-67350810D01*
X109191437Y-67350471D01*
X108831888Y-67499033D01*
X108556560Y-67773881D01*
X108407370Y-68133170D01*
X108407224Y-68300628D01*
X106227906Y-70479946D01*
X106073737Y-70710675D01*
X106055125Y-70804243D01*
X106019600Y-70982840D01*
X106019600Y-77413522D01*
X105885483Y-77438758D01*
X105669359Y-77577830D01*
X105524369Y-77790030D01*
X105473360Y-78041920D01*
X105473360Y-78951920D01*
X105517638Y-79187237D01*
X105656710Y-79403361D01*
X105868910Y-79548351D01*
X106120800Y-79599360D01*
X107340800Y-79599360D01*
X107576117Y-79555082D01*
X107792241Y-79416010D01*
X107937231Y-79203810D01*
X107988240Y-78951920D01*
X107988240Y-78041920D01*
X107943962Y-77806603D01*
X107804890Y-77590479D01*
X107592690Y-77445489D01*
X107442000Y-77414974D01*
X107442000Y-72959583D01*
X117446891Y-72959583D01*
X117595453Y-73319132D01*
X117870301Y-73594460D01*
X118229590Y-73743650D01*
X118397048Y-73743796D01*
X123296706Y-78643454D01*
X123527435Y-78797623D01*
X123799600Y-78851760D01*
X133114000Y-78851760D01*
X133142058Y-79000877D01*
X133281130Y-79217001D01*
X133493330Y-79361991D01*
X133745220Y-79413000D01*
X135245220Y-79413000D01*
X135480537Y-79368722D01*
X135696661Y-79229650D01*
X135743189Y-79161554D01*
X135885522Y-79303887D01*
X136118911Y-79400560D01*
X136709470Y-79400560D01*
X136868220Y-79241810D01*
X136868220Y-78267560D01*
X137122220Y-78267560D01*
X137122220Y-79241810D01*
X137280970Y-79400560D01*
X137871529Y-79400560D01*
X138104918Y-79303887D01*
X138283547Y-79125259D01*
X138380220Y-78891870D01*
X138380220Y-78426310D01*
X138221470Y-78267560D01*
X137122220Y-78267560D01*
X136868220Y-78267560D01*
X136848220Y-78267560D01*
X136848220Y-78013560D01*
X136868220Y-78013560D01*
X136868220Y-77039310D01*
X137122220Y-77039310D01*
X137122220Y-78013560D01*
X138221470Y-78013560D01*
X138349300Y-77885730D01*
X148629152Y-77885730D01*
X148655342Y-78481335D01*
X148832884Y-78909959D01*
X149085595Y-78991900D01*
X149959795Y-78117700D01*
X150319005Y-78117700D01*
X151193205Y-78991900D01*
X151445916Y-78909959D01*
X151649648Y-78349670D01*
X151623458Y-77754065D01*
X151445916Y-77325441D01*
X151193205Y-77243500D01*
X150319005Y-78117700D01*
X149959795Y-78117700D01*
X149085595Y-77243500D01*
X148832884Y-77325441D01*
X148629152Y-77885730D01*
X138349300Y-77885730D01*
X138380220Y-77854810D01*
X138380220Y-77389250D01*
X138283547Y-77155861D01*
X138104918Y-76977233D01*
X137871529Y-76880560D01*
X137280970Y-76880560D01*
X137122220Y-77039310D01*
X136868220Y-77039310D01*
X136709470Y-76880560D01*
X136118911Y-76880560D01*
X135885522Y-76977233D01*
X135744284Y-77118470D01*
X135709310Y-77064119D01*
X135497110Y-76919129D01*
X135245220Y-76868120D01*
X133745220Y-76868120D01*
X133509903Y-76912398D01*
X133293779Y-77051470D01*
X133148789Y-77263670D01*
X133115236Y-77429360D01*
X124094188Y-77429360D01*
X122044464Y-75379636D01*
X122174623Y-75379749D01*
X122534172Y-75231187D01*
X122647597Y-75117960D01*
X133114000Y-75117960D01*
X133142058Y-75267077D01*
X133281130Y-75483201D01*
X133493330Y-75628191D01*
X133745220Y-75679200D01*
X135245220Y-75679200D01*
X135480537Y-75634922D01*
X135696661Y-75495850D01*
X135743189Y-75427754D01*
X135885522Y-75570087D01*
X136118911Y-75666760D01*
X136709470Y-75666760D01*
X136868220Y-75508010D01*
X136868220Y-74533760D01*
X137122220Y-74533760D01*
X137122220Y-75508010D01*
X137280970Y-75666760D01*
X137871529Y-75666760D01*
X138104918Y-75570087D01*
X138283547Y-75391459D01*
X138380220Y-75158070D01*
X138380220Y-74692510D01*
X138221470Y-74533760D01*
X137122220Y-74533760D01*
X136868220Y-74533760D01*
X136848220Y-74533760D01*
X136848220Y-74279760D01*
X136868220Y-74279760D01*
X136868220Y-73305510D01*
X137122220Y-73305510D01*
X137122220Y-74279760D01*
X138221470Y-74279760D01*
X138380220Y-74121010D01*
X138380220Y-73655450D01*
X138283547Y-73422061D01*
X138104918Y-73243433D01*
X137871529Y-73146760D01*
X137280970Y-73146760D01*
X137122220Y-73305510D01*
X136868220Y-73305510D01*
X136709470Y-73146760D01*
X136118911Y-73146760D01*
X135885522Y-73243433D01*
X135744284Y-73384670D01*
X135709310Y-73330319D01*
X135497110Y-73185329D01*
X135245220Y-73134320D01*
X133745220Y-73134320D01*
X133509903Y-73178598D01*
X133293779Y-73317670D01*
X133148789Y-73529870D01*
X133115236Y-73695560D01*
X122657826Y-73695560D01*
X122535619Y-73573140D01*
X122176330Y-73423950D01*
X121787297Y-73423611D01*
X121427748Y-73572173D01*
X121152420Y-73847021D01*
X121003230Y-74206310D01*
X121003115Y-74338287D01*
X119402885Y-72738057D01*
X119403029Y-72572257D01*
X119254467Y-72212708D01*
X118979619Y-71937380D01*
X118620330Y-71788190D01*
X118231297Y-71787851D01*
X117871748Y-71936413D01*
X117596420Y-72211261D01*
X117447230Y-72570550D01*
X117446891Y-72959583D01*
X107442000Y-72959583D01*
X107442000Y-71277428D01*
X109412963Y-69306465D01*
X109578763Y-69306609D01*
X109938312Y-69158047D01*
X110213640Y-68883199D01*
X110350300Y-68554086D01*
X110350300Y-68781997D01*
X110215180Y-68916881D01*
X110065990Y-69276170D01*
X110065651Y-69665203D01*
X110214213Y-70024752D01*
X110489061Y-70300080D01*
X110848350Y-70449270D01*
X111237383Y-70449609D01*
X111596932Y-70301047D01*
X111872260Y-70026199D01*
X112021450Y-69666910D01*
X112021789Y-69277877D01*
X111873227Y-68918328D01*
X111772700Y-68817625D01*
X111772700Y-63822528D01*
X112014025Y-64063854D01*
X112137726Y-64146508D01*
X112244756Y-64218023D01*
X112516920Y-64272160D01*
X116133932Y-64272160D01*
X120599226Y-68737455D01*
X120829956Y-68891623D01*
X121102120Y-68945760D01*
X133189803Y-68945760D01*
X133027079Y-69050470D01*
X132882089Y-69262670D01*
X132848536Y-69428360D01*
X124166608Y-69428360D01*
X124057079Y-69318640D01*
X123697790Y-69169450D01*
X123308757Y-69169111D01*
X122949208Y-69317673D01*
X122673880Y-69592521D01*
X122524690Y-69951810D01*
X122524351Y-70340843D01*
X122672913Y-70700392D01*
X122947761Y-70975720D01*
X123307050Y-71124910D01*
X123696083Y-71125249D01*
X124055632Y-70976687D01*
X124181779Y-70850760D01*
X132847300Y-70850760D01*
X132875358Y-70999877D01*
X133014430Y-71216001D01*
X133226630Y-71360991D01*
X133478520Y-71412000D01*
X134978520Y-71412000D01*
X135213837Y-71367722D01*
X135429961Y-71228650D01*
X135476489Y-71160554D01*
X135618822Y-71302887D01*
X135852211Y-71399560D01*
X136442770Y-71399560D01*
X136601520Y-71240810D01*
X136601520Y-70266560D01*
X136855520Y-70266560D01*
X136855520Y-71240810D01*
X137014270Y-71399560D01*
X137604829Y-71399560D01*
X137838218Y-71302887D01*
X138016847Y-71124259D01*
X138113520Y-70890870D01*
X138113520Y-70425310D01*
X137954770Y-70266560D01*
X136855520Y-70266560D01*
X136601520Y-70266560D01*
X136581520Y-70266560D01*
X136581520Y-70012560D01*
X136601520Y-70012560D01*
X136601520Y-69992560D01*
X136855520Y-69992560D01*
X136855520Y-70012560D01*
X137954770Y-70012560D01*
X138113520Y-69853810D01*
X138113520Y-69388250D01*
X138016847Y-69154861D01*
X137838218Y-68976233D01*
X137764650Y-68945760D01*
X141625320Y-68945760D01*
X141897485Y-68891623D01*
X142128214Y-68737454D01*
X146293814Y-64571854D01*
X146447983Y-64341125D01*
X146502120Y-64068960D01*
X146502120Y-60981554D01*
X146619460Y-60864419D01*
X146768650Y-60505130D01*
X146768989Y-60116097D01*
X146624415Y-59766200D01*
X148754048Y-59766200D01*
X148641061Y-60038302D01*
X148640541Y-60634482D01*
X148868208Y-61185480D01*
X149289403Y-61607410D01*
X149290331Y-61607795D01*
X148869690Y-62027703D01*
X148641061Y-62578302D01*
X148640541Y-63174482D01*
X148868208Y-63725480D01*
X149289403Y-64147410D01*
X149290331Y-64147795D01*
X148869690Y-64567703D01*
X148641061Y-65118302D01*
X148640541Y-65714482D01*
X148868208Y-66265480D01*
X149289403Y-66687410D01*
X149290331Y-66687795D01*
X148869690Y-67107703D01*
X148641061Y-67658302D01*
X148640541Y-68254482D01*
X148868208Y-68805480D01*
X149289403Y-69227410D01*
X149290331Y-69227795D01*
X148869690Y-69647703D01*
X148641061Y-70198302D01*
X148640541Y-70794482D01*
X148868208Y-71345480D01*
X149289403Y-71767410D01*
X149290331Y-71767795D01*
X148869690Y-72187703D01*
X148641061Y-72738302D01*
X148640541Y-73334482D01*
X148868208Y-73885480D01*
X149289403Y-74307410D01*
X149290331Y-74307795D01*
X148869690Y-74727703D01*
X148641061Y-75278302D01*
X148640541Y-75874482D01*
X148868208Y-76425480D01*
X149289403Y-76847410D01*
X149329937Y-76864241D01*
X149265200Y-77063895D01*
X150139400Y-77938095D01*
X151013600Y-77063895D01*
X150949001Y-76864667D01*
X150987180Y-76848892D01*
X151409110Y-76427697D01*
X151637739Y-75877098D01*
X151638259Y-75280918D01*
X151410592Y-74729920D01*
X150989397Y-74307990D01*
X150988469Y-74307605D01*
X151409110Y-73887697D01*
X151637739Y-73337098D01*
X151638259Y-72740918D01*
X151410592Y-72189920D01*
X150989397Y-71767990D01*
X150988469Y-71767605D01*
X151409110Y-71347697D01*
X151637739Y-70797098D01*
X151638259Y-70200918D01*
X151410592Y-69649920D01*
X150989397Y-69227990D01*
X150988469Y-69227605D01*
X151409110Y-68807697D01*
X151637739Y-68257098D01*
X151638259Y-67660918D01*
X151410592Y-67109920D01*
X150989397Y-66687990D01*
X150988469Y-66687605D01*
X151409110Y-66267697D01*
X151637739Y-65717098D01*
X151638259Y-65120918D01*
X151410592Y-64569920D01*
X150989397Y-64147990D01*
X150988469Y-64147605D01*
X151409110Y-63727697D01*
X151637739Y-63177098D01*
X151638259Y-62580918D01*
X151410592Y-62029920D01*
X150989397Y-61607990D01*
X150988469Y-61607605D01*
X151409110Y-61187697D01*
X151637739Y-60637098D01*
X151638259Y-60040918D01*
X151524748Y-59766200D01*
X156502100Y-59766200D01*
X156774265Y-59712063D01*
X157004994Y-59557894D01*
X163880831Y-52682057D01*
X163880541Y-53014482D01*
X164108208Y-53565480D01*
X164529403Y-53987410D01*
X164530331Y-53987795D01*
X164109690Y-54407703D01*
X163881061Y-54958302D01*
X163880541Y-55554482D01*
X164108208Y-56105480D01*
X164529403Y-56527410D01*
X164530331Y-56527795D01*
X164109690Y-56947703D01*
X163881061Y-57498302D01*
X163880541Y-58094482D01*
X164108208Y-58645480D01*
X164529403Y-59067410D01*
X164530331Y-59067795D01*
X164109690Y-59487703D01*
X163881061Y-60038302D01*
X163880541Y-60634482D01*
X164108208Y-61185480D01*
X164529403Y-61607410D01*
X164530331Y-61607795D01*
X164109690Y-62027703D01*
X163881061Y-62578302D01*
X163880541Y-63174482D01*
X164108208Y-63725480D01*
X164529403Y-64147410D01*
X164530331Y-64147795D01*
X164109690Y-64567703D01*
X163881061Y-65118302D01*
X163880541Y-65714482D01*
X164108208Y-66265480D01*
X164529403Y-66687410D01*
X164530331Y-66687795D01*
X164109690Y-67107703D01*
X163881061Y-67658302D01*
X163880541Y-68254482D01*
X164108208Y-68805480D01*
X164529403Y-69227410D01*
X164530331Y-69227795D01*
X164109690Y-69647703D01*
X163881061Y-70198302D01*
X163880541Y-70794482D01*
X164108208Y-71345480D01*
X164529403Y-71767410D01*
X164530331Y-71767795D01*
X164109690Y-72187703D01*
X163881061Y-72738302D01*
X163880541Y-73334482D01*
X164108208Y-73885480D01*
X164529403Y-74307410D01*
X164530331Y-74307795D01*
X164109690Y-74727703D01*
X163881061Y-75278302D01*
X163880541Y-75874482D01*
X164108208Y-76425480D01*
X164529403Y-76847410D01*
X164530331Y-76847795D01*
X164109690Y-77267703D01*
X163881061Y-77818302D01*
X163880541Y-78414482D01*
X164108208Y-78965480D01*
X164529403Y-79387410D01*
X164569937Y-79404241D01*
X164505200Y-79603895D01*
X165379400Y-80478095D01*
X166253600Y-79603895D01*
X166189001Y-79404667D01*
X166227180Y-79388892D01*
X166649110Y-78967697D01*
X166877739Y-78417098D01*
X166878259Y-77820918D01*
X166650592Y-77269920D01*
X166229397Y-76847990D01*
X166228469Y-76847605D01*
X166649110Y-76427697D01*
X166877739Y-75877098D01*
X166878259Y-75280918D01*
X166650592Y-74729920D01*
X166229397Y-74307990D01*
X166228469Y-74307605D01*
X166649110Y-73887697D01*
X166877739Y-73337098D01*
X166878259Y-72740918D01*
X166650592Y-72189920D01*
X166229397Y-71767990D01*
X166228469Y-71767605D01*
X166649110Y-71347697D01*
X166877739Y-70797098D01*
X166878259Y-70200918D01*
X166650592Y-69649920D01*
X166229397Y-69227990D01*
X166228469Y-69227605D01*
X166649110Y-68807697D01*
X166877739Y-68257098D01*
X166878259Y-67660918D01*
X166650592Y-67109920D01*
X166229397Y-66687990D01*
X166228469Y-66687605D01*
X166649110Y-66267697D01*
X166877739Y-65717098D01*
X166878259Y-65120918D01*
X166650592Y-64569920D01*
X166229397Y-64147990D01*
X166228469Y-64147605D01*
X166649110Y-63727697D01*
X166877739Y-63177098D01*
X166878259Y-62580918D01*
X166650592Y-62029920D01*
X166229397Y-61607990D01*
X166228469Y-61607605D01*
X166649110Y-61187697D01*
X166877739Y-60637098D01*
X166878259Y-60040918D01*
X166650592Y-59489920D01*
X166229397Y-59067990D01*
X166228469Y-59067605D01*
X166649110Y-58647697D01*
X166877739Y-58097098D01*
X166878259Y-57500918D01*
X166650592Y-56949920D01*
X166229397Y-56527990D01*
X166228469Y-56527605D01*
X166649110Y-56107697D01*
X166877739Y-55557098D01*
X166878259Y-54960918D01*
X166650592Y-54409920D01*
X166229397Y-53987990D01*
X166228469Y-53987605D01*
X166649110Y-53567697D01*
X166877739Y-53017098D01*
X166878259Y-52420918D01*
X166650592Y-51869920D01*
X166229397Y-51447990D01*
X166228469Y-51447605D01*
X166649110Y-51027697D01*
X166877739Y-50477098D01*
X166878259Y-49880918D01*
X166650592Y-49329920D01*
X166229397Y-48907990D01*
X166228469Y-48907605D01*
X166649110Y-48487697D01*
X166877739Y-47937098D01*
X166878259Y-47340918D01*
X166650592Y-46789920D01*
X166229397Y-46367990D01*
X165678798Y-46139361D01*
X165082618Y-46138841D01*
X164531620Y-46366508D01*
X164109690Y-46787703D01*
X164109305Y-46788631D01*
X163689397Y-46367990D01*
X163138798Y-46139361D01*
X162542618Y-46138841D01*
X161991620Y-46366508D01*
X161569690Y-46787703D01*
X161569305Y-46788631D01*
X161149397Y-46367990D01*
X160598798Y-46139361D01*
X160002618Y-46138841D01*
X159451620Y-46366508D01*
X159029690Y-46787703D01*
X159012859Y-46828237D01*
X158813205Y-46763500D01*
X157939005Y-47637700D01*
X158813205Y-48511900D01*
X159012433Y-48447301D01*
X159028208Y-48485480D01*
X159449403Y-48907410D01*
X159588200Y-48965044D01*
X159588200Y-51551891D01*
X155618256Y-55521835D01*
X155452457Y-55521691D01*
X155092908Y-55670253D01*
X154817580Y-55945101D01*
X154668390Y-56304390D01*
X154668051Y-56693423D01*
X154816613Y-57052972D01*
X155091461Y-57328300D01*
X155450750Y-57477490D01*
X155839783Y-57477829D01*
X156199332Y-57329267D01*
X156474660Y-57054419D01*
X156623850Y-56695130D01*
X156623996Y-56527672D01*
X160802295Y-52349374D01*
X160956463Y-52118644D01*
X161010600Y-51846480D01*
X161010600Y-48965326D01*
X161147180Y-48908892D01*
X161569110Y-48487697D01*
X161569495Y-48486769D01*
X161989403Y-48907410D01*
X162540002Y-49136039D01*
X163136182Y-49136559D01*
X163687180Y-48908892D01*
X164109110Y-48487697D01*
X164109495Y-48486769D01*
X164529403Y-48907410D01*
X164530331Y-48907795D01*
X164109690Y-49327703D01*
X163881061Y-49878302D01*
X163880541Y-50474482D01*
X163937932Y-50613380D01*
X156207512Y-58343800D01*
X151535299Y-58343800D01*
X151637739Y-58097098D01*
X151638259Y-57500918D01*
X151410592Y-56949920D01*
X150989397Y-56527990D01*
X150988469Y-56527605D01*
X151409110Y-56107697D01*
X151637739Y-55557098D01*
X151638259Y-54960918D01*
X151410592Y-54409920D01*
X150989397Y-53987990D01*
X150988469Y-53987605D01*
X151409110Y-53567697D01*
X151637739Y-53017098D01*
X151638259Y-52420918D01*
X151410592Y-51869920D01*
X150989397Y-51447990D01*
X150988469Y-51447605D01*
X151409110Y-51027697D01*
X151637739Y-50477098D01*
X151638259Y-49880918D01*
X151410592Y-49329920D01*
X150989397Y-48907990D01*
X150988469Y-48907605D01*
X151409110Y-48487697D01*
X151409495Y-48486769D01*
X151829403Y-48907410D01*
X152380002Y-49136039D01*
X152976182Y-49136559D01*
X153527180Y-48908892D01*
X153949110Y-48487697D01*
X153949495Y-48486769D01*
X154369403Y-48907410D01*
X154920002Y-49136039D01*
X155516182Y-49136559D01*
X156067180Y-48908892D01*
X156284946Y-48691505D01*
X156885200Y-48691505D01*
X156967141Y-48944216D01*
X157527430Y-49147948D01*
X158123035Y-49121758D01*
X158551659Y-48944216D01*
X158633600Y-48691505D01*
X157759400Y-47817305D01*
X156885200Y-48691505D01*
X156284946Y-48691505D01*
X156489110Y-48487697D01*
X156505941Y-48447163D01*
X156705595Y-48511900D01*
X157579795Y-47637700D01*
X156705595Y-46763500D01*
X156506367Y-46828099D01*
X156490592Y-46789920D01*
X156284926Y-46583895D01*
X156885200Y-46583895D01*
X157759400Y-47458095D01*
X158633600Y-46583895D01*
X158551659Y-46331184D01*
X157991370Y-46127452D01*
X157395765Y-46153642D01*
X156967141Y-46331184D01*
X156885200Y-46583895D01*
X156284926Y-46583895D01*
X156069397Y-46367990D01*
X155518798Y-46139361D01*
X154922618Y-46138841D01*
X154371620Y-46366508D01*
X153949690Y-46787703D01*
X153949305Y-46788631D01*
X153529397Y-46367990D01*
X152978798Y-46139361D01*
X152382618Y-46138841D01*
X151831620Y-46366508D01*
X151409690Y-46787703D01*
X151409305Y-46788631D01*
X150989397Y-46367990D01*
X150438798Y-46139361D01*
X149842618Y-46138841D01*
X149291620Y-46366508D01*
X148869690Y-46787703D01*
X148812056Y-46926500D01*
X122880120Y-46926500D01*
X122607956Y-46980637D01*
X122607954Y-46980638D01*
X122607955Y-46980638D01*
X122377225Y-47134806D01*
X116987346Y-52524686D01*
X116833177Y-52755415D01*
X116833177Y-52755416D01*
X116779040Y-53027580D01*
X116779040Y-62045886D01*
X116661700Y-62163021D01*
X116512510Y-62522310D01*
X116512210Y-62866407D01*
X116428520Y-62849760D01*
X112811509Y-62849760D01*
X112770920Y-62809172D01*
X112770920Y-61997554D01*
X112888260Y-61880419D01*
X113037450Y-61521130D01*
X113037789Y-61132097D01*
X112889227Y-60772548D01*
X112614379Y-60497220D01*
X112255090Y-60348030D01*
X111866057Y-60347691D01*
X111772700Y-60386265D01*
X111772700Y-60218368D01*
X111986270Y-60307050D01*
X112375303Y-60307389D01*
X112734852Y-60158827D01*
X113010180Y-59883979D01*
X113159370Y-59524690D01*
X113159709Y-59135657D01*
X113011147Y-58776108D01*
X112908080Y-58672861D01*
X112908080Y-53355240D01*
X112853943Y-53083076D01*
X112853943Y-53083075D01*
X112699774Y-52852346D01*
X112227334Y-52379906D01*
X111996605Y-52225737D01*
X111724440Y-52171600D01*
X109702600Y-52171600D01*
X109430436Y-52225737D01*
X109416633Y-52234960D01*
X109199705Y-52379906D01*
X108800952Y-52778660D01*
X107340520Y-52778660D01*
X107315762Y-52647083D01*
X107176690Y-52430959D01*
X106964490Y-52285969D01*
X106712600Y-52234960D01*
X105802600Y-52234960D01*
X105567283Y-52279238D01*
X105351159Y-52418310D01*
X105206169Y-52630510D01*
X105155160Y-52882400D01*
X105155160Y-54102400D01*
X105199438Y-54337717D01*
X105338510Y-54553841D01*
X105550710Y-54698831D01*
X105802600Y-54749840D01*
X106712600Y-54749840D01*
X106947917Y-54705562D01*
X107164041Y-54566490D01*
X107309031Y-54354290D01*
X107340061Y-54201060D01*
X108491103Y-54201060D01*
X108440390Y-54323190D01*
X108440051Y-54712223D01*
X108588613Y-55071772D01*
X108706920Y-55190286D01*
X108706920Y-61669966D01*
X108589580Y-61787101D01*
X108440390Y-62146390D01*
X108440051Y-62535423D01*
X108454487Y-62570360D01*
X107655140Y-62570360D01*
X107627082Y-62421243D01*
X107488010Y-62205119D01*
X107276840Y-62060833D01*
X107276840Y-60231080D01*
X107815640Y-60231080D01*
X108050957Y-60186802D01*
X108267081Y-60047730D01*
X108412071Y-59835530D01*
X108463080Y-59583640D01*
X108463080Y-57083640D01*
X108418802Y-56848323D01*
X108279730Y-56632199D01*
X108067530Y-56487209D01*
X107815640Y-56436200D01*
X105315640Y-56436200D01*
X105080323Y-56480478D01*
X104864199Y-56619550D01*
X104816506Y-56689351D01*
X104779730Y-56632199D01*
X104567530Y-56487209D01*
X104315640Y-56436200D01*
X103698800Y-56436200D01*
X103698800Y-54692124D01*
X103894041Y-54566490D01*
X104039031Y-54354290D01*
X104090040Y-54102400D01*
X104090040Y-52882400D01*
X104045762Y-52647083D01*
X103906690Y-52430959D01*
X103694490Y-52285969D01*
X103442600Y-52234960D01*
X102532600Y-52234960D01*
X102297283Y-52279238D01*
X102081159Y-52418310D01*
X101936169Y-52630510D01*
X101905654Y-52781200D01*
X94965520Y-52781200D01*
X94693355Y-52835337D01*
X94462626Y-52989506D01*
X93474566Y-53977566D01*
X93320397Y-54208295D01*
X93296574Y-54328060D01*
X93266260Y-54480460D01*
X93266260Y-56676550D01*
X93077030Y-56676550D01*
X92841713Y-56720828D01*
X92625589Y-56859900D01*
X92480599Y-57072100D01*
X92429590Y-57323990D01*
X90562151Y-57323990D01*
X90546005Y-46700147D01*
X93059315Y-44383960D01*
X93060432Y-44383960D01*
X166318026Y-44434728D01*
G36*
X148868208Y-48485480D02*
X149289403Y-48907410D01*
X149290331Y-48907795D01*
X148869690Y-49327703D01*
X148812056Y-49466500D01*
X143188606Y-49466500D01*
X143043579Y-49321220D01*
X142684290Y-49172030D01*
X142295257Y-49171691D01*
X141935708Y-49320253D01*
X141660380Y-49595101D01*
X141511190Y-49954390D01*
X141510851Y-50343423D01*
X141659413Y-50702972D01*
X141934261Y-50978300D01*
X142293550Y-51127490D01*
X142682583Y-51127829D01*
X143042132Y-50979267D01*
X143132657Y-50888900D01*
X145650183Y-50888900D01*
X145419580Y-51119101D01*
X145270390Y-51478390D01*
X145270051Y-51867423D01*
X145418613Y-52226972D01*
X145693461Y-52502300D01*
X146052750Y-52651490D01*
X146220208Y-52651636D01*
X148640961Y-55072390D01*
X148640541Y-55554482D01*
X148868208Y-56105480D01*
X149289403Y-56527410D01*
X149290331Y-56527795D01*
X148869690Y-56947703D01*
X148812056Y-57086500D01*
X141903401Y-57086500D01*
X141778659Y-56961540D01*
X141419370Y-56812350D01*
X141030337Y-56812011D01*
X140670788Y-56960573D01*
X140395460Y-57235421D01*
X140246270Y-57594710D01*
X140245931Y-57983743D01*
X140394493Y-58343292D01*
X140669341Y-58618620D01*
X141028630Y-58767810D01*
X141417663Y-58768149D01*
X141777212Y-58619587D01*
X141888092Y-58508900D01*
X143427368Y-58508900D01*
X143362705Y-58552106D01*
X142885236Y-59029575D01*
X142719437Y-59029431D01*
X142359888Y-59177993D01*
X142084560Y-59452841D01*
X141935370Y-59812130D01*
X141935031Y-60201163D01*
X142083593Y-60560712D01*
X142358441Y-60836040D01*
X142717730Y-60985230D01*
X143106763Y-60985569D01*
X143466312Y-60837007D01*
X143741640Y-60562159D01*
X143890830Y-60202870D01*
X143890976Y-60035413D01*
X144160189Y-59766200D01*
X144957771Y-59766200D01*
X144813190Y-60114390D01*
X144812851Y-60503423D01*
X144961413Y-60862972D01*
X145079720Y-60981486D01*
X145079720Y-63774372D01*
X141330732Y-67523360D01*
X124664428Y-67523360D01*
X124665570Y-67520610D01*
X124665716Y-67353152D01*
X125374348Y-66644520D01*
X132806660Y-66644520D01*
X132834718Y-66793637D01*
X132973790Y-67009761D01*
X133185990Y-67154751D01*
X133437880Y-67205760D01*
X134937880Y-67205760D01*
X135173197Y-67161482D01*
X135389321Y-67022410D01*
X135435849Y-66954314D01*
X135578182Y-67096647D01*
X135811571Y-67193320D01*
X136402130Y-67193320D01*
X136560880Y-67034570D01*
X136560880Y-66060320D01*
X136814880Y-66060320D01*
X136814880Y-67034570D01*
X136973630Y-67193320D01*
X137564189Y-67193320D01*
X137797578Y-67096647D01*
X137976207Y-66918019D01*
X138072880Y-66684630D01*
X138072880Y-66219070D01*
X137914130Y-66060320D01*
X136814880Y-66060320D01*
X136560880Y-66060320D01*
X136540880Y-66060320D01*
X136540880Y-65806320D01*
X136560880Y-65806320D01*
X136560880Y-64832070D01*
X136814880Y-64832070D01*
X136814880Y-65806320D01*
X137914130Y-65806320D01*
X138072880Y-65647570D01*
X138072880Y-65182010D01*
X137976207Y-64948621D01*
X137797578Y-64769993D01*
X137564189Y-64673320D01*
X136973630Y-64673320D01*
X136814880Y-64832070D01*
X136560880Y-64832070D01*
X136402130Y-64673320D01*
X135811571Y-64673320D01*
X135578182Y-64769993D01*
X135436944Y-64911230D01*
X135401970Y-64856879D01*
X135189770Y-64711889D01*
X134937880Y-64660880D01*
X133437880Y-64660880D01*
X133202563Y-64705158D01*
X132986439Y-64844230D01*
X132841449Y-65056430D01*
X132807896Y-65222120D01*
X125124168Y-65222120D01*
X125245360Y-65101139D01*
X125394550Y-64741850D01*
X125394696Y-64574392D01*
X127322529Y-62646560D01*
X132898100Y-62646560D01*
X132926158Y-62795677D01*
X133065230Y-63011801D01*
X133277430Y-63156791D01*
X133529320Y-63207800D01*
X135029320Y-63207800D01*
X135264637Y-63163522D01*
X135480761Y-63024450D01*
X135527289Y-62956354D01*
X135669622Y-63098687D01*
X135903011Y-63195360D01*
X136493570Y-63195360D01*
X136652320Y-63036610D01*
X136652320Y-62062360D01*
X136906320Y-62062360D01*
X136906320Y-63036610D01*
X137065070Y-63195360D01*
X137655629Y-63195360D01*
X137889018Y-63098687D01*
X138067647Y-62920059D01*
X138164320Y-62686670D01*
X138164320Y-62221110D01*
X138005570Y-62062360D01*
X136906320Y-62062360D01*
X136652320Y-62062360D01*
X136632320Y-62062360D01*
X136632320Y-61808360D01*
X136652320Y-61808360D01*
X136652320Y-60834110D01*
X136906320Y-60834110D01*
X136906320Y-61808360D01*
X138005570Y-61808360D01*
X138164320Y-61649610D01*
X138164320Y-61184050D01*
X138067647Y-60950661D01*
X137889018Y-60772033D01*
X137655629Y-60675360D01*
X137065070Y-60675360D01*
X136906320Y-60834110D01*
X136652320Y-60834110D01*
X136493570Y-60675360D01*
X135903011Y-60675360D01*
X135669622Y-60772033D01*
X135528384Y-60913270D01*
X135493410Y-60858919D01*
X135281210Y-60713929D01*
X135029320Y-60662920D01*
X133529320Y-60662920D01*
X133294003Y-60707198D01*
X133077879Y-60846270D01*
X132932889Y-61058470D01*
X132899336Y-61224160D01*
X127027940Y-61224160D01*
X126755776Y-61278297D01*
X126684743Y-61325760D01*
X126525045Y-61432466D01*
X124388956Y-63568555D01*
X124223157Y-63568411D01*
X123863608Y-63716973D01*
X123588280Y-63991821D01*
X123439090Y-64351110D01*
X123438751Y-64740143D01*
X123587313Y-65099692D01*
X123862161Y-65375020D01*
X124221450Y-65524210D01*
X124482854Y-65524438D01*
X123659977Y-66347315D01*
X123494177Y-66347171D01*
X123134628Y-66495733D01*
X122859300Y-66770581D01*
X122710110Y-67129870D01*
X122709771Y-67518903D01*
X122711613Y-67523360D01*
X121396709Y-67523360D01*
X117568997Y-63695649D01*
X117683903Y-63695749D01*
X118043452Y-63547187D01*
X118318780Y-63272339D01*
X118467970Y-62913050D01*
X118468309Y-62524017D01*
X118319747Y-62164468D01*
X118201440Y-62045954D01*
X118201440Y-61164614D01*
X118215741Y-61178940D01*
X118575030Y-61328130D01*
X118964063Y-61328469D01*
X119323612Y-61179907D01*
X119598940Y-60905059D01*
X119748130Y-60545770D01*
X119748412Y-60221579D01*
X119954250Y-60307050D01*
X120343283Y-60307389D01*
X120702832Y-60158827D01*
X120978160Y-59883979D01*
X121127350Y-59524690D01*
X121127496Y-59357232D01*
X121749769Y-58734960D01*
X132999700Y-58734960D01*
X133027758Y-58884077D01*
X133166830Y-59100201D01*
X133379030Y-59245191D01*
X133630920Y-59296200D01*
X135130920Y-59296200D01*
X135366237Y-59251922D01*
X135582361Y-59112850D01*
X135628889Y-59044754D01*
X135771222Y-59187087D01*
X136004611Y-59283760D01*
X136595170Y-59283760D01*
X136753920Y-59125010D01*
X136753920Y-58150760D01*
X137007920Y-58150760D01*
X137007920Y-59125010D01*
X137166670Y-59283760D01*
X137757229Y-59283760D01*
X137990618Y-59187087D01*
X138169247Y-59008459D01*
X138265920Y-58775070D01*
X138265920Y-58309510D01*
X138107170Y-58150760D01*
X137007920Y-58150760D01*
X136753920Y-58150760D01*
X136733920Y-58150760D01*
X136733920Y-57896760D01*
X136753920Y-57896760D01*
X136753920Y-56922510D01*
X137007920Y-56922510D01*
X137007920Y-57896760D01*
X138107170Y-57896760D01*
X138265920Y-57738010D01*
X138265920Y-57272450D01*
X138169247Y-57039061D01*
X137990618Y-56860433D01*
X137757229Y-56763760D01*
X137166670Y-56763760D01*
X137007920Y-56922510D01*
X136753920Y-56922510D01*
X136595170Y-56763760D01*
X136004611Y-56763760D01*
X135771222Y-56860433D01*
X135629984Y-57001670D01*
X135595010Y-56947319D01*
X135382810Y-56802329D01*
X135130920Y-56751320D01*
X133630920Y-56751320D01*
X133395603Y-56795598D01*
X133179479Y-56934670D01*
X133034489Y-57146870D01*
X133000936Y-57312560D01*
X121455180Y-57312560D01*
X121183016Y-57366697D01*
X120952286Y-57520865D01*
X120121756Y-58351395D01*
X119955957Y-58351251D01*
X119596408Y-58499813D01*
X119481600Y-58614421D01*
X119481600Y-56791808D01*
X122066853Y-54206555D01*
X122190313Y-54505352D01*
X122465161Y-54780680D01*
X122824450Y-54929870D01*
X123213483Y-54930209D01*
X123573032Y-54781647D01*
X123683912Y-54670960D01*
X132948900Y-54670960D01*
X132976958Y-54820077D01*
X133116030Y-55036201D01*
X133328230Y-55181191D01*
X133580120Y-55232200D01*
X135080120Y-55232200D01*
X135315437Y-55187922D01*
X135531561Y-55048850D01*
X135578089Y-54980754D01*
X135720422Y-55123087D01*
X135953811Y-55219760D01*
X136544370Y-55219760D01*
X136703120Y-55061010D01*
X136703120Y-54086760D01*
X136957120Y-54086760D01*
X136957120Y-55061010D01*
X137115870Y-55219760D01*
X137706429Y-55219760D01*
X137939818Y-55123087D01*
X138118447Y-54944459D01*
X138215120Y-54711070D01*
X138215120Y-54245510D01*
X138056370Y-54086760D01*
X136957120Y-54086760D01*
X136703120Y-54086760D01*
X136683120Y-54086760D01*
X136683120Y-53832760D01*
X136703120Y-53832760D01*
X136703120Y-52858510D01*
X136957120Y-52858510D01*
X136957120Y-53832760D01*
X138056370Y-53832760D01*
X138215120Y-53674010D01*
X138215120Y-53208450D01*
X138118447Y-52975061D01*
X137939818Y-52796433D01*
X137706429Y-52699760D01*
X137115870Y-52699760D01*
X136957120Y-52858510D01*
X136703120Y-52858510D01*
X136544370Y-52699760D01*
X135953811Y-52699760D01*
X135720422Y-52796433D01*
X135579184Y-52937670D01*
X135544210Y-52883319D01*
X135332010Y-52738329D01*
X135080120Y-52687320D01*
X133580120Y-52687320D01*
X133344803Y-52731598D01*
X133128679Y-52870670D01*
X132983689Y-53082870D01*
X132950136Y-53248560D01*
X123699221Y-53248560D01*
X123574479Y-53123600D01*
X123274408Y-52999000D01*
X123631908Y-52641500D01*
X132015173Y-52641500D01*
X132079061Y-52705500D01*
X132438350Y-52854690D01*
X132827383Y-52855029D01*
X133186932Y-52706467D01*
X133462260Y-52431619D01*
X133611450Y-52072330D01*
X133611789Y-51683297D01*
X133465668Y-51329655D01*
X133607120Y-51358300D01*
X135107120Y-51358300D01*
X135342437Y-51314022D01*
X135558561Y-51174950D01*
X135703551Y-50962750D01*
X135710311Y-50929370D01*
X135768793Y-51070559D01*
X135947422Y-51249187D01*
X136180811Y-51345860D01*
X136771370Y-51345860D01*
X136930120Y-51187110D01*
X136930120Y-50187860D01*
X137184120Y-50187860D01*
X137184120Y-51187110D01*
X137342870Y-51345860D01*
X137933429Y-51345860D01*
X138166818Y-51249187D01*
X138345447Y-51070559D01*
X138442120Y-50837170D01*
X138442120Y-50346610D01*
X138283370Y-50187860D01*
X137184120Y-50187860D01*
X136930120Y-50187860D01*
X136910120Y-50187860D01*
X136910120Y-49933860D01*
X136930120Y-49933860D01*
X136930120Y-48934610D01*
X137184120Y-48934610D01*
X137184120Y-49933860D01*
X138283370Y-49933860D01*
X138442120Y-49775110D01*
X138442120Y-49284550D01*
X138345447Y-49051161D01*
X138166818Y-48872533D01*
X137933429Y-48775860D01*
X137342870Y-48775860D01*
X137184120Y-48934610D01*
X136930120Y-48934610D01*
X136771370Y-48775860D01*
X136180811Y-48775860D01*
X135947422Y-48872533D01*
X135768793Y-49051161D01*
X135712466Y-49187147D01*
X135710282Y-49175543D01*
X135571210Y-48959419D01*
X135359010Y-48814429D01*
X135107120Y-48763420D01*
X133607120Y-48763420D01*
X133371803Y-48807698D01*
X133155679Y-48946770D01*
X133010689Y-49158970D01*
X132972073Y-49349660D01*
X123991299Y-49349660D01*
X123853879Y-49212000D01*
X123494590Y-49062810D01*
X123105557Y-49062471D01*
X122746008Y-49211033D01*
X122470680Y-49485881D01*
X122321490Y-49845170D01*
X122321151Y-50234203D01*
X122469713Y-50593752D01*
X122744561Y-50869080D01*
X123103850Y-51018270D01*
X123492883Y-51018609D01*
X123852432Y-50870047D01*
X123950590Y-50772060D01*
X132971196Y-50772060D01*
X133003958Y-50946177D01*
X133026494Y-50981200D01*
X132829090Y-50899230D01*
X132440057Y-50898891D01*
X132080508Y-51047453D01*
X131908561Y-51219100D01*
X123337320Y-51219100D01*
X123110310Y-51264255D01*
X123065155Y-51273237D01*
X122834426Y-51427406D01*
X118267506Y-55994326D01*
X118201440Y-56093200D01*
X118201440Y-53322168D01*
X123174709Y-48348900D01*
X148811774Y-48348900D01*
X148868208Y-48485480D01*
X148868208Y-48485480D01*
G37*
X148868208Y-48485480D02*
X149289403Y-48907410D01*
X149290331Y-48907795D01*
X148869690Y-49327703D01*
X148812056Y-49466500D01*
X143188606Y-49466500D01*
X143043579Y-49321220D01*
X142684290Y-49172030D01*
X142295257Y-49171691D01*
X141935708Y-49320253D01*
X141660380Y-49595101D01*
X141511190Y-49954390D01*
X141510851Y-50343423D01*
X141659413Y-50702972D01*
X141934261Y-50978300D01*
X142293550Y-51127490D01*
X142682583Y-51127829D01*
X143042132Y-50979267D01*
X143132657Y-50888900D01*
X145650183Y-50888900D01*
X145419580Y-51119101D01*
X145270390Y-51478390D01*
X145270051Y-51867423D01*
X145418613Y-52226972D01*
X145693461Y-52502300D01*
X146052750Y-52651490D01*
X146220208Y-52651636D01*
X148640961Y-55072390D01*
X148640541Y-55554482D01*
X148868208Y-56105480D01*
X149289403Y-56527410D01*
X149290331Y-56527795D01*
X148869690Y-56947703D01*
X148812056Y-57086500D01*
X141903401Y-57086500D01*
X141778659Y-56961540D01*
X141419370Y-56812350D01*
X141030337Y-56812011D01*
X140670788Y-56960573D01*
X140395460Y-57235421D01*
X140246270Y-57594710D01*
X140245931Y-57983743D01*
X140394493Y-58343292D01*
X140669341Y-58618620D01*
X141028630Y-58767810D01*
X141417663Y-58768149D01*
X141777212Y-58619587D01*
X141888092Y-58508900D01*
X143427368Y-58508900D01*
X143362705Y-58552106D01*
X142885236Y-59029575D01*
X142719437Y-59029431D01*
X142359888Y-59177993D01*
X142084560Y-59452841D01*
X141935370Y-59812130D01*
X141935031Y-60201163D01*
X142083593Y-60560712D01*
X142358441Y-60836040D01*
X142717730Y-60985230D01*
X143106763Y-60985569D01*
X143466312Y-60837007D01*
X143741640Y-60562159D01*
X143890830Y-60202870D01*
X143890976Y-60035413D01*
X144160189Y-59766200D01*
X144957771Y-59766200D01*
X144813190Y-60114390D01*
X144812851Y-60503423D01*
X144961413Y-60862972D01*
X145079720Y-60981486D01*
X145079720Y-63774372D01*
X141330732Y-67523360D01*
X124664428Y-67523360D01*
X124665570Y-67520610D01*
X124665716Y-67353152D01*
X125374348Y-66644520D01*
X132806660Y-66644520D01*
X132834718Y-66793637D01*
X132973790Y-67009761D01*
X133185990Y-67154751D01*
X133437880Y-67205760D01*
X134937880Y-67205760D01*
X135173197Y-67161482D01*
X135389321Y-67022410D01*
X135435849Y-66954314D01*
X135578182Y-67096647D01*
X135811571Y-67193320D01*
X136402130Y-67193320D01*
X136560880Y-67034570D01*
X136560880Y-66060320D01*
X136814880Y-66060320D01*
X136814880Y-67034570D01*
X136973630Y-67193320D01*
X137564189Y-67193320D01*
X137797578Y-67096647D01*
X137976207Y-66918019D01*
X138072880Y-66684630D01*
X138072880Y-66219070D01*
X137914130Y-66060320D01*
X136814880Y-66060320D01*
X136560880Y-66060320D01*
X136540880Y-66060320D01*
X136540880Y-65806320D01*
X136560880Y-65806320D01*
X136560880Y-64832070D01*
X136814880Y-64832070D01*
X136814880Y-65806320D01*
X137914130Y-65806320D01*
X138072880Y-65647570D01*
X138072880Y-65182010D01*
X137976207Y-64948621D01*
X137797578Y-64769993D01*
X137564189Y-64673320D01*
X136973630Y-64673320D01*
X136814880Y-64832070D01*
X136560880Y-64832070D01*
X136402130Y-64673320D01*
X135811571Y-64673320D01*
X135578182Y-64769993D01*
X135436944Y-64911230D01*
X135401970Y-64856879D01*
X135189770Y-64711889D01*
X134937880Y-64660880D01*
X133437880Y-64660880D01*
X133202563Y-64705158D01*
X132986439Y-64844230D01*
X132841449Y-65056430D01*
X132807896Y-65222120D01*
X125124168Y-65222120D01*
X125245360Y-65101139D01*
X125394550Y-64741850D01*
X125394696Y-64574392D01*
X127322529Y-62646560D01*
X132898100Y-62646560D01*
X132926158Y-62795677D01*
X133065230Y-63011801D01*
X133277430Y-63156791D01*
X133529320Y-63207800D01*
X135029320Y-63207800D01*
X135264637Y-63163522D01*
X135480761Y-63024450D01*
X135527289Y-62956354D01*
X135669622Y-63098687D01*
X135903011Y-63195360D01*
X136493570Y-63195360D01*
X136652320Y-63036610D01*
X136652320Y-62062360D01*
X136906320Y-62062360D01*
X136906320Y-63036610D01*
X137065070Y-63195360D01*
X137655629Y-63195360D01*
X137889018Y-63098687D01*
X138067647Y-62920059D01*
X138164320Y-62686670D01*
X138164320Y-62221110D01*
X138005570Y-62062360D01*
X136906320Y-62062360D01*
X136652320Y-62062360D01*
X136632320Y-62062360D01*
X136632320Y-61808360D01*
X136652320Y-61808360D01*
X136652320Y-60834110D01*
X136906320Y-60834110D01*
X136906320Y-61808360D01*
X138005570Y-61808360D01*
X138164320Y-61649610D01*
X138164320Y-61184050D01*
X138067647Y-60950661D01*
X137889018Y-60772033D01*
X137655629Y-60675360D01*
X137065070Y-60675360D01*
X136906320Y-60834110D01*
X136652320Y-60834110D01*
X136493570Y-60675360D01*
X135903011Y-60675360D01*
X135669622Y-60772033D01*
X135528384Y-60913270D01*
X135493410Y-60858919D01*
X135281210Y-60713929D01*
X135029320Y-60662920D01*
X133529320Y-60662920D01*
X133294003Y-60707198D01*
X133077879Y-60846270D01*
X132932889Y-61058470D01*
X132899336Y-61224160D01*
X127027940Y-61224160D01*
X126755776Y-61278297D01*
X126684743Y-61325760D01*
X126525045Y-61432466D01*
X124388956Y-63568555D01*
X124223157Y-63568411D01*
X123863608Y-63716973D01*
X123588280Y-63991821D01*
X123439090Y-64351110D01*
X123438751Y-64740143D01*
X123587313Y-65099692D01*
X123862161Y-65375020D01*
X124221450Y-65524210D01*
X124482854Y-65524438D01*
X123659977Y-66347315D01*
X123494177Y-66347171D01*
X123134628Y-66495733D01*
X122859300Y-66770581D01*
X122710110Y-67129870D01*
X122709771Y-67518903D01*
X122711613Y-67523360D01*
X121396709Y-67523360D01*
X117568997Y-63695649D01*
X117683903Y-63695749D01*
X118043452Y-63547187D01*
X118318780Y-63272339D01*
X118467970Y-62913050D01*
X118468309Y-62524017D01*
X118319747Y-62164468D01*
X118201440Y-62045954D01*
X118201440Y-61164614D01*
X118215741Y-61178940D01*
X118575030Y-61328130D01*
X118964063Y-61328469D01*
X119323612Y-61179907D01*
X119598940Y-60905059D01*
X119748130Y-60545770D01*
X119748412Y-60221579D01*
X119954250Y-60307050D01*
X120343283Y-60307389D01*
X120702832Y-60158827D01*
X120978160Y-59883979D01*
X121127350Y-59524690D01*
X121127496Y-59357232D01*
X121749769Y-58734960D01*
X132999700Y-58734960D01*
X133027758Y-58884077D01*
X133166830Y-59100201D01*
X133379030Y-59245191D01*
X133630920Y-59296200D01*
X135130920Y-59296200D01*
X135366237Y-59251922D01*
X135582361Y-59112850D01*
X135628889Y-59044754D01*
X135771222Y-59187087D01*
X136004611Y-59283760D01*
X136595170Y-59283760D01*
X136753920Y-59125010D01*
X136753920Y-58150760D01*
X137007920Y-58150760D01*
X137007920Y-59125010D01*
X137166670Y-59283760D01*
X137757229Y-59283760D01*
X137990618Y-59187087D01*
X138169247Y-59008459D01*
X138265920Y-58775070D01*
X138265920Y-58309510D01*
X138107170Y-58150760D01*
X137007920Y-58150760D01*
X136753920Y-58150760D01*
X136733920Y-58150760D01*
X136733920Y-57896760D01*
X136753920Y-57896760D01*
X136753920Y-56922510D01*
X137007920Y-56922510D01*
X137007920Y-57896760D01*
X138107170Y-57896760D01*
X138265920Y-57738010D01*
X138265920Y-57272450D01*
X138169247Y-57039061D01*
X137990618Y-56860433D01*
X137757229Y-56763760D01*
X137166670Y-56763760D01*
X137007920Y-56922510D01*
X136753920Y-56922510D01*
X136595170Y-56763760D01*
X136004611Y-56763760D01*
X135771222Y-56860433D01*
X135629984Y-57001670D01*
X135595010Y-56947319D01*
X135382810Y-56802329D01*
X135130920Y-56751320D01*
X133630920Y-56751320D01*
X133395603Y-56795598D01*
X133179479Y-56934670D01*
X133034489Y-57146870D01*
X133000936Y-57312560D01*
X121455180Y-57312560D01*
X121183016Y-57366697D01*
X120952286Y-57520865D01*
X120121756Y-58351395D01*
X119955957Y-58351251D01*
X119596408Y-58499813D01*
X119481600Y-58614421D01*
X119481600Y-56791808D01*
X122066853Y-54206555D01*
X122190313Y-54505352D01*
X122465161Y-54780680D01*
X122824450Y-54929870D01*
X123213483Y-54930209D01*
X123573032Y-54781647D01*
X123683912Y-54670960D01*
X132948900Y-54670960D01*
X132976958Y-54820077D01*
X133116030Y-55036201D01*
X133328230Y-55181191D01*
X133580120Y-55232200D01*
X135080120Y-55232200D01*
X135315437Y-55187922D01*
X135531561Y-55048850D01*
X135578089Y-54980754D01*
X135720422Y-55123087D01*
X135953811Y-55219760D01*
X136544370Y-55219760D01*
X136703120Y-55061010D01*
X136703120Y-54086760D01*
X136957120Y-54086760D01*
X136957120Y-55061010D01*
X137115870Y-55219760D01*
X137706429Y-55219760D01*
X137939818Y-55123087D01*
X138118447Y-54944459D01*
X138215120Y-54711070D01*
X138215120Y-54245510D01*
X138056370Y-54086760D01*
X136957120Y-54086760D01*
X136703120Y-54086760D01*
X136683120Y-54086760D01*
X136683120Y-53832760D01*
X136703120Y-53832760D01*
X136703120Y-52858510D01*
X136957120Y-52858510D01*
X136957120Y-53832760D01*
X138056370Y-53832760D01*
X138215120Y-53674010D01*
X138215120Y-53208450D01*
X138118447Y-52975061D01*
X137939818Y-52796433D01*
X137706429Y-52699760D01*
X137115870Y-52699760D01*
X136957120Y-52858510D01*
X136703120Y-52858510D01*
X136544370Y-52699760D01*
X135953811Y-52699760D01*
X135720422Y-52796433D01*
X135579184Y-52937670D01*
X135544210Y-52883319D01*
X135332010Y-52738329D01*
X135080120Y-52687320D01*
X133580120Y-52687320D01*
X133344803Y-52731598D01*
X133128679Y-52870670D01*
X132983689Y-53082870D01*
X132950136Y-53248560D01*
X123699221Y-53248560D01*
X123574479Y-53123600D01*
X123274408Y-52999000D01*
X123631908Y-52641500D01*
X132015173Y-52641500D01*
X132079061Y-52705500D01*
X132438350Y-52854690D01*
X132827383Y-52855029D01*
X133186932Y-52706467D01*
X133462260Y-52431619D01*
X133611450Y-52072330D01*
X133611789Y-51683297D01*
X133465668Y-51329655D01*
X133607120Y-51358300D01*
X135107120Y-51358300D01*
X135342437Y-51314022D01*
X135558561Y-51174950D01*
X135703551Y-50962750D01*
X135710311Y-50929370D01*
X135768793Y-51070559D01*
X135947422Y-51249187D01*
X136180811Y-51345860D01*
X136771370Y-51345860D01*
X136930120Y-51187110D01*
X136930120Y-50187860D01*
X137184120Y-50187860D01*
X137184120Y-51187110D01*
X137342870Y-51345860D01*
X137933429Y-51345860D01*
X138166818Y-51249187D01*
X138345447Y-51070559D01*
X138442120Y-50837170D01*
X138442120Y-50346610D01*
X138283370Y-50187860D01*
X137184120Y-50187860D01*
X136930120Y-50187860D01*
X136910120Y-50187860D01*
X136910120Y-49933860D01*
X136930120Y-49933860D01*
X136930120Y-48934610D01*
X137184120Y-48934610D01*
X137184120Y-49933860D01*
X138283370Y-49933860D01*
X138442120Y-49775110D01*
X138442120Y-49284550D01*
X138345447Y-49051161D01*
X138166818Y-48872533D01*
X137933429Y-48775860D01*
X137342870Y-48775860D01*
X137184120Y-48934610D01*
X136930120Y-48934610D01*
X136771370Y-48775860D01*
X136180811Y-48775860D01*
X135947422Y-48872533D01*
X135768793Y-49051161D01*
X135712466Y-49187147D01*
X135710282Y-49175543D01*
X135571210Y-48959419D01*
X135359010Y-48814429D01*
X135107120Y-48763420D01*
X133607120Y-48763420D01*
X133371803Y-48807698D01*
X133155679Y-48946770D01*
X133010689Y-49158970D01*
X132972073Y-49349660D01*
X123991299Y-49349660D01*
X123853879Y-49212000D01*
X123494590Y-49062810D01*
X123105557Y-49062471D01*
X122746008Y-49211033D01*
X122470680Y-49485881D01*
X122321490Y-49845170D01*
X122321151Y-50234203D01*
X122469713Y-50593752D01*
X122744561Y-50869080D01*
X123103850Y-51018270D01*
X123492883Y-51018609D01*
X123852432Y-50870047D01*
X123950590Y-50772060D01*
X132971196Y-50772060D01*
X133003958Y-50946177D01*
X133026494Y-50981200D01*
X132829090Y-50899230D01*
X132440057Y-50898891D01*
X132080508Y-51047453D01*
X131908561Y-51219100D01*
X123337320Y-51219100D01*
X123110310Y-51264255D01*
X123065155Y-51273237D01*
X122834426Y-51427406D01*
X118267506Y-55994326D01*
X118201440Y-56093200D01*
X118201440Y-53322168D01*
X123174709Y-48348900D01*
X148811774Y-48348900D01*
X148868208Y-48485480D01*
M02*
