G04 #@! TF.FileFunction,Copper,L1,Top*
%FSLAX46Y46*%
G04 Gerber Fmt 4.6, Leading zero omitted, Abs format (unit mm)*
G04 Created by KiCad (PCBNEW 4.0.6) date Wed Aug 30 21:06:07 2017*
%MOMM*%
%LPD*%
G01*
G04 APERTURE LIST*
%ADD10C,0.100000*%
%ADD11R,1.000000X3.500000*%
%ADD12R,1.600000X3.400000*%
%ADD13R,2.000000X2.000000*%
%ADD14R,0.800000X0.300000*%
%ADD15R,1.500000X1.250000*%
%ADD16R,1.220000X0.910000*%
%ADD17R,2.500000X2.500000*%
%ADD18R,0.800100X1.800860*%
%ADD19R,1.300000X1.500000*%
%ADD20C,1.727200*%
%ADD21C,0.685800*%
%ADD22C,0.152400*%
%ADD23C,0.254000*%
G04 APERTURE END LIST*
D10*
D11*
X131770120Y-40541160D03*
X129770120Y-40541160D03*
D12*
X134170120Y-34991160D03*
X127370120Y-34991160D03*
D13*
X77078840Y-50977800D03*
D14*
X80031840Y-68854800D03*
X80031840Y-68354800D03*
X80031840Y-67854800D03*
X80031840Y-67354800D03*
X80031840Y-66854800D03*
X80031840Y-66354800D03*
X80031840Y-65854800D03*
X80031840Y-65354800D03*
X80031840Y-64854800D03*
X80031840Y-64354800D03*
X80031840Y-63854800D03*
X80031840Y-63354800D03*
X80031840Y-62854800D03*
X80031840Y-62354800D03*
X80031840Y-61854800D03*
X80031840Y-61354800D03*
X80031840Y-60854800D03*
X80031840Y-60354800D03*
X80031840Y-59854800D03*
X80031840Y-59354800D03*
X80031840Y-58854800D03*
X80031840Y-58354800D03*
X80031840Y-57854800D03*
X80031840Y-57354800D03*
X80031840Y-56854800D03*
X80031840Y-56354800D03*
X80031840Y-55854800D03*
X80031840Y-55354800D03*
X80031840Y-54854800D03*
X80031840Y-54354800D03*
X80031840Y-53854800D03*
X80031840Y-53354800D03*
X80031840Y-52854800D03*
X80031840Y-52354800D03*
D13*
X77078840Y-70281800D03*
D15*
X87668120Y-70596160D03*
X85168120Y-70596160D03*
X104624120Y-40558160D03*
X107124120Y-40558160D03*
X79067340Y-83233260D03*
X81567340Y-83233260D03*
X88188120Y-75806160D03*
X85688120Y-75806160D03*
X98548120Y-38126160D03*
X96048120Y-38126160D03*
X98548120Y-50776160D03*
X96048120Y-50776160D03*
X98548120Y-47576160D03*
X96048120Y-47576160D03*
X98548120Y-44326160D03*
X96048120Y-44326160D03*
X98548120Y-35226160D03*
X96048120Y-35226160D03*
X98548120Y-41076160D03*
X96048120Y-41076160D03*
D16*
X78958440Y-75730860D03*
X78958440Y-79000860D03*
X82255360Y-75814680D03*
X82255360Y-79084680D03*
X75354180Y-79084680D03*
X75354180Y-75814680D03*
D17*
X87008120Y-82586160D03*
X87008120Y-79086160D03*
D18*
X96738120Y-80835020D03*
X94838120Y-80835020D03*
X95788120Y-83837300D03*
D19*
X91668120Y-80836160D03*
X91668120Y-83536160D03*
D20*
X107248120Y-45446160D03*
X107248120Y-47986160D03*
X107248120Y-50526160D03*
X107248120Y-53066160D03*
X107248120Y-55606160D03*
X107248120Y-58146160D03*
X107248120Y-60686160D03*
X107248120Y-63226160D03*
X107248120Y-65766160D03*
X107248120Y-68306160D03*
X107248120Y-70846160D03*
X107248120Y-73386160D03*
X107248120Y-75926160D03*
X107248120Y-78466160D03*
X122488120Y-78466160D03*
X122488120Y-70846160D03*
X122488120Y-50526160D03*
X122488120Y-65766160D03*
X122488120Y-68306160D03*
X122488120Y-47986160D03*
X122488120Y-55606160D03*
X122488120Y-45446160D03*
X122488120Y-58146160D03*
X122488120Y-60686160D03*
X122488120Y-63226160D03*
X122488120Y-53066160D03*
X122488120Y-75926160D03*
X122488120Y-73386160D03*
D21*
X93708120Y-86116160D03*
X90768120Y-86096160D03*
X82258120Y-72646160D03*
X81258120Y-64346160D03*
X96758120Y-71486160D03*
X96768120Y-75896160D03*
X91558120Y-75666160D03*
X91668120Y-68646160D03*
X99998120Y-73256160D03*
X84708120Y-63796160D03*
X112188120Y-59446160D03*
X100658120Y-62946160D03*
X94248120Y-62906160D03*
X90708120Y-61646160D03*
X102788120Y-61666160D03*
X114438120Y-62196160D03*
X116128120Y-73416160D03*
X98828120Y-67166160D03*
X88548120Y-60846160D03*
X110154120Y-40558160D03*
X87028120Y-85486160D03*
X86438120Y-59356160D03*
X76898120Y-59376160D03*
D22*
X78958440Y-79000860D02*
X78958440Y-83124360D01*
X78958440Y-83124360D02*
X79067340Y-83233260D01*
X75354180Y-79084680D02*
X78874620Y-79084680D01*
X78874620Y-79084680D02*
X78958440Y-79000860D01*
X87008120Y-79086160D02*
X89238120Y-79086160D01*
X93708120Y-86116160D02*
X95788120Y-84036160D01*
X90708120Y-86096160D02*
X90768120Y-86096160D01*
X89758120Y-85146160D02*
X90708120Y-86096160D01*
X89758120Y-79606160D02*
X89758120Y-85146160D01*
X89238120Y-79086160D02*
X89758120Y-79606160D01*
X95788120Y-84036160D02*
X95788120Y-83837300D01*
X82255360Y-79084680D02*
X87006640Y-79084680D01*
X87006640Y-79084680D02*
X87008120Y-79086160D01*
X82255360Y-79084680D02*
X82255360Y-82545240D01*
X82255360Y-82545240D02*
X81567340Y-83233260D01*
X80031840Y-64354800D02*
X81249480Y-64354800D01*
X82255360Y-72648920D02*
X82255360Y-75814680D01*
X82258120Y-72646160D02*
X82255360Y-72648920D01*
X81249480Y-64354800D02*
X81258120Y-64346160D01*
X82255360Y-75814680D02*
X85679600Y-75814680D01*
X85679600Y-75814680D02*
X85688120Y-75806160D01*
X75354180Y-75814680D02*
X73966640Y-75814680D01*
X75999480Y-55354800D02*
X80031840Y-55354800D01*
X72728120Y-58626160D02*
X75999480Y-55354800D01*
X72728120Y-74576160D02*
X72728120Y-58626160D01*
X73966640Y-75814680D02*
X72728120Y-74576160D01*
X80031840Y-55354800D02*
X82169480Y-55354800D01*
X91398120Y-38126160D02*
X96048120Y-38126160D01*
X86498120Y-43026160D02*
X91398120Y-38126160D01*
X86498120Y-51026160D02*
X86498120Y-43026160D01*
X82169480Y-55354800D02*
X86498120Y-51026160D01*
X80031840Y-64854800D02*
X77129480Y-64854800D01*
X81098120Y-70596160D02*
X85168120Y-70596160D01*
X78538120Y-73156160D02*
X81098120Y-70596160D01*
X75438120Y-73156160D02*
X78538120Y-73156160D01*
X74368120Y-72086160D02*
X75438120Y-73156160D01*
X74368120Y-67616160D02*
X74368120Y-72086160D01*
X77129480Y-64854800D02*
X74368120Y-67616160D01*
X80031840Y-57854800D02*
X83919480Y-57854800D01*
X90998120Y-50776160D02*
X96048120Y-50776160D01*
X83919480Y-57854800D02*
X90998120Y-50776160D01*
X80031840Y-56854800D02*
X83744480Y-56854800D01*
X90748120Y-47576160D02*
X96048120Y-47576160D01*
X89023120Y-49301160D02*
X90748120Y-47576160D01*
X89023120Y-51576160D02*
X89023120Y-49301160D01*
X83744480Y-56854800D02*
X89023120Y-51576160D01*
X80031840Y-56354800D02*
X83244480Y-56354800D01*
X89423120Y-44326160D02*
X96048120Y-44326160D01*
X88273120Y-45476160D02*
X89423120Y-44326160D01*
X88273120Y-51326160D02*
X88273120Y-45476160D01*
X83244480Y-56354800D02*
X88273120Y-51326160D01*
X80031840Y-55854800D02*
X82694480Y-55854800D01*
X89798120Y-41076160D02*
X96048120Y-41076160D01*
X87398120Y-43476160D02*
X89798120Y-41076160D01*
X87398120Y-51151160D02*
X87398120Y-43476160D01*
X82694480Y-55854800D02*
X87398120Y-51151160D01*
X96048120Y-35226160D02*
X93098120Y-35226160D01*
X81669480Y-54854800D02*
X80031840Y-54854800D01*
X85573120Y-50951160D02*
X81669480Y-54854800D01*
X85573120Y-42751160D02*
X85573120Y-50951160D01*
X93098120Y-35226160D02*
X85573120Y-42751160D01*
X96738120Y-80835020D02*
X96738120Y-75926160D01*
X81926760Y-65854800D02*
X80031840Y-65854800D01*
X83838120Y-67766160D02*
X81926760Y-65854800D01*
X88578120Y-67766160D02*
X83838120Y-67766160D01*
X91058120Y-70246160D02*
X88578120Y-67766160D01*
X95518120Y-70246160D02*
X91058120Y-70246160D01*
X96758120Y-71486160D02*
X95518120Y-70246160D01*
X96738120Y-75926160D02*
X96768120Y-75896160D01*
X80031840Y-65354800D02*
X82646760Y-65354800D01*
X91668120Y-75776160D02*
X91668120Y-80836160D01*
X91558120Y-75666160D02*
X91668120Y-75776160D01*
X90038120Y-67016160D02*
X91668120Y-68646160D01*
X84308120Y-67016160D02*
X90038120Y-67016160D01*
X82646760Y-65354800D02*
X84308120Y-67016160D01*
X91668120Y-80836160D02*
X94836980Y-80836160D01*
X94836980Y-80836160D02*
X94838120Y-80835020D01*
X80031840Y-62354800D02*
X81966760Y-62354800D01*
X81966760Y-62354800D02*
X84318120Y-64706160D01*
X84318120Y-64706160D02*
X100018120Y-64706160D01*
X100018120Y-64706160D02*
X104908120Y-69596160D01*
X104908120Y-69596160D02*
X118719760Y-69596160D01*
X118719760Y-69596160D02*
X122529600Y-73406000D01*
X80031840Y-61854800D02*
X82766760Y-61854800D01*
X124307960Y-75946000D02*
X122529600Y-75946000D01*
X126118120Y-77756160D02*
X124307960Y-75946000D01*
X126118120Y-80086160D02*
X126118120Y-77756160D01*
X123888120Y-82316160D02*
X126118120Y-80086160D01*
X104938120Y-82316160D02*
X123888120Y-82316160D01*
X100008120Y-77386160D02*
X104938120Y-82316160D01*
X100008120Y-73266160D02*
X100008120Y-77386160D01*
X99998120Y-73256160D02*
X100008120Y-73266160D01*
X82766760Y-61854800D02*
X84708120Y-63796160D01*
X80031840Y-61354800D02*
X83556760Y-61354800D01*
X83556760Y-61354800D02*
X86198120Y-63996160D01*
X99588120Y-59446160D02*
X112188120Y-59446160D01*
X95038120Y-63996160D02*
X99588120Y-59446160D01*
X86198120Y-63996160D02*
X95038120Y-63996160D01*
X104768120Y-67056160D02*
X121259760Y-67056160D01*
X80031840Y-60854800D02*
X84236760Y-60854800D01*
X121259760Y-67056160D02*
X122529600Y-68326000D01*
X100658120Y-62946160D02*
X104768120Y-67056160D01*
X86288120Y-62906160D02*
X94248120Y-62906160D01*
X84236760Y-60854800D02*
X86288120Y-62906160D01*
X84806760Y-60354800D02*
X86098120Y-61646160D01*
X86098120Y-61646160D02*
X90708120Y-61646160D01*
X84806760Y-60354800D02*
X80031840Y-60354800D01*
X103098120Y-61976160D02*
X102788120Y-61666160D01*
X114218120Y-61976160D02*
X103098120Y-61976160D01*
X114438120Y-62196160D02*
X114218120Y-61976160D01*
X122529600Y-78486000D02*
X117579760Y-73536160D01*
X116248120Y-73536160D02*
X117579760Y-73536160D01*
X116128120Y-73416160D02*
X116248120Y-73536160D01*
X80031840Y-59854800D02*
X85436760Y-59854800D01*
X104527960Y-75946000D02*
X107289600Y-75946000D01*
X102548120Y-73966160D02*
X104527960Y-75946000D01*
X102548120Y-70886160D02*
X102548120Y-73966160D01*
X98828120Y-67166160D02*
X102548120Y-70886160D01*
X86428120Y-60846160D02*
X88548120Y-60846160D01*
X85436760Y-59854800D02*
X86428120Y-60846160D01*
X107124120Y-40558160D02*
X110154120Y-40558160D01*
X87008120Y-82586160D02*
X87008120Y-85466160D01*
X87008120Y-85466160D02*
X87028120Y-85486160D01*
X86545220Y-83233260D02*
X87028120Y-83716160D01*
X80031840Y-59354800D02*
X86436760Y-59354800D01*
X86436760Y-59354800D02*
X86438120Y-59356160D01*
X80031840Y-59354800D02*
X76919480Y-59354800D01*
X76919480Y-59354800D02*
X76898120Y-59376160D01*
X80031840Y-59354800D02*
X80031840Y-58854800D01*
X80031840Y-62854800D02*
X80856760Y-62854800D01*
X80856760Y-62854800D02*
X81088120Y-63086160D01*
X80031840Y-62854800D02*
X78394480Y-62854800D01*
X78394480Y-62854800D02*
X78373120Y-62876160D01*
X80031840Y-58354800D02*
X80826760Y-58354800D01*
X80826760Y-58354800D02*
X81048120Y-58576160D01*
X80031840Y-58354800D02*
X78926760Y-58354800D01*
X78926760Y-58354800D02*
X78873120Y-58301160D01*
X122488120Y-45446160D02*
X130456120Y-45446160D01*
X131770120Y-44132160D02*
X131770120Y-40541160D01*
X130456120Y-45446160D02*
X131770120Y-44132160D01*
D23*
G36*
X125973689Y-33039270D02*
X125922680Y-33291160D01*
X125922680Y-36691160D01*
X125966958Y-36926477D01*
X126106030Y-37142601D01*
X126318230Y-37287591D01*
X126570120Y-37338600D01*
X128170120Y-37338600D01*
X128405437Y-37294322D01*
X128621561Y-37155250D01*
X128766551Y-36943050D01*
X128817560Y-36691160D01*
X128817560Y-33291160D01*
X128773282Y-33055843D01*
X128634210Y-32839719D01*
X128630406Y-32837120D01*
X132911812Y-32837120D01*
X132773689Y-33039270D01*
X132722680Y-33291160D01*
X132722680Y-36691160D01*
X132766958Y-36926477D01*
X132906030Y-37142601D01*
X133118230Y-37287591D01*
X133370120Y-37338600D01*
X134970120Y-37338600D01*
X135205437Y-37294322D01*
X135421561Y-37155250D01*
X135566551Y-36943050D01*
X135617560Y-36691160D01*
X135617560Y-33291160D01*
X135573282Y-33055843D01*
X135434210Y-32839719D01*
X135430757Y-32837360D01*
X143860543Y-32837360D01*
X145205211Y-32978441D01*
X146303073Y-33574272D01*
X147089350Y-34544880D01*
X147456920Y-35784942D01*
X147456920Y-85464421D01*
X147115946Y-86752559D01*
X146339305Y-87771072D01*
X145232017Y-88414848D01*
X143822453Y-88604769D01*
X143821896Y-88604960D01*
X143728120Y-88604960D01*
X143677847Y-88614960D01*
X132588120Y-88614960D01*
X132572535Y-88618060D01*
X69921397Y-88618060D01*
X71561465Y-88291830D01*
X72971581Y-87349621D01*
X73913790Y-85939505D01*
X74244650Y-84276160D01*
X73913790Y-82612815D01*
X72971581Y-81202699D01*
X71561465Y-80260490D01*
X69898120Y-79929630D01*
X68234775Y-80260490D01*
X66824659Y-81202699D01*
X65882450Y-82612815D01*
X65551590Y-84276160D01*
X65882450Y-85939505D01*
X66824659Y-87349621D01*
X68234775Y-88291830D01*
X69874843Y-88618060D01*
X66912153Y-88618060D01*
X66316503Y-88492099D01*
X65882084Y-88194198D01*
X65594733Y-87752725D01*
X65484320Y-87160438D01*
X65484320Y-78629680D01*
X74096740Y-78629680D01*
X74096740Y-79539680D01*
X74141018Y-79774997D01*
X74280090Y-79991121D01*
X74492290Y-80136111D01*
X74744180Y-80187120D01*
X75964180Y-80187120D01*
X76199497Y-80142842D01*
X76415621Y-80003770D01*
X76557666Y-79795880D01*
X77812653Y-79795880D01*
X77884350Y-79907301D01*
X78096550Y-80052291D01*
X78247240Y-80082806D01*
X78247240Y-81974010D01*
X78082023Y-82005098D01*
X77865899Y-82144170D01*
X77720909Y-82356370D01*
X77669900Y-82608260D01*
X77669900Y-83858260D01*
X77714178Y-84093577D01*
X77853250Y-84309701D01*
X78065450Y-84454691D01*
X78317340Y-84505700D01*
X79817340Y-84505700D01*
X80052657Y-84461422D01*
X80268781Y-84322350D01*
X80316474Y-84252549D01*
X80353250Y-84309701D01*
X80565450Y-84454691D01*
X80817340Y-84505700D01*
X82317340Y-84505700D01*
X82552657Y-84461422D01*
X82768781Y-84322350D01*
X82913771Y-84110150D01*
X82964780Y-83858260D01*
X82964780Y-82608260D01*
X82959552Y-82580473D01*
X82966560Y-82545240D01*
X82966560Y-80168078D01*
X83100677Y-80142842D01*
X83316801Y-80003770D01*
X83458846Y-79795880D01*
X85110680Y-79795880D01*
X85110680Y-80336160D01*
X85154958Y-80571477D01*
X85294030Y-80787601D01*
X85363831Y-80835294D01*
X85306679Y-80872070D01*
X85161689Y-81084270D01*
X85110680Y-81336160D01*
X85110680Y-83836160D01*
X85154958Y-84071477D01*
X85294030Y-84287601D01*
X85506230Y-84432591D01*
X85758120Y-84483600D01*
X86296920Y-84483600D01*
X86296920Y-84834331D01*
X86199580Y-84931501D01*
X86050390Y-85290790D01*
X86050051Y-85679823D01*
X86198613Y-86039372D01*
X86473461Y-86314700D01*
X86832750Y-86463890D01*
X87221783Y-86464229D01*
X87581332Y-86315667D01*
X87856660Y-86040819D01*
X88005850Y-85681530D01*
X88006189Y-85292497D01*
X87857627Y-84932948D01*
X87719320Y-84794399D01*
X87719320Y-84483600D01*
X88258120Y-84483600D01*
X88493437Y-84439322D01*
X88709561Y-84300250D01*
X88854551Y-84088050D01*
X88905560Y-83836160D01*
X88905560Y-81336160D01*
X88861282Y-81100843D01*
X88722210Y-80884719D01*
X88652409Y-80837026D01*
X88709561Y-80800250D01*
X88854551Y-80588050D01*
X88905560Y-80336160D01*
X88905560Y-79797360D01*
X88943532Y-79797360D01*
X89046920Y-79900748D01*
X89046920Y-85146160D01*
X89101057Y-85418325D01*
X89255226Y-85649054D01*
X89790143Y-86183971D01*
X89790051Y-86289823D01*
X89938613Y-86649372D01*
X90213461Y-86924700D01*
X90572750Y-87073890D01*
X90961783Y-87074229D01*
X91321332Y-86925667D01*
X91596660Y-86650819D01*
X91745850Y-86291530D01*
X91746189Y-85902497D01*
X91597627Y-85542948D01*
X91322779Y-85267620D01*
X90963490Y-85118430D01*
X90735980Y-85118232D01*
X90469320Y-84851572D01*
X90469320Y-84620574D01*
X90479793Y-84645858D01*
X90658421Y-84824487D01*
X90891810Y-84921160D01*
X91382370Y-84921160D01*
X91541120Y-84762410D01*
X91541120Y-83663160D01*
X91795120Y-83663160D01*
X91795120Y-84762410D01*
X91953870Y-84921160D01*
X92444430Y-84921160D01*
X92677819Y-84824487D01*
X92856447Y-84645858D01*
X92953120Y-84412469D01*
X92953120Y-83821910D01*
X92794370Y-83663160D01*
X91795120Y-83663160D01*
X91541120Y-83663160D01*
X91521120Y-83663160D01*
X91521120Y-83409160D01*
X91541120Y-83409160D01*
X91541120Y-83389160D01*
X91795120Y-83389160D01*
X91795120Y-83409160D01*
X92794370Y-83409160D01*
X92953120Y-83250410D01*
X92953120Y-82659851D01*
X92856447Y-82426462D01*
X92677819Y-82247833D01*
X92541833Y-82191506D01*
X92553437Y-82189322D01*
X92769561Y-82050250D01*
X92914551Y-81838050D01*
X92965560Y-81586160D01*
X92965560Y-81547360D01*
X93790630Y-81547360D01*
X93790630Y-81735450D01*
X93834908Y-81970767D01*
X93973980Y-82186891D01*
X94186180Y-82331881D01*
X94438070Y-82382890D01*
X95076322Y-82382890D01*
X94936629Y-82472780D01*
X94791639Y-82684980D01*
X94740630Y-82936870D01*
X94740630Y-84077862D01*
X93680257Y-85138235D01*
X93514457Y-85138091D01*
X93154908Y-85286653D01*
X92879580Y-85561501D01*
X92730390Y-85920790D01*
X92730051Y-86309823D01*
X92878613Y-86669372D01*
X93153461Y-86944700D01*
X93512750Y-87093890D01*
X93901783Y-87094229D01*
X94261332Y-86945667D01*
X94536660Y-86670819D01*
X94685850Y-86311530D01*
X94685996Y-86144072D01*
X95444898Y-85385170D01*
X96188170Y-85385170D01*
X96423487Y-85340892D01*
X96639611Y-85201820D01*
X96784601Y-84989620D01*
X96835610Y-84737730D01*
X96835610Y-82936870D01*
X96791332Y-82701553D01*
X96652260Y-82485429D01*
X96502189Y-82382890D01*
X97138170Y-82382890D01*
X97373487Y-82338612D01*
X97589611Y-82199540D01*
X97734601Y-81987340D01*
X97785610Y-81735450D01*
X97785610Y-79934590D01*
X97741332Y-79699273D01*
X97602260Y-79483149D01*
X97449320Y-79378650D01*
X97449320Y-76597902D01*
X97596660Y-76450819D01*
X97745850Y-76091530D01*
X97746189Y-75702497D01*
X97597627Y-75342948D01*
X97322779Y-75067620D01*
X96963490Y-74918430D01*
X96574457Y-74918091D01*
X96214908Y-75066653D01*
X95939580Y-75341501D01*
X95790390Y-75700790D01*
X95790051Y-76089823D01*
X95938613Y-76449372D01*
X96026920Y-76537833D01*
X96026920Y-79380225D01*
X95886629Y-79470500D01*
X95787488Y-79615597D01*
X95702260Y-79483149D01*
X95490060Y-79338159D01*
X95238170Y-79287150D01*
X94438070Y-79287150D01*
X94202753Y-79331428D01*
X93986629Y-79470500D01*
X93841639Y-79682700D01*
X93790630Y-79934590D01*
X93790630Y-80124960D01*
X92965560Y-80124960D01*
X92965560Y-80086160D01*
X92921282Y-79850843D01*
X92782210Y-79634719D01*
X92570010Y-79489729D01*
X92379320Y-79451113D01*
X92379320Y-76228146D01*
X92386660Y-76220819D01*
X92535850Y-75861530D01*
X92536189Y-75472497D01*
X92387627Y-75112948D01*
X92112779Y-74837620D01*
X91753490Y-74688430D01*
X91364457Y-74688091D01*
X91004908Y-74836653D01*
X90729580Y-75111501D01*
X90580390Y-75470790D01*
X90580051Y-75859823D01*
X90728613Y-76219372D01*
X90956920Y-76448078D01*
X90956920Y-79450236D01*
X90782803Y-79482998D01*
X90566679Y-79622070D01*
X90469320Y-79764560D01*
X90469320Y-79606160D01*
X90415183Y-79333996D01*
X90415183Y-79333995D01*
X90261014Y-79103266D01*
X89741014Y-78583266D01*
X89510285Y-78429097D01*
X89238120Y-78374960D01*
X88905560Y-78374960D01*
X88905560Y-77836160D01*
X88861282Y-77600843D01*
X88722210Y-77384719D01*
X88510010Y-77239729D01*
X88258120Y-77188720D01*
X85758120Y-77188720D01*
X85522803Y-77232998D01*
X85306679Y-77372070D01*
X85161689Y-77584270D01*
X85110680Y-77836160D01*
X85110680Y-78373480D01*
X83455084Y-78373480D01*
X83329450Y-78178239D01*
X83117250Y-78033249D01*
X82865360Y-77982240D01*
X81645360Y-77982240D01*
X81410043Y-78026518D01*
X81193919Y-78165590D01*
X81048929Y-78377790D01*
X80997920Y-78629680D01*
X80997920Y-79539680D01*
X81042198Y-79774997D01*
X81181270Y-79991121D01*
X81393470Y-80136111D01*
X81544160Y-80166626D01*
X81544160Y-81960820D01*
X80817340Y-81960820D01*
X80582023Y-82005098D01*
X80365899Y-82144170D01*
X80318206Y-82213971D01*
X80281430Y-82156819D01*
X80069230Y-82011829D01*
X79817340Y-81960820D01*
X79669640Y-81960820D01*
X79669640Y-80084258D01*
X79803757Y-80059022D01*
X80019881Y-79919950D01*
X80164871Y-79707750D01*
X80215880Y-79455860D01*
X80215880Y-78545860D01*
X80171602Y-78310543D01*
X80032530Y-78094419D01*
X79820330Y-77949429D01*
X79568440Y-77898420D01*
X78348440Y-77898420D01*
X78113123Y-77942698D01*
X77896999Y-78081770D01*
X77752009Y-78293970D01*
X77735908Y-78373480D01*
X76553904Y-78373480D01*
X76428270Y-78178239D01*
X76216070Y-78033249D01*
X75964180Y-77982240D01*
X74744180Y-77982240D01*
X74508863Y-78026518D01*
X74292739Y-78165590D01*
X74147749Y-78377790D01*
X74096740Y-78629680D01*
X65484320Y-78629680D01*
X65484320Y-48682160D01*
X66134920Y-48682160D01*
X66134920Y-72050160D01*
X66189057Y-72322324D01*
X66343226Y-72553054D01*
X66573956Y-72707223D01*
X66846120Y-72761360D01*
X69344337Y-72761360D01*
X69392800Y-72771000D01*
X70510161Y-72771000D01*
X70536356Y-72788503D01*
X70808520Y-72842640D01*
X71080684Y-72788503D01*
X71311414Y-72634334D01*
X71465583Y-72403604D01*
X71519720Y-72131440D01*
X71519720Y-72067844D01*
X71521320Y-72059800D01*
X71519720Y-72051756D01*
X71519720Y-58626160D01*
X72016920Y-58626160D01*
X72016920Y-74576160D01*
X72071057Y-74848325D01*
X72225226Y-75079054D01*
X73463746Y-76317574D01*
X73694475Y-76471743D01*
X73966640Y-76525880D01*
X74154456Y-76525880D01*
X74280090Y-76721121D01*
X74492290Y-76866111D01*
X74744180Y-76917120D01*
X75964180Y-76917120D01*
X76199497Y-76872842D01*
X76415621Y-76733770D01*
X76560611Y-76521570D01*
X76611620Y-76269680D01*
X76611620Y-76016610D01*
X77713440Y-76016610D01*
X77713440Y-76312169D01*
X77810113Y-76545558D01*
X77988741Y-76724187D01*
X78222130Y-76820860D01*
X78672690Y-76820860D01*
X78831440Y-76662110D01*
X78831440Y-75857860D01*
X79085440Y-75857860D01*
X79085440Y-76662110D01*
X79244190Y-76820860D01*
X79694750Y-76820860D01*
X79928139Y-76724187D01*
X80106767Y-76545558D01*
X80203440Y-76312169D01*
X80203440Y-76016610D01*
X80044690Y-75857860D01*
X79085440Y-75857860D01*
X78831440Y-75857860D01*
X77872190Y-75857860D01*
X77713440Y-76016610D01*
X76611620Y-76016610D01*
X76611620Y-75359680D01*
X76572082Y-75149551D01*
X77713440Y-75149551D01*
X77713440Y-75445110D01*
X77872190Y-75603860D01*
X78831440Y-75603860D01*
X78831440Y-74799610D01*
X79085440Y-74799610D01*
X79085440Y-75603860D01*
X80044690Y-75603860D01*
X80203440Y-75445110D01*
X80203440Y-75359680D01*
X80997920Y-75359680D01*
X80997920Y-76269680D01*
X81042198Y-76504997D01*
X81181270Y-76721121D01*
X81393470Y-76866111D01*
X81645360Y-76917120D01*
X82865360Y-76917120D01*
X83100677Y-76872842D01*
X83316801Y-76733770D01*
X83458846Y-76525880D01*
X84308503Y-76525880D01*
X84334958Y-76666477D01*
X84474030Y-76882601D01*
X84686230Y-77027591D01*
X84938120Y-77078600D01*
X86438120Y-77078600D01*
X86673437Y-77034322D01*
X86889561Y-76895250D01*
X86936089Y-76827154D01*
X87078422Y-76969487D01*
X87311811Y-77066160D01*
X87902370Y-77066160D01*
X88061120Y-76907410D01*
X88061120Y-75933160D01*
X88315120Y-75933160D01*
X88315120Y-76907410D01*
X88473870Y-77066160D01*
X89064429Y-77066160D01*
X89297818Y-76969487D01*
X89476447Y-76790859D01*
X89573120Y-76557470D01*
X89573120Y-76091910D01*
X89414370Y-75933160D01*
X88315120Y-75933160D01*
X88061120Y-75933160D01*
X88041120Y-75933160D01*
X88041120Y-75679160D01*
X88061120Y-75679160D01*
X88061120Y-74704910D01*
X88315120Y-74704910D01*
X88315120Y-75679160D01*
X89414370Y-75679160D01*
X89573120Y-75520410D01*
X89573120Y-75054850D01*
X89476447Y-74821461D01*
X89297818Y-74642833D01*
X89064429Y-74546160D01*
X88473870Y-74546160D01*
X88315120Y-74704910D01*
X88061120Y-74704910D01*
X87902370Y-74546160D01*
X87311811Y-74546160D01*
X87078422Y-74642833D01*
X86937184Y-74784070D01*
X86902210Y-74729719D01*
X86690010Y-74584729D01*
X86438120Y-74533720D01*
X84938120Y-74533720D01*
X84702803Y-74577998D01*
X84486679Y-74717070D01*
X84341689Y-74929270D01*
X84306411Y-75103480D01*
X83455084Y-75103480D01*
X83329450Y-74908239D01*
X83117250Y-74763249D01*
X82966560Y-74732734D01*
X82966560Y-73320710D01*
X83086660Y-73200819D01*
X83235850Y-72841530D01*
X83236189Y-72452497D01*
X83087627Y-72092948D01*
X82812779Y-71817620D01*
X82453490Y-71668430D01*
X82064457Y-71668091D01*
X81704908Y-71816653D01*
X81429580Y-72091501D01*
X81280390Y-72450790D01*
X81280051Y-72839823D01*
X81428613Y-73199372D01*
X81544160Y-73315121D01*
X81544160Y-74731282D01*
X81410043Y-74756518D01*
X81193919Y-74895590D01*
X81048929Y-75107790D01*
X80997920Y-75359680D01*
X80203440Y-75359680D01*
X80203440Y-75149551D01*
X80106767Y-74916162D01*
X79928139Y-74737533D01*
X79694750Y-74640860D01*
X79244190Y-74640860D01*
X79085440Y-74799610D01*
X78831440Y-74799610D01*
X78672690Y-74640860D01*
X78222130Y-74640860D01*
X77988741Y-74737533D01*
X77810113Y-74916162D01*
X77713440Y-75149551D01*
X76572082Y-75149551D01*
X76567342Y-75124363D01*
X76428270Y-74908239D01*
X76216070Y-74763249D01*
X75964180Y-74712240D01*
X74744180Y-74712240D01*
X74508863Y-74756518D01*
X74292739Y-74895590D01*
X74195562Y-75037814D01*
X73439320Y-74281572D01*
X73439320Y-58920748D01*
X76294069Y-56066000D01*
X78995916Y-56066000D01*
X79003907Y-56108471D01*
X78984400Y-56204800D01*
X78984400Y-56504800D01*
X79003907Y-56608471D01*
X78984400Y-56704800D01*
X78984400Y-57004800D01*
X79003907Y-57108471D01*
X78984400Y-57204800D01*
X78984400Y-57504800D01*
X79003907Y-57608471D01*
X78984400Y-57704800D01*
X78984400Y-58004800D01*
X78997820Y-58076123D01*
X78996840Y-58078490D01*
X78996840Y-58121050D01*
X79008461Y-58132671D01*
X79028678Y-58240117D01*
X79102460Y-58354778D01*
X79035409Y-58452910D01*
X79010760Y-58574630D01*
X78996840Y-58588550D01*
X78996840Y-58631110D01*
X78998507Y-58635135D01*
X78996793Y-58643600D01*
X77548592Y-58643600D01*
X77452779Y-58547620D01*
X77093490Y-58398430D01*
X76704457Y-58398091D01*
X76344908Y-58546653D01*
X76069580Y-58821501D01*
X75920390Y-59180790D01*
X75920051Y-59569823D01*
X76068613Y-59929372D01*
X76343461Y-60204700D01*
X76702750Y-60353890D01*
X77091783Y-60354229D01*
X77451332Y-60205667D01*
X77591243Y-60066000D01*
X78995916Y-60066000D01*
X79003907Y-60108471D01*
X78984400Y-60204800D01*
X78984400Y-60504800D01*
X79003907Y-60608471D01*
X78984400Y-60704800D01*
X78984400Y-61004800D01*
X79003907Y-61108471D01*
X78984400Y-61204800D01*
X78984400Y-61504800D01*
X79003907Y-61608471D01*
X78984400Y-61704800D01*
X78984400Y-62004800D01*
X79003907Y-62108471D01*
X78984400Y-62204800D01*
X78984400Y-62504800D01*
X78997820Y-62576123D01*
X78996840Y-62578490D01*
X78996840Y-62621050D01*
X79008461Y-62632671D01*
X79028678Y-62740117D01*
X79102460Y-62854778D01*
X79035409Y-62952910D01*
X79010760Y-63074630D01*
X78996840Y-63088550D01*
X78996840Y-63131110D01*
X78998507Y-63135135D01*
X78984400Y-63204800D01*
X78984400Y-63504800D01*
X79003907Y-63608471D01*
X78984400Y-63704800D01*
X78984400Y-64004800D01*
X79003907Y-64108471D01*
X78996793Y-64143600D01*
X77129480Y-64143600D01*
X76857315Y-64197737D01*
X76626586Y-64351905D01*
X73865226Y-67113266D01*
X73711057Y-67343995D01*
X73686214Y-67468890D01*
X73656920Y-67616160D01*
X73656920Y-72086160D01*
X73711057Y-72358325D01*
X73865226Y-72589054D01*
X74935226Y-73659055D01*
X75165956Y-73813223D01*
X75438120Y-73867360D01*
X78538120Y-73867360D01*
X78810285Y-73813223D01*
X79041014Y-73659054D01*
X81392709Y-71307360D01*
X83786900Y-71307360D01*
X83814958Y-71456477D01*
X83954030Y-71672601D01*
X84166230Y-71817591D01*
X84418120Y-71868600D01*
X85918120Y-71868600D01*
X86153437Y-71824322D01*
X86369561Y-71685250D01*
X86416089Y-71617154D01*
X86558422Y-71759487D01*
X86791811Y-71856160D01*
X87382370Y-71856160D01*
X87541120Y-71697410D01*
X87541120Y-70723160D01*
X87795120Y-70723160D01*
X87795120Y-71697410D01*
X87953870Y-71856160D01*
X88544429Y-71856160D01*
X88777818Y-71759487D01*
X88956447Y-71580859D01*
X89053120Y-71347470D01*
X89053120Y-70881910D01*
X88894370Y-70723160D01*
X87795120Y-70723160D01*
X87541120Y-70723160D01*
X87521120Y-70723160D01*
X87521120Y-70469160D01*
X87541120Y-70469160D01*
X87541120Y-69494910D01*
X87795120Y-69494910D01*
X87795120Y-70469160D01*
X88894370Y-70469160D01*
X89053120Y-70310410D01*
X89053120Y-69844850D01*
X88956447Y-69611461D01*
X88777818Y-69432833D01*
X88544429Y-69336160D01*
X87953870Y-69336160D01*
X87795120Y-69494910D01*
X87541120Y-69494910D01*
X87382370Y-69336160D01*
X86791811Y-69336160D01*
X86558422Y-69432833D01*
X86417184Y-69574070D01*
X86382210Y-69519719D01*
X86170010Y-69374729D01*
X85918120Y-69323720D01*
X84418120Y-69323720D01*
X84182803Y-69367998D01*
X83966679Y-69507070D01*
X83821689Y-69719270D01*
X83788136Y-69884960D01*
X81098120Y-69884960D01*
X80825956Y-69939097D01*
X80595226Y-70093265D01*
X78243532Y-72444960D01*
X75732709Y-72444960D01*
X75079320Y-71791572D01*
X75079320Y-69281800D01*
X75431400Y-69281800D01*
X75431400Y-71281800D01*
X75475678Y-71517117D01*
X75614750Y-71733241D01*
X75826950Y-71878231D01*
X76078840Y-71929240D01*
X78078840Y-71929240D01*
X78314157Y-71884962D01*
X78530281Y-71745890D01*
X78675271Y-71533690D01*
X78726280Y-71281800D01*
X78726280Y-69281800D01*
X78682002Y-69046483D01*
X78542930Y-68830359D01*
X78330730Y-68685369D01*
X78078840Y-68634360D01*
X76078840Y-68634360D01*
X75843523Y-68678638D01*
X75627399Y-68817710D01*
X75482409Y-69029910D01*
X75431400Y-69281800D01*
X75079320Y-69281800D01*
X75079320Y-67910748D01*
X77424069Y-65566000D01*
X78995916Y-65566000D01*
X79003907Y-65608471D01*
X78984400Y-65704800D01*
X78984400Y-66004800D01*
X79003907Y-66108471D01*
X78984400Y-66204800D01*
X78984400Y-66504800D01*
X79003907Y-66608471D01*
X78984400Y-66704800D01*
X78984400Y-67004800D01*
X79003907Y-67108471D01*
X78984400Y-67204800D01*
X78984400Y-67504800D01*
X79003907Y-67608471D01*
X78984400Y-67704800D01*
X78984400Y-68004800D01*
X79003907Y-68108471D01*
X78984400Y-68204800D01*
X78984400Y-68504800D01*
X79003907Y-68608471D01*
X78984400Y-68704800D01*
X78984400Y-69004800D01*
X79028678Y-69240117D01*
X79167750Y-69456241D01*
X79379950Y-69601231D01*
X79631840Y-69652240D01*
X80431840Y-69652240D01*
X80667157Y-69607962D01*
X80883281Y-69468890D01*
X81028271Y-69256690D01*
X81079280Y-69004800D01*
X81079280Y-68704800D01*
X81059773Y-68601129D01*
X81079280Y-68504800D01*
X81079280Y-68204800D01*
X81059773Y-68101129D01*
X81079280Y-68004800D01*
X81079280Y-67704800D01*
X81059773Y-67601129D01*
X81079280Y-67504800D01*
X81079280Y-67204800D01*
X81059773Y-67101129D01*
X81079280Y-67004800D01*
X81079280Y-66704800D01*
X81059773Y-66601129D01*
X81066887Y-66566000D01*
X81632172Y-66566000D01*
X83335225Y-68269054D01*
X83565955Y-68423223D01*
X83611110Y-68432205D01*
X83838120Y-68477360D01*
X88283532Y-68477360D01*
X90555226Y-70749055D01*
X90785956Y-70903223D01*
X91058120Y-70957360D01*
X95223532Y-70957360D01*
X95780195Y-71514023D01*
X95780051Y-71679823D01*
X95928613Y-72039372D01*
X96203461Y-72314700D01*
X96562750Y-72463890D01*
X96951783Y-72464229D01*
X97311332Y-72315667D01*
X97586660Y-72040819D01*
X97735850Y-71681530D01*
X97736189Y-71292497D01*
X97587627Y-70932948D01*
X97312779Y-70657620D01*
X96953490Y-70508430D01*
X96786032Y-70508284D01*
X96021014Y-69743266D01*
X95790285Y-69589097D01*
X95518120Y-69534960D01*
X92077831Y-69534960D01*
X92221332Y-69475667D01*
X92496660Y-69200819D01*
X92645850Y-68841530D01*
X92646189Y-68452497D01*
X92497627Y-68092948D01*
X92222779Y-67817620D01*
X91863490Y-67668430D01*
X91696032Y-67668284D01*
X90541014Y-66513266D01*
X90310285Y-66359097D01*
X90038120Y-66304960D01*
X84602708Y-66304960D01*
X83149654Y-64851906D01*
X82918925Y-64697737D01*
X82646760Y-64643600D01*
X82193467Y-64643600D01*
X82235850Y-64541530D01*
X82236189Y-64152497D01*
X82087627Y-63792948D01*
X81812779Y-63517620D01*
X81453490Y-63368430D01*
X81079280Y-63368104D01*
X81079280Y-63204800D01*
X81065860Y-63133477D01*
X81066840Y-63131110D01*
X81066840Y-63088550D01*
X81055219Y-63076929D01*
X81053163Y-63066000D01*
X81672172Y-63066000D01*
X83815226Y-65209054D01*
X84045955Y-65363223D01*
X84091110Y-65372205D01*
X84318120Y-65417360D01*
X99723532Y-65417360D01*
X104405225Y-70099054D01*
X104518827Y-70174960D01*
X104635956Y-70253223D01*
X104908120Y-70307360D01*
X105849190Y-70307360D01*
X105749781Y-70546762D01*
X105749261Y-71142942D01*
X105976928Y-71693940D01*
X106398123Y-72115870D01*
X106399051Y-72116255D01*
X105978410Y-72536163D01*
X105749781Y-73086762D01*
X105749261Y-73682942D01*
X105976928Y-74233940D01*
X106398123Y-74655870D01*
X106399051Y-74656255D01*
X105978410Y-75076163D01*
X105912538Y-75234800D01*
X104822549Y-75234800D01*
X103259320Y-73671572D01*
X103259320Y-70886160D01*
X103205183Y-70613996D01*
X103134646Y-70508430D01*
X103051014Y-70383265D01*
X99806045Y-67138296D01*
X99806189Y-66972497D01*
X99657627Y-66612948D01*
X99382779Y-66337620D01*
X99023490Y-66188430D01*
X98634457Y-66188091D01*
X98274908Y-66336653D01*
X97999580Y-66611501D01*
X97850390Y-66970790D01*
X97850051Y-67359823D01*
X97998613Y-67719372D01*
X98273461Y-67994700D01*
X98632750Y-68143890D01*
X98800208Y-68144036D01*
X101836920Y-71180749D01*
X101836920Y-73966160D01*
X101891057Y-74238325D01*
X102045226Y-74469054D01*
X104025066Y-76448895D01*
X104255796Y-76603063D01*
X104527960Y-76657200D01*
X105928692Y-76657200D01*
X105976928Y-76773940D01*
X106398123Y-77195870D01*
X106399051Y-77196255D01*
X105978410Y-77616163D01*
X105749781Y-78166762D01*
X105749261Y-78762942D01*
X105976928Y-79313940D01*
X106398123Y-79735870D01*
X106948722Y-79964499D01*
X107544902Y-79965019D01*
X108095900Y-79737352D01*
X108517830Y-79316157D01*
X108746459Y-78765558D01*
X108746979Y-78169378D01*
X108519312Y-77618380D01*
X108098117Y-77196450D01*
X108097189Y-77196065D01*
X108517830Y-76776157D01*
X108746459Y-76225558D01*
X108746979Y-75629378D01*
X108519312Y-75078380D01*
X108098117Y-74656450D01*
X108097189Y-74656065D01*
X108517830Y-74236157D01*
X108746459Y-73685558D01*
X108746979Y-73089378D01*
X108519312Y-72538380D01*
X108098117Y-72116450D01*
X108097189Y-72116065D01*
X108517830Y-71696157D01*
X108746459Y-71145558D01*
X108746979Y-70549378D01*
X108646980Y-70307360D01*
X118425172Y-70307360D01*
X121052802Y-72934991D01*
X120989781Y-73086762D01*
X120989261Y-73682942D01*
X121216928Y-74233940D01*
X121638123Y-74655870D01*
X121639051Y-74656255D01*
X121218410Y-75076163D01*
X120989781Y-75626762D01*
X120989508Y-75940120D01*
X118082654Y-73033266D01*
X117851925Y-72879097D01*
X117579760Y-72824960D01*
X116919705Y-72824960D01*
X116682779Y-72587620D01*
X116323490Y-72438430D01*
X115934457Y-72438091D01*
X115574908Y-72586653D01*
X115299580Y-72861501D01*
X115150390Y-73220790D01*
X115150051Y-73609823D01*
X115298613Y-73969372D01*
X115573461Y-74244700D01*
X115932750Y-74393890D01*
X116321783Y-74394229D01*
X116677235Y-74247360D01*
X117285172Y-74247360D01*
X121052802Y-78014990D01*
X120989781Y-78166762D01*
X120989261Y-78762942D01*
X121216928Y-79313940D01*
X121638123Y-79735870D01*
X122188722Y-79964499D01*
X122784902Y-79965019D01*
X123335900Y-79737352D01*
X123757830Y-79316157D01*
X123986459Y-78765558D01*
X123986979Y-78169378D01*
X123759312Y-77618380D01*
X123338117Y-77196450D01*
X123337189Y-77196065D01*
X123757830Y-76776157D01*
X123807225Y-76657200D01*
X124013372Y-76657200D01*
X125406920Y-78050748D01*
X125406920Y-79791571D01*
X123593532Y-81604960D01*
X105232708Y-81604960D01*
X100719320Y-77091572D01*
X100719320Y-73917972D01*
X100826660Y-73810819D01*
X100975850Y-73451530D01*
X100976189Y-73062497D01*
X100827627Y-72702948D01*
X100552779Y-72427620D01*
X100193490Y-72278430D01*
X99804457Y-72278091D01*
X99444908Y-72426653D01*
X99169580Y-72701501D01*
X99020390Y-73060790D01*
X99020051Y-73449823D01*
X99168613Y-73809372D01*
X99296920Y-73937903D01*
X99296920Y-77386160D01*
X99351057Y-77658325D01*
X99505226Y-77889054D01*
X104435226Y-82819054D01*
X104665955Y-82973223D01*
X104938120Y-83027360D01*
X123888120Y-83027360D01*
X124160285Y-82973223D01*
X124391014Y-82819054D01*
X126621014Y-80589055D01*
X126775183Y-80358325D01*
X126794643Y-80260490D01*
X126829320Y-80086160D01*
X126829320Y-77756160D01*
X126801473Y-77616163D01*
X126775183Y-77483995D01*
X126621014Y-77253266D01*
X124810854Y-75443106D01*
X124580125Y-75288937D01*
X124307960Y-75234800D01*
X123823943Y-75234800D01*
X123759312Y-75078380D01*
X123338117Y-74656450D01*
X123337189Y-74656065D01*
X123757830Y-74236157D01*
X123986459Y-73685558D01*
X123986979Y-73089378D01*
X123759312Y-72538380D01*
X123338117Y-72116450D01*
X123337189Y-72116065D01*
X123757830Y-71696157D01*
X123986459Y-71145558D01*
X123986979Y-70549378D01*
X123759312Y-69998380D01*
X123338117Y-69576450D01*
X123337189Y-69576065D01*
X123757830Y-69156157D01*
X123986459Y-68605558D01*
X123986979Y-68009378D01*
X123759312Y-67458380D01*
X123338117Y-67036450D01*
X123337189Y-67036065D01*
X123757830Y-66616157D01*
X123986459Y-66065558D01*
X123986979Y-65469378D01*
X123759312Y-64918380D01*
X123338117Y-64496450D01*
X123337189Y-64496065D01*
X123757830Y-64076157D01*
X123986459Y-63525558D01*
X123986979Y-62929378D01*
X123759312Y-62378380D01*
X123338117Y-61956450D01*
X123337189Y-61956065D01*
X123757830Y-61536157D01*
X123986459Y-60985558D01*
X123986979Y-60389378D01*
X123759312Y-59838380D01*
X123338117Y-59416450D01*
X123337189Y-59416065D01*
X123757830Y-58996157D01*
X123986459Y-58445558D01*
X123986979Y-57849378D01*
X123759312Y-57298380D01*
X123338117Y-56876450D01*
X123337189Y-56876065D01*
X123757830Y-56456157D01*
X123986459Y-55905558D01*
X123986979Y-55309378D01*
X123759312Y-54758380D01*
X123338117Y-54336450D01*
X123337189Y-54336065D01*
X123757830Y-53916157D01*
X123986459Y-53365558D01*
X123986979Y-52769378D01*
X123759312Y-52218380D01*
X123338117Y-51796450D01*
X123337189Y-51796065D01*
X123757830Y-51376157D01*
X123986459Y-50825558D01*
X123986979Y-50229378D01*
X123759312Y-49678380D01*
X123338117Y-49256450D01*
X123297583Y-49239619D01*
X123362320Y-49039965D01*
X122488120Y-48165765D01*
X121613920Y-49039965D01*
X121678519Y-49239193D01*
X121640340Y-49254968D01*
X121218410Y-49676163D01*
X120989781Y-50226762D01*
X120989261Y-50822942D01*
X121216928Y-51373940D01*
X121638123Y-51795870D01*
X121639051Y-51796255D01*
X121218410Y-52216163D01*
X120989781Y-52766762D01*
X120989261Y-53362942D01*
X121216928Y-53913940D01*
X121638123Y-54335870D01*
X121639051Y-54336255D01*
X121218410Y-54756163D01*
X120989781Y-55306762D01*
X120989261Y-55902942D01*
X121216928Y-56453940D01*
X121638123Y-56875870D01*
X121639051Y-56876255D01*
X121218410Y-57296163D01*
X120989781Y-57846762D01*
X120989261Y-58442942D01*
X121216928Y-58993940D01*
X121638123Y-59415870D01*
X121639051Y-59416255D01*
X121218410Y-59836163D01*
X120989781Y-60386762D01*
X120989261Y-60982942D01*
X121216928Y-61533940D01*
X121638123Y-61955870D01*
X121639051Y-61956255D01*
X121218410Y-62376163D01*
X120989781Y-62926762D01*
X120989261Y-63522942D01*
X121216928Y-64073940D01*
X121638123Y-64495870D01*
X121639051Y-64496255D01*
X121218410Y-64916163D01*
X120989781Y-65466762D01*
X120989261Y-66062942D01*
X121105788Y-66344960D01*
X108630441Y-66344960D01*
X108746459Y-66065558D01*
X108746979Y-65469378D01*
X108519312Y-64918380D01*
X108098117Y-64496450D01*
X108097189Y-64496065D01*
X108517830Y-64076157D01*
X108746459Y-63525558D01*
X108746979Y-62929378D01*
X108646980Y-62687360D01*
X113582990Y-62687360D01*
X113608613Y-62749372D01*
X113883461Y-63024700D01*
X114242750Y-63173890D01*
X114631783Y-63174229D01*
X114991332Y-63025667D01*
X115266660Y-62750819D01*
X115415850Y-62391530D01*
X115416189Y-62002497D01*
X115267627Y-61642948D01*
X114992779Y-61367620D01*
X114633490Y-61218430D01*
X114244457Y-61218091D01*
X114131025Y-61264960D01*
X108630441Y-61264960D01*
X108746459Y-60985558D01*
X108746979Y-60389378D01*
X108651111Y-60157360D01*
X111516326Y-60157360D01*
X111633461Y-60274700D01*
X111992750Y-60423890D01*
X112381783Y-60424229D01*
X112741332Y-60275667D01*
X113016660Y-60000819D01*
X113165850Y-59641530D01*
X113166189Y-59252497D01*
X113017627Y-58892948D01*
X112742779Y-58617620D01*
X112383490Y-58468430D01*
X111994457Y-58468091D01*
X111634908Y-58616653D01*
X111516394Y-58734960D01*
X108626289Y-58734960D01*
X108746459Y-58445558D01*
X108746979Y-57849378D01*
X108519312Y-57298380D01*
X108098117Y-56876450D01*
X108097189Y-56876065D01*
X108517830Y-56456157D01*
X108746459Y-55905558D01*
X108746979Y-55309378D01*
X108519312Y-54758380D01*
X108098117Y-54336450D01*
X108097189Y-54336065D01*
X108517830Y-53916157D01*
X108746459Y-53365558D01*
X108746979Y-52769378D01*
X108519312Y-52218380D01*
X108098117Y-51796450D01*
X108097189Y-51796065D01*
X108517830Y-51376157D01*
X108746459Y-50825558D01*
X108746979Y-50229378D01*
X108519312Y-49678380D01*
X108098117Y-49256450D01*
X108097189Y-49256065D01*
X108517830Y-48836157D01*
X108746459Y-48285558D01*
X108746922Y-47754190D01*
X120977872Y-47754190D01*
X121004062Y-48349795D01*
X121181604Y-48778419D01*
X121434315Y-48860360D01*
X122308515Y-47986160D01*
X122667725Y-47986160D01*
X123541925Y-48860360D01*
X123794636Y-48778419D01*
X123998368Y-48218130D01*
X123972178Y-47622525D01*
X123794636Y-47193901D01*
X123541925Y-47111960D01*
X122667725Y-47986160D01*
X122308515Y-47986160D01*
X121434315Y-47111960D01*
X121181604Y-47193901D01*
X120977872Y-47754190D01*
X108746922Y-47754190D01*
X108746979Y-47689378D01*
X108519312Y-47138380D01*
X108098117Y-46716450D01*
X108057583Y-46699619D01*
X108122320Y-46499965D01*
X107248120Y-45625765D01*
X106373920Y-46499965D01*
X106438519Y-46699193D01*
X106400340Y-46714968D01*
X105978410Y-47136163D01*
X105749781Y-47686762D01*
X105749261Y-48282942D01*
X105976928Y-48833940D01*
X106398123Y-49255870D01*
X106399051Y-49256255D01*
X105978410Y-49676163D01*
X105749781Y-50226762D01*
X105749261Y-50822942D01*
X105976928Y-51373940D01*
X106398123Y-51795870D01*
X106399051Y-51796255D01*
X105978410Y-52216163D01*
X105749781Y-52766762D01*
X105749261Y-53362942D01*
X105976928Y-53913940D01*
X106398123Y-54335870D01*
X106399051Y-54336255D01*
X105978410Y-54756163D01*
X105749781Y-55306762D01*
X105749261Y-55902942D01*
X105976928Y-56453940D01*
X106398123Y-56875870D01*
X106399051Y-56876255D01*
X105978410Y-57296163D01*
X105749781Y-57846762D01*
X105749261Y-58442942D01*
X105869920Y-58734960D01*
X99588120Y-58734960D01*
X99315956Y-58789097D01*
X99085226Y-58943265D01*
X95226111Y-62802381D01*
X95226189Y-62712497D01*
X95077627Y-62352948D01*
X94802779Y-62077620D01*
X94443490Y-61928430D01*
X94054457Y-61928091D01*
X93694908Y-62076653D01*
X93576394Y-62194960D01*
X91539093Y-62194960D01*
X91685850Y-61841530D01*
X91686189Y-61452497D01*
X91537627Y-61092948D01*
X91262779Y-60817620D01*
X90903490Y-60668430D01*
X90514457Y-60668091D01*
X90154908Y-60816653D01*
X90036394Y-60934960D01*
X89525943Y-60934960D01*
X89526189Y-60652497D01*
X89377627Y-60292948D01*
X89102779Y-60017620D01*
X88743490Y-59868430D01*
X88354457Y-59868091D01*
X87994908Y-60016653D01*
X87876394Y-60134960D01*
X87042128Y-60134960D01*
X87266660Y-59910819D01*
X87415850Y-59551530D01*
X87416189Y-59162497D01*
X87267627Y-58802948D01*
X86992779Y-58527620D01*
X86633490Y-58378430D01*
X86244457Y-58378091D01*
X85884908Y-58526653D01*
X85767757Y-58643600D01*
X81067764Y-58643600D01*
X81065860Y-58633477D01*
X81066840Y-58631110D01*
X81066840Y-58588550D01*
X81055219Y-58576929D01*
X81053163Y-58566000D01*
X83919480Y-58566000D01*
X84191645Y-58511863D01*
X84422374Y-58357694D01*
X91292709Y-51487360D01*
X94666900Y-51487360D01*
X94694958Y-51636477D01*
X94834030Y-51852601D01*
X95046230Y-51997591D01*
X95298120Y-52048600D01*
X96798120Y-52048600D01*
X97033437Y-52004322D01*
X97249561Y-51865250D01*
X97296089Y-51797154D01*
X97438422Y-51939487D01*
X97671811Y-52036160D01*
X98262370Y-52036160D01*
X98421120Y-51877410D01*
X98421120Y-50903160D01*
X98675120Y-50903160D01*
X98675120Y-51877410D01*
X98833870Y-52036160D01*
X99424429Y-52036160D01*
X99657818Y-51939487D01*
X99836447Y-51760859D01*
X99933120Y-51527470D01*
X99933120Y-51061910D01*
X99774370Y-50903160D01*
X98675120Y-50903160D01*
X98421120Y-50903160D01*
X98401120Y-50903160D01*
X98401120Y-50649160D01*
X98421120Y-50649160D01*
X98421120Y-49674910D01*
X98675120Y-49674910D01*
X98675120Y-50649160D01*
X99774370Y-50649160D01*
X99933120Y-50490410D01*
X99933120Y-50024850D01*
X99836447Y-49791461D01*
X99657818Y-49612833D01*
X99424429Y-49516160D01*
X98833870Y-49516160D01*
X98675120Y-49674910D01*
X98421120Y-49674910D01*
X98262370Y-49516160D01*
X97671811Y-49516160D01*
X97438422Y-49612833D01*
X97297184Y-49754070D01*
X97262210Y-49699719D01*
X97050010Y-49554729D01*
X96798120Y-49503720D01*
X95298120Y-49503720D01*
X95062803Y-49547998D01*
X94846679Y-49687070D01*
X94701689Y-49899270D01*
X94668136Y-50064960D01*
X90998120Y-50064960D01*
X90725956Y-50119097D01*
X90495226Y-50273265D01*
X89734320Y-51034171D01*
X89734320Y-49595748D01*
X91042709Y-48287360D01*
X94666900Y-48287360D01*
X94694958Y-48436477D01*
X94834030Y-48652601D01*
X95046230Y-48797591D01*
X95298120Y-48848600D01*
X96798120Y-48848600D01*
X97033437Y-48804322D01*
X97249561Y-48665250D01*
X97296089Y-48597154D01*
X97438422Y-48739487D01*
X97671811Y-48836160D01*
X98262370Y-48836160D01*
X98421120Y-48677410D01*
X98421120Y-47703160D01*
X98675120Y-47703160D01*
X98675120Y-48677410D01*
X98833870Y-48836160D01*
X99424429Y-48836160D01*
X99657818Y-48739487D01*
X99836447Y-48560859D01*
X99933120Y-48327470D01*
X99933120Y-47861910D01*
X99774370Y-47703160D01*
X98675120Y-47703160D01*
X98421120Y-47703160D01*
X98401120Y-47703160D01*
X98401120Y-47449160D01*
X98421120Y-47449160D01*
X98421120Y-46474910D01*
X98675120Y-46474910D01*
X98675120Y-47449160D01*
X99774370Y-47449160D01*
X99933120Y-47290410D01*
X99933120Y-46824850D01*
X99836447Y-46591461D01*
X99657818Y-46412833D01*
X99424429Y-46316160D01*
X98833870Y-46316160D01*
X98675120Y-46474910D01*
X98421120Y-46474910D01*
X98262370Y-46316160D01*
X97671811Y-46316160D01*
X97438422Y-46412833D01*
X97297184Y-46554070D01*
X97262210Y-46499719D01*
X97050010Y-46354729D01*
X96798120Y-46303720D01*
X95298120Y-46303720D01*
X95062803Y-46347998D01*
X94846679Y-46487070D01*
X94701689Y-46699270D01*
X94668136Y-46864960D01*
X90748120Y-46864960D01*
X90475956Y-46919097D01*
X90420116Y-46956408D01*
X90245225Y-47073266D01*
X88984320Y-48334172D01*
X88984320Y-45770748D01*
X89717709Y-45037360D01*
X94666900Y-45037360D01*
X94694958Y-45186477D01*
X94834030Y-45402601D01*
X95046230Y-45547591D01*
X95298120Y-45598600D01*
X96798120Y-45598600D01*
X97033437Y-45554322D01*
X97249561Y-45415250D01*
X97296089Y-45347154D01*
X97438422Y-45489487D01*
X97671811Y-45586160D01*
X98262370Y-45586160D01*
X98421120Y-45427410D01*
X98421120Y-44453160D01*
X98675120Y-44453160D01*
X98675120Y-45427410D01*
X98833870Y-45586160D01*
X99424429Y-45586160D01*
X99657818Y-45489487D01*
X99836447Y-45310859D01*
X99876488Y-45214190D01*
X105737872Y-45214190D01*
X105764062Y-45809795D01*
X105941604Y-46238419D01*
X106194315Y-46320360D01*
X107068515Y-45446160D01*
X107427725Y-45446160D01*
X108301925Y-46320360D01*
X108554636Y-46238419D01*
X108734801Y-45742942D01*
X120989261Y-45742942D01*
X121216928Y-46293940D01*
X121638123Y-46715870D01*
X121678657Y-46732701D01*
X121613920Y-46932355D01*
X122488120Y-47806555D01*
X123362320Y-46932355D01*
X123297721Y-46733127D01*
X123335900Y-46717352D01*
X123757830Y-46296157D01*
X123815464Y-46157360D01*
X130456120Y-46157360D01*
X130728285Y-46103223D01*
X130959014Y-45949054D01*
X132273015Y-44635054D01*
X132427183Y-44404324D01*
X132481320Y-44132160D01*
X132481320Y-42898860D01*
X132505437Y-42894322D01*
X132721561Y-42755250D01*
X132866551Y-42543050D01*
X132917560Y-42291160D01*
X132917560Y-38791160D01*
X132873282Y-38555843D01*
X132734210Y-38339719D01*
X132522010Y-38194729D01*
X132270120Y-38143720D01*
X131270120Y-38143720D01*
X131034803Y-38187998D01*
X130818679Y-38327070D01*
X130772151Y-38395166D01*
X130629818Y-38252833D01*
X130396429Y-38156160D01*
X130055870Y-38156160D01*
X129897120Y-38314910D01*
X129897120Y-40414160D01*
X129917120Y-40414160D01*
X129917120Y-40668160D01*
X129897120Y-40668160D01*
X129897120Y-42767410D01*
X130055870Y-42926160D01*
X130396429Y-42926160D01*
X130629818Y-42829487D01*
X130771056Y-42688250D01*
X130806030Y-42742601D01*
X131018230Y-42887591D01*
X131058920Y-42895831D01*
X131058920Y-43837571D01*
X130161532Y-44734960D01*
X123815746Y-44734960D01*
X123759312Y-44598380D01*
X123338117Y-44176450D01*
X122787518Y-43947821D01*
X122191338Y-43947301D01*
X121640340Y-44174968D01*
X121218410Y-44596163D01*
X120989781Y-45146762D01*
X120989261Y-45742942D01*
X108734801Y-45742942D01*
X108758368Y-45678130D01*
X108732178Y-45082525D01*
X108554636Y-44653901D01*
X108301925Y-44571960D01*
X107427725Y-45446160D01*
X107068515Y-45446160D01*
X106194315Y-44571960D01*
X105941604Y-44653901D01*
X105737872Y-45214190D01*
X99876488Y-45214190D01*
X99933120Y-45077470D01*
X99933120Y-44611910D01*
X99774370Y-44453160D01*
X98675120Y-44453160D01*
X98421120Y-44453160D01*
X98401120Y-44453160D01*
X98401120Y-44392355D01*
X106373920Y-44392355D01*
X107248120Y-45266555D01*
X108122320Y-44392355D01*
X108040379Y-44139644D01*
X107480090Y-43935912D01*
X106884485Y-43962102D01*
X106455861Y-44139644D01*
X106373920Y-44392355D01*
X98401120Y-44392355D01*
X98401120Y-44199160D01*
X98421120Y-44199160D01*
X98421120Y-43224910D01*
X98675120Y-43224910D01*
X98675120Y-44199160D01*
X99774370Y-44199160D01*
X99933120Y-44040410D01*
X99933120Y-43574850D01*
X99836447Y-43341461D01*
X99657818Y-43162833D01*
X99424429Y-43066160D01*
X98833870Y-43066160D01*
X98675120Y-43224910D01*
X98421120Y-43224910D01*
X98262370Y-43066160D01*
X97671811Y-43066160D01*
X97438422Y-43162833D01*
X97297184Y-43304070D01*
X97262210Y-43249719D01*
X97050010Y-43104729D01*
X96798120Y-43053720D01*
X95298120Y-43053720D01*
X95062803Y-43097998D01*
X94846679Y-43237070D01*
X94701689Y-43449270D01*
X94668136Y-43614960D01*
X89423120Y-43614960D01*
X89150956Y-43669097D01*
X88920226Y-43823265D01*
X88109320Y-44634172D01*
X88109320Y-43770748D01*
X90092709Y-41787360D01*
X94666900Y-41787360D01*
X94694958Y-41936477D01*
X94834030Y-42152601D01*
X95046230Y-42297591D01*
X95298120Y-42348600D01*
X96798120Y-42348600D01*
X97033437Y-42304322D01*
X97249561Y-42165250D01*
X97296089Y-42097154D01*
X97438422Y-42239487D01*
X97671811Y-42336160D01*
X98262370Y-42336160D01*
X98421120Y-42177410D01*
X98421120Y-41203160D01*
X98675120Y-41203160D01*
X98675120Y-42177410D01*
X98833870Y-42336160D01*
X99424429Y-42336160D01*
X99657818Y-42239487D01*
X99836447Y-42060859D01*
X99933120Y-41827470D01*
X99933120Y-41361910D01*
X99774370Y-41203160D01*
X98675120Y-41203160D01*
X98421120Y-41203160D01*
X98401120Y-41203160D01*
X98401120Y-40949160D01*
X98421120Y-40949160D01*
X98421120Y-39974910D01*
X98675120Y-39974910D01*
X98675120Y-40949160D01*
X99774370Y-40949160D01*
X99879620Y-40843910D01*
X103239120Y-40843910D01*
X103239120Y-41309470D01*
X103335793Y-41542859D01*
X103514422Y-41721487D01*
X103747811Y-41818160D01*
X104338370Y-41818160D01*
X104497120Y-41659410D01*
X104497120Y-40685160D01*
X103397870Y-40685160D01*
X103239120Y-40843910D01*
X99879620Y-40843910D01*
X99933120Y-40790410D01*
X99933120Y-40324850D01*
X99836447Y-40091461D01*
X99657818Y-39912833D01*
X99424429Y-39816160D01*
X98833870Y-39816160D01*
X98675120Y-39974910D01*
X98421120Y-39974910D01*
X98262370Y-39816160D01*
X97671811Y-39816160D01*
X97438422Y-39912833D01*
X97297184Y-40054070D01*
X97262210Y-39999719D01*
X97050010Y-39854729D01*
X96813577Y-39806850D01*
X103239120Y-39806850D01*
X103239120Y-40272410D01*
X103397870Y-40431160D01*
X104497120Y-40431160D01*
X104497120Y-39456910D01*
X104751120Y-39456910D01*
X104751120Y-40431160D01*
X104771120Y-40431160D01*
X104771120Y-40685160D01*
X104751120Y-40685160D01*
X104751120Y-41659410D01*
X104909870Y-41818160D01*
X105500429Y-41818160D01*
X105733818Y-41721487D01*
X105875056Y-41580250D01*
X105910030Y-41634601D01*
X106122230Y-41779591D01*
X106374120Y-41830600D01*
X107874120Y-41830600D01*
X108109437Y-41786322D01*
X108325561Y-41647250D01*
X108470551Y-41435050D01*
X108504104Y-41269360D01*
X109482326Y-41269360D01*
X109599461Y-41386700D01*
X109958750Y-41535890D01*
X110347783Y-41536229D01*
X110707332Y-41387667D01*
X110982660Y-41112819D01*
X111101379Y-40826910D01*
X128635120Y-40826910D01*
X128635120Y-42417470D01*
X128731793Y-42650859D01*
X128910422Y-42829487D01*
X129143811Y-42926160D01*
X129484370Y-42926160D01*
X129643120Y-42767410D01*
X129643120Y-40668160D01*
X128793870Y-40668160D01*
X128635120Y-40826910D01*
X111101379Y-40826910D01*
X111131850Y-40753530D01*
X111132189Y-40364497D01*
X110983627Y-40004948D01*
X110708779Y-39729620D01*
X110349490Y-39580430D01*
X109960457Y-39580091D01*
X109600908Y-39728653D01*
X109482394Y-39846960D01*
X108505340Y-39846960D01*
X108477282Y-39697843D01*
X108338210Y-39481719D01*
X108126010Y-39336729D01*
X107874120Y-39285720D01*
X106374120Y-39285720D01*
X106138803Y-39329998D01*
X105922679Y-39469070D01*
X105876151Y-39537166D01*
X105733818Y-39394833D01*
X105500429Y-39298160D01*
X104909870Y-39298160D01*
X104751120Y-39456910D01*
X104497120Y-39456910D01*
X104338370Y-39298160D01*
X103747811Y-39298160D01*
X103514422Y-39394833D01*
X103335793Y-39573461D01*
X103239120Y-39806850D01*
X96813577Y-39806850D01*
X96798120Y-39803720D01*
X95298120Y-39803720D01*
X95062803Y-39847998D01*
X94846679Y-39987070D01*
X94701689Y-40199270D01*
X94668136Y-40364960D01*
X90165109Y-40364960D01*
X91692709Y-38837360D01*
X94666900Y-38837360D01*
X94694958Y-38986477D01*
X94834030Y-39202601D01*
X95046230Y-39347591D01*
X95298120Y-39398600D01*
X96798120Y-39398600D01*
X97033437Y-39354322D01*
X97249561Y-39215250D01*
X97296089Y-39147154D01*
X97438422Y-39289487D01*
X97671811Y-39386160D01*
X98262370Y-39386160D01*
X98421120Y-39227410D01*
X98421120Y-38253160D01*
X98675120Y-38253160D01*
X98675120Y-39227410D01*
X98833870Y-39386160D01*
X99424429Y-39386160D01*
X99657818Y-39289487D01*
X99836447Y-39110859D01*
X99933120Y-38877470D01*
X99933120Y-38664850D01*
X128635120Y-38664850D01*
X128635120Y-40255410D01*
X128793870Y-40414160D01*
X129643120Y-40414160D01*
X129643120Y-38314910D01*
X129484370Y-38156160D01*
X129143811Y-38156160D01*
X128910422Y-38252833D01*
X128731793Y-38431461D01*
X128635120Y-38664850D01*
X99933120Y-38664850D01*
X99933120Y-38411910D01*
X99774370Y-38253160D01*
X98675120Y-38253160D01*
X98421120Y-38253160D01*
X98401120Y-38253160D01*
X98401120Y-37999160D01*
X98421120Y-37999160D01*
X98421120Y-37024910D01*
X98675120Y-37024910D01*
X98675120Y-37999160D01*
X99774370Y-37999160D01*
X99933120Y-37840410D01*
X99933120Y-37410160D01*
X138546590Y-37410160D01*
X138877450Y-39073505D01*
X139819659Y-40483621D01*
X141229775Y-41425830D01*
X142893120Y-41756690D01*
X144556465Y-41425830D01*
X145966581Y-40483621D01*
X146908790Y-39073505D01*
X147239650Y-37410160D01*
X146908790Y-35746815D01*
X145966581Y-34336699D01*
X144556465Y-33394490D01*
X142893120Y-33063630D01*
X141229775Y-33394490D01*
X139819659Y-34336699D01*
X138877450Y-35746815D01*
X138546590Y-37410160D01*
X99933120Y-37410160D01*
X99933120Y-37374850D01*
X99836447Y-37141461D01*
X99657818Y-36962833D01*
X99424429Y-36866160D01*
X98833870Y-36866160D01*
X98675120Y-37024910D01*
X98421120Y-37024910D01*
X98262370Y-36866160D01*
X97671811Y-36866160D01*
X97438422Y-36962833D01*
X97297184Y-37104070D01*
X97262210Y-37049719D01*
X97050010Y-36904729D01*
X96798120Y-36853720D01*
X95298120Y-36853720D01*
X95062803Y-36897998D01*
X94846679Y-37037070D01*
X94701689Y-37249270D01*
X94668136Y-37414960D01*
X91915108Y-37414960D01*
X93392708Y-35937360D01*
X94666900Y-35937360D01*
X94694958Y-36086477D01*
X94834030Y-36302601D01*
X95046230Y-36447591D01*
X95298120Y-36498600D01*
X96798120Y-36498600D01*
X97033437Y-36454322D01*
X97249561Y-36315250D01*
X97296089Y-36247154D01*
X97438422Y-36389487D01*
X97671811Y-36486160D01*
X98262370Y-36486160D01*
X98421120Y-36327410D01*
X98421120Y-35353160D01*
X98675120Y-35353160D01*
X98675120Y-36327410D01*
X98833870Y-36486160D01*
X99424429Y-36486160D01*
X99657818Y-36389487D01*
X99836447Y-36210859D01*
X99933120Y-35977470D01*
X99933120Y-35511910D01*
X99774370Y-35353160D01*
X98675120Y-35353160D01*
X98421120Y-35353160D01*
X98401120Y-35353160D01*
X98401120Y-35099160D01*
X98421120Y-35099160D01*
X98421120Y-34124910D01*
X98675120Y-34124910D01*
X98675120Y-35099160D01*
X99774370Y-35099160D01*
X99933120Y-34940410D01*
X99933120Y-34474850D01*
X99836447Y-34241461D01*
X99657818Y-34062833D01*
X99424429Y-33966160D01*
X98833870Y-33966160D01*
X98675120Y-34124910D01*
X98421120Y-34124910D01*
X98262370Y-33966160D01*
X97671811Y-33966160D01*
X97438422Y-34062833D01*
X97297184Y-34204070D01*
X97262210Y-34149719D01*
X97050010Y-34004729D01*
X96798120Y-33953720D01*
X95298120Y-33953720D01*
X95062803Y-33997998D01*
X94846679Y-34137070D01*
X94701689Y-34349270D01*
X94668136Y-34514960D01*
X93098120Y-34514960D01*
X92871110Y-34560115D01*
X92825955Y-34569097D01*
X92595226Y-34723266D01*
X85070226Y-42248266D01*
X84916057Y-42478995D01*
X84916057Y-42478996D01*
X84861920Y-42751160D01*
X84861920Y-50656571D01*
X81374892Y-54143600D01*
X81067764Y-54143600D01*
X81059773Y-54101129D01*
X81079280Y-54004800D01*
X81079280Y-53704800D01*
X81059773Y-53601129D01*
X81079280Y-53504800D01*
X81079280Y-53204800D01*
X81059773Y-53101129D01*
X81079280Y-53004800D01*
X81079280Y-52704800D01*
X81059773Y-52601129D01*
X81079280Y-52504800D01*
X81079280Y-52204800D01*
X81035002Y-51969483D01*
X80895930Y-51753359D01*
X80683730Y-51608369D01*
X80431840Y-51557360D01*
X79631840Y-51557360D01*
X79396523Y-51601638D01*
X79180399Y-51740710D01*
X79035409Y-51952910D01*
X78984400Y-52204800D01*
X78984400Y-52504800D01*
X79003907Y-52608471D01*
X78984400Y-52704800D01*
X78984400Y-53004800D01*
X79003907Y-53108471D01*
X78984400Y-53204800D01*
X78984400Y-53504800D01*
X79003907Y-53608471D01*
X78984400Y-53704800D01*
X78984400Y-54004800D01*
X79003907Y-54108471D01*
X78984400Y-54204800D01*
X78984400Y-54504800D01*
X79003907Y-54608471D01*
X78996793Y-54643600D01*
X75999480Y-54643600D01*
X75727316Y-54697737D01*
X75496586Y-54851905D01*
X72225226Y-58123266D01*
X72071057Y-58353995D01*
X72048203Y-58468890D01*
X72016920Y-58626160D01*
X71519720Y-58626160D01*
X71519720Y-49977800D01*
X75431400Y-49977800D01*
X75431400Y-51977800D01*
X75475678Y-52213117D01*
X75614750Y-52429241D01*
X75826950Y-52574231D01*
X76078840Y-52625240D01*
X78078840Y-52625240D01*
X78314157Y-52580962D01*
X78530281Y-52441890D01*
X78675271Y-52229690D01*
X78726280Y-51977800D01*
X78726280Y-49977800D01*
X78682002Y-49742483D01*
X78542930Y-49526359D01*
X78330730Y-49381369D01*
X78078840Y-49330360D01*
X76078840Y-49330360D01*
X75843523Y-49374638D01*
X75627399Y-49513710D01*
X75482409Y-49725910D01*
X75431400Y-49977800D01*
X71519720Y-49977800D01*
X71519720Y-48763440D01*
X71513654Y-48732947D01*
X71523860Y-48681640D01*
X71469723Y-48409476D01*
X71315554Y-48178746D01*
X71084824Y-48024577D01*
X70812660Y-47970440D01*
X69311520Y-47970440D01*
X69308906Y-47970960D01*
X66846120Y-47970960D01*
X66573956Y-48025097D01*
X66343226Y-48179266D01*
X66189057Y-48409996D01*
X66134920Y-48682160D01*
X65484320Y-48682160D01*
X65484320Y-37376160D01*
X65676590Y-37376160D01*
X66007450Y-39039505D01*
X66949659Y-40449621D01*
X68359775Y-41391830D01*
X70023120Y-41722690D01*
X71686465Y-41391830D01*
X73096581Y-40449621D01*
X74038790Y-39039505D01*
X74369650Y-37376160D01*
X74038790Y-35712815D01*
X73096581Y-34302699D01*
X71686465Y-33360490D01*
X70023120Y-33029630D01*
X68359775Y-33360490D01*
X66949659Y-34302699D01*
X66007450Y-35712815D01*
X65676590Y-37376160D01*
X65484320Y-37376160D01*
X65484320Y-34075935D01*
X65593543Y-33562250D01*
X65853250Y-33184428D01*
X66237776Y-32934751D01*
X66763448Y-32837360D01*
X68198120Y-32837360D01*
X68199327Y-32837120D01*
X126111812Y-32837120D01*
X125973689Y-33039270D01*
X125973689Y-33039270D01*
G37*
X125973689Y-33039270D02*
X125922680Y-33291160D01*
X125922680Y-36691160D01*
X125966958Y-36926477D01*
X126106030Y-37142601D01*
X126318230Y-37287591D01*
X126570120Y-37338600D01*
X128170120Y-37338600D01*
X128405437Y-37294322D01*
X128621561Y-37155250D01*
X128766551Y-36943050D01*
X128817560Y-36691160D01*
X128817560Y-33291160D01*
X128773282Y-33055843D01*
X128634210Y-32839719D01*
X128630406Y-32837120D01*
X132911812Y-32837120D01*
X132773689Y-33039270D01*
X132722680Y-33291160D01*
X132722680Y-36691160D01*
X132766958Y-36926477D01*
X132906030Y-37142601D01*
X133118230Y-37287591D01*
X133370120Y-37338600D01*
X134970120Y-37338600D01*
X135205437Y-37294322D01*
X135421561Y-37155250D01*
X135566551Y-36943050D01*
X135617560Y-36691160D01*
X135617560Y-33291160D01*
X135573282Y-33055843D01*
X135434210Y-32839719D01*
X135430757Y-32837360D01*
X143860543Y-32837360D01*
X145205211Y-32978441D01*
X146303073Y-33574272D01*
X147089350Y-34544880D01*
X147456920Y-35784942D01*
X147456920Y-85464421D01*
X147115946Y-86752559D01*
X146339305Y-87771072D01*
X145232017Y-88414848D01*
X143822453Y-88604769D01*
X143821896Y-88604960D01*
X143728120Y-88604960D01*
X143677847Y-88614960D01*
X132588120Y-88614960D01*
X132572535Y-88618060D01*
X69921397Y-88618060D01*
X71561465Y-88291830D01*
X72971581Y-87349621D01*
X73913790Y-85939505D01*
X74244650Y-84276160D01*
X73913790Y-82612815D01*
X72971581Y-81202699D01*
X71561465Y-80260490D01*
X69898120Y-79929630D01*
X68234775Y-80260490D01*
X66824659Y-81202699D01*
X65882450Y-82612815D01*
X65551590Y-84276160D01*
X65882450Y-85939505D01*
X66824659Y-87349621D01*
X68234775Y-88291830D01*
X69874843Y-88618060D01*
X66912153Y-88618060D01*
X66316503Y-88492099D01*
X65882084Y-88194198D01*
X65594733Y-87752725D01*
X65484320Y-87160438D01*
X65484320Y-78629680D01*
X74096740Y-78629680D01*
X74096740Y-79539680D01*
X74141018Y-79774997D01*
X74280090Y-79991121D01*
X74492290Y-80136111D01*
X74744180Y-80187120D01*
X75964180Y-80187120D01*
X76199497Y-80142842D01*
X76415621Y-80003770D01*
X76557666Y-79795880D01*
X77812653Y-79795880D01*
X77884350Y-79907301D01*
X78096550Y-80052291D01*
X78247240Y-80082806D01*
X78247240Y-81974010D01*
X78082023Y-82005098D01*
X77865899Y-82144170D01*
X77720909Y-82356370D01*
X77669900Y-82608260D01*
X77669900Y-83858260D01*
X77714178Y-84093577D01*
X77853250Y-84309701D01*
X78065450Y-84454691D01*
X78317340Y-84505700D01*
X79817340Y-84505700D01*
X80052657Y-84461422D01*
X80268781Y-84322350D01*
X80316474Y-84252549D01*
X80353250Y-84309701D01*
X80565450Y-84454691D01*
X80817340Y-84505700D01*
X82317340Y-84505700D01*
X82552657Y-84461422D01*
X82768781Y-84322350D01*
X82913771Y-84110150D01*
X82964780Y-83858260D01*
X82964780Y-82608260D01*
X82959552Y-82580473D01*
X82966560Y-82545240D01*
X82966560Y-80168078D01*
X83100677Y-80142842D01*
X83316801Y-80003770D01*
X83458846Y-79795880D01*
X85110680Y-79795880D01*
X85110680Y-80336160D01*
X85154958Y-80571477D01*
X85294030Y-80787601D01*
X85363831Y-80835294D01*
X85306679Y-80872070D01*
X85161689Y-81084270D01*
X85110680Y-81336160D01*
X85110680Y-83836160D01*
X85154958Y-84071477D01*
X85294030Y-84287601D01*
X85506230Y-84432591D01*
X85758120Y-84483600D01*
X86296920Y-84483600D01*
X86296920Y-84834331D01*
X86199580Y-84931501D01*
X86050390Y-85290790D01*
X86050051Y-85679823D01*
X86198613Y-86039372D01*
X86473461Y-86314700D01*
X86832750Y-86463890D01*
X87221783Y-86464229D01*
X87581332Y-86315667D01*
X87856660Y-86040819D01*
X88005850Y-85681530D01*
X88006189Y-85292497D01*
X87857627Y-84932948D01*
X87719320Y-84794399D01*
X87719320Y-84483600D01*
X88258120Y-84483600D01*
X88493437Y-84439322D01*
X88709561Y-84300250D01*
X88854551Y-84088050D01*
X88905560Y-83836160D01*
X88905560Y-81336160D01*
X88861282Y-81100843D01*
X88722210Y-80884719D01*
X88652409Y-80837026D01*
X88709561Y-80800250D01*
X88854551Y-80588050D01*
X88905560Y-80336160D01*
X88905560Y-79797360D01*
X88943532Y-79797360D01*
X89046920Y-79900748D01*
X89046920Y-85146160D01*
X89101057Y-85418325D01*
X89255226Y-85649054D01*
X89790143Y-86183971D01*
X89790051Y-86289823D01*
X89938613Y-86649372D01*
X90213461Y-86924700D01*
X90572750Y-87073890D01*
X90961783Y-87074229D01*
X91321332Y-86925667D01*
X91596660Y-86650819D01*
X91745850Y-86291530D01*
X91746189Y-85902497D01*
X91597627Y-85542948D01*
X91322779Y-85267620D01*
X90963490Y-85118430D01*
X90735980Y-85118232D01*
X90469320Y-84851572D01*
X90469320Y-84620574D01*
X90479793Y-84645858D01*
X90658421Y-84824487D01*
X90891810Y-84921160D01*
X91382370Y-84921160D01*
X91541120Y-84762410D01*
X91541120Y-83663160D01*
X91795120Y-83663160D01*
X91795120Y-84762410D01*
X91953870Y-84921160D01*
X92444430Y-84921160D01*
X92677819Y-84824487D01*
X92856447Y-84645858D01*
X92953120Y-84412469D01*
X92953120Y-83821910D01*
X92794370Y-83663160D01*
X91795120Y-83663160D01*
X91541120Y-83663160D01*
X91521120Y-83663160D01*
X91521120Y-83409160D01*
X91541120Y-83409160D01*
X91541120Y-83389160D01*
X91795120Y-83389160D01*
X91795120Y-83409160D01*
X92794370Y-83409160D01*
X92953120Y-83250410D01*
X92953120Y-82659851D01*
X92856447Y-82426462D01*
X92677819Y-82247833D01*
X92541833Y-82191506D01*
X92553437Y-82189322D01*
X92769561Y-82050250D01*
X92914551Y-81838050D01*
X92965560Y-81586160D01*
X92965560Y-81547360D01*
X93790630Y-81547360D01*
X93790630Y-81735450D01*
X93834908Y-81970767D01*
X93973980Y-82186891D01*
X94186180Y-82331881D01*
X94438070Y-82382890D01*
X95076322Y-82382890D01*
X94936629Y-82472780D01*
X94791639Y-82684980D01*
X94740630Y-82936870D01*
X94740630Y-84077862D01*
X93680257Y-85138235D01*
X93514457Y-85138091D01*
X93154908Y-85286653D01*
X92879580Y-85561501D01*
X92730390Y-85920790D01*
X92730051Y-86309823D01*
X92878613Y-86669372D01*
X93153461Y-86944700D01*
X93512750Y-87093890D01*
X93901783Y-87094229D01*
X94261332Y-86945667D01*
X94536660Y-86670819D01*
X94685850Y-86311530D01*
X94685996Y-86144072D01*
X95444898Y-85385170D01*
X96188170Y-85385170D01*
X96423487Y-85340892D01*
X96639611Y-85201820D01*
X96784601Y-84989620D01*
X96835610Y-84737730D01*
X96835610Y-82936870D01*
X96791332Y-82701553D01*
X96652260Y-82485429D01*
X96502189Y-82382890D01*
X97138170Y-82382890D01*
X97373487Y-82338612D01*
X97589611Y-82199540D01*
X97734601Y-81987340D01*
X97785610Y-81735450D01*
X97785610Y-79934590D01*
X97741332Y-79699273D01*
X97602260Y-79483149D01*
X97449320Y-79378650D01*
X97449320Y-76597902D01*
X97596660Y-76450819D01*
X97745850Y-76091530D01*
X97746189Y-75702497D01*
X97597627Y-75342948D01*
X97322779Y-75067620D01*
X96963490Y-74918430D01*
X96574457Y-74918091D01*
X96214908Y-75066653D01*
X95939580Y-75341501D01*
X95790390Y-75700790D01*
X95790051Y-76089823D01*
X95938613Y-76449372D01*
X96026920Y-76537833D01*
X96026920Y-79380225D01*
X95886629Y-79470500D01*
X95787488Y-79615597D01*
X95702260Y-79483149D01*
X95490060Y-79338159D01*
X95238170Y-79287150D01*
X94438070Y-79287150D01*
X94202753Y-79331428D01*
X93986629Y-79470500D01*
X93841639Y-79682700D01*
X93790630Y-79934590D01*
X93790630Y-80124960D01*
X92965560Y-80124960D01*
X92965560Y-80086160D01*
X92921282Y-79850843D01*
X92782210Y-79634719D01*
X92570010Y-79489729D01*
X92379320Y-79451113D01*
X92379320Y-76228146D01*
X92386660Y-76220819D01*
X92535850Y-75861530D01*
X92536189Y-75472497D01*
X92387627Y-75112948D01*
X92112779Y-74837620D01*
X91753490Y-74688430D01*
X91364457Y-74688091D01*
X91004908Y-74836653D01*
X90729580Y-75111501D01*
X90580390Y-75470790D01*
X90580051Y-75859823D01*
X90728613Y-76219372D01*
X90956920Y-76448078D01*
X90956920Y-79450236D01*
X90782803Y-79482998D01*
X90566679Y-79622070D01*
X90469320Y-79764560D01*
X90469320Y-79606160D01*
X90415183Y-79333996D01*
X90415183Y-79333995D01*
X90261014Y-79103266D01*
X89741014Y-78583266D01*
X89510285Y-78429097D01*
X89238120Y-78374960D01*
X88905560Y-78374960D01*
X88905560Y-77836160D01*
X88861282Y-77600843D01*
X88722210Y-77384719D01*
X88510010Y-77239729D01*
X88258120Y-77188720D01*
X85758120Y-77188720D01*
X85522803Y-77232998D01*
X85306679Y-77372070D01*
X85161689Y-77584270D01*
X85110680Y-77836160D01*
X85110680Y-78373480D01*
X83455084Y-78373480D01*
X83329450Y-78178239D01*
X83117250Y-78033249D01*
X82865360Y-77982240D01*
X81645360Y-77982240D01*
X81410043Y-78026518D01*
X81193919Y-78165590D01*
X81048929Y-78377790D01*
X80997920Y-78629680D01*
X80997920Y-79539680D01*
X81042198Y-79774997D01*
X81181270Y-79991121D01*
X81393470Y-80136111D01*
X81544160Y-80166626D01*
X81544160Y-81960820D01*
X80817340Y-81960820D01*
X80582023Y-82005098D01*
X80365899Y-82144170D01*
X80318206Y-82213971D01*
X80281430Y-82156819D01*
X80069230Y-82011829D01*
X79817340Y-81960820D01*
X79669640Y-81960820D01*
X79669640Y-80084258D01*
X79803757Y-80059022D01*
X80019881Y-79919950D01*
X80164871Y-79707750D01*
X80215880Y-79455860D01*
X80215880Y-78545860D01*
X80171602Y-78310543D01*
X80032530Y-78094419D01*
X79820330Y-77949429D01*
X79568440Y-77898420D01*
X78348440Y-77898420D01*
X78113123Y-77942698D01*
X77896999Y-78081770D01*
X77752009Y-78293970D01*
X77735908Y-78373480D01*
X76553904Y-78373480D01*
X76428270Y-78178239D01*
X76216070Y-78033249D01*
X75964180Y-77982240D01*
X74744180Y-77982240D01*
X74508863Y-78026518D01*
X74292739Y-78165590D01*
X74147749Y-78377790D01*
X74096740Y-78629680D01*
X65484320Y-78629680D01*
X65484320Y-48682160D01*
X66134920Y-48682160D01*
X66134920Y-72050160D01*
X66189057Y-72322324D01*
X66343226Y-72553054D01*
X66573956Y-72707223D01*
X66846120Y-72761360D01*
X69344337Y-72761360D01*
X69392800Y-72771000D01*
X70510161Y-72771000D01*
X70536356Y-72788503D01*
X70808520Y-72842640D01*
X71080684Y-72788503D01*
X71311414Y-72634334D01*
X71465583Y-72403604D01*
X71519720Y-72131440D01*
X71519720Y-72067844D01*
X71521320Y-72059800D01*
X71519720Y-72051756D01*
X71519720Y-58626160D01*
X72016920Y-58626160D01*
X72016920Y-74576160D01*
X72071057Y-74848325D01*
X72225226Y-75079054D01*
X73463746Y-76317574D01*
X73694475Y-76471743D01*
X73966640Y-76525880D01*
X74154456Y-76525880D01*
X74280090Y-76721121D01*
X74492290Y-76866111D01*
X74744180Y-76917120D01*
X75964180Y-76917120D01*
X76199497Y-76872842D01*
X76415621Y-76733770D01*
X76560611Y-76521570D01*
X76611620Y-76269680D01*
X76611620Y-76016610D01*
X77713440Y-76016610D01*
X77713440Y-76312169D01*
X77810113Y-76545558D01*
X77988741Y-76724187D01*
X78222130Y-76820860D01*
X78672690Y-76820860D01*
X78831440Y-76662110D01*
X78831440Y-75857860D01*
X79085440Y-75857860D01*
X79085440Y-76662110D01*
X79244190Y-76820860D01*
X79694750Y-76820860D01*
X79928139Y-76724187D01*
X80106767Y-76545558D01*
X80203440Y-76312169D01*
X80203440Y-76016610D01*
X80044690Y-75857860D01*
X79085440Y-75857860D01*
X78831440Y-75857860D01*
X77872190Y-75857860D01*
X77713440Y-76016610D01*
X76611620Y-76016610D01*
X76611620Y-75359680D01*
X76572082Y-75149551D01*
X77713440Y-75149551D01*
X77713440Y-75445110D01*
X77872190Y-75603860D01*
X78831440Y-75603860D01*
X78831440Y-74799610D01*
X79085440Y-74799610D01*
X79085440Y-75603860D01*
X80044690Y-75603860D01*
X80203440Y-75445110D01*
X80203440Y-75359680D01*
X80997920Y-75359680D01*
X80997920Y-76269680D01*
X81042198Y-76504997D01*
X81181270Y-76721121D01*
X81393470Y-76866111D01*
X81645360Y-76917120D01*
X82865360Y-76917120D01*
X83100677Y-76872842D01*
X83316801Y-76733770D01*
X83458846Y-76525880D01*
X84308503Y-76525880D01*
X84334958Y-76666477D01*
X84474030Y-76882601D01*
X84686230Y-77027591D01*
X84938120Y-77078600D01*
X86438120Y-77078600D01*
X86673437Y-77034322D01*
X86889561Y-76895250D01*
X86936089Y-76827154D01*
X87078422Y-76969487D01*
X87311811Y-77066160D01*
X87902370Y-77066160D01*
X88061120Y-76907410D01*
X88061120Y-75933160D01*
X88315120Y-75933160D01*
X88315120Y-76907410D01*
X88473870Y-77066160D01*
X89064429Y-77066160D01*
X89297818Y-76969487D01*
X89476447Y-76790859D01*
X89573120Y-76557470D01*
X89573120Y-76091910D01*
X89414370Y-75933160D01*
X88315120Y-75933160D01*
X88061120Y-75933160D01*
X88041120Y-75933160D01*
X88041120Y-75679160D01*
X88061120Y-75679160D01*
X88061120Y-74704910D01*
X88315120Y-74704910D01*
X88315120Y-75679160D01*
X89414370Y-75679160D01*
X89573120Y-75520410D01*
X89573120Y-75054850D01*
X89476447Y-74821461D01*
X89297818Y-74642833D01*
X89064429Y-74546160D01*
X88473870Y-74546160D01*
X88315120Y-74704910D01*
X88061120Y-74704910D01*
X87902370Y-74546160D01*
X87311811Y-74546160D01*
X87078422Y-74642833D01*
X86937184Y-74784070D01*
X86902210Y-74729719D01*
X86690010Y-74584729D01*
X86438120Y-74533720D01*
X84938120Y-74533720D01*
X84702803Y-74577998D01*
X84486679Y-74717070D01*
X84341689Y-74929270D01*
X84306411Y-75103480D01*
X83455084Y-75103480D01*
X83329450Y-74908239D01*
X83117250Y-74763249D01*
X82966560Y-74732734D01*
X82966560Y-73320710D01*
X83086660Y-73200819D01*
X83235850Y-72841530D01*
X83236189Y-72452497D01*
X83087627Y-72092948D01*
X82812779Y-71817620D01*
X82453490Y-71668430D01*
X82064457Y-71668091D01*
X81704908Y-71816653D01*
X81429580Y-72091501D01*
X81280390Y-72450790D01*
X81280051Y-72839823D01*
X81428613Y-73199372D01*
X81544160Y-73315121D01*
X81544160Y-74731282D01*
X81410043Y-74756518D01*
X81193919Y-74895590D01*
X81048929Y-75107790D01*
X80997920Y-75359680D01*
X80203440Y-75359680D01*
X80203440Y-75149551D01*
X80106767Y-74916162D01*
X79928139Y-74737533D01*
X79694750Y-74640860D01*
X79244190Y-74640860D01*
X79085440Y-74799610D01*
X78831440Y-74799610D01*
X78672690Y-74640860D01*
X78222130Y-74640860D01*
X77988741Y-74737533D01*
X77810113Y-74916162D01*
X77713440Y-75149551D01*
X76572082Y-75149551D01*
X76567342Y-75124363D01*
X76428270Y-74908239D01*
X76216070Y-74763249D01*
X75964180Y-74712240D01*
X74744180Y-74712240D01*
X74508863Y-74756518D01*
X74292739Y-74895590D01*
X74195562Y-75037814D01*
X73439320Y-74281572D01*
X73439320Y-58920748D01*
X76294069Y-56066000D01*
X78995916Y-56066000D01*
X79003907Y-56108471D01*
X78984400Y-56204800D01*
X78984400Y-56504800D01*
X79003907Y-56608471D01*
X78984400Y-56704800D01*
X78984400Y-57004800D01*
X79003907Y-57108471D01*
X78984400Y-57204800D01*
X78984400Y-57504800D01*
X79003907Y-57608471D01*
X78984400Y-57704800D01*
X78984400Y-58004800D01*
X78997820Y-58076123D01*
X78996840Y-58078490D01*
X78996840Y-58121050D01*
X79008461Y-58132671D01*
X79028678Y-58240117D01*
X79102460Y-58354778D01*
X79035409Y-58452910D01*
X79010760Y-58574630D01*
X78996840Y-58588550D01*
X78996840Y-58631110D01*
X78998507Y-58635135D01*
X78996793Y-58643600D01*
X77548592Y-58643600D01*
X77452779Y-58547620D01*
X77093490Y-58398430D01*
X76704457Y-58398091D01*
X76344908Y-58546653D01*
X76069580Y-58821501D01*
X75920390Y-59180790D01*
X75920051Y-59569823D01*
X76068613Y-59929372D01*
X76343461Y-60204700D01*
X76702750Y-60353890D01*
X77091783Y-60354229D01*
X77451332Y-60205667D01*
X77591243Y-60066000D01*
X78995916Y-60066000D01*
X79003907Y-60108471D01*
X78984400Y-60204800D01*
X78984400Y-60504800D01*
X79003907Y-60608471D01*
X78984400Y-60704800D01*
X78984400Y-61004800D01*
X79003907Y-61108471D01*
X78984400Y-61204800D01*
X78984400Y-61504800D01*
X79003907Y-61608471D01*
X78984400Y-61704800D01*
X78984400Y-62004800D01*
X79003907Y-62108471D01*
X78984400Y-62204800D01*
X78984400Y-62504800D01*
X78997820Y-62576123D01*
X78996840Y-62578490D01*
X78996840Y-62621050D01*
X79008461Y-62632671D01*
X79028678Y-62740117D01*
X79102460Y-62854778D01*
X79035409Y-62952910D01*
X79010760Y-63074630D01*
X78996840Y-63088550D01*
X78996840Y-63131110D01*
X78998507Y-63135135D01*
X78984400Y-63204800D01*
X78984400Y-63504800D01*
X79003907Y-63608471D01*
X78984400Y-63704800D01*
X78984400Y-64004800D01*
X79003907Y-64108471D01*
X78996793Y-64143600D01*
X77129480Y-64143600D01*
X76857315Y-64197737D01*
X76626586Y-64351905D01*
X73865226Y-67113266D01*
X73711057Y-67343995D01*
X73686214Y-67468890D01*
X73656920Y-67616160D01*
X73656920Y-72086160D01*
X73711057Y-72358325D01*
X73865226Y-72589054D01*
X74935226Y-73659055D01*
X75165956Y-73813223D01*
X75438120Y-73867360D01*
X78538120Y-73867360D01*
X78810285Y-73813223D01*
X79041014Y-73659054D01*
X81392709Y-71307360D01*
X83786900Y-71307360D01*
X83814958Y-71456477D01*
X83954030Y-71672601D01*
X84166230Y-71817591D01*
X84418120Y-71868600D01*
X85918120Y-71868600D01*
X86153437Y-71824322D01*
X86369561Y-71685250D01*
X86416089Y-71617154D01*
X86558422Y-71759487D01*
X86791811Y-71856160D01*
X87382370Y-71856160D01*
X87541120Y-71697410D01*
X87541120Y-70723160D01*
X87795120Y-70723160D01*
X87795120Y-71697410D01*
X87953870Y-71856160D01*
X88544429Y-71856160D01*
X88777818Y-71759487D01*
X88956447Y-71580859D01*
X89053120Y-71347470D01*
X89053120Y-70881910D01*
X88894370Y-70723160D01*
X87795120Y-70723160D01*
X87541120Y-70723160D01*
X87521120Y-70723160D01*
X87521120Y-70469160D01*
X87541120Y-70469160D01*
X87541120Y-69494910D01*
X87795120Y-69494910D01*
X87795120Y-70469160D01*
X88894370Y-70469160D01*
X89053120Y-70310410D01*
X89053120Y-69844850D01*
X88956447Y-69611461D01*
X88777818Y-69432833D01*
X88544429Y-69336160D01*
X87953870Y-69336160D01*
X87795120Y-69494910D01*
X87541120Y-69494910D01*
X87382370Y-69336160D01*
X86791811Y-69336160D01*
X86558422Y-69432833D01*
X86417184Y-69574070D01*
X86382210Y-69519719D01*
X86170010Y-69374729D01*
X85918120Y-69323720D01*
X84418120Y-69323720D01*
X84182803Y-69367998D01*
X83966679Y-69507070D01*
X83821689Y-69719270D01*
X83788136Y-69884960D01*
X81098120Y-69884960D01*
X80825956Y-69939097D01*
X80595226Y-70093265D01*
X78243532Y-72444960D01*
X75732709Y-72444960D01*
X75079320Y-71791572D01*
X75079320Y-69281800D01*
X75431400Y-69281800D01*
X75431400Y-71281800D01*
X75475678Y-71517117D01*
X75614750Y-71733241D01*
X75826950Y-71878231D01*
X76078840Y-71929240D01*
X78078840Y-71929240D01*
X78314157Y-71884962D01*
X78530281Y-71745890D01*
X78675271Y-71533690D01*
X78726280Y-71281800D01*
X78726280Y-69281800D01*
X78682002Y-69046483D01*
X78542930Y-68830359D01*
X78330730Y-68685369D01*
X78078840Y-68634360D01*
X76078840Y-68634360D01*
X75843523Y-68678638D01*
X75627399Y-68817710D01*
X75482409Y-69029910D01*
X75431400Y-69281800D01*
X75079320Y-69281800D01*
X75079320Y-67910748D01*
X77424069Y-65566000D01*
X78995916Y-65566000D01*
X79003907Y-65608471D01*
X78984400Y-65704800D01*
X78984400Y-66004800D01*
X79003907Y-66108471D01*
X78984400Y-66204800D01*
X78984400Y-66504800D01*
X79003907Y-66608471D01*
X78984400Y-66704800D01*
X78984400Y-67004800D01*
X79003907Y-67108471D01*
X78984400Y-67204800D01*
X78984400Y-67504800D01*
X79003907Y-67608471D01*
X78984400Y-67704800D01*
X78984400Y-68004800D01*
X79003907Y-68108471D01*
X78984400Y-68204800D01*
X78984400Y-68504800D01*
X79003907Y-68608471D01*
X78984400Y-68704800D01*
X78984400Y-69004800D01*
X79028678Y-69240117D01*
X79167750Y-69456241D01*
X79379950Y-69601231D01*
X79631840Y-69652240D01*
X80431840Y-69652240D01*
X80667157Y-69607962D01*
X80883281Y-69468890D01*
X81028271Y-69256690D01*
X81079280Y-69004800D01*
X81079280Y-68704800D01*
X81059773Y-68601129D01*
X81079280Y-68504800D01*
X81079280Y-68204800D01*
X81059773Y-68101129D01*
X81079280Y-68004800D01*
X81079280Y-67704800D01*
X81059773Y-67601129D01*
X81079280Y-67504800D01*
X81079280Y-67204800D01*
X81059773Y-67101129D01*
X81079280Y-67004800D01*
X81079280Y-66704800D01*
X81059773Y-66601129D01*
X81066887Y-66566000D01*
X81632172Y-66566000D01*
X83335225Y-68269054D01*
X83565955Y-68423223D01*
X83611110Y-68432205D01*
X83838120Y-68477360D01*
X88283532Y-68477360D01*
X90555226Y-70749055D01*
X90785956Y-70903223D01*
X91058120Y-70957360D01*
X95223532Y-70957360D01*
X95780195Y-71514023D01*
X95780051Y-71679823D01*
X95928613Y-72039372D01*
X96203461Y-72314700D01*
X96562750Y-72463890D01*
X96951783Y-72464229D01*
X97311332Y-72315667D01*
X97586660Y-72040819D01*
X97735850Y-71681530D01*
X97736189Y-71292497D01*
X97587627Y-70932948D01*
X97312779Y-70657620D01*
X96953490Y-70508430D01*
X96786032Y-70508284D01*
X96021014Y-69743266D01*
X95790285Y-69589097D01*
X95518120Y-69534960D01*
X92077831Y-69534960D01*
X92221332Y-69475667D01*
X92496660Y-69200819D01*
X92645850Y-68841530D01*
X92646189Y-68452497D01*
X92497627Y-68092948D01*
X92222779Y-67817620D01*
X91863490Y-67668430D01*
X91696032Y-67668284D01*
X90541014Y-66513266D01*
X90310285Y-66359097D01*
X90038120Y-66304960D01*
X84602708Y-66304960D01*
X83149654Y-64851906D01*
X82918925Y-64697737D01*
X82646760Y-64643600D01*
X82193467Y-64643600D01*
X82235850Y-64541530D01*
X82236189Y-64152497D01*
X82087627Y-63792948D01*
X81812779Y-63517620D01*
X81453490Y-63368430D01*
X81079280Y-63368104D01*
X81079280Y-63204800D01*
X81065860Y-63133477D01*
X81066840Y-63131110D01*
X81066840Y-63088550D01*
X81055219Y-63076929D01*
X81053163Y-63066000D01*
X81672172Y-63066000D01*
X83815226Y-65209054D01*
X84045955Y-65363223D01*
X84091110Y-65372205D01*
X84318120Y-65417360D01*
X99723532Y-65417360D01*
X104405225Y-70099054D01*
X104518827Y-70174960D01*
X104635956Y-70253223D01*
X104908120Y-70307360D01*
X105849190Y-70307360D01*
X105749781Y-70546762D01*
X105749261Y-71142942D01*
X105976928Y-71693940D01*
X106398123Y-72115870D01*
X106399051Y-72116255D01*
X105978410Y-72536163D01*
X105749781Y-73086762D01*
X105749261Y-73682942D01*
X105976928Y-74233940D01*
X106398123Y-74655870D01*
X106399051Y-74656255D01*
X105978410Y-75076163D01*
X105912538Y-75234800D01*
X104822549Y-75234800D01*
X103259320Y-73671572D01*
X103259320Y-70886160D01*
X103205183Y-70613996D01*
X103134646Y-70508430D01*
X103051014Y-70383265D01*
X99806045Y-67138296D01*
X99806189Y-66972497D01*
X99657627Y-66612948D01*
X99382779Y-66337620D01*
X99023490Y-66188430D01*
X98634457Y-66188091D01*
X98274908Y-66336653D01*
X97999580Y-66611501D01*
X97850390Y-66970790D01*
X97850051Y-67359823D01*
X97998613Y-67719372D01*
X98273461Y-67994700D01*
X98632750Y-68143890D01*
X98800208Y-68144036D01*
X101836920Y-71180749D01*
X101836920Y-73966160D01*
X101891057Y-74238325D01*
X102045226Y-74469054D01*
X104025066Y-76448895D01*
X104255796Y-76603063D01*
X104527960Y-76657200D01*
X105928692Y-76657200D01*
X105976928Y-76773940D01*
X106398123Y-77195870D01*
X106399051Y-77196255D01*
X105978410Y-77616163D01*
X105749781Y-78166762D01*
X105749261Y-78762942D01*
X105976928Y-79313940D01*
X106398123Y-79735870D01*
X106948722Y-79964499D01*
X107544902Y-79965019D01*
X108095900Y-79737352D01*
X108517830Y-79316157D01*
X108746459Y-78765558D01*
X108746979Y-78169378D01*
X108519312Y-77618380D01*
X108098117Y-77196450D01*
X108097189Y-77196065D01*
X108517830Y-76776157D01*
X108746459Y-76225558D01*
X108746979Y-75629378D01*
X108519312Y-75078380D01*
X108098117Y-74656450D01*
X108097189Y-74656065D01*
X108517830Y-74236157D01*
X108746459Y-73685558D01*
X108746979Y-73089378D01*
X108519312Y-72538380D01*
X108098117Y-72116450D01*
X108097189Y-72116065D01*
X108517830Y-71696157D01*
X108746459Y-71145558D01*
X108746979Y-70549378D01*
X108646980Y-70307360D01*
X118425172Y-70307360D01*
X121052802Y-72934991D01*
X120989781Y-73086762D01*
X120989261Y-73682942D01*
X121216928Y-74233940D01*
X121638123Y-74655870D01*
X121639051Y-74656255D01*
X121218410Y-75076163D01*
X120989781Y-75626762D01*
X120989508Y-75940120D01*
X118082654Y-73033266D01*
X117851925Y-72879097D01*
X117579760Y-72824960D01*
X116919705Y-72824960D01*
X116682779Y-72587620D01*
X116323490Y-72438430D01*
X115934457Y-72438091D01*
X115574908Y-72586653D01*
X115299580Y-72861501D01*
X115150390Y-73220790D01*
X115150051Y-73609823D01*
X115298613Y-73969372D01*
X115573461Y-74244700D01*
X115932750Y-74393890D01*
X116321783Y-74394229D01*
X116677235Y-74247360D01*
X117285172Y-74247360D01*
X121052802Y-78014990D01*
X120989781Y-78166762D01*
X120989261Y-78762942D01*
X121216928Y-79313940D01*
X121638123Y-79735870D01*
X122188722Y-79964499D01*
X122784902Y-79965019D01*
X123335900Y-79737352D01*
X123757830Y-79316157D01*
X123986459Y-78765558D01*
X123986979Y-78169378D01*
X123759312Y-77618380D01*
X123338117Y-77196450D01*
X123337189Y-77196065D01*
X123757830Y-76776157D01*
X123807225Y-76657200D01*
X124013372Y-76657200D01*
X125406920Y-78050748D01*
X125406920Y-79791571D01*
X123593532Y-81604960D01*
X105232708Y-81604960D01*
X100719320Y-77091572D01*
X100719320Y-73917972D01*
X100826660Y-73810819D01*
X100975850Y-73451530D01*
X100976189Y-73062497D01*
X100827627Y-72702948D01*
X100552779Y-72427620D01*
X100193490Y-72278430D01*
X99804457Y-72278091D01*
X99444908Y-72426653D01*
X99169580Y-72701501D01*
X99020390Y-73060790D01*
X99020051Y-73449823D01*
X99168613Y-73809372D01*
X99296920Y-73937903D01*
X99296920Y-77386160D01*
X99351057Y-77658325D01*
X99505226Y-77889054D01*
X104435226Y-82819054D01*
X104665955Y-82973223D01*
X104938120Y-83027360D01*
X123888120Y-83027360D01*
X124160285Y-82973223D01*
X124391014Y-82819054D01*
X126621014Y-80589055D01*
X126775183Y-80358325D01*
X126794643Y-80260490D01*
X126829320Y-80086160D01*
X126829320Y-77756160D01*
X126801473Y-77616163D01*
X126775183Y-77483995D01*
X126621014Y-77253266D01*
X124810854Y-75443106D01*
X124580125Y-75288937D01*
X124307960Y-75234800D01*
X123823943Y-75234800D01*
X123759312Y-75078380D01*
X123338117Y-74656450D01*
X123337189Y-74656065D01*
X123757830Y-74236157D01*
X123986459Y-73685558D01*
X123986979Y-73089378D01*
X123759312Y-72538380D01*
X123338117Y-72116450D01*
X123337189Y-72116065D01*
X123757830Y-71696157D01*
X123986459Y-71145558D01*
X123986979Y-70549378D01*
X123759312Y-69998380D01*
X123338117Y-69576450D01*
X123337189Y-69576065D01*
X123757830Y-69156157D01*
X123986459Y-68605558D01*
X123986979Y-68009378D01*
X123759312Y-67458380D01*
X123338117Y-67036450D01*
X123337189Y-67036065D01*
X123757830Y-66616157D01*
X123986459Y-66065558D01*
X123986979Y-65469378D01*
X123759312Y-64918380D01*
X123338117Y-64496450D01*
X123337189Y-64496065D01*
X123757830Y-64076157D01*
X123986459Y-63525558D01*
X123986979Y-62929378D01*
X123759312Y-62378380D01*
X123338117Y-61956450D01*
X123337189Y-61956065D01*
X123757830Y-61536157D01*
X123986459Y-60985558D01*
X123986979Y-60389378D01*
X123759312Y-59838380D01*
X123338117Y-59416450D01*
X123337189Y-59416065D01*
X123757830Y-58996157D01*
X123986459Y-58445558D01*
X123986979Y-57849378D01*
X123759312Y-57298380D01*
X123338117Y-56876450D01*
X123337189Y-56876065D01*
X123757830Y-56456157D01*
X123986459Y-55905558D01*
X123986979Y-55309378D01*
X123759312Y-54758380D01*
X123338117Y-54336450D01*
X123337189Y-54336065D01*
X123757830Y-53916157D01*
X123986459Y-53365558D01*
X123986979Y-52769378D01*
X123759312Y-52218380D01*
X123338117Y-51796450D01*
X123337189Y-51796065D01*
X123757830Y-51376157D01*
X123986459Y-50825558D01*
X123986979Y-50229378D01*
X123759312Y-49678380D01*
X123338117Y-49256450D01*
X123297583Y-49239619D01*
X123362320Y-49039965D01*
X122488120Y-48165765D01*
X121613920Y-49039965D01*
X121678519Y-49239193D01*
X121640340Y-49254968D01*
X121218410Y-49676163D01*
X120989781Y-50226762D01*
X120989261Y-50822942D01*
X121216928Y-51373940D01*
X121638123Y-51795870D01*
X121639051Y-51796255D01*
X121218410Y-52216163D01*
X120989781Y-52766762D01*
X120989261Y-53362942D01*
X121216928Y-53913940D01*
X121638123Y-54335870D01*
X121639051Y-54336255D01*
X121218410Y-54756163D01*
X120989781Y-55306762D01*
X120989261Y-55902942D01*
X121216928Y-56453940D01*
X121638123Y-56875870D01*
X121639051Y-56876255D01*
X121218410Y-57296163D01*
X120989781Y-57846762D01*
X120989261Y-58442942D01*
X121216928Y-58993940D01*
X121638123Y-59415870D01*
X121639051Y-59416255D01*
X121218410Y-59836163D01*
X120989781Y-60386762D01*
X120989261Y-60982942D01*
X121216928Y-61533940D01*
X121638123Y-61955870D01*
X121639051Y-61956255D01*
X121218410Y-62376163D01*
X120989781Y-62926762D01*
X120989261Y-63522942D01*
X121216928Y-64073940D01*
X121638123Y-64495870D01*
X121639051Y-64496255D01*
X121218410Y-64916163D01*
X120989781Y-65466762D01*
X120989261Y-66062942D01*
X121105788Y-66344960D01*
X108630441Y-66344960D01*
X108746459Y-66065558D01*
X108746979Y-65469378D01*
X108519312Y-64918380D01*
X108098117Y-64496450D01*
X108097189Y-64496065D01*
X108517830Y-64076157D01*
X108746459Y-63525558D01*
X108746979Y-62929378D01*
X108646980Y-62687360D01*
X113582990Y-62687360D01*
X113608613Y-62749372D01*
X113883461Y-63024700D01*
X114242750Y-63173890D01*
X114631783Y-63174229D01*
X114991332Y-63025667D01*
X115266660Y-62750819D01*
X115415850Y-62391530D01*
X115416189Y-62002497D01*
X115267627Y-61642948D01*
X114992779Y-61367620D01*
X114633490Y-61218430D01*
X114244457Y-61218091D01*
X114131025Y-61264960D01*
X108630441Y-61264960D01*
X108746459Y-60985558D01*
X108746979Y-60389378D01*
X108651111Y-60157360D01*
X111516326Y-60157360D01*
X111633461Y-60274700D01*
X111992750Y-60423890D01*
X112381783Y-60424229D01*
X112741332Y-60275667D01*
X113016660Y-60000819D01*
X113165850Y-59641530D01*
X113166189Y-59252497D01*
X113017627Y-58892948D01*
X112742779Y-58617620D01*
X112383490Y-58468430D01*
X111994457Y-58468091D01*
X111634908Y-58616653D01*
X111516394Y-58734960D01*
X108626289Y-58734960D01*
X108746459Y-58445558D01*
X108746979Y-57849378D01*
X108519312Y-57298380D01*
X108098117Y-56876450D01*
X108097189Y-56876065D01*
X108517830Y-56456157D01*
X108746459Y-55905558D01*
X108746979Y-55309378D01*
X108519312Y-54758380D01*
X108098117Y-54336450D01*
X108097189Y-54336065D01*
X108517830Y-53916157D01*
X108746459Y-53365558D01*
X108746979Y-52769378D01*
X108519312Y-52218380D01*
X108098117Y-51796450D01*
X108097189Y-51796065D01*
X108517830Y-51376157D01*
X108746459Y-50825558D01*
X108746979Y-50229378D01*
X108519312Y-49678380D01*
X108098117Y-49256450D01*
X108097189Y-49256065D01*
X108517830Y-48836157D01*
X108746459Y-48285558D01*
X108746922Y-47754190D01*
X120977872Y-47754190D01*
X121004062Y-48349795D01*
X121181604Y-48778419D01*
X121434315Y-48860360D01*
X122308515Y-47986160D01*
X122667725Y-47986160D01*
X123541925Y-48860360D01*
X123794636Y-48778419D01*
X123998368Y-48218130D01*
X123972178Y-47622525D01*
X123794636Y-47193901D01*
X123541925Y-47111960D01*
X122667725Y-47986160D01*
X122308515Y-47986160D01*
X121434315Y-47111960D01*
X121181604Y-47193901D01*
X120977872Y-47754190D01*
X108746922Y-47754190D01*
X108746979Y-47689378D01*
X108519312Y-47138380D01*
X108098117Y-46716450D01*
X108057583Y-46699619D01*
X108122320Y-46499965D01*
X107248120Y-45625765D01*
X106373920Y-46499965D01*
X106438519Y-46699193D01*
X106400340Y-46714968D01*
X105978410Y-47136163D01*
X105749781Y-47686762D01*
X105749261Y-48282942D01*
X105976928Y-48833940D01*
X106398123Y-49255870D01*
X106399051Y-49256255D01*
X105978410Y-49676163D01*
X105749781Y-50226762D01*
X105749261Y-50822942D01*
X105976928Y-51373940D01*
X106398123Y-51795870D01*
X106399051Y-51796255D01*
X105978410Y-52216163D01*
X105749781Y-52766762D01*
X105749261Y-53362942D01*
X105976928Y-53913940D01*
X106398123Y-54335870D01*
X106399051Y-54336255D01*
X105978410Y-54756163D01*
X105749781Y-55306762D01*
X105749261Y-55902942D01*
X105976928Y-56453940D01*
X106398123Y-56875870D01*
X106399051Y-56876255D01*
X105978410Y-57296163D01*
X105749781Y-57846762D01*
X105749261Y-58442942D01*
X105869920Y-58734960D01*
X99588120Y-58734960D01*
X99315956Y-58789097D01*
X99085226Y-58943265D01*
X95226111Y-62802381D01*
X95226189Y-62712497D01*
X95077627Y-62352948D01*
X94802779Y-62077620D01*
X94443490Y-61928430D01*
X94054457Y-61928091D01*
X93694908Y-62076653D01*
X93576394Y-62194960D01*
X91539093Y-62194960D01*
X91685850Y-61841530D01*
X91686189Y-61452497D01*
X91537627Y-61092948D01*
X91262779Y-60817620D01*
X90903490Y-60668430D01*
X90514457Y-60668091D01*
X90154908Y-60816653D01*
X90036394Y-60934960D01*
X89525943Y-60934960D01*
X89526189Y-60652497D01*
X89377627Y-60292948D01*
X89102779Y-60017620D01*
X88743490Y-59868430D01*
X88354457Y-59868091D01*
X87994908Y-60016653D01*
X87876394Y-60134960D01*
X87042128Y-60134960D01*
X87266660Y-59910819D01*
X87415850Y-59551530D01*
X87416189Y-59162497D01*
X87267627Y-58802948D01*
X86992779Y-58527620D01*
X86633490Y-58378430D01*
X86244457Y-58378091D01*
X85884908Y-58526653D01*
X85767757Y-58643600D01*
X81067764Y-58643600D01*
X81065860Y-58633477D01*
X81066840Y-58631110D01*
X81066840Y-58588550D01*
X81055219Y-58576929D01*
X81053163Y-58566000D01*
X83919480Y-58566000D01*
X84191645Y-58511863D01*
X84422374Y-58357694D01*
X91292709Y-51487360D01*
X94666900Y-51487360D01*
X94694958Y-51636477D01*
X94834030Y-51852601D01*
X95046230Y-51997591D01*
X95298120Y-52048600D01*
X96798120Y-52048600D01*
X97033437Y-52004322D01*
X97249561Y-51865250D01*
X97296089Y-51797154D01*
X97438422Y-51939487D01*
X97671811Y-52036160D01*
X98262370Y-52036160D01*
X98421120Y-51877410D01*
X98421120Y-50903160D01*
X98675120Y-50903160D01*
X98675120Y-51877410D01*
X98833870Y-52036160D01*
X99424429Y-52036160D01*
X99657818Y-51939487D01*
X99836447Y-51760859D01*
X99933120Y-51527470D01*
X99933120Y-51061910D01*
X99774370Y-50903160D01*
X98675120Y-50903160D01*
X98421120Y-50903160D01*
X98401120Y-50903160D01*
X98401120Y-50649160D01*
X98421120Y-50649160D01*
X98421120Y-49674910D01*
X98675120Y-49674910D01*
X98675120Y-50649160D01*
X99774370Y-50649160D01*
X99933120Y-50490410D01*
X99933120Y-50024850D01*
X99836447Y-49791461D01*
X99657818Y-49612833D01*
X99424429Y-49516160D01*
X98833870Y-49516160D01*
X98675120Y-49674910D01*
X98421120Y-49674910D01*
X98262370Y-49516160D01*
X97671811Y-49516160D01*
X97438422Y-49612833D01*
X97297184Y-49754070D01*
X97262210Y-49699719D01*
X97050010Y-49554729D01*
X96798120Y-49503720D01*
X95298120Y-49503720D01*
X95062803Y-49547998D01*
X94846679Y-49687070D01*
X94701689Y-49899270D01*
X94668136Y-50064960D01*
X90998120Y-50064960D01*
X90725956Y-50119097D01*
X90495226Y-50273265D01*
X89734320Y-51034171D01*
X89734320Y-49595748D01*
X91042709Y-48287360D01*
X94666900Y-48287360D01*
X94694958Y-48436477D01*
X94834030Y-48652601D01*
X95046230Y-48797591D01*
X95298120Y-48848600D01*
X96798120Y-48848600D01*
X97033437Y-48804322D01*
X97249561Y-48665250D01*
X97296089Y-48597154D01*
X97438422Y-48739487D01*
X97671811Y-48836160D01*
X98262370Y-48836160D01*
X98421120Y-48677410D01*
X98421120Y-47703160D01*
X98675120Y-47703160D01*
X98675120Y-48677410D01*
X98833870Y-48836160D01*
X99424429Y-48836160D01*
X99657818Y-48739487D01*
X99836447Y-48560859D01*
X99933120Y-48327470D01*
X99933120Y-47861910D01*
X99774370Y-47703160D01*
X98675120Y-47703160D01*
X98421120Y-47703160D01*
X98401120Y-47703160D01*
X98401120Y-47449160D01*
X98421120Y-47449160D01*
X98421120Y-46474910D01*
X98675120Y-46474910D01*
X98675120Y-47449160D01*
X99774370Y-47449160D01*
X99933120Y-47290410D01*
X99933120Y-46824850D01*
X99836447Y-46591461D01*
X99657818Y-46412833D01*
X99424429Y-46316160D01*
X98833870Y-46316160D01*
X98675120Y-46474910D01*
X98421120Y-46474910D01*
X98262370Y-46316160D01*
X97671811Y-46316160D01*
X97438422Y-46412833D01*
X97297184Y-46554070D01*
X97262210Y-46499719D01*
X97050010Y-46354729D01*
X96798120Y-46303720D01*
X95298120Y-46303720D01*
X95062803Y-46347998D01*
X94846679Y-46487070D01*
X94701689Y-46699270D01*
X94668136Y-46864960D01*
X90748120Y-46864960D01*
X90475956Y-46919097D01*
X90420116Y-46956408D01*
X90245225Y-47073266D01*
X88984320Y-48334172D01*
X88984320Y-45770748D01*
X89717709Y-45037360D01*
X94666900Y-45037360D01*
X94694958Y-45186477D01*
X94834030Y-45402601D01*
X95046230Y-45547591D01*
X95298120Y-45598600D01*
X96798120Y-45598600D01*
X97033437Y-45554322D01*
X97249561Y-45415250D01*
X97296089Y-45347154D01*
X97438422Y-45489487D01*
X97671811Y-45586160D01*
X98262370Y-45586160D01*
X98421120Y-45427410D01*
X98421120Y-44453160D01*
X98675120Y-44453160D01*
X98675120Y-45427410D01*
X98833870Y-45586160D01*
X99424429Y-45586160D01*
X99657818Y-45489487D01*
X99836447Y-45310859D01*
X99876488Y-45214190D01*
X105737872Y-45214190D01*
X105764062Y-45809795D01*
X105941604Y-46238419D01*
X106194315Y-46320360D01*
X107068515Y-45446160D01*
X107427725Y-45446160D01*
X108301925Y-46320360D01*
X108554636Y-46238419D01*
X108734801Y-45742942D01*
X120989261Y-45742942D01*
X121216928Y-46293940D01*
X121638123Y-46715870D01*
X121678657Y-46732701D01*
X121613920Y-46932355D01*
X122488120Y-47806555D01*
X123362320Y-46932355D01*
X123297721Y-46733127D01*
X123335900Y-46717352D01*
X123757830Y-46296157D01*
X123815464Y-46157360D01*
X130456120Y-46157360D01*
X130728285Y-46103223D01*
X130959014Y-45949054D01*
X132273015Y-44635054D01*
X132427183Y-44404324D01*
X132481320Y-44132160D01*
X132481320Y-42898860D01*
X132505437Y-42894322D01*
X132721561Y-42755250D01*
X132866551Y-42543050D01*
X132917560Y-42291160D01*
X132917560Y-38791160D01*
X132873282Y-38555843D01*
X132734210Y-38339719D01*
X132522010Y-38194729D01*
X132270120Y-38143720D01*
X131270120Y-38143720D01*
X131034803Y-38187998D01*
X130818679Y-38327070D01*
X130772151Y-38395166D01*
X130629818Y-38252833D01*
X130396429Y-38156160D01*
X130055870Y-38156160D01*
X129897120Y-38314910D01*
X129897120Y-40414160D01*
X129917120Y-40414160D01*
X129917120Y-40668160D01*
X129897120Y-40668160D01*
X129897120Y-42767410D01*
X130055870Y-42926160D01*
X130396429Y-42926160D01*
X130629818Y-42829487D01*
X130771056Y-42688250D01*
X130806030Y-42742601D01*
X131018230Y-42887591D01*
X131058920Y-42895831D01*
X131058920Y-43837571D01*
X130161532Y-44734960D01*
X123815746Y-44734960D01*
X123759312Y-44598380D01*
X123338117Y-44176450D01*
X122787518Y-43947821D01*
X122191338Y-43947301D01*
X121640340Y-44174968D01*
X121218410Y-44596163D01*
X120989781Y-45146762D01*
X120989261Y-45742942D01*
X108734801Y-45742942D01*
X108758368Y-45678130D01*
X108732178Y-45082525D01*
X108554636Y-44653901D01*
X108301925Y-44571960D01*
X107427725Y-45446160D01*
X107068515Y-45446160D01*
X106194315Y-44571960D01*
X105941604Y-44653901D01*
X105737872Y-45214190D01*
X99876488Y-45214190D01*
X99933120Y-45077470D01*
X99933120Y-44611910D01*
X99774370Y-44453160D01*
X98675120Y-44453160D01*
X98421120Y-44453160D01*
X98401120Y-44453160D01*
X98401120Y-44392355D01*
X106373920Y-44392355D01*
X107248120Y-45266555D01*
X108122320Y-44392355D01*
X108040379Y-44139644D01*
X107480090Y-43935912D01*
X106884485Y-43962102D01*
X106455861Y-44139644D01*
X106373920Y-44392355D01*
X98401120Y-44392355D01*
X98401120Y-44199160D01*
X98421120Y-44199160D01*
X98421120Y-43224910D01*
X98675120Y-43224910D01*
X98675120Y-44199160D01*
X99774370Y-44199160D01*
X99933120Y-44040410D01*
X99933120Y-43574850D01*
X99836447Y-43341461D01*
X99657818Y-43162833D01*
X99424429Y-43066160D01*
X98833870Y-43066160D01*
X98675120Y-43224910D01*
X98421120Y-43224910D01*
X98262370Y-43066160D01*
X97671811Y-43066160D01*
X97438422Y-43162833D01*
X97297184Y-43304070D01*
X97262210Y-43249719D01*
X97050010Y-43104729D01*
X96798120Y-43053720D01*
X95298120Y-43053720D01*
X95062803Y-43097998D01*
X94846679Y-43237070D01*
X94701689Y-43449270D01*
X94668136Y-43614960D01*
X89423120Y-43614960D01*
X89150956Y-43669097D01*
X88920226Y-43823265D01*
X88109320Y-44634172D01*
X88109320Y-43770748D01*
X90092709Y-41787360D01*
X94666900Y-41787360D01*
X94694958Y-41936477D01*
X94834030Y-42152601D01*
X95046230Y-42297591D01*
X95298120Y-42348600D01*
X96798120Y-42348600D01*
X97033437Y-42304322D01*
X97249561Y-42165250D01*
X97296089Y-42097154D01*
X97438422Y-42239487D01*
X97671811Y-42336160D01*
X98262370Y-42336160D01*
X98421120Y-42177410D01*
X98421120Y-41203160D01*
X98675120Y-41203160D01*
X98675120Y-42177410D01*
X98833870Y-42336160D01*
X99424429Y-42336160D01*
X99657818Y-42239487D01*
X99836447Y-42060859D01*
X99933120Y-41827470D01*
X99933120Y-41361910D01*
X99774370Y-41203160D01*
X98675120Y-41203160D01*
X98421120Y-41203160D01*
X98401120Y-41203160D01*
X98401120Y-40949160D01*
X98421120Y-40949160D01*
X98421120Y-39974910D01*
X98675120Y-39974910D01*
X98675120Y-40949160D01*
X99774370Y-40949160D01*
X99879620Y-40843910D01*
X103239120Y-40843910D01*
X103239120Y-41309470D01*
X103335793Y-41542859D01*
X103514422Y-41721487D01*
X103747811Y-41818160D01*
X104338370Y-41818160D01*
X104497120Y-41659410D01*
X104497120Y-40685160D01*
X103397870Y-40685160D01*
X103239120Y-40843910D01*
X99879620Y-40843910D01*
X99933120Y-40790410D01*
X99933120Y-40324850D01*
X99836447Y-40091461D01*
X99657818Y-39912833D01*
X99424429Y-39816160D01*
X98833870Y-39816160D01*
X98675120Y-39974910D01*
X98421120Y-39974910D01*
X98262370Y-39816160D01*
X97671811Y-39816160D01*
X97438422Y-39912833D01*
X97297184Y-40054070D01*
X97262210Y-39999719D01*
X97050010Y-39854729D01*
X96813577Y-39806850D01*
X103239120Y-39806850D01*
X103239120Y-40272410D01*
X103397870Y-40431160D01*
X104497120Y-40431160D01*
X104497120Y-39456910D01*
X104751120Y-39456910D01*
X104751120Y-40431160D01*
X104771120Y-40431160D01*
X104771120Y-40685160D01*
X104751120Y-40685160D01*
X104751120Y-41659410D01*
X104909870Y-41818160D01*
X105500429Y-41818160D01*
X105733818Y-41721487D01*
X105875056Y-41580250D01*
X105910030Y-41634601D01*
X106122230Y-41779591D01*
X106374120Y-41830600D01*
X107874120Y-41830600D01*
X108109437Y-41786322D01*
X108325561Y-41647250D01*
X108470551Y-41435050D01*
X108504104Y-41269360D01*
X109482326Y-41269360D01*
X109599461Y-41386700D01*
X109958750Y-41535890D01*
X110347783Y-41536229D01*
X110707332Y-41387667D01*
X110982660Y-41112819D01*
X111101379Y-40826910D01*
X128635120Y-40826910D01*
X128635120Y-42417470D01*
X128731793Y-42650859D01*
X128910422Y-42829487D01*
X129143811Y-42926160D01*
X129484370Y-42926160D01*
X129643120Y-42767410D01*
X129643120Y-40668160D01*
X128793870Y-40668160D01*
X128635120Y-40826910D01*
X111101379Y-40826910D01*
X111131850Y-40753530D01*
X111132189Y-40364497D01*
X110983627Y-40004948D01*
X110708779Y-39729620D01*
X110349490Y-39580430D01*
X109960457Y-39580091D01*
X109600908Y-39728653D01*
X109482394Y-39846960D01*
X108505340Y-39846960D01*
X108477282Y-39697843D01*
X108338210Y-39481719D01*
X108126010Y-39336729D01*
X107874120Y-39285720D01*
X106374120Y-39285720D01*
X106138803Y-39329998D01*
X105922679Y-39469070D01*
X105876151Y-39537166D01*
X105733818Y-39394833D01*
X105500429Y-39298160D01*
X104909870Y-39298160D01*
X104751120Y-39456910D01*
X104497120Y-39456910D01*
X104338370Y-39298160D01*
X103747811Y-39298160D01*
X103514422Y-39394833D01*
X103335793Y-39573461D01*
X103239120Y-39806850D01*
X96813577Y-39806850D01*
X96798120Y-39803720D01*
X95298120Y-39803720D01*
X95062803Y-39847998D01*
X94846679Y-39987070D01*
X94701689Y-40199270D01*
X94668136Y-40364960D01*
X90165109Y-40364960D01*
X91692709Y-38837360D01*
X94666900Y-38837360D01*
X94694958Y-38986477D01*
X94834030Y-39202601D01*
X95046230Y-39347591D01*
X95298120Y-39398600D01*
X96798120Y-39398600D01*
X97033437Y-39354322D01*
X97249561Y-39215250D01*
X97296089Y-39147154D01*
X97438422Y-39289487D01*
X97671811Y-39386160D01*
X98262370Y-39386160D01*
X98421120Y-39227410D01*
X98421120Y-38253160D01*
X98675120Y-38253160D01*
X98675120Y-39227410D01*
X98833870Y-39386160D01*
X99424429Y-39386160D01*
X99657818Y-39289487D01*
X99836447Y-39110859D01*
X99933120Y-38877470D01*
X99933120Y-38664850D01*
X128635120Y-38664850D01*
X128635120Y-40255410D01*
X128793870Y-40414160D01*
X129643120Y-40414160D01*
X129643120Y-38314910D01*
X129484370Y-38156160D01*
X129143811Y-38156160D01*
X128910422Y-38252833D01*
X128731793Y-38431461D01*
X128635120Y-38664850D01*
X99933120Y-38664850D01*
X99933120Y-38411910D01*
X99774370Y-38253160D01*
X98675120Y-38253160D01*
X98421120Y-38253160D01*
X98401120Y-38253160D01*
X98401120Y-37999160D01*
X98421120Y-37999160D01*
X98421120Y-37024910D01*
X98675120Y-37024910D01*
X98675120Y-37999160D01*
X99774370Y-37999160D01*
X99933120Y-37840410D01*
X99933120Y-37410160D01*
X138546590Y-37410160D01*
X138877450Y-39073505D01*
X139819659Y-40483621D01*
X141229775Y-41425830D01*
X142893120Y-41756690D01*
X144556465Y-41425830D01*
X145966581Y-40483621D01*
X146908790Y-39073505D01*
X147239650Y-37410160D01*
X146908790Y-35746815D01*
X145966581Y-34336699D01*
X144556465Y-33394490D01*
X142893120Y-33063630D01*
X141229775Y-33394490D01*
X139819659Y-34336699D01*
X138877450Y-35746815D01*
X138546590Y-37410160D01*
X99933120Y-37410160D01*
X99933120Y-37374850D01*
X99836447Y-37141461D01*
X99657818Y-36962833D01*
X99424429Y-36866160D01*
X98833870Y-36866160D01*
X98675120Y-37024910D01*
X98421120Y-37024910D01*
X98262370Y-36866160D01*
X97671811Y-36866160D01*
X97438422Y-36962833D01*
X97297184Y-37104070D01*
X97262210Y-37049719D01*
X97050010Y-36904729D01*
X96798120Y-36853720D01*
X95298120Y-36853720D01*
X95062803Y-36897998D01*
X94846679Y-37037070D01*
X94701689Y-37249270D01*
X94668136Y-37414960D01*
X91915108Y-37414960D01*
X93392708Y-35937360D01*
X94666900Y-35937360D01*
X94694958Y-36086477D01*
X94834030Y-36302601D01*
X95046230Y-36447591D01*
X95298120Y-36498600D01*
X96798120Y-36498600D01*
X97033437Y-36454322D01*
X97249561Y-36315250D01*
X97296089Y-36247154D01*
X97438422Y-36389487D01*
X97671811Y-36486160D01*
X98262370Y-36486160D01*
X98421120Y-36327410D01*
X98421120Y-35353160D01*
X98675120Y-35353160D01*
X98675120Y-36327410D01*
X98833870Y-36486160D01*
X99424429Y-36486160D01*
X99657818Y-36389487D01*
X99836447Y-36210859D01*
X99933120Y-35977470D01*
X99933120Y-35511910D01*
X99774370Y-35353160D01*
X98675120Y-35353160D01*
X98421120Y-35353160D01*
X98401120Y-35353160D01*
X98401120Y-35099160D01*
X98421120Y-35099160D01*
X98421120Y-34124910D01*
X98675120Y-34124910D01*
X98675120Y-35099160D01*
X99774370Y-35099160D01*
X99933120Y-34940410D01*
X99933120Y-34474850D01*
X99836447Y-34241461D01*
X99657818Y-34062833D01*
X99424429Y-33966160D01*
X98833870Y-33966160D01*
X98675120Y-34124910D01*
X98421120Y-34124910D01*
X98262370Y-33966160D01*
X97671811Y-33966160D01*
X97438422Y-34062833D01*
X97297184Y-34204070D01*
X97262210Y-34149719D01*
X97050010Y-34004729D01*
X96798120Y-33953720D01*
X95298120Y-33953720D01*
X95062803Y-33997998D01*
X94846679Y-34137070D01*
X94701689Y-34349270D01*
X94668136Y-34514960D01*
X93098120Y-34514960D01*
X92871110Y-34560115D01*
X92825955Y-34569097D01*
X92595226Y-34723266D01*
X85070226Y-42248266D01*
X84916057Y-42478995D01*
X84916057Y-42478996D01*
X84861920Y-42751160D01*
X84861920Y-50656571D01*
X81374892Y-54143600D01*
X81067764Y-54143600D01*
X81059773Y-54101129D01*
X81079280Y-54004800D01*
X81079280Y-53704800D01*
X81059773Y-53601129D01*
X81079280Y-53504800D01*
X81079280Y-53204800D01*
X81059773Y-53101129D01*
X81079280Y-53004800D01*
X81079280Y-52704800D01*
X81059773Y-52601129D01*
X81079280Y-52504800D01*
X81079280Y-52204800D01*
X81035002Y-51969483D01*
X80895930Y-51753359D01*
X80683730Y-51608369D01*
X80431840Y-51557360D01*
X79631840Y-51557360D01*
X79396523Y-51601638D01*
X79180399Y-51740710D01*
X79035409Y-51952910D01*
X78984400Y-52204800D01*
X78984400Y-52504800D01*
X79003907Y-52608471D01*
X78984400Y-52704800D01*
X78984400Y-53004800D01*
X79003907Y-53108471D01*
X78984400Y-53204800D01*
X78984400Y-53504800D01*
X79003907Y-53608471D01*
X78984400Y-53704800D01*
X78984400Y-54004800D01*
X79003907Y-54108471D01*
X78984400Y-54204800D01*
X78984400Y-54504800D01*
X79003907Y-54608471D01*
X78996793Y-54643600D01*
X75999480Y-54643600D01*
X75727316Y-54697737D01*
X75496586Y-54851905D01*
X72225226Y-58123266D01*
X72071057Y-58353995D01*
X72048203Y-58468890D01*
X72016920Y-58626160D01*
X71519720Y-58626160D01*
X71519720Y-49977800D01*
X75431400Y-49977800D01*
X75431400Y-51977800D01*
X75475678Y-52213117D01*
X75614750Y-52429241D01*
X75826950Y-52574231D01*
X76078840Y-52625240D01*
X78078840Y-52625240D01*
X78314157Y-52580962D01*
X78530281Y-52441890D01*
X78675271Y-52229690D01*
X78726280Y-51977800D01*
X78726280Y-49977800D01*
X78682002Y-49742483D01*
X78542930Y-49526359D01*
X78330730Y-49381369D01*
X78078840Y-49330360D01*
X76078840Y-49330360D01*
X75843523Y-49374638D01*
X75627399Y-49513710D01*
X75482409Y-49725910D01*
X75431400Y-49977800D01*
X71519720Y-49977800D01*
X71519720Y-48763440D01*
X71513654Y-48732947D01*
X71523860Y-48681640D01*
X71469723Y-48409476D01*
X71315554Y-48178746D01*
X71084824Y-48024577D01*
X70812660Y-47970440D01*
X69311520Y-47970440D01*
X69308906Y-47970960D01*
X66846120Y-47970960D01*
X66573956Y-48025097D01*
X66343226Y-48179266D01*
X66189057Y-48409996D01*
X66134920Y-48682160D01*
X65484320Y-48682160D01*
X65484320Y-37376160D01*
X65676590Y-37376160D01*
X66007450Y-39039505D01*
X66949659Y-40449621D01*
X68359775Y-41391830D01*
X70023120Y-41722690D01*
X71686465Y-41391830D01*
X73096581Y-40449621D01*
X74038790Y-39039505D01*
X74369650Y-37376160D01*
X74038790Y-35712815D01*
X73096581Y-34302699D01*
X71686465Y-33360490D01*
X70023120Y-33029630D01*
X68359775Y-33360490D01*
X66949659Y-34302699D01*
X66007450Y-35712815D01*
X65676590Y-37376160D01*
X65484320Y-37376160D01*
X65484320Y-34075935D01*
X65593543Y-33562250D01*
X65853250Y-33184428D01*
X66237776Y-32934751D01*
X66763448Y-32837360D01*
X68198120Y-32837360D01*
X68199327Y-32837120D01*
X126111812Y-32837120D01*
X125973689Y-33039270D01*
M02*
