G04 #@! TF.FileFunction,Soldermask,Bot*
%FSLAX46Y46*%
G04 Gerber Fmt 4.6, Leading zero omitted, Abs format (unit mm)*
G04 Created by KiCad (PCBNEW 4.0.6) date Wed Aug 30 21:06:07 2017*
%MOMM*%
%LPD*%
G01*
G04 APERTURE LIST*
%ADD10C,0.100000*%
%ADD11C,0.220000*%
G04 APERTURE END LIST*
D10*
D11*
X130118598Y-83490922D02*
X130118598Y-81490922D01*
X129642407Y-81490922D01*
X129356693Y-81586160D01*
X129166217Y-81776636D01*
X129070978Y-81967112D01*
X128975740Y-82348065D01*
X128975740Y-82633779D01*
X129070978Y-83014731D01*
X129166217Y-83205208D01*
X129356693Y-83395684D01*
X129642407Y-83490922D01*
X130118598Y-83490922D01*
X128118598Y-83490922D02*
X128118598Y-82157589D01*
X128118598Y-82538541D02*
X128023359Y-82348065D01*
X127928121Y-82252827D01*
X127737645Y-82157589D01*
X127547169Y-82157589D01*
X126118598Y-83395684D02*
X126309074Y-83490922D01*
X126690026Y-83490922D01*
X126880503Y-83395684D01*
X126975741Y-83205208D01*
X126975741Y-82443303D01*
X126880503Y-82252827D01*
X126690026Y-82157589D01*
X126309074Y-82157589D01*
X126118598Y-82252827D01*
X126023360Y-82443303D01*
X126023360Y-82633779D01*
X126975741Y-82824255D01*
X125356693Y-82157589D02*
X124975740Y-83490922D01*
X124594788Y-82538541D01*
X124213836Y-83490922D01*
X123832883Y-82157589D01*
X120880502Y-82443303D02*
X121547169Y-82443303D01*
X121547169Y-83490922D02*
X121547169Y-81490922D01*
X120594788Y-81490922D01*
X118975740Y-82157589D02*
X118975740Y-83490922D01*
X119832883Y-82157589D02*
X119832883Y-83205208D01*
X119737644Y-83395684D01*
X119547168Y-83490922D01*
X119261454Y-83490922D01*
X119070978Y-83395684D01*
X118975740Y-83300446D01*
X118118597Y-83395684D02*
X117928120Y-83490922D01*
X117547168Y-83490922D01*
X117356692Y-83395684D01*
X117261454Y-83205208D01*
X117261454Y-83109970D01*
X117356692Y-82919493D01*
X117547168Y-82824255D01*
X117832882Y-82824255D01*
X118023359Y-82729017D01*
X118118597Y-82538541D01*
X118118597Y-82443303D01*
X118023359Y-82252827D01*
X117832882Y-82157589D01*
X117547168Y-82157589D01*
X117356692Y-82252827D01*
X116690025Y-82157589D02*
X115928120Y-82157589D01*
X116404311Y-81490922D02*
X116404311Y-83205208D01*
X116309072Y-83395684D01*
X116118596Y-83490922D01*
X115928120Y-83490922D01*
X115261454Y-83490922D02*
X115261454Y-82157589D01*
X115261454Y-81490922D02*
X115356692Y-81586160D01*
X115261454Y-81681398D01*
X115166215Y-81586160D01*
X115261454Y-81490922D01*
X115261454Y-81681398D01*
X114309073Y-82157589D02*
X114309073Y-83490922D01*
X114309073Y-82348065D02*
X114213834Y-82252827D01*
X114023358Y-82157589D01*
X113737644Y-82157589D01*
X113547168Y-82252827D01*
X113451930Y-82443303D01*
X113451930Y-83490922D01*
X112499549Y-83490922D02*
X112499549Y-82157589D01*
X112499549Y-81490922D02*
X112594787Y-81586160D01*
X112499549Y-81681398D01*
X112404310Y-81586160D01*
X112499549Y-81490922D01*
X112499549Y-81681398D01*
X108499548Y-82157589D02*
X110023358Y-82729017D01*
X108499548Y-83300446D01*
X106690025Y-83490922D02*
X106690025Y-81490922D01*
X106690025Y-83395684D02*
X106880501Y-83490922D01*
X107261453Y-83490922D01*
X107451929Y-83395684D01*
X107547168Y-83300446D01*
X107642406Y-83109970D01*
X107642406Y-82538541D01*
X107547168Y-82348065D01*
X107451929Y-82252827D01*
X107261453Y-82157589D01*
X106880501Y-82157589D01*
X106690025Y-82252827D01*
X105737644Y-83490922D02*
X105737644Y-82157589D01*
X105737644Y-82538541D02*
X105642405Y-82348065D01*
X105547167Y-82252827D01*
X105356691Y-82157589D01*
X105166215Y-82157589D01*
X103737644Y-83395684D02*
X103928120Y-83490922D01*
X104309072Y-83490922D01*
X104499549Y-83395684D01*
X104594787Y-83205208D01*
X104594787Y-82443303D01*
X104499549Y-82252827D01*
X104309072Y-82157589D01*
X103928120Y-82157589D01*
X103737644Y-82252827D01*
X103642406Y-82443303D01*
X103642406Y-82633779D01*
X104594787Y-82824255D01*
X102975739Y-82157589D02*
X102594786Y-83490922D01*
X102213834Y-82538541D01*
X101832882Y-83490922D01*
X101451929Y-82157589D01*
X99451929Y-82538541D02*
X99547167Y-82443303D01*
X99737644Y-82348065D01*
X99928120Y-82348065D01*
X100118596Y-82443303D01*
X100213834Y-82538541D01*
X100309072Y-82729017D01*
X100309072Y-82919493D01*
X100213834Y-83109970D01*
X100118596Y-83205208D01*
X99928120Y-83300446D01*
X99737644Y-83300446D01*
X99547167Y-83205208D01*
X99451929Y-83109970D01*
X99451929Y-82348065D02*
X99451929Y-83109970D01*
X99356691Y-83205208D01*
X99261453Y-83205208D01*
X99070977Y-83109970D01*
X98975739Y-82919493D01*
X98975739Y-82443303D01*
X99166215Y-82157589D01*
X99451929Y-81967112D01*
X99832882Y-81871874D01*
X100213834Y-81967112D01*
X100499548Y-82157589D01*
X100690025Y-82443303D01*
X100785263Y-82824255D01*
X100690025Y-83205208D01*
X100499548Y-83490922D01*
X100213834Y-83681398D01*
X99832882Y-83776636D01*
X99451929Y-83681398D01*
X99166215Y-83490922D01*
X97832881Y-83490922D02*
X98023357Y-83395684D01*
X98118596Y-83300446D01*
X98213834Y-83109970D01*
X98213834Y-82538541D01*
X98118596Y-82348065D01*
X98023357Y-82252827D01*
X97832881Y-82157589D01*
X97547167Y-82157589D01*
X97356691Y-82252827D01*
X97261453Y-82348065D01*
X97166215Y-82538541D01*
X97166215Y-83109970D01*
X97261453Y-83300446D01*
X97356691Y-83395684D01*
X97547167Y-83490922D01*
X97832881Y-83490922D01*
X96404310Y-83395684D02*
X96213833Y-83490922D01*
X95832881Y-83490922D01*
X95642405Y-83395684D01*
X95547167Y-83205208D01*
X95547167Y-83109970D01*
X95642405Y-82919493D01*
X95832881Y-82824255D01*
X96118595Y-82824255D01*
X96309072Y-82729017D01*
X96404310Y-82538541D01*
X96404310Y-82443303D01*
X96309072Y-82252827D01*
X96118595Y-82157589D01*
X95832881Y-82157589D01*
X95642405Y-82252827D01*
X94690024Y-83490922D02*
X94690024Y-81490922D01*
X93832881Y-83490922D02*
X93832881Y-82443303D01*
X93928119Y-82252827D01*
X94118595Y-82157589D01*
X94404309Y-82157589D01*
X94594785Y-82252827D01*
X94690024Y-82348065D01*
X92880500Y-82157589D02*
X92880500Y-84157589D01*
X92880500Y-82252827D02*
X92690023Y-82157589D01*
X92309071Y-82157589D01*
X92118595Y-82252827D01*
X92023357Y-82348065D01*
X91928119Y-82538541D01*
X91928119Y-83109970D01*
X92023357Y-83300446D01*
X92118595Y-83395684D01*
X92309071Y-83490922D01*
X92690023Y-83490922D01*
X92880500Y-83395684D01*
X90213833Y-83490922D02*
X90213833Y-82443303D01*
X90309071Y-82252827D01*
X90499547Y-82157589D01*
X90880499Y-82157589D01*
X91070976Y-82252827D01*
X90213833Y-83395684D02*
X90404309Y-83490922D01*
X90880499Y-83490922D01*
X91070976Y-83395684D01*
X91166214Y-83205208D01*
X91166214Y-83014731D01*
X91070976Y-82824255D01*
X90880499Y-82729017D01*
X90404309Y-82729017D01*
X90213833Y-82633779D01*
X89261452Y-83490922D02*
X89261452Y-82157589D01*
X89261452Y-82538541D02*
X89166213Y-82348065D01*
X89070975Y-82252827D01*
X88880499Y-82157589D01*
X88690023Y-82157589D01*
X88023357Y-83490922D02*
X88023357Y-81490922D01*
X87832880Y-82729017D02*
X87261452Y-83490922D01*
X87261452Y-82157589D02*
X88023357Y-82919493D01*
X86404309Y-83300446D02*
X86309070Y-83395684D01*
X86404309Y-83490922D01*
X86499547Y-83395684D01*
X86404309Y-83300446D01*
X86404309Y-83490922D01*
X84594785Y-83395684D02*
X84785261Y-83490922D01*
X85166213Y-83490922D01*
X85356689Y-83395684D01*
X85451928Y-83300446D01*
X85547166Y-83109970D01*
X85547166Y-82538541D01*
X85451928Y-82348065D01*
X85356689Y-82252827D01*
X85166213Y-82157589D01*
X84785261Y-82157589D01*
X84594785Y-82252827D01*
X83451927Y-83490922D02*
X83642403Y-83395684D01*
X83737642Y-83300446D01*
X83832880Y-83109970D01*
X83832880Y-82538541D01*
X83737642Y-82348065D01*
X83642403Y-82252827D01*
X83451927Y-82157589D01*
X83166213Y-82157589D01*
X82975737Y-82252827D01*
X82880499Y-82348065D01*
X82785261Y-82538541D01*
X82785261Y-83109970D01*
X82880499Y-83300446D01*
X82975737Y-83395684D01*
X83166213Y-83490922D01*
X83451927Y-83490922D01*
X81928118Y-83490922D02*
X81928118Y-82157589D01*
X81928118Y-82348065D02*
X81832879Y-82252827D01*
X81642403Y-82157589D01*
X81356689Y-82157589D01*
X81166213Y-82252827D01*
X81070975Y-82443303D01*
X81070975Y-83490922D01*
X81070975Y-82443303D02*
X80975737Y-82252827D01*
X80785260Y-82157589D01*
X80499546Y-82157589D01*
X80309070Y-82252827D01*
X80213832Y-82443303D01*
X80213832Y-83490922D01*
X79261451Y-82157589D02*
X77737641Y-82729017D01*
X79261451Y-83300446D01*
X135352884Y-35647589D02*
X135352884Y-37266636D01*
X135448122Y-37457112D01*
X135543360Y-37552350D01*
X135733836Y-37647589D01*
X136019550Y-37647589D01*
X136210027Y-37552350D01*
X135352884Y-36885684D02*
X135543360Y-36980922D01*
X135924312Y-36980922D01*
X136114788Y-36885684D01*
X136210027Y-36790446D01*
X136305265Y-36599970D01*
X136305265Y-36028541D01*
X136210027Y-35838065D01*
X136114788Y-35742827D01*
X135924312Y-35647589D01*
X135543360Y-35647589D01*
X135352884Y-35742827D01*
X134400503Y-36980922D02*
X134400503Y-35647589D01*
X134400503Y-34980922D02*
X134495741Y-35076160D01*
X134400503Y-35171398D01*
X134305264Y-35076160D01*
X134400503Y-34980922D01*
X134400503Y-35171398D01*
X133733836Y-35647589D02*
X132971931Y-35647589D01*
X133448122Y-34980922D02*
X133448122Y-36695208D01*
X133352883Y-36885684D01*
X133162407Y-36980922D01*
X132971931Y-36980922D01*
X132305265Y-36980922D02*
X132305265Y-34980922D01*
X131448122Y-36980922D02*
X131448122Y-35933303D01*
X131543360Y-35742827D01*
X131733836Y-35647589D01*
X132019550Y-35647589D01*
X132210026Y-35742827D01*
X132305265Y-35838065D01*
X129638598Y-35647589D02*
X129638598Y-36980922D01*
X130495741Y-35647589D02*
X130495741Y-36695208D01*
X130400502Y-36885684D01*
X130210026Y-36980922D01*
X129924312Y-36980922D01*
X129733836Y-36885684D01*
X129638598Y-36790446D01*
X128686217Y-36980922D02*
X128686217Y-34980922D01*
X128686217Y-35742827D02*
X128495740Y-35647589D01*
X128114788Y-35647589D01*
X127924312Y-35742827D01*
X127829074Y-35838065D01*
X127733836Y-36028541D01*
X127733836Y-36599970D01*
X127829074Y-36790446D01*
X127924312Y-36885684D01*
X128114788Y-36980922D01*
X128495740Y-36980922D01*
X128686217Y-36885684D01*
X126876693Y-36790446D02*
X126781454Y-36885684D01*
X126876693Y-36980922D01*
X126971931Y-36885684D01*
X126876693Y-36790446D01*
X126876693Y-36980922D01*
X125067169Y-36885684D02*
X125257645Y-36980922D01*
X125638597Y-36980922D01*
X125829073Y-36885684D01*
X125924312Y-36790446D01*
X126019550Y-36599970D01*
X126019550Y-36028541D01*
X125924312Y-35838065D01*
X125829073Y-35742827D01*
X125638597Y-35647589D01*
X125257645Y-35647589D01*
X125067169Y-35742827D01*
X123924311Y-36980922D02*
X124114787Y-36885684D01*
X124210026Y-36790446D01*
X124305264Y-36599970D01*
X124305264Y-36028541D01*
X124210026Y-35838065D01*
X124114787Y-35742827D01*
X123924311Y-35647589D01*
X123638597Y-35647589D01*
X123448121Y-35742827D01*
X123352883Y-35838065D01*
X123257645Y-36028541D01*
X123257645Y-36599970D01*
X123352883Y-36790446D01*
X123448121Y-36885684D01*
X123638597Y-36980922D01*
X123924311Y-36980922D01*
X122400502Y-36980922D02*
X122400502Y-35647589D01*
X122400502Y-35838065D02*
X122305263Y-35742827D01*
X122114787Y-35647589D01*
X121829073Y-35647589D01*
X121638597Y-35742827D01*
X121543359Y-35933303D01*
X121543359Y-36980922D01*
X121543359Y-35933303D02*
X121448121Y-35742827D01*
X121257644Y-35647589D01*
X120971930Y-35647589D01*
X120781454Y-35742827D01*
X120686216Y-35933303D01*
X120686216Y-36980922D01*
X118305263Y-34885684D02*
X120019549Y-37457112D01*
X117638597Y-35647589D02*
X117638597Y-37647589D01*
X117638597Y-35742827D02*
X117448120Y-35647589D01*
X117067168Y-35647589D01*
X116876692Y-35742827D01*
X116781454Y-35838065D01*
X116686216Y-36028541D01*
X116686216Y-36599970D01*
X116781454Y-36790446D01*
X116876692Y-36885684D01*
X117067168Y-36980922D01*
X117448120Y-36980922D01*
X117638597Y-36885684D01*
X114971930Y-36980922D02*
X114971930Y-34980922D01*
X114971930Y-36885684D02*
X115162406Y-36980922D01*
X115543358Y-36980922D01*
X115733834Y-36885684D01*
X115829073Y-36790446D01*
X115924311Y-36599970D01*
X115924311Y-36028541D01*
X115829073Y-35838065D01*
X115733834Y-35742827D01*
X115543358Y-35647589D01*
X115162406Y-35647589D01*
X114971930Y-35742827D01*
X114019549Y-35647589D02*
X114019549Y-37647589D01*
X114019549Y-35742827D02*
X113829072Y-35647589D01*
X113448120Y-35647589D01*
X113257644Y-35742827D01*
X113162406Y-35838065D01*
X113067168Y-36028541D01*
X113067168Y-36599970D01*
X113162406Y-36790446D01*
X113257644Y-36885684D01*
X113448120Y-36980922D01*
X113829072Y-36980922D01*
X114019549Y-36885684D01*
X112400501Y-34980922D02*
X111067167Y-34980922D01*
X111924310Y-36980922D01*
X108876691Y-34885684D02*
X110590977Y-37457112D01*
X108210025Y-36980922D02*
X108210025Y-34980922D01*
X108019548Y-36219017D02*
X107448120Y-36980922D01*
X107448120Y-35647589D02*
X108210025Y-36409493D01*
X106590977Y-36980922D02*
X106590977Y-35647589D01*
X106590977Y-34980922D02*
X106686215Y-35076160D01*
X106590977Y-35171398D01*
X106495738Y-35076160D01*
X106590977Y-34980922D01*
X106590977Y-35171398D01*
X104781453Y-36885684D02*
X104971929Y-36980922D01*
X105352881Y-36980922D01*
X105543357Y-36885684D01*
X105638596Y-36790446D01*
X105733834Y-36599970D01*
X105733834Y-36028541D01*
X105638596Y-35838065D01*
X105543357Y-35742827D01*
X105352881Y-35647589D01*
X104971929Y-35647589D01*
X104781453Y-35742827D01*
X103067167Y-36980922D02*
X103067167Y-35933303D01*
X103162405Y-35742827D01*
X103352881Y-35647589D01*
X103733833Y-35647589D01*
X103924310Y-35742827D01*
X103067167Y-36885684D02*
X103257643Y-36980922D01*
X103733833Y-36980922D01*
X103924310Y-36885684D01*
X104019548Y-36695208D01*
X104019548Y-36504731D01*
X103924310Y-36314255D01*
X103733833Y-36219017D01*
X103257643Y-36219017D01*
X103067167Y-36123779D01*
X101257643Y-36980922D02*
X101257643Y-34980922D01*
X101257643Y-36885684D02*
X101448119Y-36980922D01*
X101829071Y-36980922D01*
X102019547Y-36885684D01*
X102114786Y-36790446D01*
X102210024Y-36599970D01*
X102210024Y-36028541D01*
X102114786Y-35838065D01*
X102019547Y-35742827D01*
X101829071Y-35647589D01*
X101448119Y-35647589D01*
X101257643Y-35742827D01*
X100305262Y-36219017D02*
X98781452Y-36219017D01*
X98114786Y-35647589D02*
X97352881Y-35647589D01*
X97829072Y-34980922D02*
X97829072Y-36695208D01*
X97733833Y-36885684D01*
X97543357Y-36980922D01*
X97352881Y-36980922D01*
X95924310Y-36885684D02*
X96114786Y-36980922D01*
X96495738Y-36980922D01*
X96686215Y-36885684D01*
X96781453Y-36695208D01*
X96781453Y-35933303D01*
X96686215Y-35742827D01*
X96495738Y-35647589D01*
X96114786Y-35647589D01*
X95924310Y-35742827D01*
X95829072Y-35933303D01*
X95829072Y-36123779D01*
X96781453Y-36314255D01*
X94210024Y-36885684D02*
X94400500Y-36980922D01*
X94781452Y-36980922D01*
X94971929Y-36885684D01*
X95067167Y-36695208D01*
X95067167Y-35933303D01*
X94971929Y-35742827D01*
X94781452Y-35647589D01*
X94400500Y-35647589D01*
X94210024Y-35742827D01*
X94114786Y-35933303D01*
X94114786Y-36123779D01*
X95067167Y-36314255D01*
X93257643Y-35647589D02*
X93257643Y-36980922D01*
X93257643Y-35838065D02*
X93162404Y-35742827D01*
X92971928Y-35647589D01*
X92686214Y-35647589D01*
X92495738Y-35742827D01*
X92400500Y-35933303D01*
X92400500Y-36980922D01*
X91543357Y-36885684D02*
X91352880Y-36980922D01*
X90971928Y-36980922D01*
X90781452Y-36885684D01*
X90686214Y-36695208D01*
X90686214Y-36599970D01*
X90781452Y-36409493D01*
X90971928Y-36314255D01*
X91257642Y-36314255D01*
X91448119Y-36219017D01*
X91543357Y-36028541D01*
X91543357Y-35933303D01*
X91448119Y-35742827D01*
X91257642Y-35647589D01*
X90971928Y-35647589D01*
X90781452Y-35742827D01*
X90019547Y-35647589D02*
X89543356Y-36980922D01*
X89067166Y-35647589D02*
X89543356Y-36980922D01*
X89733832Y-37457112D01*
X89829071Y-37552350D01*
X90019547Y-37647589D01*
X88305261Y-36219017D02*
X86781451Y-36219017D01*
X85067166Y-36885684D02*
X85257642Y-36980922D01*
X85638594Y-36980922D01*
X85829071Y-36885684D01*
X85924309Y-36695208D01*
X85924309Y-35933303D01*
X85829071Y-35742827D01*
X85638594Y-35647589D01*
X85257642Y-35647589D01*
X85067166Y-35742827D01*
X84971928Y-35933303D01*
X84971928Y-36123779D01*
X85924309Y-36314255D01*
X84114785Y-35647589D02*
X84114785Y-37647589D01*
X84114785Y-35742827D02*
X83924308Y-35647589D01*
X83543356Y-35647589D01*
X83352880Y-35742827D01*
X83257642Y-35838065D01*
X83162404Y-36028541D01*
X83162404Y-36599970D01*
X83257642Y-36790446D01*
X83352880Y-36885684D01*
X83543356Y-36980922D01*
X83924308Y-36980922D01*
X84114785Y-36885684D01*
X81448118Y-36980922D02*
X81448118Y-35933303D01*
X81543356Y-35742827D01*
X81733832Y-35647589D01*
X82114784Y-35647589D01*
X82305261Y-35742827D01*
X81448118Y-36885684D02*
X81638594Y-36980922D01*
X82114784Y-36980922D01*
X82305261Y-36885684D01*
X82400499Y-36695208D01*
X82400499Y-36504731D01*
X82305261Y-36314255D01*
X82114784Y-36219017D01*
X81638594Y-36219017D01*
X81448118Y-36123779D01*
X80495737Y-35647589D02*
X80495737Y-37647589D01*
X80495737Y-35742827D02*
X80305260Y-35647589D01*
X79924308Y-35647589D01*
X79733832Y-35742827D01*
X79638594Y-35838065D01*
X79543356Y-36028541D01*
X79543356Y-36599970D01*
X79638594Y-36790446D01*
X79733832Y-36885684D01*
X79924308Y-36980922D01*
X80305260Y-36980922D01*
X80495737Y-36885684D01*
X77924308Y-36885684D02*
X78114784Y-36980922D01*
X78495736Y-36980922D01*
X78686213Y-36885684D01*
X78781451Y-36695208D01*
X78781451Y-35933303D01*
X78686213Y-35742827D01*
X78495736Y-35647589D01*
X78114784Y-35647589D01*
X77924308Y-35742827D01*
X77829070Y-35933303D01*
X77829070Y-36123779D01*
X78781451Y-36314255D01*
X76971927Y-36980922D02*
X76971927Y-35647589D01*
X76971927Y-36028541D02*
X76876688Y-35838065D01*
X76781450Y-35742827D01*
X76590974Y-35647589D01*
X76400498Y-35647589D01*
D10*
G36*
X107338826Y-77603134D02*
X107504731Y-77637189D01*
X107660858Y-77702819D01*
X107801260Y-77797520D01*
X107920605Y-77917702D01*
X108014324Y-78058760D01*
X108078864Y-78215346D01*
X108111707Y-78381215D01*
X108111707Y-78381227D01*
X108111757Y-78381480D01*
X108109056Y-78574922D01*
X108108998Y-78575177D01*
X108108998Y-78575183D01*
X108071536Y-78740073D01*
X108002650Y-78894794D01*
X107905027Y-79033183D01*
X107782377Y-79149981D01*
X107639384Y-79240727D01*
X107481480Y-79301974D01*
X107314698Y-79331383D01*
X107145369Y-79327835D01*
X106979960Y-79291468D01*
X106824767Y-79223666D01*
X106685696Y-79127009D01*
X106568046Y-79005179D01*
X106476301Y-78862818D01*
X106413956Y-78705354D01*
X106383383Y-78538772D01*
X106385748Y-78369428D01*
X106420959Y-78203771D01*
X106487678Y-78048104D01*
X106583363Y-77908360D01*
X106704363Y-77789868D01*
X106846080Y-77697131D01*
X107003113Y-77633685D01*
X107169470Y-77601951D01*
X107338826Y-77603134D01*
X107338826Y-77603134D01*
G37*
G36*
X122578826Y-77603134D02*
X122744731Y-77637189D01*
X122900858Y-77702819D01*
X123041260Y-77797520D01*
X123160605Y-77917702D01*
X123254324Y-78058760D01*
X123318864Y-78215346D01*
X123351707Y-78381215D01*
X123351707Y-78381227D01*
X123351757Y-78381480D01*
X123349056Y-78574922D01*
X123348998Y-78575177D01*
X123348998Y-78575183D01*
X123311536Y-78740073D01*
X123242650Y-78894794D01*
X123145027Y-79033183D01*
X123022377Y-79149981D01*
X122879384Y-79240727D01*
X122721480Y-79301974D01*
X122554698Y-79331383D01*
X122385369Y-79327835D01*
X122219960Y-79291468D01*
X122064767Y-79223666D01*
X121925696Y-79127009D01*
X121808046Y-79005179D01*
X121716301Y-78862818D01*
X121653956Y-78705354D01*
X121623383Y-78538772D01*
X121625748Y-78369428D01*
X121660959Y-78203771D01*
X121727678Y-78048104D01*
X121823363Y-77908360D01*
X121944363Y-77789868D01*
X122086080Y-77697131D01*
X122243113Y-77633685D01*
X122409470Y-77601951D01*
X122578826Y-77603134D01*
X122578826Y-77603134D01*
G37*
G36*
X107338826Y-75063134D02*
X107504731Y-75097189D01*
X107660858Y-75162819D01*
X107801260Y-75257520D01*
X107920605Y-75377702D01*
X108014324Y-75518760D01*
X108078864Y-75675346D01*
X108111707Y-75841215D01*
X108111707Y-75841227D01*
X108111757Y-75841480D01*
X108109056Y-76034922D01*
X108108998Y-76035177D01*
X108108998Y-76035183D01*
X108071536Y-76200073D01*
X108002650Y-76354794D01*
X107905027Y-76493183D01*
X107782377Y-76609981D01*
X107639384Y-76700727D01*
X107481480Y-76761974D01*
X107314698Y-76791383D01*
X107145369Y-76787835D01*
X106979960Y-76751468D01*
X106824767Y-76683666D01*
X106685696Y-76587009D01*
X106568046Y-76465179D01*
X106476301Y-76322818D01*
X106413956Y-76165354D01*
X106383383Y-75998772D01*
X106385748Y-75829428D01*
X106420959Y-75663771D01*
X106487678Y-75508104D01*
X106583363Y-75368360D01*
X106704363Y-75249868D01*
X106846080Y-75157131D01*
X107003113Y-75093685D01*
X107169470Y-75061951D01*
X107338826Y-75063134D01*
X107338826Y-75063134D01*
G37*
G36*
X122578826Y-75063134D02*
X122744731Y-75097189D01*
X122900858Y-75162819D01*
X123041260Y-75257520D01*
X123160605Y-75377702D01*
X123254324Y-75518760D01*
X123318864Y-75675346D01*
X123351707Y-75841215D01*
X123351707Y-75841227D01*
X123351757Y-75841480D01*
X123349056Y-76034922D01*
X123348998Y-76035177D01*
X123348998Y-76035183D01*
X123311536Y-76200073D01*
X123242650Y-76354794D01*
X123145027Y-76493183D01*
X123022377Y-76609981D01*
X122879384Y-76700727D01*
X122721480Y-76761974D01*
X122554698Y-76791383D01*
X122385369Y-76787835D01*
X122219960Y-76751468D01*
X122064767Y-76683666D01*
X121925696Y-76587009D01*
X121808046Y-76465179D01*
X121716301Y-76322818D01*
X121653956Y-76165354D01*
X121623383Y-75998772D01*
X121625748Y-75829428D01*
X121660959Y-75663771D01*
X121727678Y-75508104D01*
X121823363Y-75368360D01*
X121944363Y-75249868D01*
X122086080Y-75157131D01*
X122243113Y-75093685D01*
X122409470Y-75061951D01*
X122578826Y-75063134D01*
X122578826Y-75063134D01*
G37*
G36*
X107338826Y-72523134D02*
X107504731Y-72557189D01*
X107660858Y-72622819D01*
X107801260Y-72717520D01*
X107920605Y-72837702D01*
X108014324Y-72978760D01*
X108078864Y-73135346D01*
X108111707Y-73301215D01*
X108111707Y-73301227D01*
X108111757Y-73301480D01*
X108109056Y-73494922D01*
X108108998Y-73495177D01*
X108108998Y-73495183D01*
X108071536Y-73660073D01*
X108002650Y-73814794D01*
X107905027Y-73953183D01*
X107782377Y-74069981D01*
X107639384Y-74160727D01*
X107481480Y-74221974D01*
X107314698Y-74251383D01*
X107145369Y-74247835D01*
X106979960Y-74211468D01*
X106824767Y-74143666D01*
X106685696Y-74047009D01*
X106568046Y-73925179D01*
X106476301Y-73782818D01*
X106413956Y-73625354D01*
X106383383Y-73458772D01*
X106385748Y-73289428D01*
X106420959Y-73123771D01*
X106487678Y-72968104D01*
X106583363Y-72828360D01*
X106704363Y-72709868D01*
X106846080Y-72617131D01*
X107003113Y-72553685D01*
X107169470Y-72521951D01*
X107338826Y-72523134D01*
X107338826Y-72523134D01*
G37*
G36*
X122578826Y-72523134D02*
X122744731Y-72557189D01*
X122900858Y-72622819D01*
X123041260Y-72717520D01*
X123160605Y-72837702D01*
X123254324Y-72978760D01*
X123318864Y-73135346D01*
X123351707Y-73301215D01*
X123351707Y-73301227D01*
X123351757Y-73301480D01*
X123349056Y-73494922D01*
X123348998Y-73495177D01*
X123348998Y-73495183D01*
X123311536Y-73660073D01*
X123242650Y-73814794D01*
X123145027Y-73953183D01*
X123022377Y-74069981D01*
X122879384Y-74160727D01*
X122721480Y-74221974D01*
X122554698Y-74251383D01*
X122385369Y-74247835D01*
X122219960Y-74211468D01*
X122064767Y-74143666D01*
X121925696Y-74047009D01*
X121808046Y-73925179D01*
X121716301Y-73782818D01*
X121653956Y-73625354D01*
X121623383Y-73458772D01*
X121625748Y-73289428D01*
X121660959Y-73123771D01*
X121727678Y-72968104D01*
X121823363Y-72828360D01*
X121944363Y-72709868D01*
X122086080Y-72617131D01*
X122243113Y-72553685D01*
X122409470Y-72521951D01*
X122578826Y-72523134D01*
X122578826Y-72523134D01*
G37*
G36*
X107338826Y-69983134D02*
X107504731Y-70017189D01*
X107660858Y-70082819D01*
X107801260Y-70177520D01*
X107920605Y-70297702D01*
X108014324Y-70438760D01*
X108078864Y-70595346D01*
X108111707Y-70761215D01*
X108111707Y-70761227D01*
X108111757Y-70761480D01*
X108109056Y-70954922D01*
X108108998Y-70955177D01*
X108108998Y-70955183D01*
X108071536Y-71120073D01*
X108002650Y-71274794D01*
X107905027Y-71413183D01*
X107782377Y-71529981D01*
X107639384Y-71620727D01*
X107481480Y-71681974D01*
X107314698Y-71711383D01*
X107145369Y-71707835D01*
X106979960Y-71671468D01*
X106824767Y-71603666D01*
X106685696Y-71507009D01*
X106568046Y-71385179D01*
X106476301Y-71242818D01*
X106413956Y-71085354D01*
X106383383Y-70918772D01*
X106385748Y-70749428D01*
X106420959Y-70583771D01*
X106487678Y-70428104D01*
X106583363Y-70288360D01*
X106704363Y-70169868D01*
X106846080Y-70077131D01*
X107003113Y-70013685D01*
X107169470Y-69981951D01*
X107338826Y-69983134D01*
X107338826Y-69983134D01*
G37*
G36*
X122578826Y-69983134D02*
X122744731Y-70017189D01*
X122900858Y-70082819D01*
X123041260Y-70177520D01*
X123160605Y-70297702D01*
X123254324Y-70438760D01*
X123318864Y-70595346D01*
X123351707Y-70761215D01*
X123351707Y-70761227D01*
X123351757Y-70761480D01*
X123349056Y-70954922D01*
X123348998Y-70955177D01*
X123348998Y-70955183D01*
X123311536Y-71120073D01*
X123242650Y-71274794D01*
X123145027Y-71413183D01*
X123022377Y-71529981D01*
X122879384Y-71620727D01*
X122721480Y-71681974D01*
X122554698Y-71711383D01*
X122385369Y-71707835D01*
X122219960Y-71671468D01*
X122064767Y-71603666D01*
X121925696Y-71507009D01*
X121808046Y-71385179D01*
X121716301Y-71242818D01*
X121653956Y-71085354D01*
X121623383Y-70918772D01*
X121625748Y-70749428D01*
X121660959Y-70583771D01*
X121727678Y-70428104D01*
X121823363Y-70288360D01*
X121944363Y-70169868D01*
X122086080Y-70077131D01*
X122243113Y-70013685D01*
X122409470Y-69981951D01*
X122578826Y-69983134D01*
X122578826Y-69983134D01*
G37*
G36*
X107338826Y-67443134D02*
X107504731Y-67477189D01*
X107660858Y-67542819D01*
X107801260Y-67637520D01*
X107920605Y-67757702D01*
X108014324Y-67898760D01*
X108078864Y-68055346D01*
X108111707Y-68221215D01*
X108111707Y-68221227D01*
X108111757Y-68221480D01*
X108109056Y-68414922D01*
X108108998Y-68415177D01*
X108108998Y-68415183D01*
X108071536Y-68580073D01*
X108002650Y-68734794D01*
X107905027Y-68873183D01*
X107782377Y-68989981D01*
X107639384Y-69080727D01*
X107481480Y-69141974D01*
X107314698Y-69171383D01*
X107145369Y-69167835D01*
X106979960Y-69131468D01*
X106824767Y-69063666D01*
X106685696Y-68967009D01*
X106568046Y-68845179D01*
X106476301Y-68702818D01*
X106413956Y-68545354D01*
X106383383Y-68378772D01*
X106385748Y-68209428D01*
X106420959Y-68043771D01*
X106487678Y-67888104D01*
X106583363Y-67748360D01*
X106704363Y-67629868D01*
X106846080Y-67537131D01*
X107003113Y-67473685D01*
X107169470Y-67441951D01*
X107338826Y-67443134D01*
X107338826Y-67443134D01*
G37*
G36*
X122578826Y-67443134D02*
X122744731Y-67477189D01*
X122900858Y-67542819D01*
X123041260Y-67637520D01*
X123160605Y-67757702D01*
X123254324Y-67898760D01*
X123318864Y-68055346D01*
X123351707Y-68221215D01*
X123351707Y-68221227D01*
X123351757Y-68221480D01*
X123349056Y-68414922D01*
X123348998Y-68415177D01*
X123348998Y-68415183D01*
X123311536Y-68580073D01*
X123242650Y-68734794D01*
X123145027Y-68873183D01*
X123022377Y-68989981D01*
X122879384Y-69080727D01*
X122721480Y-69141974D01*
X122554698Y-69171383D01*
X122385369Y-69167835D01*
X122219960Y-69131468D01*
X122064767Y-69063666D01*
X121925696Y-68967009D01*
X121808046Y-68845179D01*
X121716301Y-68702818D01*
X121653956Y-68545354D01*
X121623383Y-68378772D01*
X121625748Y-68209428D01*
X121660959Y-68043771D01*
X121727678Y-67888104D01*
X121823363Y-67748360D01*
X121944363Y-67629868D01*
X122086080Y-67537131D01*
X122243113Y-67473685D01*
X122409470Y-67441951D01*
X122578826Y-67443134D01*
X122578826Y-67443134D01*
G37*
G36*
X107338826Y-64903134D02*
X107504731Y-64937189D01*
X107660858Y-65002819D01*
X107801260Y-65097520D01*
X107920605Y-65217702D01*
X108014324Y-65358760D01*
X108078864Y-65515346D01*
X108111707Y-65681215D01*
X108111707Y-65681227D01*
X108111757Y-65681480D01*
X108109056Y-65874922D01*
X108108998Y-65875177D01*
X108108998Y-65875183D01*
X108071536Y-66040073D01*
X108002650Y-66194794D01*
X107905027Y-66333183D01*
X107782377Y-66449981D01*
X107639384Y-66540727D01*
X107481480Y-66601974D01*
X107314698Y-66631383D01*
X107145369Y-66627835D01*
X106979960Y-66591468D01*
X106824767Y-66523666D01*
X106685696Y-66427009D01*
X106568046Y-66305179D01*
X106476301Y-66162818D01*
X106413956Y-66005354D01*
X106383383Y-65838772D01*
X106385748Y-65669428D01*
X106420959Y-65503771D01*
X106487678Y-65348104D01*
X106583363Y-65208360D01*
X106704363Y-65089868D01*
X106846080Y-64997131D01*
X107003113Y-64933685D01*
X107169470Y-64901951D01*
X107338826Y-64903134D01*
X107338826Y-64903134D01*
G37*
G36*
X122578826Y-64903134D02*
X122744731Y-64937189D01*
X122900858Y-65002819D01*
X123041260Y-65097520D01*
X123160605Y-65217702D01*
X123254324Y-65358760D01*
X123318864Y-65515346D01*
X123351707Y-65681215D01*
X123351707Y-65681227D01*
X123351757Y-65681480D01*
X123349056Y-65874922D01*
X123348998Y-65875177D01*
X123348998Y-65875183D01*
X123311536Y-66040073D01*
X123242650Y-66194794D01*
X123145027Y-66333183D01*
X123022377Y-66449981D01*
X122879384Y-66540727D01*
X122721480Y-66601974D01*
X122554698Y-66631383D01*
X122385369Y-66627835D01*
X122219960Y-66591468D01*
X122064767Y-66523666D01*
X121925696Y-66427009D01*
X121808046Y-66305179D01*
X121716301Y-66162818D01*
X121653956Y-66005354D01*
X121623383Y-65838772D01*
X121625748Y-65669428D01*
X121660959Y-65503771D01*
X121727678Y-65348104D01*
X121823363Y-65208360D01*
X121944363Y-65089868D01*
X122086080Y-64997131D01*
X122243113Y-64933685D01*
X122409470Y-64901951D01*
X122578826Y-64903134D01*
X122578826Y-64903134D01*
G37*
G36*
X122578826Y-62363134D02*
X122744731Y-62397189D01*
X122900858Y-62462819D01*
X123041260Y-62557520D01*
X123160605Y-62677702D01*
X123254324Y-62818760D01*
X123318864Y-62975346D01*
X123351707Y-63141215D01*
X123351707Y-63141227D01*
X123351757Y-63141480D01*
X123349056Y-63334922D01*
X123348998Y-63335177D01*
X123348998Y-63335183D01*
X123311536Y-63500073D01*
X123242650Y-63654794D01*
X123145027Y-63793183D01*
X123022377Y-63909981D01*
X122879384Y-64000727D01*
X122721480Y-64061974D01*
X122554698Y-64091383D01*
X122385369Y-64087835D01*
X122219960Y-64051468D01*
X122064767Y-63983666D01*
X121925696Y-63887009D01*
X121808046Y-63765179D01*
X121716301Y-63622818D01*
X121653956Y-63465354D01*
X121623383Y-63298772D01*
X121625748Y-63129428D01*
X121660959Y-62963771D01*
X121727678Y-62808104D01*
X121823363Y-62668360D01*
X121944363Y-62549868D01*
X122086080Y-62457131D01*
X122243113Y-62393685D01*
X122409470Y-62361951D01*
X122578826Y-62363134D01*
X122578826Y-62363134D01*
G37*
G36*
X107338826Y-62363134D02*
X107504731Y-62397189D01*
X107660858Y-62462819D01*
X107801260Y-62557520D01*
X107920605Y-62677702D01*
X108014324Y-62818760D01*
X108078864Y-62975346D01*
X108111707Y-63141215D01*
X108111707Y-63141227D01*
X108111757Y-63141480D01*
X108109056Y-63334922D01*
X108108998Y-63335177D01*
X108108998Y-63335183D01*
X108071536Y-63500073D01*
X108002650Y-63654794D01*
X107905027Y-63793183D01*
X107782377Y-63909981D01*
X107639384Y-64000727D01*
X107481480Y-64061974D01*
X107314698Y-64091383D01*
X107145369Y-64087835D01*
X106979960Y-64051468D01*
X106824767Y-63983666D01*
X106685696Y-63887009D01*
X106568046Y-63765179D01*
X106476301Y-63622818D01*
X106413956Y-63465354D01*
X106383383Y-63298772D01*
X106385748Y-63129428D01*
X106420959Y-62963771D01*
X106487678Y-62808104D01*
X106583363Y-62668360D01*
X106704363Y-62549868D01*
X106846080Y-62457131D01*
X107003113Y-62393685D01*
X107169470Y-62361951D01*
X107338826Y-62363134D01*
X107338826Y-62363134D01*
G37*
G36*
X107338826Y-59823134D02*
X107504731Y-59857189D01*
X107660858Y-59922819D01*
X107801260Y-60017520D01*
X107920605Y-60137702D01*
X108014324Y-60278760D01*
X108078864Y-60435346D01*
X108111707Y-60601215D01*
X108111707Y-60601227D01*
X108111757Y-60601480D01*
X108109056Y-60794922D01*
X108108998Y-60795177D01*
X108108998Y-60795183D01*
X108071536Y-60960073D01*
X108002650Y-61114794D01*
X107905027Y-61253183D01*
X107782377Y-61369981D01*
X107639384Y-61460727D01*
X107481480Y-61521974D01*
X107314698Y-61551383D01*
X107145369Y-61547835D01*
X106979960Y-61511468D01*
X106824767Y-61443666D01*
X106685696Y-61347009D01*
X106568046Y-61225179D01*
X106476301Y-61082818D01*
X106413956Y-60925354D01*
X106383383Y-60758772D01*
X106385748Y-60589428D01*
X106420959Y-60423771D01*
X106487678Y-60268104D01*
X106583363Y-60128360D01*
X106704363Y-60009868D01*
X106846080Y-59917131D01*
X107003113Y-59853685D01*
X107169470Y-59821951D01*
X107338826Y-59823134D01*
X107338826Y-59823134D01*
G37*
G36*
X122578826Y-59823134D02*
X122744731Y-59857189D01*
X122900858Y-59922819D01*
X123041260Y-60017520D01*
X123160605Y-60137702D01*
X123254324Y-60278760D01*
X123318864Y-60435346D01*
X123351707Y-60601215D01*
X123351707Y-60601227D01*
X123351757Y-60601480D01*
X123349056Y-60794922D01*
X123348998Y-60795177D01*
X123348998Y-60795183D01*
X123311536Y-60960073D01*
X123242650Y-61114794D01*
X123145027Y-61253183D01*
X123022377Y-61369981D01*
X122879384Y-61460727D01*
X122721480Y-61521974D01*
X122554698Y-61551383D01*
X122385369Y-61547835D01*
X122219960Y-61511468D01*
X122064767Y-61443666D01*
X121925696Y-61347009D01*
X121808046Y-61225179D01*
X121716301Y-61082818D01*
X121653956Y-60925354D01*
X121623383Y-60758772D01*
X121625748Y-60589428D01*
X121660959Y-60423771D01*
X121727678Y-60268104D01*
X121823363Y-60128360D01*
X121944363Y-60009868D01*
X122086080Y-59917131D01*
X122243113Y-59853685D01*
X122409470Y-59821951D01*
X122578826Y-59823134D01*
X122578826Y-59823134D01*
G37*
G36*
X107338826Y-57283134D02*
X107504731Y-57317189D01*
X107660858Y-57382819D01*
X107801260Y-57477520D01*
X107920605Y-57597702D01*
X108014324Y-57738760D01*
X108078864Y-57895346D01*
X108111707Y-58061215D01*
X108111707Y-58061227D01*
X108111757Y-58061480D01*
X108109056Y-58254922D01*
X108108998Y-58255177D01*
X108108998Y-58255183D01*
X108071536Y-58420073D01*
X108002650Y-58574794D01*
X107905027Y-58713183D01*
X107782377Y-58829981D01*
X107639384Y-58920727D01*
X107481480Y-58981974D01*
X107314698Y-59011383D01*
X107145369Y-59007835D01*
X106979960Y-58971468D01*
X106824767Y-58903666D01*
X106685696Y-58807009D01*
X106568046Y-58685179D01*
X106476301Y-58542818D01*
X106413956Y-58385354D01*
X106383383Y-58218772D01*
X106385748Y-58049428D01*
X106420959Y-57883771D01*
X106487678Y-57728104D01*
X106583363Y-57588360D01*
X106704363Y-57469868D01*
X106846080Y-57377131D01*
X107003113Y-57313685D01*
X107169470Y-57281951D01*
X107338826Y-57283134D01*
X107338826Y-57283134D01*
G37*
G36*
X122578826Y-57283134D02*
X122744731Y-57317189D01*
X122900858Y-57382819D01*
X123041260Y-57477520D01*
X123160605Y-57597702D01*
X123254324Y-57738760D01*
X123318864Y-57895346D01*
X123351707Y-58061215D01*
X123351707Y-58061227D01*
X123351757Y-58061480D01*
X123349056Y-58254922D01*
X123348998Y-58255177D01*
X123348998Y-58255183D01*
X123311536Y-58420073D01*
X123242650Y-58574794D01*
X123145027Y-58713183D01*
X123022377Y-58829981D01*
X122879384Y-58920727D01*
X122721480Y-58981974D01*
X122554698Y-59011383D01*
X122385369Y-59007835D01*
X122219960Y-58971468D01*
X122064767Y-58903666D01*
X121925696Y-58807009D01*
X121808046Y-58685179D01*
X121716301Y-58542818D01*
X121653956Y-58385354D01*
X121623383Y-58218772D01*
X121625748Y-58049428D01*
X121660959Y-57883771D01*
X121727678Y-57728104D01*
X121823363Y-57588360D01*
X121944363Y-57469868D01*
X122086080Y-57377131D01*
X122243113Y-57313685D01*
X122409470Y-57281951D01*
X122578826Y-57283134D01*
X122578826Y-57283134D01*
G37*
G36*
X107338826Y-54743134D02*
X107504731Y-54777189D01*
X107660858Y-54842819D01*
X107801260Y-54937520D01*
X107920605Y-55057702D01*
X108014324Y-55198760D01*
X108078864Y-55355346D01*
X108111707Y-55521215D01*
X108111707Y-55521227D01*
X108111757Y-55521480D01*
X108109056Y-55714922D01*
X108108998Y-55715177D01*
X108108998Y-55715183D01*
X108071536Y-55880073D01*
X108002650Y-56034794D01*
X107905027Y-56173183D01*
X107782377Y-56289981D01*
X107639384Y-56380727D01*
X107481480Y-56441974D01*
X107314698Y-56471383D01*
X107145369Y-56467835D01*
X106979960Y-56431468D01*
X106824767Y-56363666D01*
X106685696Y-56267009D01*
X106568046Y-56145179D01*
X106476301Y-56002818D01*
X106413956Y-55845354D01*
X106383383Y-55678772D01*
X106385748Y-55509428D01*
X106420959Y-55343771D01*
X106487678Y-55188104D01*
X106583363Y-55048360D01*
X106704363Y-54929868D01*
X106846080Y-54837131D01*
X107003113Y-54773685D01*
X107169470Y-54741951D01*
X107338826Y-54743134D01*
X107338826Y-54743134D01*
G37*
G36*
X122578826Y-54743134D02*
X122744731Y-54777189D01*
X122900858Y-54842819D01*
X123041260Y-54937520D01*
X123160605Y-55057702D01*
X123254324Y-55198760D01*
X123318864Y-55355346D01*
X123351707Y-55521215D01*
X123351707Y-55521227D01*
X123351757Y-55521480D01*
X123349056Y-55714922D01*
X123348998Y-55715177D01*
X123348998Y-55715183D01*
X123311536Y-55880073D01*
X123242650Y-56034794D01*
X123145027Y-56173183D01*
X123022377Y-56289981D01*
X122879384Y-56380727D01*
X122721480Y-56441974D01*
X122554698Y-56471383D01*
X122385369Y-56467835D01*
X122219960Y-56431468D01*
X122064767Y-56363666D01*
X121925696Y-56267009D01*
X121808046Y-56145179D01*
X121716301Y-56002818D01*
X121653956Y-55845354D01*
X121623383Y-55678772D01*
X121625748Y-55509428D01*
X121660959Y-55343771D01*
X121727678Y-55188104D01*
X121823363Y-55048360D01*
X121944363Y-54929868D01*
X122086080Y-54837131D01*
X122243113Y-54773685D01*
X122409470Y-54741951D01*
X122578826Y-54743134D01*
X122578826Y-54743134D01*
G37*
G36*
X107338826Y-52203134D02*
X107504731Y-52237189D01*
X107660858Y-52302819D01*
X107801260Y-52397520D01*
X107920605Y-52517702D01*
X108014324Y-52658760D01*
X108078864Y-52815346D01*
X108111707Y-52981215D01*
X108111707Y-52981227D01*
X108111757Y-52981480D01*
X108109056Y-53174922D01*
X108108998Y-53175177D01*
X108108998Y-53175183D01*
X108071536Y-53340073D01*
X108002650Y-53494794D01*
X107905027Y-53633183D01*
X107782377Y-53749981D01*
X107639384Y-53840727D01*
X107481480Y-53901974D01*
X107314698Y-53931383D01*
X107145369Y-53927835D01*
X106979960Y-53891468D01*
X106824767Y-53823666D01*
X106685696Y-53727009D01*
X106568046Y-53605179D01*
X106476301Y-53462818D01*
X106413956Y-53305354D01*
X106383383Y-53138772D01*
X106385748Y-52969428D01*
X106420959Y-52803771D01*
X106487678Y-52648104D01*
X106583363Y-52508360D01*
X106704363Y-52389868D01*
X106846080Y-52297131D01*
X107003113Y-52233685D01*
X107169470Y-52201951D01*
X107338826Y-52203134D01*
X107338826Y-52203134D01*
G37*
G36*
X122578826Y-52203134D02*
X122744731Y-52237189D01*
X122900858Y-52302819D01*
X123041260Y-52397520D01*
X123160605Y-52517702D01*
X123254324Y-52658760D01*
X123318864Y-52815346D01*
X123351707Y-52981215D01*
X123351707Y-52981227D01*
X123351757Y-52981480D01*
X123349056Y-53174922D01*
X123348998Y-53175177D01*
X123348998Y-53175183D01*
X123311536Y-53340073D01*
X123242650Y-53494794D01*
X123145027Y-53633183D01*
X123022377Y-53749981D01*
X122879384Y-53840727D01*
X122721480Y-53901974D01*
X122554698Y-53931383D01*
X122385369Y-53927835D01*
X122219960Y-53891468D01*
X122064767Y-53823666D01*
X121925696Y-53727009D01*
X121808046Y-53605179D01*
X121716301Y-53462818D01*
X121653956Y-53305354D01*
X121623383Y-53138772D01*
X121625748Y-52969428D01*
X121660959Y-52803771D01*
X121727678Y-52648104D01*
X121823363Y-52508360D01*
X121944363Y-52389868D01*
X122086080Y-52297131D01*
X122243113Y-52233685D01*
X122409470Y-52201951D01*
X122578826Y-52203134D01*
X122578826Y-52203134D01*
G37*
G36*
X107338826Y-49663134D02*
X107504731Y-49697189D01*
X107660858Y-49762819D01*
X107801260Y-49857520D01*
X107920605Y-49977702D01*
X108014324Y-50118760D01*
X108078864Y-50275346D01*
X108111707Y-50441215D01*
X108111707Y-50441227D01*
X108111757Y-50441480D01*
X108109056Y-50634922D01*
X108108998Y-50635177D01*
X108108998Y-50635183D01*
X108071536Y-50800073D01*
X108002650Y-50954794D01*
X107905027Y-51093183D01*
X107782377Y-51209981D01*
X107639384Y-51300727D01*
X107481480Y-51361974D01*
X107314698Y-51391383D01*
X107145369Y-51387835D01*
X106979960Y-51351468D01*
X106824767Y-51283666D01*
X106685696Y-51187009D01*
X106568046Y-51065179D01*
X106476301Y-50922818D01*
X106413956Y-50765354D01*
X106383383Y-50598772D01*
X106385748Y-50429428D01*
X106420959Y-50263771D01*
X106487678Y-50108104D01*
X106583363Y-49968360D01*
X106704363Y-49849868D01*
X106846080Y-49757131D01*
X107003113Y-49693685D01*
X107169470Y-49661951D01*
X107338826Y-49663134D01*
X107338826Y-49663134D01*
G37*
G36*
X122578826Y-49663134D02*
X122744731Y-49697189D01*
X122900858Y-49762819D01*
X123041260Y-49857520D01*
X123160605Y-49977702D01*
X123254324Y-50118760D01*
X123318864Y-50275346D01*
X123351707Y-50441215D01*
X123351707Y-50441227D01*
X123351757Y-50441480D01*
X123349056Y-50634922D01*
X123348998Y-50635177D01*
X123348998Y-50635183D01*
X123311536Y-50800073D01*
X123242650Y-50954794D01*
X123145027Y-51093183D01*
X123022377Y-51209981D01*
X122879384Y-51300727D01*
X122721480Y-51361974D01*
X122554698Y-51391383D01*
X122385369Y-51387835D01*
X122219960Y-51351468D01*
X122064767Y-51283666D01*
X121925696Y-51187009D01*
X121808046Y-51065179D01*
X121716301Y-50922818D01*
X121653956Y-50765354D01*
X121623383Y-50598772D01*
X121625748Y-50429428D01*
X121660959Y-50263771D01*
X121727678Y-50108104D01*
X121823363Y-49968360D01*
X121944363Y-49849868D01*
X122086080Y-49757131D01*
X122243113Y-49693685D01*
X122409470Y-49661951D01*
X122578826Y-49663134D01*
X122578826Y-49663134D01*
G37*
G36*
X122578826Y-47123134D02*
X122744731Y-47157189D01*
X122900858Y-47222819D01*
X123041260Y-47317520D01*
X123160605Y-47437702D01*
X123254324Y-47578760D01*
X123318864Y-47735346D01*
X123351707Y-47901215D01*
X123351707Y-47901227D01*
X123351757Y-47901480D01*
X123349056Y-48094922D01*
X123348998Y-48095177D01*
X123348998Y-48095183D01*
X123311536Y-48260073D01*
X123242650Y-48414794D01*
X123145027Y-48553183D01*
X123022377Y-48669981D01*
X122879384Y-48760727D01*
X122721480Y-48821974D01*
X122554698Y-48851383D01*
X122385369Y-48847835D01*
X122219960Y-48811468D01*
X122064767Y-48743666D01*
X121925696Y-48647009D01*
X121808046Y-48525179D01*
X121716301Y-48382818D01*
X121653956Y-48225354D01*
X121623383Y-48058772D01*
X121625748Y-47889428D01*
X121660959Y-47723771D01*
X121727678Y-47568104D01*
X121823363Y-47428360D01*
X121944363Y-47309868D01*
X122086080Y-47217131D01*
X122243113Y-47153685D01*
X122409470Y-47121951D01*
X122578826Y-47123134D01*
X122578826Y-47123134D01*
G37*
G36*
X107338826Y-47123134D02*
X107504731Y-47157189D01*
X107660858Y-47222819D01*
X107801260Y-47317520D01*
X107920605Y-47437702D01*
X108014324Y-47578760D01*
X108078864Y-47735346D01*
X108111707Y-47901215D01*
X108111707Y-47901227D01*
X108111757Y-47901480D01*
X108109056Y-48094922D01*
X108108998Y-48095177D01*
X108108998Y-48095183D01*
X108071536Y-48260073D01*
X108002650Y-48414794D01*
X107905027Y-48553183D01*
X107782377Y-48669981D01*
X107639384Y-48760727D01*
X107481480Y-48821974D01*
X107314698Y-48851383D01*
X107145369Y-48847835D01*
X106979960Y-48811468D01*
X106824767Y-48743666D01*
X106685696Y-48647009D01*
X106568046Y-48525179D01*
X106476301Y-48382818D01*
X106413956Y-48225354D01*
X106383383Y-48058772D01*
X106385748Y-47889428D01*
X106420959Y-47723771D01*
X106487678Y-47568104D01*
X106583363Y-47428360D01*
X106704363Y-47309868D01*
X106846080Y-47217131D01*
X107003113Y-47153685D01*
X107169470Y-47121951D01*
X107338826Y-47123134D01*
X107338826Y-47123134D01*
G37*
G36*
X122578826Y-44583134D02*
X122744731Y-44617189D01*
X122900858Y-44682819D01*
X123041260Y-44777520D01*
X123160605Y-44897702D01*
X123254324Y-45038760D01*
X123318864Y-45195346D01*
X123351707Y-45361215D01*
X123351707Y-45361227D01*
X123351757Y-45361480D01*
X123349056Y-45554922D01*
X123348998Y-45555177D01*
X123348998Y-45555183D01*
X123311536Y-45720073D01*
X123242650Y-45874794D01*
X123145027Y-46013183D01*
X123022377Y-46129981D01*
X122879384Y-46220727D01*
X122721480Y-46281974D01*
X122554698Y-46311383D01*
X122385369Y-46307835D01*
X122219960Y-46271468D01*
X122064767Y-46203666D01*
X121925696Y-46107009D01*
X121808046Y-45985179D01*
X121716301Y-45842818D01*
X121653956Y-45685354D01*
X121623383Y-45518772D01*
X121625748Y-45349428D01*
X121660959Y-45183771D01*
X121727678Y-45028104D01*
X121823363Y-44888360D01*
X121944363Y-44769868D01*
X122086080Y-44677131D01*
X122243113Y-44613685D01*
X122409470Y-44581951D01*
X122578826Y-44583134D01*
X122578826Y-44583134D01*
G37*
G36*
X107338826Y-44583134D02*
X107504731Y-44617189D01*
X107660858Y-44682819D01*
X107801260Y-44777520D01*
X107920605Y-44897702D01*
X108014324Y-45038760D01*
X108078864Y-45195346D01*
X108111707Y-45361215D01*
X108111707Y-45361227D01*
X108111757Y-45361480D01*
X108109056Y-45554922D01*
X108108998Y-45555177D01*
X108108998Y-45555183D01*
X108071536Y-45720073D01*
X108002650Y-45874794D01*
X107905027Y-46013183D01*
X107782377Y-46129981D01*
X107639384Y-46220727D01*
X107481480Y-46281974D01*
X107314698Y-46311383D01*
X107145369Y-46307835D01*
X106979960Y-46271468D01*
X106824767Y-46203666D01*
X106685696Y-46107009D01*
X106568046Y-45985179D01*
X106476301Y-45842818D01*
X106413956Y-45685354D01*
X106383383Y-45518772D01*
X106385748Y-45349428D01*
X106420959Y-45183771D01*
X106487678Y-45028104D01*
X106583363Y-44888360D01*
X106704363Y-44769868D01*
X106846080Y-44677131D01*
X107003113Y-44613685D01*
X107169470Y-44581951D01*
X107338826Y-44583134D01*
X107338826Y-44583134D01*
G37*
M02*
