G04 #@! TF.FileFunction,Copper,L2,Bot,Signal*
%FSLAX46Y46*%
G04 Gerber Fmt 4.6, Leading zero omitted, Abs format (unit mm)*
G04 Created by KiCad (PCBNEW 4.0.6) date Wed Aug 30 21:06:07 2017*
%MOMM*%
%LPD*%
G01*
G04 APERTURE LIST*
%ADD10C,0.100000*%
%ADD11C,0.220000*%
%ADD12C,10.160000*%
%ADD13C,1.727200*%
%ADD14C,0.685800*%
%ADD15C,0.152400*%
%ADD16C,0.254000*%
G04 APERTURE END LIST*
D10*
D11*
X130118598Y-83490922D02*
X130118598Y-81490922D01*
X129642407Y-81490922D01*
X129356693Y-81586160D01*
X129166217Y-81776636D01*
X129070978Y-81967112D01*
X128975740Y-82348065D01*
X128975740Y-82633779D01*
X129070978Y-83014731D01*
X129166217Y-83205208D01*
X129356693Y-83395684D01*
X129642407Y-83490922D01*
X130118598Y-83490922D01*
X128118598Y-83490922D02*
X128118598Y-82157589D01*
X128118598Y-82538541D02*
X128023359Y-82348065D01*
X127928121Y-82252827D01*
X127737645Y-82157589D01*
X127547169Y-82157589D01*
X126118598Y-83395684D02*
X126309074Y-83490922D01*
X126690026Y-83490922D01*
X126880503Y-83395684D01*
X126975741Y-83205208D01*
X126975741Y-82443303D01*
X126880503Y-82252827D01*
X126690026Y-82157589D01*
X126309074Y-82157589D01*
X126118598Y-82252827D01*
X126023360Y-82443303D01*
X126023360Y-82633779D01*
X126975741Y-82824255D01*
X125356693Y-82157589D02*
X124975740Y-83490922D01*
X124594788Y-82538541D01*
X124213836Y-83490922D01*
X123832883Y-82157589D01*
X120880502Y-82443303D02*
X121547169Y-82443303D01*
X121547169Y-83490922D02*
X121547169Y-81490922D01*
X120594788Y-81490922D01*
X118975740Y-82157589D02*
X118975740Y-83490922D01*
X119832883Y-82157589D02*
X119832883Y-83205208D01*
X119737644Y-83395684D01*
X119547168Y-83490922D01*
X119261454Y-83490922D01*
X119070978Y-83395684D01*
X118975740Y-83300446D01*
X118118597Y-83395684D02*
X117928120Y-83490922D01*
X117547168Y-83490922D01*
X117356692Y-83395684D01*
X117261454Y-83205208D01*
X117261454Y-83109970D01*
X117356692Y-82919493D01*
X117547168Y-82824255D01*
X117832882Y-82824255D01*
X118023359Y-82729017D01*
X118118597Y-82538541D01*
X118118597Y-82443303D01*
X118023359Y-82252827D01*
X117832882Y-82157589D01*
X117547168Y-82157589D01*
X117356692Y-82252827D01*
X116690025Y-82157589D02*
X115928120Y-82157589D01*
X116404311Y-81490922D02*
X116404311Y-83205208D01*
X116309072Y-83395684D01*
X116118596Y-83490922D01*
X115928120Y-83490922D01*
X115261454Y-83490922D02*
X115261454Y-82157589D01*
X115261454Y-81490922D02*
X115356692Y-81586160D01*
X115261454Y-81681398D01*
X115166215Y-81586160D01*
X115261454Y-81490922D01*
X115261454Y-81681398D01*
X114309073Y-82157589D02*
X114309073Y-83490922D01*
X114309073Y-82348065D02*
X114213834Y-82252827D01*
X114023358Y-82157589D01*
X113737644Y-82157589D01*
X113547168Y-82252827D01*
X113451930Y-82443303D01*
X113451930Y-83490922D01*
X112499549Y-83490922D02*
X112499549Y-82157589D01*
X112499549Y-81490922D02*
X112594787Y-81586160D01*
X112499549Y-81681398D01*
X112404310Y-81586160D01*
X112499549Y-81490922D01*
X112499549Y-81681398D01*
X108499548Y-82157589D02*
X110023358Y-82729017D01*
X108499548Y-83300446D01*
X106690025Y-83490922D02*
X106690025Y-81490922D01*
X106690025Y-83395684D02*
X106880501Y-83490922D01*
X107261453Y-83490922D01*
X107451929Y-83395684D01*
X107547168Y-83300446D01*
X107642406Y-83109970D01*
X107642406Y-82538541D01*
X107547168Y-82348065D01*
X107451929Y-82252827D01*
X107261453Y-82157589D01*
X106880501Y-82157589D01*
X106690025Y-82252827D01*
X105737644Y-83490922D02*
X105737644Y-82157589D01*
X105737644Y-82538541D02*
X105642405Y-82348065D01*
X105547167Y-82252827D01*
X105356691Y-82157589D01*
X105166215Y-82157589D01*
X103737644Y-83395684D02*
X103928120Y-83490922D01*
X104309072Y-83490922D01*
X104499549Y-83395684D01*
X104594787Y-83205208D01*
X104594787Y-82443303D01*
X104499549Y-82252827D01*
X104309072Y-82157589D01*
X103928120Y-82157589D01*
X103737644Y-82252827D01*
X103642406Y-82443303D01*
X103642406Y-82633779D01*
X104594787Y-82824255D01*
X102975739Y-82157589D02*
X102594786Y-83490922D01*
X102213834Y-82538541D01*
X101832882Y-83490922D01*
X101451929Y-82157589D01*
X99451929Y-82538541D02*
X99547167Y-82443303D01*
X99737644Y-82348065D01*
X99928120Y-82348065D01*
X100118596Y-82443303D01*
X100213834Y-82538541D01*
X100309072Y-82729017D01*
X100309072Y-82919493D01*
X100213834Y-83109970D01*
X100118596Y-83205208D01*
X99928120Y-83300446D01*
X99737644Y-83300446D01*
X99547167Y-83205208D01*
X99451929Y-83109970D01*
X99451929Y-82348065D02*
X99451929Y-83109970D01*
X99356691Y-83205208D01*
X99261453Y-83205208D01*
X99070977Y-83109970D01*
X98975739Y-82919493D01*
X98975739Y-82443303D01*
X99166215Y-82157589D01*
X99451929Y-81967112D01*
X99832882Y-81871874D01*
X100213834Y-81967112D01*
X100499548Y-82157589D01*
X100690025Y-82443303D01*
X100785263Y-82824255D01*
X100690025Y-83205208D01*
X100499548Y-83490922D01*
X100213834Y-83681398D01*
X99832882Y-83776636D01*
X99451929Y-83681398D01*
X99166215Y-83490922D01*
X97832881Y-83490922D02*
X98023357Y-83395684D01*
X98118596Y-83300446D01*
X98213834Y-83109970D01*
X98213834Y-82538541D01*
X98118596Y-82348065D01*
X98023357Y-82252827D01*
X97832881Y-82157589D01*
X97547167Y-82157589D01*
X97356691Y-82252827D01*
X97261453Y-82348065D01*
X97166215Y-82538541D01*
X97166215Y-83109970D01*
X97261453Y-83300446D01*
X97356691Y-83395684D01*
X97547167Y-83490922D01*
X97832881Y-83490922D01*
X96404310Y-83395684D02*
X96213833Y-83490922D01*
X95832881Y-83490922D01*
X95642405Y-83395684D01*
X95547167Y-83205208D01*
X95547167Y-83109970D01*
X95642405Y-82919493D01*
X95832881Y-82824255D01*
X96118595Y-82824255D01*
X96309072Y-82729017D01*
X96404310Y-82538541D01*
X96404310Y-82443303D01*
X96309072Y-82252827D01*
X96118595Y-82157589D01*
X95832881Y-82157589D01*
X95642405Y-82252827D01*
X94690024Y-83490922D02*
X94690024Y-81490922D01*
X93832881Y-83490922D02*
X93832881Y-82443303D01*
X93928119Y-82252827D01*
X94118595Y-82157589D01*
X94404309Y-82157589D01*
X94594785Y-82252827D01*
X94690024Y-82348065D01*
X92880500Y-82157589D02*
X92880500Y-84157589D01*
X92880500Y-82252827D02*
X92690023Y-82157589D01*
X92309071Y-82157589D01*
X92118595Y-82252827D01*
X92023357Y-82348065D01*
X91928119Y-82538541D01*
X91928119Y-83109970D01*
X92023357Y-83300446D01*
X92118595Y-83395684D01*
X92309071Y-83490922D01*
X92690023Y-83490922D01*
X92880500Y-83395684D01*
X90213833Y-83490922D02*
X90213833Y-82443303D01*
X90309071Y-82252827D01*
X90499547Y-82157589D01*
X90880499Y-82157589D01*
X91070976Y-82252827D01*
X90213833Y-83395684D02*
X90404309Y-83490922D01*
X90880499Y-83490922D01*
X91070976Y-83395684D01*
X91166214Y-83205208D01*
X91166214Y-83014731D01*
X91070976Y-82824255D01*
X90880499Y-82729017D01*
X90404309Y-82729017D01*
X90213833Y-82633779D01*
X89261452Y-83490922D02*
X89261452Y-82157589D01*
X89261452Y-82538541D02*
X89166213Y-82348065D01*
X89070975Y-82252827D01*
X88880499Y-82157589D01*
X88690023Y-82157589D01*
X88023357Y-83490922D02*
X88023357Y-81490922D01*
X87832880Y-82729017D02*
X87261452Y-83490922D01*
X87261452Y-82157589D02*
X88023357Y-82919493D01*
X86404309Y-83300446D02*
X86309070Y-83395684D01*
X86404309Y-83490922D01*
X86499547Y-83395684D01*
X86404309Y-83300446D01*
X86404309Y-83490922D01*
X84594785Y-83395684D02*
X84785261Y-83490922D01*
X85166213Y-83490922D01*
X85356689Y-83395684D01*
X85451928Y-83300446D01*
X85547166Y-83109970D01*
X85547166Y-82538541D01*
X85451928Y-82348065D01*
X85356689Y-82252827D01*
X85166213Y-82157589D01*
X84785261Y-82157589D01*
X84594785Y-82252827D01*
X83451927Y-83490922D02*
X83642403Y-83395684D01*
X83737642Y-83300446D01*
X83832880Y-83109970D01*
X83832880Y-82538541D01*
X83737642Y-82348065D01*
X83642403Y-82252827D01*
X83451927Y-82157589D01*
X83166213Y-82157589D01*
X82975737Y-82252827D01*
X82880499Y-82348065D01*
X82785261Y-82538541D01*
X82785261Y-83109970D01*
X82880499Y-83300446D01*
X82975737Y-83395684D01*
X83166213Y-83490922D01*
X83451927Y-83490922D01*
X81928118Y-83490922D02*
X81928118Y-82157589D01*
X81928118Y-82348065D02*
X81832879Y-82252827D01*
X81642403Y-82157589D01*
X81356689Y-82157589D01*
X81166213Y-82252827D01*
X81070975Y-82443303D01*
X81070975Y-83490922D01*
X81070975Y-82443303D02*
X80975737Y-82252827D01*
X80785260Y-82157589D01*
X80499546Y-82157589D01*
X80309070Y-82252827D01*
X80213832Y-82443303D01*
X80213832Y-83490922D01*
X79261451Y-82157589D02*
X77737641Y-82729017D01*
X79261451Y-83300446D01*
X135352884Y-35647589D02*
X135352884Y-37266636D01*
X135448122Y-37457112D01*
X135543360Y-37552350D01*
X135733836Y-37647589D01*
X136019550Y-37647589D01*
X136210027Y-37552350D01*
X135352884Y-36885684D02*
X135543360Y-36980922D01*
X135924312Y-36980922D01*
X136114788Y-36885684D01*
X136210027Y-36790446D01*
X136305265Y-36599970D01*
X136305265Y-36028541D01*
X136210027Y-35838065D01*
X136114788Y-35742827D01*
X135924312Y-35647589D01*
X135543360Y-35647589D01*
X135352884Y-35742827D01*
X134400503Y-36980922D02*
X134400503Y-35647589D01*
X134400503Y-34980922D02*
X134495741Y-35076160D01*
X134400503Y-35171398D01*
X134305264Y-35076160D01*
X134400503Y-34980922D01*
X134400503Y-35171398D01*
X133733836Y-35647589D02*
X132971931Y-35647589D01*
X133448122Y-34980922D02*
X133448122Y-36695208D01*
X133352883Y-36885684D01*
X133162407Y-36980922D01*
X132971931Y-36980922D01*
X132305265Y-36980922D02*
X132305265Y-34980922D01*
X131448122Y-36980922D02*
X131448122Y-35933303D01*
X131543360Y-35742827D01*
X131733836Y-35647589D01*
X132019550Y-35647589D01*
X132210026Y-35742827D01*
X132305265Y-35838065D01*
X129638598Y-35647589D02*
X129638598Y-36980922D01*
X130495741Y-35647589D02*
X130495741Y-36695208D01*
X130400502Y-36885684D01*
X130210026Y-36980922D01*
X129924312Y-36980922D01*
X129733836Y-36885684D01*
X129638598Y-36790446D01*
X128686217Y-36980922D02*
X128686217Y-34980922D01*
X128686217Y-35742827D02*
X128495740Y-35647589D01*
X128114788Y-35647589D01*
X127924312Y-35742827D01*
X127829074Y-35838065D01*
X127733836Y-36028541D01*
X127733836Y-36599970D01*
X127829074Y-36790446D01*
X127924312Y-36885684D01*
X128114788Y-36980922D01*
X128495740Y-36980922D01*
X128686217Y-36885684D01*
X126876693Y-36790446D02*
X126781454Y-36885684D01*
X126876693Y-36980922D01*
X126971931Y-36885684D01*
X126876693Y-36790446D01*
X126876693Y-36980922D01*
X125067169Y-36885684D02*
X125257645Y-36980922D01*
X125638597Y-36980922D01*
X125829073Y-36885684D01*
X125924312Y-36790446D01*
X126019550Y-36599970D01*
X126019550Y-36028541D01*
X125924312Y-35838065D01*
X125829073Y-35742827D01*
X125638597Y-35647589D01*
X125257645Y-35647589D01*
X125067169Y-35742827D01*
X123924311Y-36980922D02*
X124114787Y-36885684D01*
X124210026Y-36790446D01*
X124305264Y-36599970D01*
X124305264Y-36028541D01*
X124210026Y-35838065D01*
X124114787Y-35742827D01*
X123924311Y-35647589D01*
X123638597Y-35647589D01*
X123448121Y-35742827D01*
X123352883Y-35838065D01*
X123257645Y-36028541D01*
X123257645Y-36599970D01*
X123352883Y-36790446D01*
X123448121Y-36885684D01*
X123638597Y-36980922D01*
X123924311Y-36980922D01*
X122400502Y-36980922D02*
X122400502Y-35647589D01*
X122400502Y-35838065D02*
X122305263Y-35742827D01*
X122114787Y-35647589D01*
X121829073Y-35647589D01*
X121638597Y-35742827D01*
X121543359Y-35933303D01*
X121543359Y-36980922D01*
X121543359Y-35933303D02*
X121448121Y-35742827D01*
X121257644Y-35647589D01*
X120971930Y-35647589D01*
X120781454Y-35742827D01*
X120686216Y-35933303D01*
X120686216Y-36980922D01*
X118305263Y-34885684D02*
X120019549Y-37457112D01*
X117638597Y-35647589D02*
X117638597Y-37647589D01*
X117638597Y-35742827D02*
X117448120Y-35647589D01*
X117067168Y-35647589D01*
X116876692Y-35742827D01*
X116781454Y-35838065D01*
X116686216Y-36028541D01*
X116686216Y-36599970D01*
X116781454Y-36790446D01*
X116876692Y-36885684D01*
X117067168Y-36980922D01*
X117448120Y-36980922D01*
X117638597Y-36885684D01*
X114971930Y-36980922D02*
X114971930Y-34980922D01*
X114971930Y-36885684D02*
X115162406Y-36980922D01*
X115543358Y-36980922D01*
X115733834Y-36885684D01*
X115829073Y-36790446D01*
X115924311Y-36599970D01*
X115924311Y-36028541D01*
X115829073Y-35838065D01*
X115733834Y-35742827D01*
X115543358Y-35647589D01*
X115162406Y-35647589D01*
X114971930Y-35742827D01*
X114019549Y-35647589D02*
X114019549Y-37647589D01*
X114019549Y-35742827D02*
X113829072Y-35647589D01*
X113448120Y-35647589D01*
X113257644Y-35742827D01*
X113162406Y-35838065D01*
X113067168Y-36028541D01*
X113067168Y-36599970D01*
X113162406Y-36790446D01*
X113257644Y-36885684D01*
X113448120Y-36980922D01*
X113829072Y-36980922D01*
X114019549Y-36885684D01*
X112400501Y-34980922D02*
X111067167Y-34980922D01*
X111924310Y-36980922D01*
X108876691Y-34885684D02*
X110590977Y-37457112D01*
X108210025Y-36980922D02*
X108210025Y-34980922D01*
X108019548Y-36219017D02*
X107448120Y-36980922D01*
X107448120Y-35647589D02*
X108210025Y-36409493D01*
X106590977Y-36980922D02*
X106590977Y-35647589D01*
X106590977Y-34980922D02*
X106686215Y-35076160D01*
X106590977Y-35171398D01*
X106495738Y-35076160D01*
X106590977Y-34980922D01*
X106590977Y-35171398D01*
X104781453Y-36885684D02*
X104971929Y-36980922D01*
X105352881Y-36980922D01*
X105543357Y-36885684D01*
X105638596Y-36790446D01*
X105733834Y-36599970D01*
X105733834Y-36028541D01*
X105638596Y-35838065D01*
X105543357Y-35742827D01*
X105352881Y-35647589D01*
X104971929Y-35647589D01*
X104781453Y-35742827D01*
X103067167Y-36980922D02*
X103067167Y-35933303D01*
X103162405Y-35742827D01*
X103352881Y-35647589D01*
X103733833Y-35647589D01*
X103924310Y-35742827D01*
X103067167Y-36885684D02*
X103257643Y-36980922D01*
X103733833Y-36980922D01*
X103924310Y-36885684D01*
X104019548Y-36695208D01*
X104019548Y-36504731D01*
X103924310Y-36314255D01*
X103733833Y-36219017D01*
X103257643Y-36219017D01*
X103067167Y-36123779D01*
X101257643Y-36980922D02*
X101257643Y-34980922D01*
X101257643Y-36885684D02*
X101448119Y-36980922D01*
X101829071Y-36980922D01*
X102019547Y-36885684D01*
X102114786Y-36790446D01*
X102210024Y-36599970D01*
X102210024Y-36028541D01*
X102114786Y-35838065D01*
X102019547Y-35742827D01*
X101829071Y-35647589D01*
X101448119Y-35647589D01*
X101257643Y-35742827D01*
X100305262Y-36219017D02*
X98781452Y-36219017D01*
X98114786Y-35647589D02*
X97352881Y-35647589D01*
X97829072Y-34980922D02*
X97829072Y-36695208D01*
X97733833Y-36885684D01*
X97543357Y-36980922D01*
X97352881Y-36980922D01*
X95924310Y-36885684D02*
X96114786Y-36980922D01*
X96495738Y-36980922D01*
X96686215Y-36885684D01*
X96781453Y-36695208D01*
X96781453Y-35933303D01*
X96686215Y-35742827D01*
X96495738Y-35647589D01*
X96114786Y-35647589D01*
X95924310Y-35742827D01*
X95829072Y-35933303D01*
X95829072Y-36123779D01*
X96781453Y-36314255D01*
X94210024Y-36885684D02*
X94400500Y-36980922D01*
X94781452Y-36980922D01*
X94971929Y-36885684D01*
X95067167Y-36695208D01*
X95067167Y-35933303D01*
X94971929Y-35742827D01*
X94781452Y-35647589D01*
X94400500Y-35647589D01*
X94210024Y-35742827D01*
X94114786Y-35933303D01*
X94114786Y-36123779D01*
X95067167Y-36314255D01*
X93257643Y-35647589D02*
X93257643Y-36980922D01*
X93257643Y-35838065D02*
X93162404Y-35742827D01*
X92971928Y-35647589D01*
X92686214Y-35647589D01*
X92495738Y-35742827D01*
X92400500Y-35933303D01*
X92400500Y-36980922D01*
X91543357Y-36885684D02*
X91352880Y-36980922D01*
X90971928Y-36980922D01*
X90781452Y-36885684D01*
X90686214Y-36695208D01*
X90686214Y-36599970D01*
X90781452Y-36409493D01*
X90971928Y-36314255D01*
X91257642Y-36314255D01*
X91448119Y-36219017D01*
X91543357Y-36028541D01*
X91543357Y-35933303D01*
X91448119Y-35742827D01*
X91257642Y-35647589D01*
X90971928Y-35647589D01*
X90781452Y-35742827D01*
X90019547Y-35647589D02*
X89543356Y-36980922D01*
X89067166Y-35647589D02*
X89543356Y-36980922D01*
X89733832Y-37457112D01*
X89829071Y-37552350D01*
X90019547Y-37647589D01*
X88305261Y-36219017D02*
X86781451Y-36219017D01*
X85067166Y-36885684D02*
X85257642Y-36980922D01*
X85638594Y-36980922D01*
X85829071Y-36885684D01*
X85924309Y-36695208D01*
X85924309Y-35933303D01*
X85829071Y-35742827D01*
X85638594Y-35647589D01*
X85257642Y-35647589D01*
X85067166Y-35742827D01*
X84971928Y-35933303D01*
X84971928Y-36123779D01*
X85924309Y-36314255D01*
X84114785Y-35647589D02*
X84114785Y-37647589D01*
X84114785Y-35742827D02*
X83924308Y-35647589D01*
X83543356Y-35647589D01*
X83352880Y-35742827D01*
X83257642Y-35838065D01*
X83162404Y-36028541D01*
X83162404Y-36599970D01*
X83257642Y-36790446D01*
X83352880Y-36885684D01*
X83543356Y-36980922D01*
X83924308Y-36980922D01*
X84114785Y-36885684D01*
X81448118Y-36980922D02*
X81448118Y-35933303D01*
X81543356Y-35742827D01*
X81733832Y-35647589D01*
X82114784Y-35647589D01*
X82305261Y-35742827D01*
X81448118Y-36885684D02*
X81638594Y-36980922D01*
X82114784Y-36980922D01*
X82305261Y-36885684D01*
X82400499Y-36695208D01*
X82400499Y-36504731D01*
X82305261Y-36314255D01*
X82114784Y-36219017D01*
X81638594Y-36219017D01*
X81448118Y-36123779D01*
X80495737Y-35647589D02*
X80495737Y-37647589D01*
X80495737Y-35742827D02*
X80305260Y-35647589D01*
X79924308Y-35647589D01*
X79733832Y-35742827D01*
X79638594Y-35838065D01*
X79543356Y-36028541D01*
X79543356Y-36599970D01*
X79638594Y-36790446D01*
X79733832Y-36885684D01*
X79924308Y-36980922D01*
X80305260Y-36980922D01*
X80495737Y-36885684D01*
X77924308Y-36885684D02*
X78114784Y-36980922D01*
X78495736Y-36980922D01*
X78686213Y-36885684D01*
X78781451Y-36695208D01*
X78781451Y-35933303D01*
X78686213Y-35742827D01*
X78495736Y-35647589D01*
X78114784Y-35647589D01*
X77924308Y-35742827D01*
X77829070Y-35933303D01*
X77829070Y-36123779D01*
X78781451Y-36314255D01*
X76971927Y-36980922D02*
X76971927Y-35647589D01*
X76971927Y-36028541D02*
X76876688Y-35838065D01*
X76781450Y-35742827D01*
X76590974Y-35647589D01*
X76400498Y-35647589D01*
D12*
X138198120Y-48706160D03*
X138208120Y-63796160D03*
X138208120Y-78806160D03*
D13*
X107248120Y-45446160D03*
X107248120Y-47986160D03*
X107248120Y-50526160D03*
X107248120Y-53066160D03*
X107248120Y-55606160D03*
X107248120Y-58146160D03*
X107248120Y-60686160D03*
X107248120Y-63226160D03*
X107248120Y-65766160D03*
X107248120Y-68306160D03*
X107248120Y-70846160D03*
X107248120Y-73386160D03*
X107248120Y-75926160D03*
X107248120Y-78466160D03*
X122488120Y-78466160D03*
X122488120Y-70846160D03*
X122488120Y-50526160D03*
X122488120Y-65766160D03*
X122488120Y-68306160D03*
X122488120Y-47986160D03*
X122488120Y-55606160D03*
X122488120Y-45446160D03*
X122488120Y-58146160D03*
X122488120Y-60686160D03*
X122488120Y-63226160D03*
X122488120Y-53066160D03*
X122488120Y-75926160D03*
X122488120Y-73386160D03*
D14*
X93708120Y-86116160D03*
X90768120Y-86096160D03*
X82258120Y-72646160D03*
X81258120Y-64346160D03*
X96758120Y-71486160D03*
X96768120Y-75896160D03*
X91558120Y-75666160D03*
X91668120Y-68646160D03*
X99998120Y-73256160D03*
X84708120Y-63796160D03*
X112188120Y-59446160D03*
X100658120Y-62946160D03*
X94248120Y-62906160D03*
X90708120Y-61646160D03*
X102788120Y-61666160D03*
X114438120Y-62196160D03*
X116128120Y-73416160D03*
X98828120Y-67166160D03*
X88548120Y-60846160D03*
X110154120Y-40558160D03*
X87028120Y-85486160D03*
X86438120Y-59356160D03*
X76898120Y-59376160D03*
D15*
X90788120Y-86116160D02*
X93708120Y-86116160D01*
X90768120Y-86096160D02*
X90788120Y-86116160D01*
X82258120Y-65346160D02*
X82258120Y-72646160D01*
X81258120Y-64346160D02*
X82258120Y-65346160D01*
X96758120Y-75886160D02*
X96758120Y-71486160D01*
X96768120Y-75896160D02*
X96758120Y-75886160D01*
X91558120Y-68756160D02*
X91558120Y-75666160D01*
X91668120Y-68646160D02*
X91558120Y-68756160D01*
X99998120Y-71226160D02*
X99998120Y-73256160D01*
X97388120Y-68616160D02*
X99998120Y-71226160D01*
X94138120Y-68616160D02*
X97388120Y-68616160D01*
X91348120Y-65826160D02*
X94138120Y-68616160D01*
X86738120Y-65826160D02*
X91348120Y-65826160D01*
X84708120Y-63796160D02*
X86738120Y-65826160D01*
X119068120Y-67404520D02*
X122529600Y-70866000D01*
X119068120Y-61036160D02*
X119068120Y-67404520D01*
X117478120Y-59446160D02*
X119068120Y-61036160D01*
X113408120Y-59446160D02*
X117478120Y-59446160D01*
X112188120Y-59446160D02*
X113408120Y-59446160D01*
X94288120Y-62946160D02*
X100658120Y-62946160D01*
X94248120Y-62906160D02*
X94288120Y-62946160D01*
X116128120Y-68166160D02*
X116128120Y-63886160D01*
X90708120Y-61646160D02*
X90728120Y-61666160D01*
X90728120Y-61666160D02*
X102788120Y-61666160D01*
X116128120Y-63886160D02*
X114438120Y-62196160D01*
X116128120Y-68156160D02*
X116128120Y-68166160D01*
X116128120Y-68166160D02*
X116128120Y-73416160D01*
X94868120Y-67166160D02*
X98828120Y-67166160D01*
X88548120Y-60846160D02*
X94868120Y-67166160D01*
X135023120Y-48776160D02*
X135023120Y-44501160D01*
X135023120Y-44501160D02*
X131923120Y-41401160D01*
X131923120Y-41401160D02*
X113894440Y-41401160D01*
X113894440Y-41401160D02*
X107289600Y-48006000D01*
X135023120Y-63751160D02*
X135023120Y-61151160D01*
X135023120Y-61151160D02*
X126848120Y-52976160D01*
X115034440Y-42801160D02*
X107289600Y-50546000D01*
X124648120Y-42801160D02*
X115034440Y-42801160D01*
X126848120Y-45001160D02*
X124648120Y-42801160D01*
X126848120Y-52976160D02*
X126848120Y-45001160D01*
X135023120Y-63751160D02*
X135023120Y-61551160D01*
X135048120Y-78776160D02*
X135048120Y-76726160D01*
X135048120Y-76726160D02*
X127623120Y-69301160D01*
X127623120Y-69301160D02*
X127623120Y-58179520D01*
X127623120Y-58179520D02*
X122529600Y-53086000D01*
D16*
G36*
X133028120Y-32837360D02*
X143860543Y-32837360D01*
X145205211Y-32978441D01*
X146303073Y-33574272D01*
X147089350Y-34544880D01*
X147456920Y-35784942D01*
X147456920Y-85464421D01*
X147115946Y-86752559D01*
X146339305Y-87771072D01*
X145232017Y-88414848D01*
X143822453Y-88604769D01*
X143821896Y-88604960D01*
X143728120Y-88604960D01*
X143677847Y-88614960D01*
X132588120Y-88614960D01*
X132572535Y-88618060D01*
X69921397Y-88618060D01*
X71561465Y-88291830D01*
X72971581Y-87349621D01*
X73679715Y-86289823D01*
X89790051Y-86289823D01*
X89938613Y-86649372D01*
X90213461Y-86924700D01*
X90572750Y-87073890D01*
X90961783Y-87074229D01*
X91321332Y-86925667D01*
X91419811Y-86827360D01*
X93036326Y-86827360D01*
X93153461Y-86944700D01*
X93512750Y-87093890D01*
X93901783Y-87094229D01*
X94261332Y-86945667D01*
X94536660Y-86670819D01*
X94685850Y-86311530D01*
X94686189Y-85922497D01*
X94537627Y-85562948D01*
X94262779Y-85287620D01*
X93903490Y-85138430D01*
X93514457Y-85138091D01*
X93154908Y-85286653D01*
X93036394Y-85404960D01*
X91459880Y-85404960D01*
X91322779Y-85267620D01*
X90963490Y-85118430D01*
X90574457Y-85118091D01*
X90214908Y-85266653D01*
X89939580Y-85541501D01*
X89790390Y-85900790D01*
X89790051Y-86289823D01*
X73679715Y-86289823D01*
X73913790Y-85939505D01*
X74244650Y-84276160D01*
X73913790Y-82612815D01*
X72971581Y-81202699D01*
X71831857Y-80441160D01*
X76626452Y-80441160D01*
X76626452Y-84931160D01*
X131229789Y-84931160D01*
X131229789Y-80441160D01*
X76626452Y-80441160D01*
X71831857Y-80441160D01*
X71561465Y-80260490D01*
X69898120Y-79929630D01*
X68234775Y-80260490D01*
X66824659Y-81202699D01*
X65882450Y-82612815D01*
X65551590Y-84276160D01*
X65882450Y-85939505D01*
X66824659Y-87349621D01*
X68234775Y-88291830D01*
X69874843Y-88618060D01*
X66912153Y-88618060D01*
X66316503Y-88492099D01*
X65882084Y-88194198D01*
X65594733Y-87752725D01*
X65484320Y-87160438D01*
X65484320Y-75859823D01*
X90580051Y-75859823D01*
X90728613Y-76219372D01*
X91003461Y-76494700D01*
X91362750Y-76643890D01*
X91751783Y-76644229D01*
X92111332Y-76495667D01*
X92386660Y-76220819D01*
X92535850Y-75861530D01*
X92536189Y-75472497D01*
X92387627Y-75112948D01*
X92269320Y-74994434D01*
X92269320Y-71679823D01*
X95780051Y-71679823D01*
X95928613Y-72039372D01*
X96046920Y-72157886D01*
X96046920Y-75234348D01*
X95939580Y-75341501D01*
X95790390Y-75700790D01*
X95790051Y-76089823D01*
X95938613Y-76449372D01*
X96213461Y-76724700D01*
X96572750Y-76873890D01*
X96961783Y-76874229D01*
X97321332Y-76725667D01*
X97596660Y-76450819D01*
X97745850Y-76091530D01*
X97746189Y-75702497D01*
X97597627Y-75342948D01*
X97469320Y-75214417D01*
X97469320Y-72157954D01*
X97586660Y-72040819D01*
X97735850Y-71681530D01*
X97736189Y-71292497D01*
X97587627Y-70932948D01*
X97312779Y-70657620D01*
X96953490Y-70508430D01*
X96564457Y-70508091D01*
X96204908Y-70656653D01*
X95929580Y-70931501D01*
X95780390Y-71290790D01*
X95780051Y-71679823D01*
X92269320Y-71679823D01*
X92269320Y-69427763D01*
X92496660Y-69200819D01*
X92645850Y-68841530D01*
X92646189Y-68452497D01*
X92497627Y-68092948D01*
X92222779Y-67817620D01*
X91863490Y-67668430D01*
X91474457Y-67668091D01*
X91114908Y-67816653D01*
X90839580Y-68091501D01*
X90690390Y-68450790D01*
X90690051Y-68839823D01*
X90838613Y-69199372D01*
X90846920Y-69207694D01*
X90846920Y-74994366D01*
X90729580Y-75111501D01*
X90580390Y-75470790D01*
X90580051Y-75859823D01*
X65484320Y-75859823D01*
X65484320Y-48682160D01*
X66134920Y-48682160D01*
X66134920Y-72050160D01*
X66189057Y-72322324D01*
X66343226Y-72553054D01*
X66573956Y-72707223D01*
X66846120Y-72761360D01*
X69344337Y-72761360D01*
X69392800Y-72771000D01*
X70510161Y-72771000D01*
X70536356Y-72788503D01*
X70808520Y-72842640D01*
X71080684Y-72788503D01*
X71311414Y-72634334D01*
X71465583Y-72403604D01*
X71519720Y-72131440D01*
X71519720Y-72067844D01*
X71521320Y-72059800D01*
X71519720Y-72051756D01*
X71519720Y-64539823D01*
X80280051Y-64539823D01*
X80428613Y-64899372D01*
X80703461Y-65174700D01*
X81062750Y-65323890D01*
X81230207Y-65324036D01*
X81546920Y-65640749D01*
X81546920Y-71974366D01*
X81429580Y-72091501D01*
X81280390Y-72450790D01*
X81280051Y-72839823D01*
X81428613Y-73199372D01*
X81703461Y-73474700D01*
X82062750Y-73623890D01*
X82451783Y-73624229D01*
X82811332Y-73475667D01*
X83086660Y-73200819D01*
X83235850Y-72841530D01*
X83236189Y-72452497D01*
X83087627Y-72092948D01*
X82969320Y-71974434D01*
X82969320Y-65346160D01*
X82915183Y-65073996D01*
X82761015Y-64843266D01*
X82236045Y-64318296D01*
X82236189Y-64152497D01*
X82168974Y-63989823D01*
X83730051Y-63989823D01*
X83878613Y-64349372D01*
X84153461Y-64624700D01*
X84512750Y-64773890D01*
X84680208Y-64774036D01*
X86235226Y-66329055D01*
X86465956Y-66483223D01*
X86738120Y-66537360D01*
X91053532Y-66537360D01*
X93635226Y-69119054D01*
X93865955Y-69273223D01*
X94138120Y-69327360D01*
X97093532Y-69327360D01*
X99286920Y-71520749D01*
X99286920Y-72584366D01*
X99169580Y-72701501D01*
X99020390Y-73060790D01*
X99020051Y-73449823D01*
X99168613Y-73809372D01*
X99443461Y-74084700D01*
X99802750Y-74233890D01*
X100191783Y-74234229D01*
X100551332Y-74085667D01*
X100826660Y-73810819D01*
X100975850Y-73451530D01*
X100976189Y-73062497D01*
X100827627Y-72702948D01*
X100709320Y-72584434D01*
X100709320Y-71226160D01*
X100655183Y-70953996D01*
X100535555Y-70774960D01*
X100501014Y-70723265D01*
X97891014Y-68113266D01*
X97660285Y-67959097D01*
X97388120Y-67904960D01*
X94432708Y-67904960D01*
X91851014Y-65323266D01*
X91620285Y-65169097D01*
X91348120Y-65114960D01*
X87032709Y-65114960D01*
X85686045Y-63768296D01*
X85686189Y-63602497D01*
X85537627Y-63242948D01*
X85262779Y-62967620D01*
X84903490Y-62818430D01*
X84514457Y-62818091D01*
X84154908Y-62966653D01*
X83879580Y-63241501D01*
X83730390Y-63600790D01*
X83730051Y-63989823D01*
X82168974Y-63989823D01*
X82087627Y-63792948D01*
X81812779Y-63517620D01*
X81453490Y-63368430D01*
X81064457Y-63368091D01*
X80704908Y-63516653D01*
X80429580Y-63791501D01*
X80280390Y-64150790D01*
X80280051Y-64539823D01*
X71519720Y-64539823D01*
X71519720Y-61039823D01*
X87570051Y-61039823D01*
X87718613Y-61399372D01*
X87993461Y-61674700D01*
X88352750Y-61823890D01*
X88520208Y-61824036D01*
X94365226Y-67669055D01*
X94595956Y-67823223D01*
X94868120Y-67877360D01*
X98156326Y-67877360D01*
X98273461Y-67994700D01*
X98632750Y-68143890D01*
X99021783Y-68144229D01*
X99381332Y-67995667D01*
X99656660Y-67720819D01*
X99805850Y-67361530D01*
X99806189Y-66972497D01*
X99657627Y-66612948D01*
X99382779Y-66337620D01*
X99023490Y-66188430D01*
X98634457Y-66188091D01*
X98274908Y-66336653D01*
X98156394Y-66454960D01*
X95162709Y-66454960D01*
X91206197Y-62498448D01*
X91261332Y-62475667D01*
X91359811Y-62377360D01*
X93408842Y-62377360D01*
X93270390Y-62710790D01*
X93270051Y-63099823D01*
X93418613Y-63459372D01*
X93693461Y-63734700D01*
X94052750Y-63883890D01*
X94441783Y-63884229D01*
X94801332Y-63735667D01*
X94879776Y-63657360D01*
X99986326Y-63657360D01*
X100103461Y-63774700D01*
X100462750Y-63923890D01*
X100851783Y-63924229D01*
X101211332Y-63775667D01*
X101486660Y-63500819D01*
X101635850Y-63141530D01*
X101636189Y-62752497D01*
X101487627Y-62392948D01*
X101472066Y-62377360D01*
X102116326Y-62377360D01*
X102233461Y-62494700D01*
X102592750Y-62643890D01*
X102981783Y-62644229D01*
X103341332Y-62495667D01*
X103616660Y-62220819D01*
X103765850Y-61861530D01*
X103766189Y-61472497D01*
X103617627Y-61112948D01*
X103342779Y-60837620D01*
X102983490Y-60688430D01*
X102594457Y-60688091D01*
X102234908Y-60836653D01*
X102116394Y-60954960D01*
X91399880Y-60954960D01*
X91262779Y-60817620D01*
X90903490Y-60668430D01*
X90514457Y-60668091D01*
X90154908Y-60816653D01*
X89879580Y-61091501D01*
X89856011Y-61148262D01*
X89526045Y-60818296D01*
X89526189Y-60652497D01*
X89377627Y-60292948D01*
X89102779Y-60017620D01*
X88743490Y-59868430D01*
X88354457Y-59868091D01*
X87994908Y-60016653D01*
X87719580Y-60291501D01*
X87570390Y-60650790D01*
X87570051Y-61039823D01*
X71519720Y-61039823D01*
X71519720Y-48763440D01*
X71513654Y-48732947D01*
X71523860Y-48681640D01*
X71469723Y-48409476D01*
X71315554Y-48178746D01*
X71084824Y-48024577D01*
X70812660Y-47970440D01*
X69311520Y-47970440D01*
X69308906Y-47970960D01*
X66846120Y-47970960D01*
X66573956Y-48025097D01*
X66343226Y-48179266D01*
X66189057Y-48409996D01*
X66134920Y-48682160D01*
X65484320Y-48682160D01*
X65484320Y-45742942D01*
X105749261Y-45742942D01*
X105976928Y-46293940D01*
X106398123Y-46715870D01*
X106399051Y-46716255D01*
X105978410Y-47136163D01*
X105749781Y-47686762D01*
X105749261Y-48282942D01*
X105976928Y-48833940D01*
X106398123Y-49255870D01*
X106399051Y-49256255D01*
X105978410Y-49676163D01*
X105749781Y-50226762D01*
X105749261Y-50822942D01*
X105976928Y-51373940D01*
X106398123Y-51795870D01*
X106399051Y-51796255D01*
X105978410Y-52216163D01*
X105749781Y-52766762D01*
X105749261Y-53362942D01*
X105976928Y-53913940D01*
X106398123Y-54335870D01*
X106399051Y-54336255D01*
X105978410Y-54756163D01*
X105749781Y-55306762D01*
X105749261Y-55902942D01*
X105976928Y-56453940D01*
X106398123Y-56875870D01*
X106399051Y-56876255D01*
X105978410Y-57296163D01*
X105749781Y-57846762D01*
X105749261Y-58442942D01*
X105976928Y-58993940D01*
X106398123Y-59415870D01*
X106399051Y-59416255D01*
X105978410Y-59836163D01*
X105749781Y-60386762D01*
X105749261Y-60982942D01*
X105976928Y-61533940D01*
X106398123Y-61955870D01*
X106399051Y-61956255D01*
X105978410Y-62376163D01*
X105749781Y-62926762D01*
X105749261Y-63522942D01*
X105976928Y-64073940D01*
X106398123Y-64495870D01*
X106399051Y-64496255D01*
X105978410Y-64916163D01*
X105749781Y-65466762D01*
X105749261Y-66062942D01*
X105976928Y-66613940D01*
X106398123Y-67035870D01*
X106399051Y-67036255D01*
X105978410Y-67456163D01*
X105749781Y-68006762D01*
X105749261Y-68602942D01*
X105976928Y-69153940D01*
X106398123Y-69575870D01*
X106399051Y-69576255D01*
X105978410Y-69996163D01*
X105749781Y-70546762D01*
X105749261Y-71142942D01*
X105976928Y-71693940D01*
X106398123Y-72115870D01*
X106399051Y-72116255D01*
X105978410Y-72536163D01*
X105749781Y-73086762D01*
X105749261Y-73682942D01*
X105976928Y-74233940D01*
X106398123Y-74655870D01*
X106399051Y-74656255D01*
X105978410Y-75076163D01*
X105749781Y-75626762D01*
X105749261Y-76222942D01*
X105976928Y-76773940D01*
X106398123Y-77195870D01*
X106399051Y-77196255D01*
X105978410Y-77616163D01*
X105749781Y-78166762D01*
X105749261Y-78762942D01*
X105976928Y-79313940D01*
X106398123Y-79735870D01*
X106948722Y-79964499D01*
X107544902Y-79965019D01*
X108095900Y-79737352D01*
X108517830Y-79316157D01*
X108746459Y-78765558D01*
X108746979Y-78169378D01*
X108519312Y-77618380D01*
X108098117Y-77196450D01*
X108097189Y-77196065D01*
X108517830Y-76776157D01*
X108746459Y-76225558D01*
X108746979Y-75629378D01*
X108519312Y-75078380D01*
X108098117Y-74656450D01*
X108097189Y-74656065D01*
X108517830Y-74236157D01*
X108746459Y-73685558D01*
X108746979Y-73089378D01*
X108519312Y-72538380D01*
X108098117Y-72116450D01*
X108097189Y-72116065D01*
X108517830Y-71696157D01*
X108746459Y-71145558D01*
X108746979Y-70549378D01*
X108519312Y-69998380D01*
X108098117Y-69576450D01*
X108097189Y-69576065D01*
X108517830Y-69156157D01*
X108746459Y-68605558D01*
X108746979Y-68009378D01*
X108519312Y-67458380D01*
X108098117Y-67036450D01*
X108097189Y-67036065D01*
X108517830Y-66616157D01*
X108746459Y-66065558D01*
X108746979Y-65469378D01*
X108519312Y-64918380D01*
X108098117Y-64496450D01*
X108097189Y-64496065D01*
X108517830Y-64076157D01*
X108746459Y-63525558D01*
X108746979Y-62929378D01*
X108524041Y-62389823D01*
X113460051Y-62389823D01*
X113608613Y-62749372D01*
X113883461Y-63024700D01*
X114242750Y-63173890D01*
X114410208Y-63174036D01*
X115416920Y-64180748D01*
X115416920Y-72744366D01*
X115299580Y-72861501D01*
X115150390Y-73220790D01*
X115150051Y-73609823D01*
X115298613Y-73969372D01*
X115573461Y-74244700D01*
X115932750Y-74393890D01*
X116321783Y-74394229D01*
X116681332Y-74245667D01*
X116956660Y-73970819D01*
X117105850Y-73611530D01*
X117106189Y-73222497D01*
X116957627Y-72862948D01*
X116839320Y-72744434D01*
X116839320Y-63886160D01*
X116820491Y-63791501D01*
X116785183Y-63613995D01*
X116631014Y-63383266D01*
X115416045Y-62168297D01*
X115416189Y-62002497D01*
X115267627Y-61642948D01*
X114992779Y-61367620D01*
X114633490Y-61218430D01*
X114244457Y-61218091D01*
X113884908Y-61366653D01*
X113609580Y-61641501D01*
X113460390Y-62000790D01*
X113460051Y-62389823D01*
X108524041Y-62389823D01*
X108519312Y-62378380D01*
X108098117Y-61956450D01*
X108097189Y-61956065D01*
X108517830Y-61536157D01*
X108746459Y-60985558D01*
X108746979Y-60389378D01*
X108519312Y-59838380D01*
X108321101Y-59639823D01*
X111210051Y-59639823D01*
X111358613Y-59999372D01*
X111633461Y-60274700D01*
X111992750Y-60423890D01*
X112381783Y-60424229D01*
X112741332Y-60275667D01*
X112859846Y-60157360D01*
X117183532Y-60157360D01*
X118356920Y-61330749D01*
X118356920Y-67404520D01*
X118411057Y-67676685D01*
X118565226Y-67907414D01*
X121052802Y-70394990D01*
X120989781Y-70546762D01*
X120989261Y-71142942D01*
X121216928Y-71693940D01*
X121638123Y-72115870D01*
X121639051Y-72116255D01*
X121218410Y-72536163D01*
X120989781Y-73086762D01*
X120989261Y-73682942D01*
X121216928Y-74233940D01*
X121638123Y-74655870D01*
X121639051Y-74656255D01*
X121218410Y-75076163D01*
X120989781Y-75626762D01*
X120989261Y-76222942D01*
X121216928Y-76773940D01*
X121638123Y-77195870D01*
X121639051Y-77196255D01*
X121218410Y-77616163D01*
X120989781Y-78166762D01*
X120989261Y-78762942D01*
X121216928Y-79313940D01*
X121638123Y-79735870D01*
X122188722Y-79964499D01*
X122784902Y-79965019D01*
X123335900Y-79737352D01*
X123757830Y-79316157D01*
X123986459Y-78765558D01*
X123986979Y-78169378D01*
X123759312Y-77618380D01*
X123338117Y-77196450D01*
X123337189Y-77196065D01*
X123757830Y-76776157D01*
X123986459Y-76225558D01*
X123986979Y-75629378D01*
X123759312Y-75078380D01*
X123338117Y-74656450D01*
X123337189Y-74656065D01*
X123757830Y-74236157D01*
X123986459Y-73685558D01*
X123986979Y-73089378D01*
X123759312Y-72538380D01*
X123338117Y-72116450D01*
X123337189Y-72116065D01*
X123757830Y-71696157D01*
X123986459Y-71145558D01*
X123986979Y-70549378D01*
X123759312Y-69998380D01*
X123338117Y-69576450D01*
X123337189Y-69576065D01*
X123757830Y-69156157D01*
X123986459Y-68605558D01*
X123986979Y-68009378D01*
X123759312Y-67458380D01*
X123338117Y-67036450D01*
X123337189Y-67036065D01*
X123757830Y-66616157D01*
X123986459Y-66065558D01*
X123986979Y-65469378D01*
X123759312Y-64918380D01*
X123338117Y-64496450D01*
X123337189Y-64496065D01*
X123757830Y-64076157D01*
X123986459Y-63525558D01*
X123986979Y-62929378D01*
X123759312Y-62378380D01*
X123338117Y-61956450D01*
X123337189Y-61956065D01*
X123757830Y-61536157D01*
X123986459Y-60985558D01*
X123986979Y-60389378D01*
X123759312Y-59838380D01*
X123338117Y-59416450D01*
X123337189Y-59416065D01*
X123757830Y-58996157D01*
X123986459Y-58445558D01*
X123986979Y-57849378D01*
X123759312Y-57298380D01*
X123338117Y-56876450D01*
X123337189Y-56876065D01*
X123757830Y-56456157D01*
X123986459Y-55905558D01*
X123986770Y-55548958D01*
X126911920Y-58474108D01*
X126911920Y-69301160D01*
X126966057Y-69573325D01*
X127120226Y-69804054D01*
X133223648Y-75907477D01*
X132494115Y-77664389D01*
X132492131Y-79937956D01*
X133360354Y-82039218D01*
X134966606Y-83648276D01*
X137066349Y-84520165D01*
X139339916Y-84522149D01*
X141441178Y-83653926D01*
X143050236Y-82047674D01*
X143922125Y-79947931D01*
X143924109Y-77674364D01*
X143055886Y-75573102D01*
X141449634Y-73964044D01*
X139349891Y-73092155D01*
X137076324Y-73090171D01*
X134975062Y-73958394D01*
X134129865Y-74802117D01*
X128334320Y-69006572D01*
X128334320Y-58179520D01*
X128280183Y-57907356D01*
X128280183Y-57907355D01*
X128126014Y-57676626D01*
X123936136Y-53486748D01*
X123986459Y-53365558D01*
X123986979Y-52769378D01*
X123759312Y-52218380D01*
X123338117Y-51796450D01*
X123297583Y-51779619D01*
X123362320Y-51579965D01*
X122488120Y-50705765D01*
X121613920Y-51579965D01*
X121678519Y-51779193D01*
X121640340Y-51794968D01*
X121218410Y-52216163D01*
X120989781Y-52766762D01*
X120989261Y-53362942D01*
X121216928Y-53913940D01*
X121638123Y-54335870D01*
X121639051Y-54336255D01*
X121218410Y-54756163D01*
X120989781Y-55306762D01*
X120989261Y-55902942D01*
X121216928Y-56453940D01*
X121638123Y-56875870D01*
X121639051Y-56876255D01*
X121218410Y-57296163D01*
X120989781Y-57846762D01*
X120989261Y-58442942D01*
X121216928Y-58993940D01*
X121638123Y-59415870D01*
X121639051Y-59416255D01*
X121218410Y-59836163D01*
X120989781Y-60386762D01*
X120989261Y-60982942D01*
X121216928Y-61533940D01*
X121638123Y-61955870D01*
X121639051Y-61956255D01*
X121218410Y-62376163D01*
X120989781Y-62926762D01*
X120989261Y-63522942D01*
X121216928Y-64073940D01*
X121638123Y-64495870D01*
X121639051Y-64496255D01*
X121218410Y-64916163D01*
X120989781Y-65466762D01*
X120989261Y-66062942D01*
X121216928Y-66613940D01*
X121638123Y-67035870D01*
X121639051Y-67036255D01*
X121218410Y-67456163D01*
X120989781Y-68006762D01*
X120989508Y-68320120D01*
X119779320Y-67109932D01*
X119779320Y-61036160D01*
X119725183Y-60763996D01*
X119571015Y-60533266D01*
X117981014Y-58943266D01*
X117750285Y-58789097D01*
X117478120Y-58734960D01*
X112859914Y-58734960D01*
X112742779Y-58617620D01*
X112383490Y-58468430D01*
X111994457Y-58468091D01*
X111634908Y-58616653D01*
X111359580Y-58891501D01*
X111210390Y-59250790D01*
X111210051Y-59639823D01*
X108321101Y-59639823D01*
X108098117Y-59416450D01*
X108097189Y-59416065D01*
X108517830Y-58996157D01*
X108746459Y-58445558D01*
X108746979Y-57849378D01*
X108519312Y-57298380D01*
X108098117Y-56876450D01*
X108097189Y-56876065D01*
X108517830Y-56456157D01*
X108746459Y-55905558D01*
X108746979Y-55309378D01*
X108519312Y-54758380D01*
X108098117Y-54336450D01*
X108097189Y-54336065D01*
X108517830Y-53916157D01*
X108746459Y-53365558D01*
X108746979Y-52769378D01*
X108519312Y-52218380D01*
X108098117Y-51796450D01*
X108097189Y-51796065D01*
X108517830Y-51376157D01*
X108746459Y-50825558D01*
X108746922Y-50294190D01*
X120977872Y-50294190D01*
X121004062Y-50889795D01*
X121181604Y-51318419D01*
X121434315Y-51400360D01*
X122308515Y-50526160D01*
X122667725Y-50526160D01*
X123541925Y-51400360D01*
X123794636Y-51318419D01*
X123998368Y-50758130D01*
X123972178Y-50162525D01*
X123794636Y-49733901D01*
X123541925Y-49651960D01*
X122667725Y-50526160D01*
X122308515Y-50526160D01*
X121434315Y-49651960D01*
X121181604Y-49733901D01*
X120977872Y-50294190D01*
X108746922Y-50294190D01*
X108746979Y-50229378D01*
X108707517Y-50133871D01*
X113098446Y-45742942D01*
X120989261Y-45742942D01*
X121216928Y-46293940D01*
X121638123Y-46715870D01*
X121639051Y-46716255D01*
X121218410Y-47136163D01*
X120989781Y-47686762D01*
X120989261Y-48282942D01*
X121216928Y-48833940D01*
X121638123Y-49255870D01*
X121678657Y-49272701D01*
X121613920Y-49472355D01*
X122488120Y-50346555D01*
X123362320Y-49472355D01*
X123297721Y-49273127D01*
X123335900Y-49257352D01*
X123757830Y-48836157D01*
X123986459Y-48285558D01*
X123986979Y-47689378D01*
X123759312Y-47138380D01*
X123338117Y-46716450D01*
X123337189Y-46716065D01*
X123757830Y-46296157D01*
X123986459Y-45745558D01*
X123986979Y-45149378D01*
X123759312Y-44598380D01*
X123338117Y-44176450D01*
X122787518Y-43947821D01*
X122191338Y-43947301D01*
X121640340Y-44174968D01*
X121218410Y-44596163D01*
X120989781Y-45146762D01*
X120989261Y-45742942D01*
X113098446Y-45742942D01*
X115329029Y-43512360D01*
X124353532Y-43512360D01*
X126136920Y-45295748D01*
X126136920Y-52976160D01*
X126191057Y-53248325D01*
X126345226Y-53479054D01*
X133393435Y-60527263D01*
X133366004Y-60554646D01*
X132494115Y-62654389D01*
X132492131Y-64927956D01*
X133360354Y-67029218D01*
X134966606Y-68638276D01*
X137066349Y-69510165D01*
X139339916Y-69512149D01*
X141441178Y-68643926D01*
X143050236Y-67037674D01*
X143922125Y-64937931D01*
X143924109Y-62664364D01*
X143055886Y-60563102D01*
X141449634Y-58954044D01*
X139349891Y-58082155D01*
X137076324Y-58080171D01*
X134975062Y-58948394D01*
X134400101Y-59522353D01*
X127559320Y-52681572D01*
X127559320Y-45001160D01*
X127505183Y-44728996D01*
X127505183Y-44728995D01*
X127351014Y-44498266D01*
X125151014Y-42298266D01*
X124920285Y-42144097D01*
X124760732Y-42112360D01*
X131628532Y-42112360D01*
X134169120Y-44652948D01*
X133356004Y-45464646D01*
X132484115Y-47564389D01*
X132482131Y-49837956D01*
X133350354Y-51939218D01*
X134956606Y-53548276D01*
X137056349Y-54420165D01*
X139329916Y-54422149D01*
X141431178Y-53553926D01*
X143040236Y-51947674D01*
X143912125Y-49847931D01*
X143914109Y-47574364D01*
X143045886Y-45473102D01*
X141439634Y-43864044D01*
X139339891Y-42992155D01*
X137066324Y-42990171D01*
X135263026Y-43735278D01*
X132426014Y-40898266D01*
X132195285Y-40744097D01*
X131923120Y-40689960D01*
X113894440Y-40689960D01*
X113622276Y-40744097D01*
X113622274Y-40744098D01*
X113622275Y-40744098D01*
X113391545Y-40898266D01*
X108746636Y-45543176D01*
X108746979Y-45149378D01*
X108519312Y-44598380D01*
X108098117Y-44176450D01*
X107547518Y-43947821D01*
X106951338Y-43947301D01*
X106400340Y-44174968D01*
X105978410Y-44596163D01*
X105749781Y-45146762D01*
X105749261Y-45742942D01*
X65484320Y-45742942D01*
X65484320Y-37376160D01*
X65676590Y-37376160D01*
X66007450Y-39039505D01*
X66949659Y-40449621D01*
X68359775Y-41391830D01*
X70023120Y-41722690D01*
X71686465Y-41391830D01*
X73096581Y-40449621D01*
X74038790Y-39039505D01*
X74369650Y-37376160D01*
X74038790Y-35712815D01*
X73096581Y-34302699D01*
X72540534Y-33931160D01*
X75575023Y-33931160D01*
X75575023Y-38421160D01*
X137321218Y-38421160D01*
X137321218Y-37410160D01*
X138546590Y-37410160D01*
X138877450Y-39073505D01*
X139819659Y-40483621D01*
X141229775Y-41425830D01*
X142893120Y-41756690D01*
X144556465Y-41425830D01*
X145966581Y-40483621D01*
X146908790Y-39073505D01*
X147239650Y-37410160D01*
X146908790Y-35746815D01*
X145966581Y-34336699D01*
X144556465Y-33394490D01*
X142893120Y-33063630D01*
X141229775Y-33394490D01*
X139819659Y-34336699D01*
X138877450Y-35746815D01*
X138546590Y-37410160D01*
X137321218Y-37410160D01*
X137321218Y-33931160D01*
X75575023Y-33931160D01*
X72540534Y-33931160D01*
X71686465Y-33360490D01*
X70023120Y-33029630D01*
X68359775Y-33360490D01*
X66949659Y-34302699D01*
X66007450Y-35712815D01*
X65676590Y-37376160D01*
X65484320Y-37376160D01*
X65484320Y-34075935D01*
X65593543Y-33562250D01*
X65853250Y-33184428D01*
X66237776Y-32934751D01*
X66763448Y-32837360D01*
X68198120Y-32837360D01*
X68199327Y-32837120D01*
X133026913Y-32837120D01*
X133028120Y-32837360D01*
X133028120Y-32837360D01*
G37*
X133028120Y-32837360D02*
X143860543Y-32837360D01*
X145205211Y-32978441D01*
X146303073Y-33574272D01*
X147089350Y-34544880D01*
X147456920Y-35784942D01*
X147456920Y-85464421D01*
X147115946Y-86752559D01*
X146339305Y-87771072D01*
X145232017Y-88414848D01*
X143822453Y-88604769D01*
X143821896Y-88604960D01*
X143728120Y-88604960D01*
X143677847Y-88614960D01*
X132588120Y-88614960D01*
X132572535Y-88618060D01*
X69921397Y-88618060D01*
X71561465Y-88291830D01*
X72971581Y-87349621D01*
X73679715Y-86289823D01*
X89790051Y-86289823D01*
X89938613Y-86649372D01*
X90213461Y-86924700D01*
X90572750Y-87073890D01*
X90961783Y-87074229D01*
X91321332Y-86925667D01*
X91419811Y-86827360D01*
X93036326Y-86827360D01*
X93153461Y-86944700D01*
X93512750Y-87093890D01*
X93901783Y-87094229D01*
X94261332Y-86945667D01*
X94536660Y-86670819D01*
X94685850Y-86311530D01*
X94686189Y-85922497D01*
X94537627Y-85562948D01*
X94262779Y-85287620D01*
X93903490Y-85138430D01*
X93514457Y-85138091D01*
X93154908Y-85286653D01*
X93036394Y-85404960D01*
X91459880Y-85404960D01*
X91322779Y-85267620D01*
X90963490Y-85118430D01*
X90574457Y-85118091D01*
X90214908Y-85266653D01*
X89939580Y-85541501D01*
X89790390Y-85900790D01*
X89790051Y-86289823D01*
X73679715Y-86289823D01*
X73913790Y-85939505D01*
X74244650Y-84276160D01*
X73913790Y-82612815D01*
X72971581Y-81202699D01*
X71831857Y-80441160D01*
X76626452Y-80441160D01*
X76626452Y-84931160D01*
X131229789Y-84931160D01*
X131229789Y-80441160D01*
X76626452Y-80441160D01*
X71831857Y-80441160D01*
X71561465Y-80260490D01*
X69898120Y-79929630D01*
X68234775Y-80260490D01*
X66824659Y-81202699D01*
X65882450Y-82612815D01*
X65551590Y-84276160D01*
X65882450Y-85939505D01*
X66824659Y-87349621D01*
X68234775Y-88291830D01*
X69874843Y-88618060D01*
X66912153Y-88618060D01*
X66316503Y-88492099D01*
X65882084Y-88194198D01*
X65594733Y-87752725D01*
X65484320Y-87160438D01*
X65484320Y-75859823D01*
X90580051Y-75859823D01*
X90728613Y-76219372D01*
X91003461Y-76494700D01*
X91362750Y-76643890D01*
X91751783Y-76644229D01*
X92111332Y-76495667D01*
X92386660Y-76220819D01*
X92535850Y-75861530D01*
X92536189Y-75472497D01*
X92387627Y-75112948D01*
X92269320Y-74994434D01*
X92269320Y-71679823D01*
X95780051Y-71679823D01*
X95928613Y-72039372D01*
X96046920Y-72157886D01*
X96046920Y-75234348D01*
X95939580Y-75341501D01*
X95790390Y-75700790D01*
X95790051Y-76089823D01*
X95938613Y-76449372D01*
X96213461Y-76724700D01*
X96572750Y-76873890D01*
X96961783Y-76874229D01*
X97321332Y-76725667D01*
X97596660Y-76450819D01*
X97745850Y-76091530D01*
X97746189Y-75702497D01*
X97597627Y-75342948D01*
X97469320Y-75214417D01*
X97469320Y-72157954D01*
X97586660Y-72040819D01*
X97735850Y-71681530D01*
X97736189Y-71292497D01*
X97587627Y-70932948D01*
X97312779Y-70657620D01*
X96953490Y-70508430D01*
X96564457Y-70508091D01*
X96204908Y-70656653D01*
X95929580Y-70931501D01*
X95780390Y-71290790D01*
X95780051Y-71679823D01*
X92269320Y-71679823D01*
X92269320Y-69427763D01*
X92496660Y-69200819D01*
X92645850Y-68841530D01*
X92646189Y-68452497D01*
X92497627Y-68092948D01*
X92222779Y-67817620D01*
X91863490Y-67668430D01*
X91474457Y-67668091D01*
X91114908Y-67816653D01*
X90839580Y-68091501D01*
X90690390Y-68450790D01*
X90690051Y-68839823D01*
X90838613Y-69199372D01*
X90846920Y-69207694D01*
X90846920Y-74994366D01*
X90729580Y-75111501D01*
X90580390Y-75470790D01*
X90580051Y-75859823D01*
X65484320Y-75859823D01*
X65484320Y-48682160D01*
X66134920Y-48682160D01*
X66134920Y-72050160D01*
X66189057Y-72322324D01*
X66343226Y-72553054D01*
X66573956Y-72707223D01*
X66846120Y-72761360D01*
X69344337Y-72761360D01*
X69392800Y-72771000D01*
X70510161Y-72771000D01*
X70536356Y-72788503D01*
X70808520Y-72842640D01*
X71080684Y-72788503D01*
X71311414Y-72634334D01*
X71465583Y-72403604D01*
X71519720Y-72131440D01*
X71519720Y-72067844D01*
X71521320Y-72059800D01*
X71519720Y-72051756D01*
X71519720Y-64539823D01*
X80280051Y-64539823D01*
X80428613Y-64899372D01*
X80703461Y-65174700D01*
X81062750Y-65323890D01*
X81230207Y-65324036D01*
X81546920Y-65640749D01*
X81546920Y-71974366D01*
X81429580Y-72091501D01*
X81280390Y-72450790D01*
X81280051Y-72839823D01*
X81428613Y-73199372D01*
X81703461Y-73474700D01*
X82062750Y-73623890D01*
X82451783Y-73624229D01*
X82811332Y-73475667D01*
X83086660Y-73200819D01*
X83235850Y-72841530D01*
X83236189Y-72452497D01*
X83087627Y-72092948D01*
X82969320Y-71974434D01*
X82969320Y-65346160D01*
X82915183Y-65073996D01*
X82761015Y-64843266D01*
X82236045Y-64318296D01*
X82236189Y-64152497D01*
X82168974Y-63989823D01*
X83730051Y-63989823D01*
X83878613Y-64349372D01*
X84153461Y-64624700D01*
X84512750Y-64773890D01*
X84680208Y-64774036D01*
X86235226Y-66329055D01*
X86465956Y-66483223D01*
X86738120Y-66537360D01*
X91053532Y-66537360D01*
X93635226Y-69119054D01*
X93865955Y-69273223D01*
X94138120Y-69327360D01*
X97093532Y-69327360D01*
X99286920Y-71520749D01*
X99286920Y-72584366D01*
X99169580Y-72701501D01*
X99020390Y-73060790D01*
X99020051Y-73449823D01*
X99168613Y-73809372D01*
X99443461Y-74084700D01*
X99802750Y-74233890D01*
X100191783Y-74234229D01*
X100551332Y-74085667D01*
X100826660Y-73810819D01*
X100975850Y-73451530D01*
X100976189Y-73062497D01*
X100827627Y-72702948D01*
X100709320Y-72584434D01*
X100709320Y-71226160D01*
X100655183Y-70953996D01*
X100535555Y-70774960D01*
X100501014Y-70723265D01*
X97891014Y-68113266D01*
X97660285Y-67959097D01*
X97388120Y-67904960D01*
X94432708Y-67904960D01*
X91851014Y-65323266D01*
X91620285Y-65169097D01*
X91348120Y-65114960D01*
X87032709Y-65114960D01*
X85686045Y-63768296D01*
X85686189Y-63602497D01*
X85537627Y-63242948D01*
X85262779Y-62967620D01*
X84903490Y-62818430D01*
X84514457Y-62818091D01*
X84154908Y-62966653D01*
X83879580Y-63241501D01*
X83730390Y-63600790D01*
X83730051Y-63989823D01*
X82168974Y-63989823D01*
X82087627Y-63792948D01*
X81812779Y-63517620D01*
X81453490Y-63368430D01*
X81064457Y-63368091D01*
X80704908Y-63516653D01*
X80429580Y-63791501D01*
X80280390Y-64150790D01*
X80280051Y-64539823D01*
X71519720Y-64539823D01*
X71519720Y-61039823D01*
X87570051Y-61039823D01*
X87718613Y-61399372D01*
X87993461Y-61674700D01*
X88352750Y-61823890D01*
X88520208Y-61824036D01*
X94365226Y-67669055D01*
X94595956Y-67823223D01*
X94868120Y-67877360D01*
X98156326Y-67877360D01*
X98273461Y-67994700D01*
X98632750Y-68143890D01*
X99021783Y-68144229D01*
X99381332Y-67995667D01*
X99656660Y-67720819D01*
X99805850Y-67361530D01*
X99806189Y-66972497D01*
X99657627Y-66612948D01*
X99382779Y-66337620D01*
X99023490Y-66188430D01*
X98634457Y-66188091D01*
X98274908Y-66336653D01*
X98156394Y-66454960D01*
X95162709Y-66454960D01*
X91206197Y-62498448D01*
X91261332Y-62475667D01*
X91359811Y-62377360D01*
X93408842Y-62377360D01*
X93270390Y-62710790D01*
X93270051Y-63099823D01*
X93418613Y-63459372D01*
X93693461Y-63734700D01*
X94052750Y-63883890D01*
X94441783Y-63884229D01*
X94801332Y-63735667D01*
X94879776Y-63657360D01*
X99986326Y-63657360D01*
X100103461Y-63774700D01*
X100462750Y-63923890D01*
X100851783Y-63924229D01*
X101211332Y-63775667D01*
X101486660Y-63500819D01*
X101635850Y-63141530D01*
X101636189Y-62752497D01*
X101487627Y-62392948D01*
X101472066Y-62377360D01*
X102116326Y-62377360D01*
X102233461Y-62494700D01*
X102592750Y-62643890D01*
X102981783Y-62644229D01*
X103341332Y-62495667D01*
X103616660Y-62220819D01*
X103765850Y-61861530D01*
X103766189Y-61472497D01*
X103617627Y-61112948D01*
X103342779Y-60837620D01*
X102983490Y-60688430D01*
X102594457Y-60688091D01*
X102234908Y-60836653D01*
X102116394Y-60954960D01*
X91399880Y-60954960D01*
X91262779Y-60817620D01*
X90903490Y-60668430D01*
X90514457Y-60668091D01*
X90154908Y-60816653D01*
X89879580Y-61091501D01*
X89856011Y-61148262D01*
X89526045Y-60818296D01*
X89526189Y-60652497D01*
X89377627Y-60292948D01*
X89102779Y-60017620D01*
X88743490Y-59868430D01*
X88354457Y-59868091D01*
X87994908Y-60016653D01*
X87719580Y-60291501D01*
X87570390Y-60650790D01*
X87570051Y-61039823D01*
X71519720Y-61039823D01*
X71519720Y-48763440D01*
X71513654Y-48732947D01*
X71523860Y-48681640D01*
X71469723Y-48409476D01*
X71315554Y-48178746D01*
X71084824Y-48024577D01*
X70812660Y-47970440D01*
X69311520Y-47970440D01*
X69308906Y-47970960D01*
X66846120Y-47970960D01*
X66573956Y-48025097D01*
X66343226Y-48179266D01*
X66189057Y-48409996D01*
X66134920Y-48682160D01*
X65484320Y-48682160D01*
X65484320Y-45742942D01*
X105749261Y-45742942D01*
X105976928Y-46293940D01*
X106398123Y-46715870D01*
X106399051Y-46716255D01*
X105978410Y-47136163D01*
X105749781Y-47686762D01*
X105749261Y-48282942D01*
X105976928Y-48833940D01*
X106398123Y-49255870D01*
X106399051Y-49256255D01*
X105978410Y-49676163D01*
X105749781Y-50226762D01*
X105749261Y-50822942D01*
X105976928Y-51373940D01*
X106398123Y-51795870D01*
X106399051Y-51796255D01*
X105978410Y-52216163D01*
X105749781Y-52766762D01*
X105749261Y-53362942D01*
X105976928Y-53913940D01*
X106398123Y-54335870D01*
X106399051Y-54336255D01*
X105978410Y-54756163D01*
X105749781Y-55306762D01*
X105749261Y-55902942D01*
X105976928Y-56453940D01*
X106398123Y-56875870D01*
X106399051Y-56876255D01*
X105978410Y-57296163D01*
X105749781Y-57846762D01*
X105749261Y-58442942D01*
X105976928Y-58993940D01*
X106398123Y-59415870D01*
X106399051Y-59416255D01*
X105978410Y-59836163D01*
X105749781Y-60386762D01*
X105749261Y-60982942D01*
X105976928Y-61533940D01*
X106398123Y-61955870D01*
X106399051Y-61956255D01*
X105978410Y-62376163D01*
X105749781Y-62926762D01*
X105749261Y-63522942D01*
X105976928Y-64073940D01*
X106398123Y-64495870D01*
X106399051Y-64496255D01*
X105978410Y-64916163D01*
X105749781Y-65466762D01*
X105749261Y-66062942D01*
X105976928Y-66613940D01*
X106398123Y-67035870D01*
X106399051Y-67036255D01*
X105978410Y-67456163D01*
X105749781Y-68006762D01*
X105749261Y-68602942D01*
X105976928Y-69153940D01*
X106398123Y-69575870D01*
X106399051Y-69576255D01*
X105978410Y-69996163D01*
X105749781Y-70546762D01*
X105749261Y-71142942D01*
X105976928Y-71693940D01*
X106398123Y-72115870D01*
X106399051Y-72116255D01*
X105978410Y-72536163D01*
X105749781Y-73086762D01*
X105749261Y-73682942D01*
X105976928Y-74233940D01*
X106398123Y-74655870D01*
X106399051Y-74656255D01*
X105978410Y-75076163D01*
X105749781Y-75626762D01*
X105749261Y-76222942D01*
X105976928Y-76773940D01*
X106398123Y-77195870D01*
X106399051Y-77196255D01*
X105978410Y-77616163D01*
X105749781Y-78166762D01*
X105749261Y-78762942D01*
X105976928Y-79313940D01*
X106398123Y-79735870D01*
X106948722Y-79964499D01*
X107544902Y-79965019D01*
X108095900Y-79737352D01*
X108517830Y-79316157D01*
X108746459Y-78765558D01*
X108746979Y-78169378D01*
X108519312Y-77618380D01*
X108098117Y-77196450D01*
X108097189Y-77196065D01*
X108517830Y-76776157D01*
X108746459Y-76225558D01*
X108746979Y-75629378D01*
X108519312Y-75078380D01*
X108098117Y-74656450D01*
X108097189Y-74656065D01*
X108517830Y-74236157D01*
X108746459Y-73685558D01*
X108746979Y-73089378D01*
X108519312Y-72538380D01*
X108098117Y-72116450D01*
X108097189Y-72116065D01*
X108517830Y-71696157D01*
X108746459Y-71145558D01*
X108746979Y-70549378D01*
X108519312Y-69998380D01*
X108098117Y-69576450D01*
X108097189Y-69576065D01*
X108517830Y-69156157D01*
X108746459Y-68605558D01*
X108746979Y-68009378D01*
X108519312Y-67458380D01*
X108098117Y-67036450D01*
X108097189Y-67036065D01*
X108517830Y-66616157D01*
X108746459Y-66065558D01*
X108746979Y-65469378D01*
X108519312Y-64918380D01*
X108098117Y-64496450D01*
X108097189Y-64496065D01*
X108517830Y-64076157D01*
X108746459Y-63525558D01*
X108746979Y-62929378D01*
X108524041Y-62389823D01*
X113460051Y-62389823D01*
X113608613Y-62749372D01*
X113883461Y-63024700D01*
X114242750Y-63173890D01*
X114410208Y-63174036D01*
X115416920Y-64180748D01*
X115416920Y-72744366D01*
X115299580Y-72861501D01*
X115150390Y-73220790D01*
X115150051Y-73609823D01*
X115298613Y-73969372D01*
X115573461Y-74244700D01*
X115932750Y-74393890D01*
X116321783Y-74394229D01*
X116681332Y-74245667D01*
X116956660Y-73970819D01*
X117105850Y-73611530D01*
X117106189Y-73222497D01*
X116957627Y-72862948D01*
X116839320Y-72744434D01*
X116839320Y-63886160D01*
X116820491Y-63791501D01*
X116785183Y-63613995D01*
X116631014Y-63383266D01*
X115416045Y-62168297D01*
X115416189Y-62002497D01*
X115267627Y-61642948D01*
X114992779Y-61367620D01*
X114633490Y-61218430D01*
X114244457Y-61218091D01*
X113884908Y-61366653D01*
X113609580Y-61641501D01*
X113460390Y-62000790D01*
X113460051Y-62389823D01*
X108524041Y-62389823D01*
X108519312Y-62378380D01*
X108098117Y-61956450D01*
X108097189Y-61956065D01*
X108517830Y-61536157D01*
X108746459Y-60985558D01*
X108746979Y-60389378D01*
X108519312Y-59838380D01*
X108321101Y-59639823D01*
X111210051Y-59639823D01*
X111358613Y-59999372D01*
X111633461Y-60274700D01*
X111992750Y-60423890D01*
X112381783Y-60424229D01*
X112741332Y-60275667D01*
X112859846Y-60157360D01*
X117183532Y-60157360D01*
X118356920Y-61330749D01*
X118356920Y-67404520D01*
X118411057Y-67676685D01*
X118565226Y-67907414D01*
X121052802Y-70394990D01*
X120989781Y-70546762D01*
X120989261Y-71142942D01*
X121216928Y-71693940D01*
X121638123Y-72115870D01*
X121639051Y-72116255D01*
X121218410Y-72536163D01*
X120989781Y-73086762D01*
X120989261Y-73682942D01*
X121216928Y-74233940D01*
X121638123Y-74655870D01*
X121639051Y-74656255D01*
X121218410Y-75076163D01*
X120989781Y-75626762D01*
X120989261Y-76222942D01*
X121216928Y-76773940D01*
X121638123Y-77195870D01*
X121639051Y-77196255D01*
X121218410Y-77616163D01*
X120989781Y-78166762D01*
X120989261Y-78762942D01*
X121216928Y-79313940D01*
X121638123Y-79735870D01*
X122188722Y-79964499D01*
X122784902Y-79965019D01*
X123335900Y-79737352D01*
X123757830Y-79316157D01*
X123986459Y-78765558D01*
X123986979Y-78169378D01*
X123759312Y-77618380D01*
X123338117Y-77196450D01*
X123337189Y-77196065D01*
X123757830Y-76776157D01*
X123986459Y-76225558D01*
X123986979Y-75629378D01*
X123759312Y-75078380D01*
X123338117Y-74656450D01*
X123337189Y-74656065D01*
X123757830Y-74236157D01*
X123986459Y-73685558D01*
X123986979Y-73089378D01*
X123759312Y-72538380D01*
X123338117Y-72116450D01*
X123337189Y-72116065D01*
X123757830Y-71696157D01*
X123986459Y-71145558D01*
X123986979Y-70549378D01*
X123759312Y-69998380D01*
X123338117Y-69576450D01*
X123337189Y-69576065D01*
X123757830Y-69156157D01*
X123986459Y-68605558D01*
X123986979Y-68009378D01*
X123759312Y-67458380D01*
X123338117Y-67036450D01*
X123337189Y-67036065D01*
X123757830Y-66616157D01*
X123986459Y-66065558D01*
X123986979Y-65469378D01*
X123759312Y-64918380D01*
X123338117Y-64496450D01*
X123337189Y-64496065D01*
X123757830Y-64076157D01*
X123986459Y-63525558D01*
X123986979Y-62929378D01*
X123759312Y-62378380D01*
X123338117Y-61956450D01*
X123337189Y-61956065D01*
X123757830Y-61536157D01*
X123986459Y-60985558D01*
X123986979Y-60389378D01*
X123759312Y-59838380D01*
X123338117Y-59416450D01*
X123337189Y-59416065D01*
X123757830Y-58996157D01*
X123986459Y-58445558D01*
X123986979Y-57849378D01*
X123759312Y-57298380D01*
X123338117Y-56876450D01*
X123337189Y-56876065D01*
X123757830Y-56456157D01*
X123986459Y-55905558D01*
X123986770Y-55548958D01*
X126911920Y-58474108D01*
X126911920Y-69301160D01*
X126966057Y-69573325D01*
X127120226Y-69804054D01*
X133223648Y-75907477D01*
X132494115Y-77664389D01*
X132492131Y-79937956D01*
X133360354Y-82039218D01*
X134966606Y-83648276D01*
X137066349Y-84520165D01*
X139339916Y-84522149D01*
X141441178Y-83653926D01*
X143050236Y-82047674D01*
X143922125Y-79947931D01*
X143924109Y-77674364D01*
X143055886Y-75573102D01*
X141449634Y-73964044D01*
X139349891Y-73092155D01*
X137076324Y-73090171D01*
X134975062Y-73958394D01*
X134129865Y-74802117D01*
X128334320Y-69006572D01*
X128334320Y-58179520D01*
X128280183Y-57907356D01*
X128280183Y-57907355D01*
X128126014Y-57676626D01*
X123936136Y-53486748D01*
X123986459Y-53365558D01*
X123986979Y-52769378D01*
X123759312Y-52218380D01*
X123338117Y-51796450D01*
X123297583Y-51779619D01*
X123362320Y-51579965D01*
X122488120Y-50705765D01*
X121613920Y-51579965D01*
X121678519Y-51779193D01*
X121640340Y-51794968D01*
X121218410Y-52216163D01*
X120989781Y-52766762D01*
X120989261Y-53362942D01*
X121216928Y-53913940D01*
X121638123Y-54335870D01*
X121639051Y-54336255D01*
X121218410Y-54756163D01*
X120989781Y-55306762D01*
X120989261Y-55902942D01*
X121216928Y-56453940D01*
X121638123Y-56875870D01*
X121639051Y-56876255D01*
X121218410Y-57296163D01*
X120989781Y-57846762D01*
X120989261Y-58442942D01*
X121216928Y-58993940D01*
X121638123Y-59415870D01*
X121639051Y-59416255D01*
X121218410Y-59836163D01*
X120989781Y-60386762D01*
X120989261Y-60982942D01*
X121216928Y-61533940D01*
X121638123Y-61955870D01*
X121639051Y-61956255D01*
X121218410Y-62376163D01*
X120989781Y-62926762D01*
X120989261Y-63522942D01*
X121216928Y-64073940D01*
X121638123Y-64495870D01*
X121639051Y-64496255D01*
X121218410Y-64916163D01*
X120989781Y-65466762D01*
X120989261Y-66062942D01*
X121216928Y-66613940D01*
X121638123Y-67035870D01*
X121639051Y-67036255D01*
X121218410Y-67456163D01*
X120989781Y-68006762D01*
X120989508Y-68320120D01*
X119779320Y-67109932D01*
X119779320Y-61036160D01*
X119725183Y-60763996D01*
X119571015Y-60533266D01*
X117981014Y-58943266D01*
X117750285Y-58789097D01*
X117478120Y-58734960D01*
X112859914Y-58734960D01*
X112742779Y-58617620D01*
X112383490Y-58468430D01*
X111994457Y-58468091D01*
X111634908Y-58616653D01*
X111359580Y-58891501D01*
X111210390Y-59250790D01*
X111210051Y-59639823D01*
X108321101Y-59639823D01*
X108098117Y-59416450D01*
X108097189Y-59416065D01*
X108517830Y-58996157D01*
X108746459Y-58445558D01*
X108746979Y-57849378D01*
X108519312Y-57298380D01*
X108098117Y-56876450D01*
X108097189Y-56876065D01*
X108517830Y-56456157D01*
X108746459Y-55905558D01*
X108746979Y-55309378D01*
X108519312Y-54758380D01*
X108098117Y-54336450D01*
X108097189Y-54336065D01*
X108517830Y-53916157D01*
X108746459Y-53365558D01*
X108746979Y-52769378D01*
X108519312Y-52218380D01*
X108098117Y-51796450D01*
X108097189Y-51796065D01*
X108517830Y-51376157D01*
X108746459Y-50825558D01*
X108746922Y-50294190D01*
X120977872Y-50294190D01*
X121004062Y-50889795D01*
X121181604Y-51318419D01*
X121434315Y-51400360D01*
X122308515Y-50526160D01*
X122667725Y-50526160D01*
X123541925Y-51400360D01*
X123794636Y-51318419D01*
X123998368Y-50758130D01*
X123972178Y-50162525D01*
X123794636Y-49733901D01*
X123541925Y-49651960D01*
X122667725Y-50526160D01*
X122308515Y-50526160D01*
X121434315Y-49651960D01*
X121181604Y-49733901D01*
X120977872Y-50294190D01*
X108746922Y-50294190D01*
X108746979Y-50229378D01*
X108707517Y-50133871D01*
X113098446Y-45742942D01*
X120989261Y-45742942D01*
X121216928Y-46293940D01*
X121638123Y-46715870D01*
X121639051Y-46716255D01*
X121218410Y-47136163D01*
X120989781Y-47686762D01*
X120989261Y-48282942D01*
X121216928Y-48833940D01*
X121638123Y-49255870D01*
X121678657Y-49272701D01*
X121613920Y-49472355D01*
X122488120Y-50346555D01*
X123362320Y-49472355D01*
X123297721Y-49273127D01*
X123335900Y-49257352D01*
X123757830Y-48836157D01*
X123986459Y-48285558D01*
X123986979Y-47689378D01*
X123759312Y-47138380D01*
X123338117Y-46716450D01*
X123337189Y-46716065D01*
X123757830Y-46296157D01*
X123986459Y-45745558D01*
X123986979Y-45149378D01*
X123759312Y-44598380D01*
X123338117Y-44176450D01*
X122787518Y-43947821D01*
X122191338Y-43947301D01*
X121640340Y-44174968D01*
X121218410Y-44596163D01*
X120989781Y-45146762D01*
X120989261Y-45742942D01*
X113098446Y-45742942D01*
X115329029Y-43512360D01*
X124353532Y-43512360D01*
X126136920Y-45295748D01*
X126136920Y-52976160D01*
X126191057Y-53248325D01*
X126345226Y-53479054D01*
X133393435Y-60527263D01*
X133366004Y-60554646D01*
X132494115Y-62654389D01*
X132492131Y-64927956D01*
X133360354Y-67029218D01*
X134966606Y-68638276D01*
X137066349Y-69510165D01*
X139339916Y-69512149D01*
X141441178Y-68643926D01*
X143050236Y-67037674D01*
X143922125Y-64937931D01*
X143924109Y-62664364D01*
X143055886Y-60563102D01*
X141449634Y-58954044D01*
X139349891Y-58082155D01*
X137076324Y-58080171D01*
X134975062Y-58948394D01*
X134400101Y-59522353D01*
X127559320Y-52681572D01*
X127559320Y-45001160D01*
X127505183Y-44728996D01*
X127505183Y-44728995D01*
X127351014Y-44498266D01*
X125151014Y-42298266D01*
X124920285Y-42144097D01*
X124760732Y-42112360D01*
X131628532Y-42112360D01*
X134169120Y-44652948D01*
X133356004Y-45464646D01*
X132484115Y-47564389D01*
X132482131Y-49837956D01*
X133350354Y-51939218D01*
X134956606Y-53548276D01*
X137056349Y-54420165D01*
X139329916Y-54422149D01*
X141431178Y-53553926D01*
X143040236Y-51947674D01*
X143912125Y-49847931D01*
X143914109Y-47574364D01*
X143045886Y-45473102D01*
X141439634Y-43864044D01*
X139339891Y-42992155D01*
X137066324Y-42990171D01*
X135263026Y-43735278D01*
X132426014Y-40898266D01*
X132195285Y-40744097D01*
X131923120Y-40689960D01*
X113894440Y-40689960D01*
X113622276Y-40744097D01*
X113622274Y-40744098D01*
X113622275Y-40744098D01*
X113391545Y-40898266D01*
X108746636Y-45543176D01*
X108746979Y-45149378D01*
X108519312Y-44598380D01*
X108098117Y-44176450D01*
X107547518Y-43947821D01*
X106951338Y-43947301D01*
X106400340Y-44174968D01*
X105978410Y-44596163D01*
X105749781Y-45146762D01*
X105749261Y-45742942D01*
X65484320Y-45742942D01*
X65484320Y-37376160D01*
X65676590Y-37376160D01*
X66007450Y-39039505D01*
X66949659Y-40449621D01*
X68359775Y-41391830D01*
X70023120Y-41722690D01*
X71686465Y-41391830D01*
X73096581Y-40449621D01*
X74038790Y-39039505D01*
X74369650Y-37376160D01*
X74038790Y-35712815D01*
X73096581Y-34302699D01*
X72540534Y-33931160D01*
X75575023Y-33931160D01*
X75575023Y-38421160D01*
X137321218Y-38421160D01*
X137321218Y-37410160D01*
X138546590Y-37410160D01*
X138877450Y-39073505D01*
X139819659Y-40483621D01*
X141229775Y-41425830D01*
X142893120Y-41756690D01*
X144556465Y-41425830D01*
X145966581Y-40483621D01*
X146908790Y-39073505D01*
X147239650Y-37410160D01*
X146908790Y-35746815D01*
X145966581Y-34336699D01*
X144556465Y-33394490D01*
X142893120Y-33063630D01*
X141229775Y-33394490D01*
X139819659Y-34336699D01*
X138877450Y-35746815D01*
X138546590Y-37410160D01*
X137321218Y-37410160D01*
X137321218Y-33931160D01*
X75575023Y-33931160D01*
X72540534Y-33931160D01*
X71686465Y-33360490D01*
X70023120Y-33029630D01*
X68359775Y-33360490D01*
X66949659Y-34302699D01*
X66007450Y-35712815D01*
X65676590Y-37376160D01*
X65484320Y-37376160D01*
X65484320Y-34075935D01*
X65593543Y-33562250D01*
X65853250Y-33184428D01*
X66237776Y-32934751D01*
X66763448Y-32837360D01*
X68198120Y-32837360D01*
X68199327Y-32837120D01*
X133026913Y-32837120D01*
X133028120Y-32837360D01*
M02*
