G04 #@! TF.FileFunction,Other,Fab,Bot*
%FSLAX46Y46*%
G04 Gerber Fmt 4.6, Leading zero omitted, Abs format (unit mm)*
G04 Created by KiCad (PCBNEW 4.0.4-1.fc25-product) date Wed Mar 29 04:27:01 2017*
%MOMM*%
%LPD*%
G01*
G04 APERTURE LIST*
%ADD10C,0.100000*%
%ADD11C,0.150000*%
G04 APERTURE END LIST*
D10*
D11*
X109762015Y-61538703D02*
X109809634Y-61586322D01*
X109952491Y-61633941D01*
X110047729Y-61633941D01*
X110190587Y-61586322D01*
X110285825Y-61491084D01*
X110333444Y-61395846D01*
X110381063Y-61205370D01*
X110381063Y-61062512D01*
X110333444Y-60872036D01*
X110285825Y-60776798D01*
X110190587Y-60681560D01*
X110047729Y-60633941D01*
X109952491Y-60633941D01*
X109809634Y-60681560D01*
X109762015Y-60729179D01*
X109381063Y-61348227D02*
X108904872Y-61348227D01*
X109476301Y-61633941D02*
X109142968Y-60633941D01*
X108809634Y-61633941D01*
X108476301Y-61633941D02*
X108476301Y-60633941D01*
X108095348Y-60633941D01*
X108000110Y-60681560D01*
X107952491Y-60729179D01*
X107904872Y-60824417D01*
X107904872Y-60967274D01*
X107952491Y-61062512D01*
X108000110Y-61110131D01*
X108095348Y-61157750D01*
X108476301Y-61157750D01*
X107476301Y-61252989D02*
X106714396Y-61252989D01*
X105666777Y-61538703D02*
X105714396Y-61586322D01*
X105857253Y-61633941D01*
X105952491Y-61633941D01*
X106095349Y-61586322D01*
X106190587Y-61491084D01*
X106238206Y-61395846D01*
X106285825Y-61205370D01*
X106285825Y-61062512D01*
X106238206Y-60872036D01*
X106190587Y-60776798D01*
X106095349Y-60681560D01*
X105952491Y-60633941D01*
X105857253Y-60633941D01*
X105714396Y-60681560D01*
X105666777Y-60729179D01*
X105238206Y-61110131D02*
X104904872Y-61110131D01*
X104762015Y-61633941D02*
X105238206Y-61633941D01*
X105238206Y-60633941D01*
X104762015Y-60633941D01*
X103762015Y-61633941D02*
X104095349Y-61157750D01*
X104333444Y-61633941D02*
X104333444Y-60633941D01*
X103952491Y-60633941D01*
X103857253Y-60681560D01*
X103809634Y-60729179D01*
X103762015Y-60824417D01*
X103762015Y-60967274D01*
X103809634Y-61062512D01*
X103857253Y-61110131D01*
X103952491Y-61157750D01*
X104333444Y-61157750D01*
X103333444Y-61252989D02*
X102571539Y-61252989D01*
X101571539Y-61633941D02*
X102142968Y-61633941D01*
X101857254Y-61633941D02*
X101857254Y-60633941D01*
X101952492Y-60776798D01*
X102047730Y-60872036D01*
X102142968Y-60919655D01*
X101142968Y-60633941D02*
X101142968Y-61443465D01*
X101095349Y-61538703D01*
X101047730Y-61586322D01*
X100952492Y-61633941D01*
X100762015Y-61633941D01*
X100666777Y-61586322D01*
X100619158Y-61538703D01*
X100571539Y-61443465D01*
X100571539Y-60633941D01*
X99762015Y-61110131D02*
X100095349Y-61110131D01*
X100095349Y-61633941D02*
X100095349Y-60633941D01*
X99619158Y-60633941D01*
X95755043Y-75787525D02*
X95802662Y-75739906D01*
X95850281Y-75597049D01*
X95850281Y-75501811D01*
X95802662Y-75358953D01*
X95707424Y-75263715D01*
X95612186Y-75216096D01*
X95421710Y-75168477D01*
X95278852Y-75168477D01*
X95088376Y-75216096D01*
X94993138Y-75263715D01*
X94897900Y-75358953D01*
X94850281Y-75501811D01*
X94850281Y-75597049D01*
X94897900Y-75739906D01*
X94945519Y-75787525D01*
X95564567Y-76168477D02*
X95564567Y-76644668D01*
X95850281Y-76073239D02*
X94850281Y-76406572D01*
X95850281Y-76739906D01*
X95850281Y-77073239D02*
X94850281Y-77073239D01*
X94850281Y-77454192D01*
X94897900Y-77549430D01*
X94945519Y-77597049D01*
X95040757Y-77644668D01*
X95183614Y-77644668D01*
X95278852Y-77597049D01*
X95326471Y-77549430D01*
X95374090Y-77454192D01*
X95374090Y-77073239D01*
X95469329Y-78073239D02*
X95469329Y-78835144D01*
X95755043Y-79882763D02*
X95802662Y-79835144D01*
X95850281Y-79692287D01*
X95850281Y-79597049D01*
X95802662Y-79454191D01*
X95707424Y-79358953D01*
X95612186Y-79311334D01*
X95421710Y-79263715D01*
X95278852Y-79263715D01*
X95088376Y-79311334D01*
X94993138Y-79358953D01*
X94897900Y-79454191D01*
X94850281Y-79597049D01*
X94850281Y-79692287D01*
X94897900Y-79835144D01*
X94945519Y-79882763D01*
X95326471Y-80311334D02*
X95326471Y-80644668D01*
X95850281Y-80787525D02*
X95850281Y-80311334D01*
X94850281Y-80311334D01*
X94850281Y-80787525D01*
X95850281Y-81787525D02*
X95374090Y-81454191D01*
X95850281Y-81216096D02*
X94850281Y-81216096D01*
X94850281Y-81597049D01*
X94897900Y-81692287D01*
X94945519Y-81739906D01*
X95040757Y-81787525D01*
X95183614Y-81787525D01*
X95278852Y-81739906D01*
X95326471Y-81692287D01*
X95374090Y-81597049D01*
X95374090Y-81216096D01*
X95469329Y-82216096D02*
X95469329Y-82978001D01*
X95850281Y-83978001D02*
X95850281Y-83406572D01*
X95850281Y-83692286D02*
X94850281Y-83692286D01*
X94993138Y-83597048D01*
X95088376Y-83501810D01*
X95135995Y-83406572D01*
X94850281Y-84406572D02*
X95659805Y-84406572D01*
X95755043Y-84454191D01*
X95802662Y-84501810D01*
X95850281Y-84597048D01*
X95850281Y-84787525D01*
X95802662Y-84882763D01*
X95755043Y-84930382D01*
X95659805Y-84978001D01*
X94850281Y-84978001D01*
X95326471Y-85787525D02*
X95326471Y-85454191D01*
X95850281Y-85454191D02*
X94850281Y-85454191D01*
X94850281Y-85930382D01*
X140369015Y-60480903D02*
X140416634Y-60528522D01*
X140559491Y-60576141D01*
X140654729Y-60576141D01*
X140797587Y-60528522D01*
X140892825Y-60433284D01*
X140940444Y-60338046D01*
X140988063Y-60147570D01*
X140988063Y-60004712D01*
X140940444Y-59814236D01*
X140892825Y-59718998D01*
X140797587Y-59623760D01*
X140654729Y-59576141D01*
X140559491Y-59576141D01*
X140416634Y-59623760D01*
X140369015Y-59671379D01*
X139988063Y-60290427D02*
X139511872Y-60290427D01*
X140083301Y-60576141D02*
X139749968Y-59576141D01*
X139416634Y-60576141D01*
X139083301Y-60576141D02*
X139083301Y-59576141D01*
X138702348Y-59576141D01*
X138607110Y-59623760D01*
X138559491Y-59671379D01*
X138511872Y-59766617D01*
X138511872Y-59909474D01*
X138559491Y-60004712D01*
X138607110Y-60052331D01*
X138702348Y-60099950D01*
X139083301Y-60099950D01*
X138083301Y-60195189D02*
X137321396Y-60195189D01*
X136273777Y-60480903D02*
X136321396Y-60528522D01*
X136464253Y-60576141D01*
X136559491Y-60576141D01*
X136702349Y-60528522D01*
X136797587Y-60433284D01*
X136845206Y-60338046D01*
X136892825Y-60147570D01*
X136892825Y-60004712D01*
X136845206Y-59814236D01*
X136797587Y-59718998D01*
X136702349Y-59623760D01*
X136559491Y-59576141D01*
X136464253Y-59576141D01*
X136321396Y-59623760D01*
X136273777Y-59671379D01*
X135845206Y-60052331D02*
X135511872Y-60052331D01*
X135369015Y-60576141D02*
X135845206Y-60576141D01*
X135845206Y-59576141D01*
X135369015Y-59576141D01*
X134369015Y-60576141D02*
X134702349Y-60099950D01*
X134940444Y-60576141D02*
X134940444Y-59576141D01*
X134559491Y-59576141D01*
X134464253Y-59623760D01*
X134416634Y-59671379D01*
X134369015Y-59766617D01*
X134369015Y-59909474D01*
X134416634Y-60004712D01*
X134464253Y-60052331D01*
X134559491Y-60099950D01*
X134940444Y-60099950D01*
X133940444Y-60195189D02*
X133178539Y-60195189D01*
X132178539Y-60576141D02*
X132749968Y-60576141D01*
X132464254Y-60576141D02*
X132464254Y-59576141D01*
X132559492Y-59718998D01*
X132654730Y-59814236D01*
X132749968Y-59861855D01*
X131749968Y-59576141D02*
X131749968Y-60385665D01*
X131702349Y-60480903D01*
X131654730Y-60528522D01*
X131559492Y-60576141D01*
X131369015Y-60576141D01*
X131273777Y-60528522D01*
X131226158Y-60480903D01*
X131178539Y-60385665D01*
X131178539Y-59576141D01*
X130369015Y-60052331D02*
X130702349Y-60052331D01*
X130702349Y-60576141D02*
X130702349Y-59576141D01*
X130226158Y-59576141D01*
X140483315Y-76863903D02*
X140530934Y-76911522D01*
X140673791Y-76959141D01*
X140769029Y-76959141D01*
X140911887Y-76911522D01*
X141007125Y-76816284D01*
X141054744Y-76721046D01*
X141102363Y-76530570D01*
X141102363Y-76387712D01*
X141054744Y-76197236D01*
X141007125Y-76101998D01*
X140911887Y-76006760D01*
X140769029Y-75959141D01*
X140673791Y-75959141D01*
X140530934Y-76006760D01*
X140483315Y-76054379D01*
X140102363Y-76673427D02*
X139626172Y-76673427D01*
X140197601Y-76959141D02*
X139864268Y-75959141D01*
X139530934Y-76959141D01*
X139197601Y-76959141D02*
X139197601Y-75959141D01*
X138816648Y-75959141D01*
X138721410Y-76006760D01*
X138673791Y-76054379D01*
X138626172Y-76149617D01*
X138626172Y-76292474D01*
X138673791Y-76387712D01*
X138721410Y-76435331D01*
X138816648Y-76482950D01*
X139197601Y-76482950D01*
X138197601Y-76578189D02*
X137435696Y-76578189D01*
X136388077Y-76863903D02*
X136435696Y-76911522D01*
X136578553Y-76959141D01*
X136673791Y-76959141D01*
X136816649Y-76911522D01*
X136911887Y-76816284D01*
X136959506Y-76721046D01*
X137007125Y-76530570D01*
X137007125Y-76387712D01*
X136959506Y-76197236D01*
X136911887Y-76101998D01*
X136816649Y-76006760D01*
X136673791Y-75959141D01*
X136578553Y-75959141D01*
X136435696Y-76006760D01*
X136388077Y-76054379D01*
X135959506Y-76435331D02*
X135626172Y-76435331D01*
X135483315Y-76959141D02*
X135959506Y-76959141D01*
X135959506Y-75959141D01*
X135483315Y-75959141D01*
X134483315Y-76959141D02*
X134816649Y-76482950D01*
X135054744Y-76959141D02*
X135054744Y-75959141D01*
X134673791Y-75959141D01*
X134578553Y-76006760D01*
X134530934Y-76054379D01*
X134483315Y-76149617D01*
X134483315Y-76292474D01*
X134530934Y-76387712D01*
X134578553Y-76435331D01*
X134673791Y-76482950D01*
X135054744Y-76482950D01*
X134054744Y-76578189D02*
X133292839Y-76578189D01*
X132292839Y-76959141D02*
X132864268Y-76959141D01*
X132578554Y-76959141D02*
X132578554Y-75959141D01*
X132673792Y-76101998D01*
X132769030Y-76197236D01*
X132864268Y-76244855D01*
X131864268Y-75959141D02*
X131864268Y-76768665D01*
X131816649Y-76863903D01*
X131769030Y-76911522D01*
X131673792Y-76959141D01*
X131483315Y-76959141D01*
X131388077Y-76911522D01*
X131340458Y-76863903D01*
X131292839Y-76768665D01*
X131292839Y-75959141D01*
X130483315Y-76435331D02*
X130816649Y-76435331D01*
X130816649Y-76959141D02*
X130816649Y-75959141D01*
X130340458Y-75959141D01*
X140318215Y-56416903D02*
X140365834Y-56464522D01*
X140508691Y-56512141D01*
X140603929Y-56512141D01*
X140746787Y-56464522D01*
X140842025Y-56369284D01*
X140889644Y-56274046D01*
X140937263Y-56083570D01*
X140937263Y-55940712D01*
X140889644Y-55750236D01*
X140842025Y-55654998D01*
X140746787Y-55559760D01*
X140603929Y-55512141D01*
X140508691Y-55512141D01*
X140365834Y-55559760D01*
X140318215Y-55607379D01*
X139937263Y-56226427D02*
X139461072Y-56226427D01*
X140032501Y-56512141D02*
X139699168Y-55512141D01*
X139365834Y-56512141D01*
X139032501Y-56512141D02*
X139032501Y-55512141D01*
X138651548Y-55512141D01*
X138556310Y-55559760D01*
X138508691Y-55607379D01*
X138461072Y-55702617D01*
X138461072Y-55845474D01*
X138508691Y-55940712D01*
X138556310Y-55988331D01*
X138651548Y-56035950D01*
X139032501Y-56035950D01*
X138032501Y-56131189D02*
X137270596Y-56131189D01*
X136222977Y-56416903D02*
X136270596Y-56464522D01*
X136413453Y-56512141D01*
X136508691Y-56512141D01*
X136651549Y-56464522D01*
X136746787Y-56369284D01*
X136794406Y-56274046D01*
X136842025Y-56083570D01*
X136842025Y-55940712D01*
X136794406Y-55750236D01*
X136746787Y-55654998D01*
X136651549Y-55559760D01*
X136508691Y-55512141D01*
X136413453Y-55512141D01*
X136270596Y-55559760D01*
X136222977Y-55607379D01*
X135794406Y-55988331D02*
X135461072Y-55988331D01*
X135318215Y-56512141D02*
X135794406Y-56512141D01*
X135794406Y-55512141D01*
X135318215Y-55512141D01*
X134318215Y-56512141D02*
X134651549Y-56035950D01*
X134889644Y-56512141D02*
X134889644Y-55512141D01*
X134508691Y-55512141D01*
X134413453Y-55559760D01*
X134365834Y-55607379D01*
X134318215Y-55702617D01*
X134318215Y-55845474D01*
X134365834Y-55940712D01*
X134413453Y-55988331D01*
X134508691Y-56035950D01*
X134889644Y-56035950D01*
X133889644Y-56131189D02*
X133127739Y-56131189D01*
X132127739Y-56512141D02*
X132699168Y-56512141D01*
X132413454Y-56512141D02*
X132413454Y-55512141D01*
X132508692Y-55654998D01*
X132603930Y-55750236D01*
X132699168Y-55797855D01*
X131699168Y-55512141D02*
X131699168Y-56321665D01*
X131651549Y-56416903D01*
X131603930Y-56464522D01*
X131508692Y-56512141D01*
X131318215Y-56512141D01*
X131222977Y-56464522D01*
X131175358Y-56416903D01*
X131127739Y-56321665D01*
X131127739Y-55512141D01*
X130318215Y-55988331D02*
X130651549Y-55988331D01*
X130651549Y-56512141D02*
X130651549Y-55512141D01*
X130175358Y-55512141D01*
X109764555Y-64086323D02*
X109812174Y-64133942D01*
X109955031Y-64181561D01*
X110050269Y-64181561D01*
X110193127Y-64133942D01*
X110288365Y-64038704D01*
X110335984Y-63943466D01*
X110383603Y-63752990D01*
X110383603Y-63610132D01*
X110335984Y-63419656D01*
X110288365Y-63324418D01*
X110193127Y-63229180D01*
X110050269Y-63181561D01*
X109955031Y-63181561D01*
X109812174Y-63229180D01*
X109764555Y-63276799D01*
X109383603Y-63895847D02*
X108907412Y-63895847D01*
X109478841Y-64181561D02*
X109145508Y-63181561D01*
X108812174Y-64181561D01*
X108478841Y-64181561D02*
X108478841Y-63181561D01*
X108097888Y-63181561D01*
X108002650Y-63229180D01*
X107955031Y-63276799D01*
X107907412Y-63372037D01*
X107907412Y-63514894D01*
X107955031Y-63610132D01*
X108002650Y-63657751D01*
X108097888Y-63705370D01*
X108478841Y-63705370D01*
X107478841Y-63800609D02*
X106716936Y-63800609D01*
X105669317Y-64086323D02*
X105716936Y-64133942D01*
X105859793Y-64181561D01*
X105955031Y-64181561D01*
X106097889Y-64133942D01*
X106193127Y-64038704D01*
X106240746Y-63943466D01*
X106288365Y-63752990D01*
X106288365Y-63610132D01*
X106240746Y-63419656D01*
X106193127Y-63324418D01*
X106097889Y-63229180D01*
X105955031Y-63181561D01*
X105859793Y-63181561D01*
X105716936Y-63229180D01*
X105669317Y-63276799D01*
X105240746Y-63657751D02*
X104907412Y-63657751D01*
X104764555Y-64181561D02*
X105240746Y-64181561D01*
X105240746Y-63181561D01*
X104764555Y-63181561D01*
X103764555Y-64181561D02*
X104097889Y-63705370D01*
X104335984Y-64181561D02*
X104335984Y-63181561D01*
X103955031Y-63181561D01*
X103859793Y-63229180D01*
X103812174Y-63276799D01*
X103764555Y-63372037D01*
X103764555Y-63514894D01*
X103812174Y-63610132D01*
X103859793Y-63657751D01*
X103955031Y-63705370D01*
X104335984Y-63705370D01*
X103335984Y-63800609D02*
X102574079Y-63800609D01*
X101574079Y-64181561D02*
X102145508Y-64181561D01*
X101859794Y-64181561D02*
X101859794Y-63181561D01*
X101955032Y-63324418D01*
X102050270Y-63419656D01*
X102145508Y-63467275D01*
X101145508Y-63181561D02*
X101145508Y-63991085D01*
X101097889Y-64086323D01*
X101050270Y-64133942D01*
X100955032Y-64181561D01*
X100764555Y-64181561D01*
X100669317Y-64133942D01*
X100621698Y-64086323D01*
X100574079Y-63991085D01*
X100574079Y-63181561D01*
X99764555Y-63657751D02*
X100097889Y-63657751D01*
X100097889Y-64181561D02*
X100097889Y-63181561D01*
X99621698Y-63181561D01*
X140267415Y-64392503D02*
X140315034Y-64440122D01*
X140457891Y-64487741D01*
X140553129Y-64487741D01*
X140695987Y-64440122D01*
X140791225Y-64344884D01*
X140838844Y-64249646D01*
X140886463Y-64059170D01*
X140886463Y-63916312D01*
X140838844Y-63725836D01*
X140791225Y-63630598D01*
X140695987Y-63535360D01*
X140553129Y-63487741D01*
X140457891Y-63487741D01*
X140315034Y-63535360D01*
X140267415Y-63582979D01*
X139886463Y-64202027D02*
X139410272Y-64202027D01*
X139981701Y-64487741D02*
X139648368Y-63487741D01*
X139315034Y-64487741D01*
X138981701Y-64487741D02*
X138981701Y-63487741D01*
X138600748Y-63487741D01*
X138505510Y-63535360D01*
X138457891Y-63582979D01*
X138410272Y-63678217D01*
X138410272Y-63821074D01*
X138457891Y-63916312D01*
X138505510Y-63963931D01*
X138600748Y-64011550D01*
X138981701Y-64011550D01*
X137981701Y-64106789D02*
X137219796Y-64106789D01*
X136172177Y-64392503D02*
X136219796Y-64440122D01*
X136362653Y-64487741D01*
X136457891Y-64487741D01*
X136600749Y-64440122D01*
X136695987Y-64344884D01*
X136743606Y-64249646D01*
X136791225Y-64059170D01*
X136791225Y-63916312D01*
X136743606Y-63725836D01*
X136695987Y-63630598D01*
X136600749Y-63535360D01*
X136457891Y-63487741D01*
X136362653Y-63487741D01*
X136219796Y-63535360D01*
X136172177Y-63582979D01*
X135743606Y-63963931D02*
X135410272Y-63963931D01*
X135267415Y-64487741D02*
X135743606Y-64487741D01*
X135743606Y-63487741D01*
X135267415Y-63487741D01*
X134267415Y-64487741D02*
X134600749Y-64011550D01*
X134838844Y-64487741D02*
X134838844Y-63487741D01*
X134457891Y-63487741D01*
X134362653Y-63535360D01*
X134315034Y-63582979D01*
X134267415Y-63678217D01*
X134267415Y-63821074D01*
X134315034Y-63916312D01*
X134362653Y-63963931D01*
X134457891Y-64011550D01*
X134838844Y-64011550D01*
X133838844Y-64106789D02*
X133076939Y-64106789D01*
X132076939Y-64487741D02*
X132648368Y-64487741D01*
X132362654Y-64487741D02*
X132362654Y-63487741D01*
X132457892Y-63630598D01*
X132553130Y-63725836D01*
X132648368Y-63773455D01*
X131648368Y-63487741D02*
X131648368Y-64297265D01*
X131600749Y-64392503D01*
X131553130Y-64440122D01*
X131457892Y-64487741D01*
X131267415Y-64487741D01*
X131172177Y-64440122D01*
X131124558Y-64392503D01*
X131076939Y-64297265D01*
X131076939Y-63487741D01*
X130267415Y-63963931D02*
X130600749Y-63963931D01*
X130600749Y-64487741D02*
X130600749Y-63487741D01*
X130124558Y-63487741D01*
X140175975Y-68390463D02*
X140223594Y-68438082D01*
X140366451Y-68485701D01*
X140461689Y-68485701D01*
X140604547Y-68438082D01*
X140699785Y-68342844D01*
X140747404Y-68247606D01*
X140795023Y-68057130D01*
X140795023Y-67914272D01*
X140747404Y-67723796D01*
X140699785Y-67628558D01*
X140604547Y-67533320D01*
X140461689Y-67485701D01*
X140366451Y-67485701D01*
X140223594Y-67533320D01*
X140175975Y-67580939D01*
X139795023Y-68199987D02*
X139318832Y-68199987D01*
X139890261Y-68485701D02*
X139556928Y-67485701D01*
X139223594Y-68485701D01*
X138890261Y-68485701D02*
X138890261Y-67485701D01*
X138509308Y-67485701D01*
X138414070Y-67533320D01*
X138366451Y-67580939D01*
X138318832Y-67676177D01*
X138318832Y-67819034D01*
X138366451Y-67914272D01*
X138414070Y-67961891D01*
X138509308Y-68009510D01*
X138890261Y-68009510D01*
X137890261Y-68104749D02*
X137128356Y-68104749D01*
X136080737Y-68390463D02*
X136128356Y-68438082D01*
X136271213Y-68485701D01*
X136366451Y-68485701D01*
X136509309Y-68438082D01*
X136604547Y-68342844D01*
X136652166Y-68247606D01*
X136699785Y-68057130D01*
X136699785Y-67914272D01*
X136652166Y-67723796D01*
X136604547Y-67628558D01*
X136509309Y-67533320D01*
X136366451Y-67485701D01*
X136271213Y-67485701D01*
X136128356Y-67533320D01*
X136080737Y-67580939D01*
X135652166Y-67961891D02*
X135318832Y-67961891D01*
X135175975Y-68485701D02*
X135652166Y-68485701D01*
X135652166Y-67485701D01*
X135175975Y-67485701D01*
X134175975Y-68485701D02*
X134509309Y-68009510D01*
X134747404Y-68485701D02*
X134747404Y-67485701D01*
X134366451Y-67485701D01*
X134271213Y-67533320D01*
X134223594Y-67580939D01*
X134175975Y-67676177D01*
X134175975Y-67819034D01*
X134223594Y-67914272D01*
X134271213Y-67961891D01*
X134366451Y-68009510D01*
X134747404Y-68009510D01*
X133747404Y-68104749D02*
X132985499Y-68104749D01*
X131985499Y-68485701D02*
X132556928Y-68485701D01*
X132271214Y-68485701D02*
X132271214Y-67485701D01*
X132366452Y-67628558D01*
X132461690Y-67723796D01*
X132556928Y-67771415D01*
X131556928Y-67485701D02*
X131556928Y-68295225D01*
X131509309Y-68390463D01*
X131461690Y-68438082D01*
X131366452Y-68485701D01*
X131175975Y-68485701D01*
X131080737Y-68438082D01*
X131033118Y-68390463D01*
X130985499Y-68295225D01*
X130985499Y-67485701D01*
X130175975Y-67961891D02*
X130509309Y-67961891D01*
X130509309Y-68485701D02*
X130509309Y-67485701D01*
X130033118Y-67485701D01*
X140483315Y-80597703D02*
X140530934Y-80645322D01*
X140673791Y-80692941D01*
X140769029Y-80692941D01*
X140911887Y-80645322D01*
X141007125Y-80550084D01*
X141054744Y-80454846D01*
X141102363Y-80264370D01*
X141102363Y-80121512D01*
X141054744Y-79931036D01*
X141007125Y-79835798D01*
X140911887Y-79740560D01*
X140769029Y-79692941D01*
X140673791Y-79692941D01*
X140530934Y-79740560D01*
X140483315Y-79788179D01*
X140102363Y-80407227D02*
X139626172Y-80407227D01*
X140197601Y-80692941D02*
X139864268Y-79692941D01*
X139530934Y-80692941D01*
X139197601Y-80692941D02*
X139197601Y-79692941D01*
X138816648Y-79692941D01*
X138721410Y-79740560D01*
X138673791Y-79788179D01*
X138626172Y-79883417D01*
X138626172Y-80026274D01*
X138673791Y-80121512D01*
X138721410Y-80169131D01*
X138816648Y-80216750D01*
X139197601Y-80216750D01*
X138197601Y-80311989D02*
X137435696Y-80311989D01*
X136388077Y-80597703D02*
X136435696Y-80645322D01*
X136578553Y-80692941D01*
X136673791Y-80692941D01*
X136816649Y-80645322D01*
X136911887Y-80550084D01*
X136959506Y-80454846D01*
X137007125Y-80264370D01*
X137007125Y-80121512D01*
X136959506Y-79931036D01*
X136911887Y-79835798D01*
X136816649Y-79740560D01*
X136673791Y-79692941D01*
X136578553Y-79692941D01*
X136435696Y-79740560D01*
X136388077Y-79788179D01*
X135959506Y-80169131D02*
X135626172Y-80169131D01*
X135483315Y-80692941D02*
X135959506Y-80692941D01*
X135959506Y-79692941D01*
X135483315Y-79692941D01*
X134483315Y-80692941D02*
X134816649Y-80216750D01*
X135054744Y-80692941D02*
X135054744Y-79692941D01*
X134673791Y-79692941D01*
X134578553Y-79740560D01*
X134530934Y-79788179D01*
X134483315Y-79883417D01*
X134483315Y-80026274D01*
X134530934Y-80121512D01*
X134578553Y-80169131D01*
X134673791Y-80216750D01*
X135054744Y-80216750D01*
X134054744Y-80311989D02*
X133292839Y-80311989D01*
X132292839Y-80692941D02*
X132864268Y-80692941D01*
X132578554Y-80692941D02*
X132578554Y-79692941D01*
X132673792Y-79835798D01*
X132769030Y-79931036D01*
X132864268Y-79978655D01*
X131864268Y-79692941D02*
X131864268Y-80502465D01*
X131816649Y-80597703D01*
X131769030Y-80645322D01*
X131673792Y-80692941D01*
X131483315Y-80692941D01*
X131388077Y-80645322D01*
X131340458Y-80597703D01*
X131292839Y-80502465D01*
X131292839Y-79692941D01*
X130483315Y-80169131D02*
X130816649Y-80169131D01*
X130816649Y-80692941D02*
X130816649Y-79692941D01*
X130340458Y-79692941D01*
X140216615Y-72596703D02*
X140264234Y-72644322D01*
X140407091Y-72691941D01*
X140502329Y-72691941D01*
X140645187Y-72644322D01*
X140740425Y-72549084D01*
X140788044Y-72453846D01*
X140835663Y-72263370D01*
X140835663Y-72120512D01*
X140788044Y-71930036D01*
X140740425Y-71834798D01*
X140645187Y-71739560D01*
X140502329Y-71691941D01*
X140407091Y-71691941D01*
X140264234Y-71739560D01*
X140216615Y-71787179D01*
X139835663Y-72406227D02*
X139359472Y-72406227D01*
X139930901Y-72691941D02*
X139597568Y-71691941D01*
X139264234Y-72691941D01*
X138930901Y-72691941D02*
X138930901Y-71691941D01*
X138549948Y-71691941D01*
X138454710Y-71739560D01*
X138407091Y-71787179D01*
X138359472Y-71882417D01*
X138359472Y-72025274D01*
X138407091Y-72120512D01*
X138454710Y-72168131D01*
X138549948Y-72215750D01*
X138930901Y-72215750D01*
X137930901Y-72310989D02*
X137168996Y-72310989D01*
X136121377Y-72596703D02*
X136168996Y-72644322D01*
X136311853Y-72691941D01*
X136407091Y-72691941D01*
X136549949Y-72644322D01*
X136645187Y-72549084D01*
X136692806Y-72453846D01*
X136740425Y-72263370D01*
X136740425Y-72120512D01*
X136692806Y-71930036D01*
X136645187Y-71834798D01*
X136549949Y-71739560D01*
X136407091Y-71691941D01*
X136311853Y-71691941D01*
X136168996Y-71739560D01*
X136121377Y-71787179D01*
X135692806Y-72168131D02*
X135359472Y-72168131D01*
X135216615Y-72691941D02*
X135692806Y-72691941D01*
X135692806Y-71691941D01*
X135216615Y-71691941D01*
X134216615Y-72691941D02*
X134549949Y-72215750D01*
X134788044Y-72691941D02*
X134788044Y-71691941D01*
X134407091Y-71691941D01*
X134311853Y-71739560D01*
X134264234Y-71787179D01*
X134216615Y-71882417D01*
X134216615Y-72025274D01*
X134264234Y-72120512D01*
X134311853Y-72168131D01*
X134407091Y-72215750D01*
X134788044Y-72215750D01*
X133788044Y-72310989D02*
X133026139Y-72310989D01*
X132026139Y-72691941D02*
X132597568Y-72691941D01*
X132311854Y-72691941D02*
X132311854Y-71691941D01*
X132407092Y-71834798D01*
X132502330Y-71930036D01*
X132597568Y-71977655D01*
X131597568Y-71691941D02*
X131597568Y-72501465D01*
X131549949Y-72596703D01*
X131502330Y-72644322D01*
X131407092Y-72691941D01*
X131216615Y-72691941D01*
X131121377Y-72644322D01*
X131073758Y-72596703D01*
X131026139Y-72501465D01*
X131026139Y-71691941D01*
X130216615Y-72168131D02*
X130549949Y-72168131D01*
X130549949Y-72691941D02*
X130549949Y-71691941D01*
X130073758Y-71691941D01*
X104645141Y-78155730D02*
X103645141Y-78155730D01*
X103645141Y-78393825D01*
X103692760Y-78536683D01*
X103787998Y-78631921D01*
X103883236Y-78679540D01*
X104073712Y-78727159D01*
X104216570Y-78727159D01*
X104407046Y-78679540D01*
X104502284Y-78631921D01*
X104597522Y-78536683D01*
X104645141Y-78393825D01*
X104645141Y-78155730D01*
X104645141Y-79155730D02*
X103645141Y-79155730D01*
X103645141Y-79822396D02*
X103645141Y-80012873D01*
X103692760Y-80108111D01*
X103787998Y-80203349D01*
X103978474Y-80250968D01*
X104311808Y-80250968D01*
X104502284Y-80203349D01*
X104597522Y-80108111D01*
X104645141Y-80012873D01*
X104645141Y-79822396D01*
X104597522Y-79727158D01*
X104502284Y-79631920D01*
X104311808Y-79584301D01*
X103978474Y-79584301D01*
X103787998Y-79631920D01*
X103692760Y-79727158D01*
X103645141Y-79822396D01*
X104645141Y-80679539D02*
X103645141Y-80679539D01*
X103645141Y-80917634D01*
X103692760Y-81060492D01*
X103787998Y-81155730D01*
X103883236Y-81203349D01*
X104073712Y-81250968D01*
X104216570Y-81250968D01*
X104407046Y-81203349D01*
X104502284Y-81155730D01*
X104597522Y-81060492D01*
X104645141Y-80917634D01*
X104645141Y-80679539D01*
X104121331Y-81679539D02*
X104121331Y-82012873D01*
X104645141Y-82155730D02*
X104645141Y-81679539D01*
X103645141Y-81679539D01*
X103645141Y-82155730D01*
X106598790Y-56044781D02*
X106598790Y-55044781D01*
X106360695Y-55044781D01*
X106217837Y-55092400D01*
X106122599Y-55187638D01*
X106074980Y-55282876D01*
X106027361Y-55473352D01*
X106027361Y-55616210D01*
X106074980Y-55806686D01*
X106122599Y-55901924D01*
X106217837Y-55997162D01*
X106360695Y-56044781D01*
X106598790Y-56044781D01*
X105598790Y-56044781D02*
X105598790Y-55044781D01*
X104932124Y-55044781D02*
X104741647Y-55044781D01*
X104646409Y-55092400D01*
X104551171Y-55187638D01*
X104503552Y-55378114D01*
X104503552Y-55711448D01*
X104551171Y-55901924D01*
X104646409Y-55997162D01*
X104741647Y-56044781D01*
X104932124Y-56044781D01*
X105027362Y-55997162D01*
X105122600Y-55901924D01*
X105170219Y-55711448D01*
X105170219Y-55378114D01*
X105122600Y-55187638D01*
X105027362Y-55092400D01*
X104932124Y-55044781D01*
X104074981Y-56044781D02*
X104074981Y-55044781D01*
X103836886Y-55044781D01*
X103694028Y-55092400D01*
X103598790Y-55187638D01*
X103551171Y-55282876D01*
X103503552Y-55473352D01*
X103503552Y-55616210D01*
X103551171Y-55806686D01*
X103598790Y-55901924D01*
X103694028Y-55997162D01*
X103836886Y-56044781D01*
X104074981Y-56044781D01*
X103074981Y-55520971D02*
X102741647Y-55520971D01*
X102598790Y-56044781D02*
X103074981Y-56044781D01*
X103074981Y-55044781D01*
X102598790Y-55044781D01*
X105083181Y-78155730D02*
X104083181Y-78155730D01*
X104083181Y-78393825D01*
X104130800Y-78536683D01*
X104226038Y-78631921D01*
X104321276Y-78679540D01*
X104511752Y-78727159D01*
X104654610Y-78727159D01*
X104845086Y-78679540D01*
X104940324Y-78631921D01*
X105035562Y-78536683D01*
X105083181Y-78393825D01*
X105083181Y-78155730D01*
X105083181Y-79155730D02*
X104083181Y-79155730D01*
X104083181Y-79822396D02*
X104083181Y-80012873D01*
X104130800Y-80108111D01*
X104226038Y-80203349D01*
X104416514Y-80250968D01*
X104749848Y-80250968D01*
X104940324Y-80203349D01*
X105035562Y-80108111D01*
X105083181Y-80012873D01*
X105083181Y-79822396D01*
X105035562Y-79727158D01*
X104940324Y-79631920D01*
X104749848Y-79584301D01*
X104416514Y-79584301D01*
X104226038Y-79631920D01*
X104130800Y-79727158D01*
X104083181Y-79822396D01*
X105083181Y-80679539D02*
X104083181Y-80679539D01*
X104083181Y-80917634D01*
X104130800Y-81060492D01*
X104226038Y-81155730D01*
X104321276Y-81203349D01*
X104511752Y-81250968D01*
X104654610Y-81250968D01*
X104845086Y-81203349D01*
X104940324Y-81155730D01*
X105035562Y-81060492D01*
X105083181Y-80917634D01*
X105083181Y-80679539D01*
X104559371Y-81679539D02*
X104559371Y-82012873D01*
X105083181Y-82155730D02*
X105083181Y-81679539D01*
X104083181Y-81679539D01*
X104083181Y-82155730D01*
X108268021Y-56036021D02*
X108268021Y-55036021D01*
X107791831Y-56036021D02*
X107791831Y-55036021D01*
X107220402Y-56036021D01*
X107220402Y-55036021D01*
X106744212Y-56036021D02*
X106744212Y-55036021D01*
X106506117Y-55036021D01*
X106363259Y-55083640D01*
X106268021Y-55178878D01*
X106220402Y-55274116D01*
X106172783Y-55464592D01*
X106172783Y-55607450D01*
X106220402Y-55797926D01*
X106268021Y-55893164D01*
X106363259Y-55988402D01*
X106506117Y-56036021D01*
X106744212Y-56036021D01*
X105744212Y-55036021D02*
X105744212Y-55845545D01*
X105696593Y-55940783D01*
X105648974Y-55988402D01*
X105553736Y-56036021D01*
X105363259Y-56036021D01*
X105268021Y-55988402D01*
X105220402Y-55940783D01*
X105172783Y-55845545D01*
X105172783Y-55036021D01*
X104125164Y-55940783D02*
X104172783Y-55988402D01*
X104315640Y-56036021D01*
X104410878Y-56036021D01*
X104553736Y-55988402D01*
X104648974Y-55893164D01*
X104696593Y-55797926D01*
X104744212Y-55607450D01*
X104744212Y-55464592D01*
X104696593Y-55274116D01*
X104648974Y-55178878D01*
X104553736Y-55083640D01*
X104410878Y-55036021D01*
X104315640Y-55036021D01*
X104172783Y-55083640D01*
X104125164Y-55131259D01*
X103839450Y-55036021D02*
X103268021Y-55036021D01*
X103553736Y-56036021D02*
X103553736Y-55036021D01*
X102744212Y-55036021D02*
X102553735Y-55036021D01*
X102458497Y-55083640D01*
X102363259Y-55178878D01*
X102315640Y-55369354D01*
X102315640Y-55702688D01*
X102363259Y-55893164D01*
X102458497Y-55988402D01*
X102553735Y-56036021D01*
X102744212Y-56036021D01*
X102839450Y-55988402D01*
X102934688Y-55893164D01*
X102982307Y-55702688D01*
X102982307Y-55369354D01*
X102934688Y-55178878D01*
X102839450Y-55083640D01*
X102744212Y-55036021D01*
X101315640Y-56036021D02*
X101648974Y-55559830D01*
X101887069Y-56036021D02*
X101887069Y-55036021D01*
X101506116Y-55036021D01*
X101410878Y-55083640D01*
X101363259Y-55131259D01*
X101315640Y-55226497D01*
X101315640Y-55369354D01*
X101363259Y-55464592D01*
X101410878Y-55512211D01*
X101506116Y-55559830D01*
X101887069Y-55559830D01*
X99836219Y-53771659D02*
X99788600Y-53676421D01*
X99693362Y-53581183D01*
X99550505Y-53438326D01*
X99502886Y-53343087D01*
X99502886Y-53247849D01*
X99740981Y-53295468D02*
X99693362Y-53200230D01*
X99598124Y-53104992D01*
X99407648Y-53057373D01*
X99074314Y-53057373D01*
X98883838Y-53104992D01*
X98788600Y-53200230D01*
X98740981Y-53295468D01*
X98740981Y-53485945D01*
X98788600Y-53581183D01*
X98883838Y-53676421D01*
X99074314Y-53724040D01*
X99407648Y-53724040D01*
X99598124Y-53676421D01*
X99693362Y-53581183D01*
X99740981Y-53485945D01*
X99740981Y-53295468D01*
X99836219Y-53914516D02*
X99836219Y-54676421D01*
X99740981Y-54914516D02*
X98740981Y-54914516D01*
X99740981Y-55485945D01*
X98740981Y-55485945D01*
X99740981Y-55962135D02*
X98740981Y-55962135D01*
X99455267Y-56295469D01*
X98740981Y-56628802D01*
X99740981Y-56628802D01*
X98740981Y-57295468D02*
X98740981Y-57485945D01*
X98788600Y-57581183D01*
X98883838Y-57676421D01*
X99074314Y-57724040D01*
X99407648Y-57724040D01*
X99598124Y-57676421D01*
X99693362Y-57581183D01*
X99740981Y-57485945D01*
X99740981Y-57295468D01*
X99693362Y-57200230D01*
X99598124Y-57104992D01*
X99407648Y-57057373D01*
X99074314Y-57057373D01*
X98883838Y-57104992D01*
X98788600Y-57200230D01*
X98740981Y-57295468D01*
X99693362Y-58104992D02*
X99740981Y-58247849D01*
X99740981Y-58485945D01*
X99693362Y-58581183D01*
X99645743Y-58628802D01*
X99550505Y-58676421D01*
X99455267Y-58676421D01*
X99360029Y-58628802D01*
X99312410Y-58581183D01*
X99264790Y-58485945D01*
X99217171Y-58295468D01*
X99169552Y-58200230D01*
X99121933Y-58152611D01*
X99026695Y-58104992D01*
X98931457Y-58104992D01*
X98836219Y-58152611D01*
X98788600Y-58200230D01*
X98740981Y-58295468D01*
X98740981Y-58533564D01*
X98788600Y-58676421D01*
X99836219Y-58866897D02*
X99836219Y-59628802D01*
X98788600Y-60390707D02*
X98740981Y-60295469D01*
X98740981Y-60152612D01*
X98788600Y-60009754D01*
X98883838Y-59914516D01*
X98979076Y-59866897D01*
X99169552Y-59819278D01*
X99312410Y-59819278D01*
X99502886Y-59866897D01*
X99598124Y-59914516D01*
X99693362Y-60009754D01*
X99740981Y-60152612D01*
X99740981Y-60247850D01*
X99693362Y-60390707D01*
X99645743Y-60438326D01*
X99312410Y-60438326D01*
X99312410Y-60247850D01*
X99740981Y-60866897D02*
X98740981Y-60866897D01*
X98740981Y-61104992D01*
X98788600Y-61247850D01*
X98883838Y-61343088D01*
X98979076Y-61390707D01*
X99169552Y-61438326D01*
X99312410Y-61438326D01*
X99502886Y-61390707D01*
X99598124Y-61343088D01*
X99693362Y-61247850D01*
X99740981Y-61104992D01*
X99740981Y-60866897D01*
X99693362Y-61819278D02*
X99740981Y-61962135D01*
X99740981Y-62200231D01*
X99693362Y-62295469D01*
X99645743Y-62343088D01*
X99550505Y-62390707D01*
X99455267Y-62390707D01*
X99360029Y-62343088D01*
X99312410Y-62295469D01*
X99264790Y-62200231D01*
X99217171Y-62009754D01*
X99169552Y-61914516D01*
X99121933Y-61866897D01*
X99026695Y-61819278D01*
X98931457Y-61819278D01*
X98836219Y-61866897D01*
X98788600Y-61914516D01*
X98740981Y-62009754D01*
X98740981Y-62247850D01*
X98788600Y-62390707D01*
X138635691Y-47508479D02*
X138588072Y-47460860D01*
X138492834Y-47413241D01*
X138254738Y-47413241D01*
X138159500Y-47460860D01*
X138111881Y-47508479D01*
X138064262Y-47603717D01*
X138064262Y-47698955D01*
X138111881Y-47841812D01*
X138683310Y-48413241D01*
X138064262Y-48413241D01*
X137635691Y-48318003D02*
X137588072Y-48365622D01*
X137635691Y-48413241D01*
X137683310Y-48365622D01*
X137635691Y-48318003D01*
X137635691Y-48413241D01*
X137207120Y-47508479D02*
X137159501Y-47460860D01*
X137064263Y-47413241D01*
X136826167Y-47413241D01*
X136730929Y-47460860D01*
X136683310Y-47508479D01*
X136635691Y-47603717D01*
X136635691Y-47698955D01*
X136683310Y-47841812D01*
X137254739Y-48413241D01*
X136635691Y-48413241D01*
X135635691Y-48413241D02*
X135969025Y-47937050D01*
X136207120Y-48413241D02*
X136207120Y-47413241D01*
X135826167Y-47413241D01*
X135730929Y-47460860D01*
X135683310Y-47508479D01*
X135635691Y-47603717D01*
X135635691Y-47746574D01*
X135683310Y-47841812D01*
X135730929Y-47889431D01*
X135826167Y-47937050D01*
X136207120Y-47937050D01*
X133921405Y-48413241D02*
X134492834Y-48413241D01*
X134207120Y-48413241D02*
X134207120Y-47413241D01*
X134302358Y-47556098D01*
X134397596Y-47651336D01*
X134492834Y-47698955D01*
X133540453Y-48413241D02*
X132778548Y-47413241D01*
X133397596Y-47413241D02*
X133302358Y-47460860D01*
X133254739Y-47556098D01*
X133302358Y-47651336D01*
X133397596Y-47698955D01*
X133492834Y-47651336D01*
X133540453Y-47556098D01*
X133492834Y-47460860D01*
X133397596Y-47413241D01*
X132826167Y-48365622D02*
X132778548Y-48270384D01*
X132826167Y-48175146D01*
X132921405Y-48127527D01*
X133016643Y-48175146D01*
X133064262Y-48270384D01*
X133016643Y-48365622D01*
X132921405Y-48413241D01*
X132826167Y-48365622D01*
M02*
