G04 #@! TF.FileFunction,Profile,NP*
%FSLAX46Y46*%
G04 Gerber Fmt 4.6, Leading zero omitted, Abs format (unit mm)*
G04 Created by KiCad (PCBNEW 4.0.6) date Wed Aug 30 21:06:07 2017*
%MOMM*%
%LPD*%
G01*
G04 APERTURE LIST*
%ADD10C,0.100000*%
%ADD11C,0.152400*%
G04 APERTURE END LIST*
D10*
D11*
X143728120Y-89316160D02*
X143948120Y-89316160D01*
X133028120Y-32126160D02*
X144008120Y-32126160D01*
X132588120Y-89326160D02*
X143768120Y-89326160D01*
X146528450Y-37410160D02*
G75*
G03X146528450Y-37410160I-3635330J0D01*
G01*
X148168120Y-35660160D02*
X148168120Y-35810160D01*
X148168120Y-85610160D02*
X148168120Y-35810160D01*
X66817240Y-89329260D02*
X133050280Y-89329260D01*
X68038980Y-32125920D02*
X133075680Y-32125920D01*
X69392800Y-72059800D02*
X70810120Y-72059800D01*
X69311520Y-48681640D02*
X70812660Y-48681640D01*
X73658450Y-37376160D02*
G75*
G03X73658450Y-37376160I-3635330J0D01*
G01*
X73533450Y-84276160D02*
G75*
G03X73533450Y-84276160I-3635330J0D01*
G01*
X64773120Y-34001160D02*
X64773120Y-87176160D01*
X66748120Y-32126160D02*
X68198120Y-32126160D01*
X66698120Y-32126160D02*
G75*
G03X64773120Y-34001160I-25000J-1900000D01*
G01*
X64773120Y-87226160D02*
G75*
G03X66823120Y-89326160I2075000J-25000D01*
G01*
X143917420Y-89309600D02*
G75*
G03X148167420Y-85559600I250000J4000000D01*
G01*
X148166420Y-35676020D02*
G75*
G03X143896420Y-32126020I-3910000J-360000D01*
G01*
X66846120Y-72050160D02*
X69386120Y-72050160D01*
X66846120Y-48682160D02*
X66846120Y-72050160D01*
X69386120Y-48682160D02*
X66846120Y-48682160D01*
X70808520Y-72131440D02*
X70808520Y-48763440D01*
M02*
