G04 #@! TF.FileFunction,Other,Fab,Top*
%FSLAX46Y46*%
G04 Gerber Fmt 4.6, Leading zero omitted, Abs format (unit mm)*
G04 Created by KiCad (PCBNEW 4.0.6) date Wed Aug 30 21:06:07 2017*
%MOMM*%
%LPD*%
G01*
G04 APERTURE LIST*
%ADD10C,0.100000*%
%ADD11C,0.050800*%
%ADD12C,0.040640*%
%ADD13C,0.050000*%
%ADD14C,0.254000*%
%ADD15C,0.150000*%
G04 APERTURE END LIST*
D10*
D11*
X135520120Y-32766160D02*
X135520120Y-42766160D01*
X126020120Y-32766160D02*
X135520120Y-32766160D01*
X126020120Y-42766160D02*
X126020120Y-32766160D01*
X135520120Y-42766160D02*
X126020120Y-42766160D01*
D12*
X76881840Y-51004800D02*
X80731840Y-51004800D01*
X76881840Y-51004800D02*
X76881840Y-70154800D01*
X76881840Y-70154800D02*
X80731840Y-70154800D01*
X80731840Y-70154800D02*
X80731840Y-51004800D01*
D13*
X117408120Y-46106160D02*
X117408120Y-44106160D01*
X112908120Y-46106160D02*
X117408120Y-46106160D01*
X112908120Y-44106160D02*
X112908120Y-46106160D01*
X105908120Y-79606160D02*
X123908120Y-79606160D01*
X105908120Y-44106160D02*
X105908120Y-79606160D01*
X123908120Y-44106160D02*
X105908120Y-44106160D01*
X123908120Y-79606160D02*
X123908120Y-44106160D01*
D14*
X129947644Y-37371017D02*
X130237930Y-37467779D01*
X130334691Y-37564541D01*
X130431453Y-37758065D01*
X130431453Y-38048350D01*
X130334691Y-38241874D01*
X130237930Y-38338636D01*
X130044406Y-38435398D01*
X129270311Y-38435398D01*
X129270311Y-36403398D01*
X129947644Y-36403398D01*
X130141168Y-36500160D01*
X130237930Y-36596922D01*
X130334691Y-36790446D01*
X130334691Y-36983970D01*
X130237930Y-37177493D01*
X130141168Y-37274255D01*
X129947644Y-37371017D01*
X129270311Y-37371017D01*
X132366691Y-38435398D02*
X131205549Y-38435398D01*
X131786120Y-38435398D02*
X131786120Y-36403398D01*
X131592596Y-36693684D01*
X131399072Y-36887208D01*
X131205549Y-36983970D01*
D15*
X77984221Y-61188133D02*
X78698507Y-61188133D01*
X78841364Y-61235753D01*
X78936602Y-61330991D01*
X78984221Y-61473848D01*
X78984221Y-61569086D01*
X78079459Y-60759562D02*
X78031840Y-60711943D01*
X77984221Y-60616705D01*
X77984221Y-60378609D01*
X78031840Y-60283371D01*
X78079459Y-60235752D01*
X78174697Y-60188133D01*
X78269935Y-60188133D01*
X78412792Y-60235752D01*
X78984221Y-60807181D01*
X78984221Y-60188133D01*
X81680025Y-68853303D02*
X81632406Y-68900922D01*
X81489549Y-68948541D01*
X81394311Y-68948541D01*
X81251453Y-68900922D01*
X81156215Y-68805684D01*
X81108596Y-68710446D01*
X81060977Y-68519970D01*
X81060977Y-68377112D01*
X81108596Y-68186636D01*
X81156215Y-68091398D01*
X81251453Y-67996160D01*
X81394311Y-67948541D01*
X81489549Y-67948541D01*
X81632406Y-67996160D01*
X81680025Y-68043779D01*
X82060977Y-68662827D02*
X82537168Y-68662827D01*
X81965739Y-68948541D02*
X82299072Y-67948541D01*
X82632406Y-68948541D01*
X82965739Y-68948541D02*
X82965739Y-67948541D01*
X83346692Y-67948541D01*
X83441930Y-67996160D01*
X83489549Y-68043779D01*
X83537168Y-68139017D01*
X83537168Y-68281874D01*
X83489549Y-68377112D01*
X83441930Y-68424731D01*
X83346692Y-68472350D01*
X82965739Y-68472350D01*
X83965739Y-68567589D02*
X84727644Y-68567589D01*
X85775263Y-68853303D02*
X85727644Y-68900922D01*
X85584787Y-68948541D01*
X85489549Y-68948541D01*
X85346691Y-68900922D01*
X85251453Y-68805684D01*
X85203834Y-68710446D01*
X85156215Y-68519970D01*
X85156215Y-68377112D01*
X85203834Y-68186636D01*
X85251453Y-68091398D01*
X85346691Y-67996160D01*
X85489549Y-67948541D01*
X85584787Y-67948541D01*
X85727644Y-67996160D01*
X85775263Y-68043779D01*
X86203834Y-68424731D02*
X86537168Y-68424731D01*
X86680025Y-68948541D02*
X86203834Y-68948541D01*
X86203834Y-67948541D01*
X86680025Y-67948541D01*
X87680025Y-68948541D02*
X87346691Y-68472350D01*
X87108596Y-68948541D02*
X87108596Y-67948541D01*
X87489549Y-67948541D01*
X87584787Y-67996160D01*
X87632406Y-68043779D01*
X87680025Y-68139017D01*
X87680025Y-68281874D01*
X87632406Y-68377112D01*
X87584787Y-68424731D01*
X87489549Y-68472350D01*
X87108596Y-68472350D01*
X88108596Y-68567589D02*
X88870501Y-68567589D01*
X89870501Y-68948541D02*
X89299072Y-68948541D01*
X89584786Y-68948541D02*
X89584786Y-67948541D01*
X89489548Y-68091398D01*
X89394310Y-68186636D01*
X89299072Y-68234255D01*
X90299072Y-67948541D02*
X90299072Y-68758065D01*
X90346691Y-68853303D01*
X90394310Y-68900922D01*
X90489548Y-68948541D01*
X90680025Y-68948541D01*
X90775263Y-68900922D01*
X90822882Y-68853303D01*
X90870501Y-68758065D01*
X90870501Y-67948541D01*
X91680025Y-68424731D02*
X91346691Y-68424731D01*
X91346691Y-68948541D02*
X91346691Y-67948541D01*
X91822882Y-67948541D01*
X101136025Y-43015303D02*
X101088406Y-43062922D01*
X100945549Y-43110541D01*
X100850311Y-43110541D01*
X100707453Y-43062922D01*
X100612215Y-42967684D01*
X100564596Y-42872446D01*
X100516977Y-42681970D01*
X100516977Y-42539112D01*
X100564596Y-42348636D01*
X100612215Y-42253398D01*
X100707453Y-42158160D01*
X100850311Y-42110541D01*
X100945549Y-42110541D01*
X101088406Y-42158160D01*
X101136025Y-42205779D01*
X101516977Y-42824827D02*
X101993168Y-42824827D01*
X101421739Y-43110541D02*
X101755072Y-42110541D01*
X102088406Y-43110541D01*
X102421739Y-43110541D02*
X102421739Y-42110541D01*
X102802692Y-42110541D01*
X102897930Y-42158160D01*
X102945549Y-42205779D01*
X102993168Y-42301017D01*
X102993168Y-42443874D01*
X102945549Y-42539112D01*
X102897930Y-42586731D01*
X102802692Y-42634350D01*
X102421739Y-42634350D01*
X103421739Y-42729589D02*
X104183644Y-42729589D01*
X105231263Y-43015303D02*
X105183644Y-43062922D01*
X105040787Y-43110541D01*
X104945549Y-43110541D01*
X104802691Y-43062922D01*
X104707453Y-42967684D01*
X104659834Y-42872446D01*
X104612215Y-42681970D01*
X104612215Y-42539112D01*
X104659834Y-42348636D01*
X104707453Y-42253398D01*
X104802691Y-42158160D01*
X104945549Y-42110541D01*
X105040787Y-42110541D01*
X105183644Y-42158160D01*
X105231263Y-42205779D01*
X105659834Y-42586731D02*
X105993168Y-42586731D01*
X106136025Y-43110541D02*
X105659834Y-43110541D01*
X105659834Y-42110541D01*
X106136025Y-42110541D01*
X107136025Y-43110541D02*
X106802691Y-42634350D01*
X106564596Y-43110541D02*
X106564596Y-42110541D01*
X106945549Y-42110541D01*
X107040787Y-42158160D01*
X107088406Y-42205779D01*
X107136025Y-42301017D01*
X107136025Y-42443874D01*
X107088406Y-42539112D01*
X107040787Y-42586731D01*
X106945549Y-42634350D01*
X106564596Y-42634350D01*
X107564596Y-42729589D02*
X108326501Y-42729589D01*
X109326501Y-43110541D02*
X108755072Y-43110541D01*
X109040786Y-43110541D02*
X109040786Y-42110541D01*
X108945548Y-42253398D01*
X108850310Y-42348636D01*
X108755072Y-42396255D01*
X109755072Y-42110541D02*
X109755072Y-42920065D01*
X109802691Y-43015303D01*
X109850310Y-43062922D01*
X109945548Y-43110541D01*
X110136025Y-43110541D01*
X110231263Y-43062922D01*
X110278882Y-43015303D01*
X110326501Y-42920065D01*
X110326501Y-42110541D01*
X111136025Y-42586731D02*
X110802691Y-42586731D01*
X110802691Y-43110541D02*
X110802691Y-42110541D01*
X111278882Y-42110541D01*
X74864960Y-85690403D02*
X74817341Y-85738022D01*
X74674484Y-85785641D01*
X74579246Y-85785641D01*
X74436388Y-85738022D01*
X74341150Y-85642784D01*
X74293531Y-85547546D01*
X74245912Y-85357070D01*
X74245912Y-85214212D01*
X74293531Y-85023736D01*
X74341150Y-84928498D01*
X74436388Y-84833260D01*
X74579246Y-84785641D01*
X74674484Y-84785641D01*
X74817341Y-84833260D01*
X74864960Y-84880879D01*
X75245912Y-85499927D02*
X75722103Y-85499927D01*
X75150674Y-85785641D02*
X75484007Y-84785641D01*
X75817341Y-85785641D01*
X76150674Y-85785641D02*
X76150674Y-84785641D01*
X76531627Y-84785641D01*
X76626865Y-84833260D01*
X76674484Y-84880879D01*
X76722103Y-84976117D01*
X76722103Y-85118974D01*
X76674484Y-85214212D01*
X76626865Y-85261831D01*
X76531627Y-85309450D01*
X76150674Y-85309450D01*
X77150674Y-85404689D02*
X77912579Y-85404689D01*
X78960198Y-85690403D02*
X78912579Y-85738022D01*
X78769722Y-85785641D01*
X78674484Y-85785641D01*
X78531626Y-85738022D01*
X78436388Y-85642784D01*
X78388769Y-85547546D01*
X78341150Y-85357070D01*
X78341150Y-85214212D01*
X78388769Y-85023736D01*
X78436388Y-84928498D01*
X78531626Y-84833260D01*
X78674484Y-84785641D01*
X78769722Y-84785641D01*
X78912579Y-84833260D01*
X78960198Y-84880879D01*
X79388769Y-85261831D02*
X79722103Y-85261831D01*
X79864960Y-85785641D02*
X79388769Y-85785641D01*
X79388769Y-84785641D01*
X79864960Y-84785641D01*
X80864960Y-85785641D02*
X80531626Y-85309450D01*
X80293531Y-85785641D02*
X80293531Y-84785641D01*
X80674484Y-84785641D01*
X80769722Y-84833260D01*
X80817341Y-84880879D01*
X80864960Y-84976117D01*
X80864960Y-85118974D01*
X80817341Y-85214212D01*
X80769722Y-85261831D01*
X80674484Y-85309450D01*
X80293531Y-85309450D01*
X81293531Y-85404689D02*
X82055436Y-85404689D01*
X82484007Y-84880879D02*
X82531626Y-84833260D01*
X82626864Y-84785641D01*
X82864960Y-84785641D01*
X82960198Y-84833260D01*
X83007817Y-84880879D01*
X83055436Y-84976117D01*
X83055436Y-85071355D01*
X83007817Y-85214212D01*
X82436388Y-85785641D01*
X83055436Y-85785641D01*
X83484007Y-85690403D02*
X83531626Y-85738022D01*
X83484007Y-85785641D01*
X83436388Y-85738022D01*
X83484007Y-85690403D01*
X83484007Y-85785641D01*
X83912578Y-84880879D02*
X83960197Y-84833260D01*
X84055435Y-84785641D01*
X84293531Y-84785641D01*
X84388769Y-84833260D01*
X84436388Y-84880879D01*
X84484007Y-84976117D01*
X84484007Y-85071355D01*
X84436388Y-85214212D01*
X83864959Y-85785641D01*
X84484007Y-85785641D01*
X84912578Y-84785641D02*
X84912578Y-85595165D01*
X84960197Y-85690403D01*
X85007816Y-85738022D01*
X85103054Y-85785641D01*
X85293531Y-85785641D01*
X85388769Y-85738022D01*
X85436388Y-85690403D01*
X85484007Y-85595165D01*
X85484007Y-84785641D01*
X86293531Y-85261831D02*
X85960197Y-85261831D01*
X85960197Y-85785641D02*
X85960197Y-84785641D01*
X86436388Y-84785641D01*
X82200025Y-74063303D02*
X82152406Y-74110922D01*
X82009549Y-74158541D01*
X81914311Y-74158541D01*
X81771453Y-74110922D01*
X81676215Y-74015684D01*
X81628596Y-73920446D01*
X81580977Y-73729970D01*
X81580977Y-73587112D01*
X81628596Y-73396636D01*
X81676215Y-73301398D01*
X81771453Y-73206160D01*
X81914311Y-73158541D01*
X82009549Y-73158541D01*
X82152406Y-73206160D01*
X82200025Y-73253779D01*
X82580977Y-73872827D02*
X83057168Y-73872827D01*
X82485739Y-74158541D02*
X82819072Y-73158541D01*
X83152406Y-74158541D01*
X83485739Y-74158541D02*
X83485739Y-73158541D01*
X83866692Y-73158541D01*
X83961930Y-73206160D01*
X84009549Y-73253779D01*
X84057168Y-73349017D01*
X84057168Y-73491874D01*
X84009549Y-73587112D01*
X83961930Y-73634731D01*
X83866692Y-73682350D01*
X83485739Y-73682350D01*
X84485739Y-73777589D02*
X85247644Y-73777589D01*
X86295263Y-74063303D02*
X86247644Y-74110922D01*
X86104787Y-74158541D01*
X86009549Y-74158541D01*
X85866691Y-74110922D01*
X85771453Y-74015684D01*
X85723834Y-73920446D01*
X85676215Y-73729970D01*
X85676215Y-73587112D01*
X85723834Y-73396636D01*
X85771453Y-73301398D01*
X85866691Y-73206160D01*
X86009549Y-73158541D01*
X86104787Y-73158541D01*
X86247644Y-73206160D01*
X86295263Y-73253779D01*
X86723834Y-73634731D02*
X87057168Y-73634731D01*
X87200025Y-74158541D02*
X86723834Y-74158541D01*
X86723834Y-73158541D01*
X87200025Y-73158541D01*
X88200025Y-74158541D02*
X87866691Y-73682350D01*
X87628596Y-74158541D02*
X87628596Y-73158541D01*
X88009549Y-73158541D01*
X88104787Y-73206160D01*
X88152406Y-73253779D01*
X88200025Y-73349017D01*
X88200025Y-73491874D01*
X88152406Y-73587112D01*
X88104787Y-73634731D01*
X88009549Y-73682350D01*
X87628596Y-73682350D01*
X88628596Y-73777589D02*
X89390501Y-73777589D01*
X90390501Y-74158541D02*
X89819072Y-74158541D01*
X90104786Y-74158541D02*
X90104786Y-73158541D01*
X90009548Y-73301398D01*
X89914310Y-73396636D01*
X89819072Y-73444255D01*
X90819072Y-73158541D02*
X90819072Y-73968065D01*
X90866691Y-74063303D01*
X90914310Y-74110922D01*
X91009548Y-74158541D01*
X91200025Y-74158541D01*
X91295263Y-74110922D01*
X91342882Y-74063303D01*
X91390501Y-73968065D01*
X91390501Y-73158541D01*
X92200025Y-73634731D02*
X91866691Y-73634731D01*
X91866691Y-74158541D02*
X91866691Y-73158541D01*
X92342882Y-73158541D01*
X92560025Y-36383303D02*
X92512406Y-36430922D01*
X92369549Y-36478541D01*
X92274311Y-36478541D01*
X92131453Y-36430922D01*
X92036215Y-36335684D01*
X91988596Y-36240446D01*
X91940977Y-36049970D01*
X91940977Y-35907112D01*
X91988596Y-35716636D01*
X92036215Y-35621398D01*
X92131453Y-35526160D01*
X92274311Y-35478541D01*
X92369549Y-35478541D01*
X92512406Y-35526160D01*
X92560025Y-35573779D01*
X92940977Y-36192827D02*
X93417168Y-36192827D01*
X92845739Y-36478541D02*
X93179072Y-35478541D01*
X93512406Y-36478541D01*
X93845739Y-36478541D02*
X93845739Y-35478541D01*
X94226692Y-35478541D01*
X94321930Y-35526160D01*
X94369549Y-35573779D01*
X94417168Y-35669017D01*
X94417168Y-35811874D01*
X94369549Y-35907112D01*
X94321930Y-35954731D01*
X94226692Y-36002350D01*
X93845739Y-36002350D01*
X94845739Y-36097589D02*
X95607644Y-36097589D01*
X96655263Y-36383303D02*
X96607644Y-36430922D01*
X96464787Y-36478541D01*
X96369549Y-36478541D01*
X96226691Y-36430922D01*
X96131453Y-36335684D01*
X96083834Y-36240446D01*
X96036215Y-36049970D01*
X96036215Y-35907112D01*
X96083834Y-35716636D01*
X96131453Y-35621398D01*
X96226691Y-35526160D01*
X96369549Y-35478541D01*
X96464787Y-35478541D01*
X96607644Y-35526160D01*
X96655263Y-35573779D01*
X97083834Y-35954731D02*
X97417168Y-35954731D01*
X97560025Y-36478541D02*
X97083834Y-36478541D01*
X97083834Y-35478541D01*
X97560025Y-35478541D01*
X98560025Y-36478541D02*
X98226691Y-36002350D01*
X97988596Y-36478541D02*
X97988596Y-35478541D01*
X98369549Y-35478541D01*
X98464787Y-35526160D01*
X98512406Y-35573779D01*
X98560025Y-35669017D01*
X98560025Y-35811874D01*
X98512406Y-35907112D01*
X98464787Y-35954731D01*
X98369549Y-36002350D01*
X97988596Y-36002350D01*
X98988596Y-36097589D02*
X99750501Y-36097589D01*
X100750501Y-36478541D02*
X100179072Y-36478541D01*
X100464786Y-36478541D02*
X100464786Y-35478541D01*
X100369548Y-35621398D01*
X100274310Y-35716636D01*
X100179072Y-35764255D01*
X101179072Y-35478541D02*
X101179072Y-36288065D01*
X101226691Y-36383303D01*
X101274310Y-36430922D01*
X101369548Y-36478541D01*
X101560025Y-36478541D01*
X101655263Y-36430922D01*
X101702882Y-36383303D01*
X101750501Y-36288065D01*
X101750501Y-35478541D01*
X102560025Y-35954731D02*
X102226691Y-35954731D01*
X102226691Y-36478541D02*
X102226691Y-35478541D01*
X102702882Y-35478541D01*
X92560025Y-49033303D02*
X92512406Y-49080922D01*
X92369549Y-49128541D01*
X92274311Y-49128541D01*
X92131453Y-49080922D01*
X92036215Y-48985684D01*
X91988596Y-48890446D01*
X91940977Y-48699970D01*
X91940977Y-48557112D01*
X91988596Y-48366636D01*
X92036215Y-48271398D01*
X92131453Y-48176160D01*
X92274311Y-48128541D01*
X92369549Y-48128541D01*
X92512406Y-48176160D01*
X92560025Y-48223779D01*
X92940977Y-48842827D02*
X93417168Y-48842827D01*
X92845739Y-49128541D02*
X93179072Y-48128541D01*
X93512406Y-49128541D01*
X93845739Y-49128541D02*
X93845739Y-48128541D01*
X94226692Y-48128541D01*
X94321930Y-48176160D01*
X94369549Y-48223779D01*
X94417168Y-48319017D01*
X94417168Y-48461874D01*
X94369549Y-48557112D01*
X94321930Y-48604731D01*
X94226692Y-48652350D01*
X93845739Y-48652350D01*
X94845739Y-48747589D02*
X95607644Y-48747589D01*
X96655263Y-49033303D02*
X96607644Y-49080922D01*
X96464787Y-49128541D01*
X96369549Y-49128541D01*
X96226691Y-49080922D01*
X96131453Y-48985684D01*
X96083834Y-48890446D01*
X96036215Y-48699970D01*
X96036215Y-48557112D01*
X96083834Y-48366636D01*
X96131453Y-48271398D01*
X96226691Y-48176160D01*
X96369549Y-48128541D01*
X96464787Y-48128541D01*
X96607644Y-48176160D01*
X96655263Y-48223779D01*
X97083834Y-48604731D02*
X97417168Y-48604731D01*
X97560025Y-49128541D02*
X97083834Y-49128541D01*
X97083834Y-48128541D01*
X97560025Y-48128541D01*
X98560025Y-49128541D02*
X98226691Y-48652350D01*
X97988596Y-49128541D02*
X97988596Y-48128541D01*
X98369549Y-48128541D01*
X98464787Y-48176160D01*
X98512406Y-48223779D01*
X98560025Y-48319017D01*
X98560025Y-48461874D01*
X98512406Y-48557112D01*
X98464787Y-48604731D01*
X98369549Y-48652350D01*
X97988596Y-48652350D01*
X98988596Y-48747589D02*
X99750501Y-48747589D01*
X100750501Y-49128541D02*
X100179072Y-49128541D01*
X100464786Y-49128541D02*
X100464786Y-48128541D01*
X100369548Y-48271398D01*
X100274310Y-48366636D01*
X100179072Y-48414255D01*
X101179072Y-48128541D02*
X101179072Y-48938065D01*
X101226691Y-49033303D01*
X101274310Y-49080922D01*
X101369548Y-49128541D01*
X101560025Y-49128541D01*
X101655263Y-49080922D01*
X101702882Y-49033303D01*
X101750501Y-48938065D01*
X101750501Y-48128541D01*
X102560025Y-48604731D02*
X102226691Y-48604731D01*
X102226691Y-49128541D02*
X102226691Y-48128541D01*
X102702882Y-48128541D01*
X92560025Y-45833303D02*
X92512406Y-45880922D01*
X92369549Y-45928541D01*
X92274311Y-45928541D01*
X92131453Y-45880922D01*
X92036215Y-45785684D01*
X91988596Y-45690446D01*
X91940977Y-45499970D01*
X91940977Y-45357112D01*
X91988596Y-45166636D01*
X92036215Y-45071398D01*
X92131453Y-44976160D01*
X92274311Y-44928541D01*
X92369549Y-44928541D01*
X92512406Y-44976160D01*
X92560025Y-45023779D01*
X92940977Y-45642827D02*
X93417168Y-45642827D01*
X92845739Y-45928541D02*
X93179072Y-44928541D01*
X93512406Y-45928541D01*
X93845739Y-45928541D02*
X93845739Y-44928541D01*
X94226692Y-44928541D01*
X94321930Y-44976160D01*
X94369549Y-45023779D01*
X94417168Y-45119017D01*
X94417168Y-45261874D01*
X94369549Y-45357112D01*
X94321930Y-45404731D01*
X94226692Y-45452350D01*
X93845739Y-45452350D01*
X94845739Y-45547589D02*
X95607644Y-45547589D01*
X96655263Y-45833303D02*
X96607644Y-45880922D01*
X96464787Y-45928541D01*
X96369549Y-45928541D01*
X96226691Y-45880922D01*
X96131453Y-45785684D01*
X96083834Y-45690446D01*
X96036215Y-45499970D01*
X96036215Y-45357112D01*
X96083834Y-45166636D01*
X96131453Y-45071398D01*
X96226691Y-44976160D01*
X96369549Y-44928541D01*
X96464787Y-44928541D01*
X96607644Y-44976160D01*
X96655263Y-45023779D01*
X97083834Y-45404731D02*
X97417168Y-45404731D01*
X97560025Y-45928541D02*
X97083834Y-45928541D01*
X97083834Y-44928541D01*
X97560025Y-44928541D01*
X98560025Y-45928541D02*
X98226691Y-45452350D01*
X97988596Y-45928541D02*
X97988596Y-44928541D01*
X98369549Y-44928541D01*
X98464787Y-44976160D01*
X98512406Y-45023779D01*
X98560025Y-45119017D01*
X98560025Y-45261874D01*
X98512406Y-45357112D01*
X98464787Y-45404731D01*
X98369549Y-45452350D01*
X97988596Y-45452350D01*
X98988596Y-45547589D02*
X99750501Y-45547589D01*
X100750501Y-45928541D02*
X100179072Y-45928541D01*
X100464786Y-45928541D02*
X100464786Y-44928541D01*
X100369548Y-45071398D01*
X100274310Y-45166636D01*
X100179072Y-45214255D01*
X101179072Y-44928541D02*
X101179072Y-45738065D01*
X101226691Y-45833303D01*
X101274310Y-45880922D01*
X101369548Y-45928541D01*
X101560025Y-45928541D01*
X101655263Y-45880922D01*
X101702882Y-45833303D01*
X101750501Y-45738065D01*
X101750501Y-44928541D01*
X102560025Y-45404731D02*
X102226691Y-45404731D01*
X102226691Y-45928541D02*
X102226691Y-44928541D01*
X102702882Y-44928541D01*
X92560025Y-42583303D02*
X92512406Y-42630922D01*
X92369549Y-42678541D01*
X92274311Y-42678541D01*
X92131453Y-42630922D01*
X92036215Y-42535684D01*
X91988596Y-42440446D01*
X91940977Y-42249970D01*
X91940977Y-42107112D01*
X91988596Y-41916636D01*
X92036215Y-41821398D01*
X92131453Y-41726160D01*
X92274311Y-41678541D01*
X92369549Y-41678541D01*
X92512406Y-41726160D01*
X92560025Y-41773779D01*
X92940977Y-42392827D02*
X93417168Y-42392827D01*
X92845739Y-42678541D02*
X93179072Y-41678541D01*
X93512406Y-42678541D01*
X93845739Y-42678541D02*
X93845739Y-41678541D01*
X94226692Y-41678541D01*
X94321930Y-41726160D01*
X94369549Y-41773779D01*
X94417168Y-41869017D01*
X94417168Y-42011874D01*
X94369549Y-42107112D01*
X94321930Y-42154731D01*
X94226692Y-42202350D01*
X93845739Y-42202350D01*
X94845739Y-42297589D02*
X95607644Y-42297589D01*
X96655263Y-42583303D02*
X96607644Y-42630922D01*
X96464787Y-42678541D01*
X96369549Y-42678541D01*
X96226691Y-42630922D01*
X96131453Y-42535684D01*
X96083834Y-42440446D01*
X96036215Y-42249970D01*
X96036215Y-42107112D01*
X96083834Y-41916636D01*
X96131453Y-41821398D01*
X96226691Y-41726160D01*
X96369549Y-41678541D01*
X96464787Y-41678541D01*
X96607644Y-41726160D01*
X96655263Y-41773779D01*
X97083834Y-42154731D02*
X97417168Y-42154731D01*
X97560025Y-42678541D02*
X97083834Y-42678541D01*
X97083834Y-41678541D01*
X97560025Y-41678541D01*
X98560025Y-42678541D02*
X98226691Y-42202350D01*
X97988596Y-42678541D02*
X97988596Y-41678541D01*
X98369549Y-41678541D01*
X98464787Y-41726160D01*
X98512406Y-41773779D01*
X98560025Y-41869017D01*
X98560025Y-42011874D01*
X98512406Y-42107112D01*
X98464787Y-42154731D01*
X98369549Y-42202350D01*
X97988596Y-42202350D01*
X98988596Y-42297589D02*
X99750501Y-42297589D01*
X100750501Y-42678541D02*
X100179072Y-42678541D01*
X100464786Y-42678541D02*
X100464786Y-41678541D01*
X100369548Y-41821398D01*
X100274310Y-41916636D01*
X100179072Y-41964255D01*
X101179072Y-41678541D02*
X101179072Y-42488065D01*
X101226691Y-42583303D01*
X101274310Y-42630922D01*
X101369548Y-42678541D01*
X101560025Y-42678541D01*
X101655263Y-42630922D01*
X101702882Y-42583303D01*
X101750501Y-42488065D01*
X101750501Y-41678541D01*
X102560025Y-42154731D02*
X102226691Y-42154731D01*
X102226691Y-42678541D02*
X102226691Y-41678541D01*
X102702882Y-41678541D01*
X92560025Y-33483303D02*
X92512406Y-33530922D01*
X92369549Y-33578541D01*
X92274311Y-33578541D01*
X92131453Y-33530922D01*
X92036215Y-33435684D01*
X91988596Y-33340446D01*
X91940977Y-33149970D01*
X91940977Y-33007112D01*
X91988596Y-32816636D01*
X92036215Y-32721398D01*
X92131453Y-32626160D01*
X92274311Y-32578541D01*
X92369549Y-32578541D01*
X92512406Y-32626160D01*
X92560025Y-32673779D01*
X92940977Y-33292827D02*
X93417168Y-33292827D01*
X92845739Y-33578541D02*
X93179072Y-32578541D01*
X93512406Y-33578541D01*
X93845739Y-33578541D02*
X93845739Y-32578541D01*
X94226692Y-32578541D01*
X94321930Y-32626160D01*
X94369549Y-32673779D01*
X94417168Y-32769017D01*
X94417168Y-32911874D01*
X94369549Y-33007112D01*
X94321930Y-33054731D01*
X94226692Y-33102350D01*
X93845739Y-33102350D01*
X94845739Y-33197589D02*
X95607644Y-33197589D01*
X96655263Y-33483303D02*
X96607644Y-33530922D01*
X96464787Y-33578541D01*
X96369549Y-33578541D01*
X96226691Y-33530922D01*
X96131453Y-33435684D01*
X96083834Y-33340446D01*
X96036215Y-33149970D01*
X96036215Y-33007112D01*
X96083834Y-32816636D01*
X96131453Y-32721398D01*
X96226691Y-32626160D01*
X96369549Y-32578541D01*
X96464787Y-32578541D01*
X96607644Y-32626160D01*
X96655263Y-32673779D01*
X97083834Y-33054731D02*
X97417168Y-33054731D01*
X97560025Y-33578541D02*
X97083834Y-33578541D01*
X97083834Y-32578541D01*
X97560025Y-32578541D01*
X98560025Y-33578541D02*
X98226691Y-33102350D01*
X97988596Y-33578541D02*
X97988596Y-32578541D01*
X98369549Y-32578541D01*
X98464787Y-32626160D01*
X98512406Y-32673779D01*
X98560025Y-32769017D01*
X98560025Y-32911874D01*
X98512406Y-33007112D01*
X98464787Y-33054731D01*
X98369549Y-33102350D01*
X97988596Y-33102350D01*
X98988596Y-33197589D02*
X99750501Y-33197589D01*
X100750501Y-33578541D02*
X100179072Y-33578541D01*
X100464786Y-33578541D02*
X100464786Y-32578541D01*
X100369548Y-32721398D01*
X100274310Y-32816636D01*
X100179072Y-32864255D01*
X101179072Y-32578541D02*
X101179072Y-33388065D01*
X101226691Y-33483303D01*
X101274310Y-33530922D01*
X101369548Y-33578541D01*
X101560025Y-33578541D01*
X101655263Y-33530922D01*
X101702882Y-33483303D01*
X101750501Y-33388065D01*
X101750501Y-32578541D01*
X102560025Y-33054731D02*
X102226691Y-33054731D01*
X102226691Y-33578541D02*
X102226691Y-32578541D01*
X102702882Y-32578541D01*
X92560025Y-39333303D02*
X92512406Y-39380922D01*
X92369549Y-39428541D01*
X92274311Y-39428541D01*
X92131453Y-39380922D01*
X92036215Y-39285684D01*
X91988596Y-39190446D01*
X91940977Y-38999970D01*
X91940977Y-38857112D01*
X91988596Y-38666636D01*
X92036215Y-38571398D01*
X92131453Y-38476160D01*
X92274311Y-38428541D01*
X92369549Y-38428541D01*
X92512406Y-38476160D01*
X92560025Y-38523779D01*
X92940977Y-39142827D02*
X93417168Y-39142827D01*
X92845739Y-39428541D02*
X93179072Y-38428541D01*
X93512406Y-39428541D01*
X93845739Y-39428541D02*
X93845739Y-38428541D01*
X94226692Y-38428541D01*
X94321930Y-38476160D01*
X94369549Y-38523779D01*
X94417168Y-38619017D01*
X94417168Y-38761874D01*
X94369549Y-38857112D01*
X94321930Y-38904731D01*
X94226692Y-38952350D01*
X93845739Y-38952350D01*
X94845739Y-39047589D02*
X95607644Y-39047589D01*
X96655263Y-39333303D02*
X96607644Y-39380922D01*
X96464787Y-39428541D01*
X96369549Y-39428541D01*
X96226691Y-39380922D01*
X96131453Y-39285684D01*
X96083834Y-39190446D01*
X96036215Y-38999970D01*
X96036215Y-38857112D01*
X96083834Y-38666636D01*
X96131453Y-38571398D01*
X96226691Y-38476160D01*
X96369549Y-38428541D01*
X96464787Y-38428541D01*
X96607644Y-38476160D01*
X96655263Y-38523779D01*
X97083834Y-38904731D02*
X97417168Y-38904731D01*
X97560025Y-39428541D02*
X97083834Y-39428541D01*
X97083834Y-38428541D01*
X97560025Y-38428541D01*
X98560025Y-39428541D02*
X98226691Y-38952350D01*
X97988596Y-39428541D02*
X97988596Y-38428541D01*
X98369549Y-38428541D01*
X98464787Y-38476160D01*
X98512406Y-38523779D01*
X98560025Y-38619017D01*
X98560025Y-38761874D01*
X98512406Y-38857112D01*
X98464787Y-38904731D01*
X98369549Y-38952350D01*
X97988596Y-38952350D01*
X98988596Y-39047589D02*
X99750501Y-39047589D01*
X100750501Y-39428541D02*
X100179072Y-39428541D01*
X100464786Y-39428541D02*
X100464786Y-38428541D01*
X100369548Y-38571398D01*
X100274310Y-38666636D01*
X100179072Y-38714255D01*
X101179072Y-38428541D02*
X101179072Y-39238065D01*
X101226691Y-39333303D01*
X101274310Y-39380922D01*
X101369548Y-39428541D01*
X101560025Y-39428541D01*
X101655263Y-39380922D01*
X101702882Y-39333303D01*
X101750501Y-39238065D01*
X101750501Y-38428541D01*
X102560025Y-38904731D02*
X102226691Y-38904731D01*
X102226691Y-39428541D02*
X102226691Y-38428541D01*
X102702882Y-38428541D01*
X77310821Y-79342050D02*
X76310821Y-79342050D01*
X76310821Y-79103955D01*
X76358440Y-78961097D01*
X76453678Y-78865859D01*
X76548916Y-78818240D01*
X76739392Y-78770621D01*
X76882250Y-78770621D01*
X77072726Y-78818240D01*
X77167964Y-78865859D01*
X77263202Y-78961097D01*
X77310821Y-79103955D01*
X77310821Y-79342050D01*
X77310821Y-78342050D02*
X76310821Y-78342050D01*
X76310821Y-77675384D02*
X76310821Y-77484907D01*
X76358440Y-77389669D01*
X76453678Y-77294431D01*
X76644154Y-77246812D01*
X76977488Y-77246812D01*
X77167964Y-77294431D01*
X77263202Y-77389669D01*
X77310821Y-77484907D01*
X77310821Y-77675384D01*
X77263202Y-77770622D01*
X77167964Y-77865860D01*
X76977488Y-77913479D01*
X76644154Y-77913479D01*
X76453678Y-77865860D01*
X76358440Y-77770622D01*
X76310821Y-77675384D01*
X77310821Y-76818241D02*
X76310821Y-76818241D01*
X76310821Y-76580146D01*
X76358440Y-76437288D01*
X76453678Y-76342050D01*
X76548916Y-76294431D01*
X76739392Y-76246812D01*
X76882250Y-76246812D01*
X77072726Y-76294431D01*
X77167964Y-76342050D01*
X77263202Y-76437288D01*
X77310821Y-76580146D01*
X77310821Y-76818241D01*
X76787011Y-75818241D02*
X76787011Y-75484907D01*
X77310821Y-75342050D02*
X77310821Y-75818241D01*
X76310821Y-75818241D01*
X76310821Y-75342050D01*
X80607741Y-79425870D02*
X79607741Y-79425870D01*
X79607741Y-79187775D01*
X79655360Y-79044917D01*
X79750598Y-78949679D01*
X79845836Y-78902060D01*
X80036312Y-78854441D01*
X80179170Y-78854441D01*
X80369646Y-78902060D01*
X80464884Y-78949679D01*
X80560122Y-79044917D01*
X80607741Y-79187775D01*
X80607741Y-79425870D01*
X80607741Y-78425870D02*
X79607741Y-78425870D01*
X79607741Y-77759204D02*
X79607741Y-77568727D01*
X79655360Y-77473489D01*
X79750598Y-77378251D01*
X79941074Y-77330632D01*
X80274408Y-77330632D01*
X80464884Y-77378251D01*
X80560122Y-77473489D01*
X80607741Y-77568727D01*
X80607741Y-77759204D01*
X80560122Y-77854442D01*
X80464884Y-77949680D01*
X80274408Y-77997299D01*
X79941074Y-77997299D01*
X79750598Y-77949680D01*
X79655360Y-77854442D01*
X79607741Y-77759204D01*
X80607741Y-76902061D02*
X79607741Y-76902061D01*
X79607741Y-76663966D01*
X79655360Y-76521108D01*
X79750598Y-76425870D01*
X79845836Y-76378251D01*
X80036312Y-76330632D01*
X80179170Y-76330632D01*
X80369646Y-76378251D01*
X80464884Y-76425870D01*
X80560122Y-76521108D01*
X80607741Y-76663966D01*
X80607741Y-76902061D01*
X80083931Y-75902061D02*
X80083931Y-75568727D01*
X80607741Y-75425870D02*
X80607741Y-75902061D01*
X79607741Y-75902061D01*
X79607741Y-75425870D01*
X77906561Y-79425870D02*
X76906561Y-79425870D01*
X76906561Y-79187775D01*
X76954180Y-79044917D01*
X77049418Y-78949679D01*
X77144656Y-78902060D01*
X77335132Y-78854441D01*
X77477990Y-78854441D01*
X77668466Y-78902060D01*
X77763704Y-78949679D01*
X77858942Y-79044917D01*
X77906561Y-79187775D01*
X77906561Y-79425870D01*
X77906561Y-78425870D02*
X76906561Y-78425870D01*
X76906561Y-77759204D02*
X76906561Y-77568727D01*
X76954180Y-77473489D01*
X77049418Y-77378251D01*
X77239894Y-77330632D01*
X77573228Y-77330632D01*
X77763704Y-77378251D01*
X77858942Y-77473489D01*
X77906561Y-77568727D01*
X77906561Y-77759204D01*
X77858942Y-77854442D01*
X77763704Y-77949680D01*
X77573228Y-77997299D01*
X77239894Y-77997299D01*
X77049418Y-77949680D01*
X76954180Y-77854442D01*
X76906561Y-77759204D01*
X77906561Y-76902061D02*
X76906561Y-76902061D01*
X76906561Y-76663966D01*
X76954180Y-76521108D01*
X77049418Y-76425870D01*
X77144656Y-76378251D01*
X77335132Y-76330632D01*
X77477990Y-76330632D01*
X77668466Y-76378251D01*
X77763704Y-76425870D01*
X77858942Y-76521108D01*
X77906561Y-76663966D01*
X77906561Y-76902061D01*
X77382751Y-75902061D02*
X77382751Y-75568727D01*
X77906561Y-75425870D02*
X77906561Y-75902061D01*
X76906561Y-75902061D01*
X76906561Y-75425870D01*
X84710501Y-84288541D02*
X83710501Y-84288541D01*
X84710501Y-83812351D02*
X83710501Y-83812351D01*
X84710501Y-83240922D01*
X83710501Y-83240922D01*
X84710501Y-82764732D02*
X83710501Y-82764732D01*
X83710501Y-82526637D01*
X83758120Y-82383779D01*
X83853358Y-82288541D01*
X83948596Y-82240922D01*
X84139072Y-82193303D01*
X84281930Y-82193303D01*
X84472406Y-82240922D01*
X84567644Y-82288541D01*
X84662882Y-82383779D01*
X84710501Y-82526637D01*
X84710501Y-82764732D01*
X83710501Y-81764732D02*
X84520025Y-81764732D01*
X84615263Y-81717113D01*
X84662882Y-81669494D01*
X84710501Y-81574256D01*
X84710501Y-81383779D01*
X84662882Y-81288541D01*
X84615263Y-81240922D01*
X84520025Y-81193303D01*
X83710501Y-81193303D01*
X84615263Y-80145684D02*
X84662882Y-80193303D01*
X84710501Y-80336160D01*
X84710501Y-80431398D01*
X84662882Y-80574256D01*
X84567644Y-80669494D01*
X84472406Y-80717113D01*
X84281930Y-80764732D01*
X84139072Y-80764732D01*
X83948596Y-80717113D01*
X83853358Y-80669494D01*
X83758120Y-80574256D01*
X83710501Y-80431398D01*
X83710501Y-80336160D01*
X83758120Y-80193303D01*
X83805739Y-80145684D01*
X83710501Y-79859970D02*
X83710501Y-79288541D01*
X84710501Y-79574256D02*
X83710501Y-79574256D01*
X83710501Y-78764732D02*
X83710501Y-78574255D01*
X83758120Y-78479017D01*
X83853358Y-78383779D01*
X84043834Y-78336160D01*
X84377168Y-78336160D01*
X84567644Y-78383779D01*
X84662882Y-78479017D01*
X84710501Y-78574255D01*
X84710501Y-78764732D01*
X84662882Y-78859970D01*
X84567644Y-78955208D01*
X84377168Y-79002827D01*
X84043834Y-79002827D01*
X83853358Y-78955208D01*
X83758120Y-78859970D01*
X83710501Y-78764732D01*
X84710501Y-77336160D02*
X84234310Y-77669494D01*
X84710501Y-77907589D02*
X83710501Y-77907589D01*
X83710501Y-77526636D01*
X83758120Y-77431398D01*
X83805739Y-77383779D01*
X83900977Y-77336160D01*
X84043834Y-77336160D01*
X84139072Y-77383779D01*
X84186691Y-77431398D01*
X84234310Y-77526636D01*
X84234310Y-77907589D01*
X91835739Y-79073779D02*
X91740501Y-79026160D01*
X91645263Y-78930922D01*
X91502406Y-78788065D01*
X91407167Y-78740446D01*
X91311929Y-78740446D01*
X91359548Y-78978541D02*
X91264310Y-78930922D01*
X91169072Y-78835684D01*
X91121453Y-78645208D01*
X91121453Y-78311874D01*
X91169072Y-78121398D01*
X91264310Y-78026160D01*
X91359548Y-77978541D01*
X91550025Y-77978541D01*
X91645263Y-78026160D01*
X91740501Y-78121398D01*
X91788120Y-78311874D01*
X91788120Y-78645208D01*
X91740501Y-78835684D01*
X91645263Y-78930922D01*
X91550025Y-78978541D01*
X91359548Y-78978541D01*
X91978596Y-79073779D02*
X92740501Y-79073779D01*
X92978596Y-78978541D02*
X92978596Y-77978541D01*
X93550025Y-78978541D01*
X93550025Y-77978541D01*
X94026215Y-78978541D02*
X94026215Y-77978541D01*
X94359549Y-78692827D01*
X94692882Y-77978541D01*
X94692882Y-78978541D01*
X95359548Y-77978541D02*
X95550025Y-77978541D01*
X95645263Y-78026160D01*
X95740501Y-78121398D01*
X95788120Y-78311874D01*
X95788120Y-78645208D01*
X95740501Y-78835684D01*
X95645263Y-78930922D01*
X95550025Y-78978541D01*
X95359548Y-78978541D01*
X95264310Y-78930922D01*
X95169072Y-78835684D01*
X95121453Y-78645208D01*
X95121453Y-78311874D01*
X95169072Y-78121398D01*
X95264310Y-78026160D01*
X95359548Y-77978541D01*
X96169072Y-78930922D02*
X96311929Y-78978541D01*
X96550025Y-78978541D01*
X96645263Y-78930922D01*
X96692882Y-78883303D01*
X96740501Y-78788065D01*
X96740501Y-78692827D01*
X96692882Y-78597589D01*
X96645263Y-78549970D01*
X96550025Y-78502350D01*
X96359548Y-78454731D01*
X96264310Y-78407112D01*
X96216691Y-78359493D01*
X96169072Y-78264255D01*
X96169072Y-78169017D01*
X96216691Y-78073779D01*
X96264310Y-78026160D01*
X96359548Y-77978541D01*
X96597644Y-77978541D01*
X96740501Y-78026160D01*
X96930977Y-79073779D02*
X97692882Y-79073779D01*
X98454787Y-78026160D02*
X98359549Y-77978541D01*
X98216692Y-77978541D01*
X98073834Y-78026160D01*
X97978596Y-78121398D01*
X97930977Y-78216636D01*
X97883358Y-78407112D01*
X97883358Y-78549970D01*
X97930977Y-78740446D01*
X97978596Y-78835684D01*
X98073834Y-78930922D01*
X98216692Y-78978541D01*
X98311930Y-78978541D01*
X98454787Y-78930922D01*
X98502406Y-78883303D01*
X98502406Y-78549970D01*
X98311930Y-78549970D01*
X98930977Y-78978541D02*
X98930977Y-77978541D01*
X99169072Y-77978541D01*
X99311930Y-78026160D01*
X99407168Y-78121398D01*
X99454787Y-78216636D01*
X99502406Y-78407112D01*
X99502406Y-78549970D01*
X99454787Y-78740446D01*
X99407168Y-78835684D01*
X99311930Y-78930922D01*
X99169072Y-78978541D01*
X98930977Y-78978541D01*
X99883358Y-78930922D02*
X100026215Y-78978541D01*
X100264311Y-78978541D01*
X100359549Y-78930922D01*
X100407168Y-78883303D01*
X100454787Y-78788065D01*
X100454787Y-78692827D01*
X100407168Y-78597589D01*
X100359549Y-78549970D01*
X100264311Y-78502350D01*
X100073834Y-78454731D01*
X99978596Y-78407112D01*
X99930977Y-78359493D01*
X99883358Y-78264255D01*
X99883358Y-78169017D01*
X99930977Y-78073779D01*
X99978596Y-78026160D01*
X100073834Y-77978541D01*
X100311930Y-77978541D01*
X100454787Y-78026160D01*
X89115739Y-85114731D02*
X89068120Y-85067112D01*
X89020501Y-84971874D01*
X89020501Y-84733778D01*
X89068120Y-84638540D01*
X89115739Y-84590921D01*
X89210977Y-84543302D01*
X89306215Y-84543302D01*
X89449072Y-84590921D01*
X90020501Y-85162350D01*
X90020501Y-84543302D01*
X89925263Y-84114731D02*
X89972882Y-84067112D01*
X90020501Y-84114731D01*
X89972882Y-84162350D01*
X89925263Y-84114731D01*
X90020501Y-84114731D01*
X89115739Y-83686160D02*
X89068120Y-83638541D01*
X89020501Y-83543303D01*
X89020501Y-83305207D01*
X89068120Y-83209969D01*
X89115739Y-83162350D01*
X89210977Y-83114731D01*
X89306215Y-83114731D01*
X89449072Y-83162350D01*
X90020501Y-83733779D01*
X90020501Y-83114731D01*
X90020501Y-82114731D02*
X89544310Y-82448065D01*
X90020501Y-82686160D02*
X89020501Y-82686160D01*
X89020501Y-82305207D01*
X89068120Y-82209969D01*
X89115739Y-82162350D01*
X89210977Y-82114731D01*
X89353834Y-82114731D01*
X89449072Y-82162350D01*
X89496691Y-82209969D01*
X89544310Y-82305207D01*
X89544310Y-82686160D01*
X90020501Y-80400445D02*
X90020501Y-80971874D01*
X90020501Y-80686160D02*
X89020501Y-80686160D01*
X89163358Y-80781398D01*
X89258596Y-80876636D01*
X89306215Y-80971874D01*
X90020501Y-80019493D02*
X89020501Y-79257588D01*
X89020501Y-79876636D02*
X89068120Y-79781398D01*
X89163358Y-79733779D01*
X89258596Y-79781398D01*
X89306215Y-79876636D01*
X89258596Y-79971874D01*
X89163358Y-80019493D01*
X89068120Y-79971874D01*
X89020501Y-79876636D01*
X89972882Y-79305207D02*
X89877644Y-79257588D01*
X89782406Y-79305207D01*
X89734787Y-79400445D01*
X89782406Y-79495683D01*
X89877644Y-79543302D01*
X89972882Y-79495683D01*
X90020501Y-79400445D01*
X89972882Y-79305207D01*
X115074787Y-55058541D02*
X115074787Y-55772827D01*
X115027167Y-55915684D01*
X114931929Y-56010922D01*
X114789072Y-56058541D01*
X114693834Y-56058541D01*
X116074787Y-56058541D02*
X115503358Y-56058541D01*
X115789072Y-56058541D02*
X115789072Y-55058541D01*
X115693834Y-55201398D01*
X115598596Y-55296636D01*
X115503358Y-55344255D01*
M02*
