G04 #@! TF.FileFunction,Legend,Top*
%FSLAX46Y46*%
G04 Gerber Fmt 4.6, Leading zero omitted, Abs format (unit mm)*
G04 Created by KiCad (PCBNEW 4.0.6) date Wed Aug 30 21:06:07 2017*
%MOMM*%
%LPD*%
G01*
G04 APERTURE LIST*
%ADD10C,0.100000*%
%ADD11C,0.152400*%
%ADD12C,0.150000*%
%ADD13C,0.040640*%
G04 APERTURE END LIST*
D10*
D11*
X117437539Y-63480635D02*
X118453539Y-63238730D01*
X117727825Y-63045207D01*
X118453539Y-62851683D01*
X117437539Y-62609778D01*
X118163253Y-62271111D02*
X118163253Y-61787302D01*
X118453539Y-62367873D02*
X117437539Y-62029206D01*
X118453539Y-61690540D01*
X118453539Y-60771302D02*
X117969730Y-61109968D01*
X118453539Y-61351873D02*
X117437539Y-61351873D01*
X117437539Y-60964826D01*
X117485920Y-60868064D01*
X117534301Y-60819683D01*
X117631063Y-60771302D01*
X117776206Y-60771302D01*
X117872968Y-60819683D01*
X117921349Y-60868064D01*
X117969730Y-60964826D01*
X117969730Y-61351873D01*
X118453539Y-60335873D02*
X117437539Y-60335873D01*
X118453539Y-59755302D01*
X117437539Y-59755302D01*
X118453539Y-59271492D02*
X117437539Y-59271492D01*
X118453539Y-58787682D02*
X117437539Y-58787682D01*
X118453539Y-58207111D01*
X117437539Y-58207111D01*
X117485920Y-57191111D02*
X117437539Y-57287873D01*
X117437539Y-57433016D01*
X117485920Y-57578158D01*
X117582682Y-57674920D01*
X117679444Y-57723301D01*
X117872968Y-57771682D01*
X118018110Y-57771682D01*
X118211634Y-57723301D01*
X118308396Y-57674920D01*
X118405158Y-57578158D01*
X118453539Y-57433016D01*
X118453539Y-57336254D01*
X118405158Y-57191111D01*
X118356777Y-57142730D01*
X118018110Y-57142730D01*
X118018110Y-57336254D01*
X118356777Y-56707301D02*
X118405158Y-56658920D01*
X118453539Y-56707301D01*
X118405158Y-56755682D01*
X118356777Y-56707301D01*
X118453539Y-56707301D01*
X118066491Y-56707301D02*
X117485920Y-56755682D01*
X117437539Y-56707301D01*
X117485920Y-56658920D01*
X118066491Y-56707301D01*
X117437539Y-56707301D01*
X118453539Y-55449396D02*
X117437539Y-55449396D01*
X118163253Y-55110730D01*
X117437539Y-54772063D01*
X118453539Y-54772063D01*
X117776206Y-53852825D02*
X118453539Y-53852825D01*
X117776206Y-54288253D02*
X118308396Y-54288253D01*
X118405158Y-54239872D01*
X118453539Y-54143110D01*
X118453539Y-53997968D01*
X118405158Y-53901206D01*
X118356777Y-53852825D01*
X118405158Y-53417396D02*
X118453539Y-53320634D01*
X118453539Y-53127110D01*
X118405158Y-53030349D01*
X118308396Y-52981968D01*
X118260015Y-52981968D01*
X118163253Y-53030349D01*
X118114872Y-53127110D01*
X118114872Y-53272253D01*
X118066491Y-53369015D01*
X117969730Y-53417396D01*
X117921349Y-53417396D01*
X117824587Y-53369015D01*
X117776206Y-53272253D01*
X117776206Y-53127110D01*
X117824587Y-53030349D01*
X117776206Y-52691682D02*
X117776206Y-52304634D01*
X117437539Y-52546539D02*
X118308396Y-52546539D01*
X118405158Y-52498158D01*
X118453539Y-52401396D01*
X118453539Y-52304634D01*
X118405158Y-50756445D02*
X118453539Y-50853207D01*
X118453539Y-51046730D01*
X118405158Y-51143492D01*
X118356777Y-51191873D01*
X118260015Y-51240254D01*
X117969730Y-51240254D01*
X117872968Y-51191873D01*
X117824587Y-51143492D01*
X117776206Y-51046730D01*
X117776206Y-50853207D01*
X117824587Y-50756445D01*
X117776206Y-49885588D02*
X118453539Y-49885588D01*
X117776206Y-50321016D02*
X118308396Y-50321016D01*
X118405158Y-50272635D01*
X118453539Y-50175873D01*
X118453539Y-50030731D01*
X118405158Y-49933969D01*
X118356777Y-49885588D01*
X117776206Y-49546921D02*
X117776206Y-49159873D01*
X117437539Y-49401778D02*
X118308396Y-49401778D01*
X118405158Y-49353397D01*
X118453539Y-49256635D01*
X118453539Y-49159873D01*
X117776206Y-48192255D02*
X117776206Y-47805207D01*
X117437539Y-48047112D02*
X118308396Y-48047112D01*
X118405158Y-47998731D01*
X118453539Y-47901969D01*
X118453539Y-47805207D01*
X118453539Y-47466541D02*
X117776206Y-47466541D01*
X117969730Y-47466541D02*
X117872968Y-47418160D01*
X117824587Y-47369779D01*
X117776206Y-47273017D01*
X117776206Y-47176256D01*
X118453539Y-46402161D02*
X117921349Y-46402161D01*
X117824587Y-46450542D01*
X117776206Y-46547304D01*
X117776206Y-46740827D01*
X117824587Y-46837589D01*
X118405158Y-46402161D02*
X118453539Y-46498923D01*
X118453539Y-46740827D01*
X118405158Y-46837589D01*
X118308396Y-46885970D01*
X118211634Y-46885970D01*
X118114872Y-46837589D01*
X118066491Y-46740827D01*
X118066491Y-46498923D01*
X118018110Y-46402161D01*
X118405158Y-45482923D02*
X118453539Y-45579685D01*
X118453539Y-45773208D01*
X118405158Y-45869970D01*
X118356777Y-45918351D01*
X118260015Y-45966732D01*
X117969730Y-45966732D01*
X117872968Y-45918351D01*
X117824587Y-45869970D01*
X117776206Y-45773208D01*
X117776206Y-45579685D01*
X117824587Y-45482923D01*
X118405158Y-44660447D02*
X118453539Y-44757209D01*
X118453539Y-44950732D01*
X118405158Y-45047494D01*
X118308396Y-45095875D01*
X117921349Y-45095875D01*
X117824587Y-45047494D01*
X117776206Y-44950732D01*
X117776206Y-44757209D01*
X117824587Y-44660447D01*
X117921349Y-44612066D01*
X118018110Y-44612066D01*
X118114872Y-45095875D01*
X120129939Y-62537206D02*
X119113939Y-62537206D01*
X119500987Y-62537206D02*
X119452606Y-62440444D01*
X119452606Y-62246921D01*
X119500987Y-62150159D01*
X119549368Y-62101778D01*
X119646130Y-62053397D01*
X119936415Y-62053397D01*
X120033177Y-62101778D01*
X120081558Y-62150159D01*
X120129939Y-62246921D01*
X120129939Y-62440444D01*
X120081558Y-62537206D01*
X120081558Y-61230921D02*
X120129939Y-61327683D01*
X120129939Y-61521206D01*
X120081558Y-61617968D01*
X119984796Y-61666349D01*
X119597749Y-61666349D01*
X119500987Y-61617968D01*
X119452606Y-61521206D01*
X119452606Y-61327683D01*
X119500987Y-61230921D01*
X119597749Y-61182540D01*
X119694510Y-61182540D01*
X119791272Y-61666349D01*
X119452606Y-60892254D02*
X119452606Y-60505206D01*
X119113939Y-60747111D02*
X119984796Y-60747111D01*
X120081558Y-60698730D01*
X120129939Y-60601968D01*
X120129939Y-60505206D01*
X119452606Y-60263302D02*
X120129939Y-60069778D01*
X119646130Y-59876255D01*
X120129939Y-59682731D01*
X119452606Y-59489207D01*
X120081558Y-58715112D02*
X120129939Y-58811874D01*
X120129939Y-59005397D01*
X120081558Y-59102159D01*
X119984796Y-59150540D01*
X119597749Y-59150540D01*
X119500987Y-59102159D01*
X119452606Y-59005397D01*
X119452606Y-58811874D01*
X119500987Y-58715112D01*
X119597749Y-58666731D01*
X119694510Y-58666731D01*
X119791272Y-59150540D01*
X120081558Y-57844255D02*
X120129939Y-57941017D01*
X120129939Y-58134540D01*
X120081558Y-58231302D01*
X119984796Y-58279683D01*
X119597749Y-58279683D01*
X119500987Y-58231302D01*
X119452606Y-58134540D01*
X119452606Y-57941017D01*
X119500987Y-57844255D01*
X119597749Y-57795874D01*
X119694510Y-57795874D01*
X119791272Y-58279683D01*
X119452606Y-57360445D02*
X120129939Y-57360445D01*
X119549368Y-57360445D02*
X119500987Y-57312064D01*
X119452606Y-57215302D01*
X119452606Y-57070160D01*
X119500987Y-56973398D01*
X119597749Y-56925017D01*
X120129939Y-56925017D01*
X119113939Y-55812255D02*
X120129939Y-55473588D01*
X119113939Y-55134922D01*
X120129939Y-54796255D02*
X119113939Y-54796255D01*
X120129939Y-54312445D02*
X119113939Y-54312445D01*
X120129939Y-53731874D01*
X119113939Y-53731874D01*
X120129939Y-52038541D02*
X119597749Y-52038541D01*
X119500987Y-52086922D01*
X119452606Y-52183684D01*
X119452606Y-52377207D01*
X119500987Y-52473969D01*
X120081558Y-52038541D02*
X120129939Y-52135303D01*
X120129939Y-52377207D01*
X120081558Y-52473969D01*
X119984796Y-52522350D01*
X119888034Y-52522350D01*
X119791272Y-52473969D01*
X119742891Y-52377207D01*
X119742891Y-52135303D01*
X119694510Y-52038541D01*
X119452606Y-51554731D02*
X120129939Y-51554731D01*
X119549368Y-51554731D02*
X119500987Y-51506350D01*
X119452606Y-51409588D01*
X119452606Y-51264446D01*
X119500987Y-51167684D01*
X119597749Y-51119303D01*
X120129939Y-51119303D01*
X120129939Y-50200065D02*
X119113939Y-50200065D01*
X120081558Y-50200065D02*
X120129939Y-50296827D01*
X120129939Y-50490350D01*
X120081558Y-50587112D01*
X120033177Y-50635493D01*
X119936415Y-50683874D01*
X119646130Y-50683874D01*
X119549368Y-50635493D01*
X119500987Y-50587112D01*
X119452606Y-50490350D01*
X119452606Y-50296827D01*
X119500987Y-50200065D01*
X119113939Y-49087303D02*
X120129939Y-48748636D01*
X119113939Y-48409970D01*
X119113939Y-48071303D02*
X119936415Y-48071303D01*
X120033177Y-48022922D01*
X120081558Y-47974541D01*
X120129939Y-47877779D01*
X120129939Y-47684256D01*
X120081558Y-47587494D01*
X120033177Y-47539113D01*
X119936415Y-47490732D01*
X119113939Y-47490732D01*
X120081558Y-47055303D02*
X120129939Y-46910160D01*
X120129939Y-46668256D01*
X120081558Y-46571494D01*
X120033177Y-46523113D01*
X119936415Y-46474732D01*
X119839653Y-46474732D01*
X119742891Y-46523113D01*
X119694510Y-46571494D01*
X119646130Y-46668256D01*
X119597749Y-46861779D01*
X119549368Y-46958541D01*
X119500987Y-47006922D01*
X119404225Y-47055303D01*
X119307463Y-47055303D01*
X119210701Y-47006922D01*
X119162320Y-46958541D01*
X119113939Y-46861779D01*
X119113939Y-46619875D01*
X119162320Y-46474732D01*
X119597749Y-45700637D02*
X119646130Y-45555494D01*
X119694510Y-45507113D01*
X119791272Y-45458732D01*
X119936415Y-45458732D01*
X120033177Y-45507113D01*
X120081558Y-45555494D01*
X120129939Y-45652256D01*
X120129939Y-46039303D01*
X119113939Y-46039303D01*
X119113939Y-45700637D01*
X119162320Y-45603875D01*
X119210701Y-45555494D01*
X119307463Y-45507113D01*
X119404225Y-45507113D01*
X119500987Y-45555494D01*
X119549368Y-45603875D01*
X119597749Y-45700637D01*
X119597749Y-46039303D01*
X135634291Y-85994732D02*
X136848577Y-85994732D01*
X136991434Y-86066161D01*
X137062863Y-86137589D01*
X137134291Y-86280446D01*
X137134291Y-86494732D01*
X137062863Y-86637589D01*
X136562863Y-85994732D02*
X136634291Y-86137589D01*
X136634291Y-86423303D01*
X136562863Y-86566161D01*
X136491434Y-86637589D01*
X136348577Y-86709018D01*
X135920006Y-86709018D01*
X135777149Y-86637589D01*
X135705720Y-86566161D01*
X135634291Y-86423303D01*
X135634291Y-86137589D01*
X135705720Y-85994732D01*
X136634291Y-85280446D02*
X135634291Y-85280446D01*
X135134291Y-85280446D02*
X135205720Y-85351875D01*
X135277149Y-85280446D01*
X135205720Y-85209018D01*
X135134291Y-85280446D01*
X135277149Y-85280446D01*
X135634291Y-84780446D02*
X135634291Y-84209017D01*
X135134291Y-84566160D02*
X136420006Y-84566160D01*
X136562863Y-84494732D01*
X136634291Y-84351874D01*
X136634291Y-84209017D01*
X136634291Y-83709017D02*
X135134291Y-83709017D01*
X136634291Y-83066160D02*
X135848577Y-83066160D01*
X135705720Y-83137589D01*
X135634291Y-83280446D01*
X135634291Y-83494731D01*
X135705720Y-83637589D01*
X135777149Y-83709017D01*
X135634291Y-81709017D02*
X136634291Y-81709017D01*
X135634291Y-82351874D02*
X136420006Y-82351874D01*
X136562863Y-82280446D01*
X136634291Y-82137588D01*
X136634291Y-81923303D01*
X136562863Y-81780446D01*
X136491434Y-81709017D01*
X136634291Y-80994731D02*
X135134291Y-80994731D01*
X135705720Y-80994731D02*
X135634291Y-80851874D01*
X135634291Y-80566160D01*
X135705720Y-80423303D01*
X135777149Y-80351874D01*
X135920006Y-80280445D01*
X136348577Y-80280445D01*
X136491434Y-80351874D01*
X136562863Y-80423303D01*
X136634291Y-80566160D01*
X136634291Y-80851874D01*
X136562863Y-80994731D01*
X136491434Y-79637588D02*
X136562863Y-79566160D01*
X136634291Y-79637588D01*
X136562863Y-79709017D01*
X136491434Y-79637588D01*
X136634291Y-79637588D01*
X136562863Y-78280445D02*
X136634291Y-78423302D01*
X136634291Y-78709016D01*
X136562863Y-78851874D01*
X136491434Y-78923302D01*
X136348577Y-78994731D01*
X135920006Y-78994731D01*
X135777149Y-78923302D01*
X135705720Y-78851874D01*
X135634291Y-78709016D01*
X135634291Y-78423302D01*
X135705720Y-78280445D01*
X136634291Y-77423302D02*
X136562863Y-77566160D01*
X136491434Y-77637588D01*
X136348577Y-77709017D01*
X135920006Y-77709017D01*
X135777149Y-77637588D01*
X135705720Y-77566160D01*
X135634291Y-77423302D01*
X135634291Y-77209017D01*
X135705720Y-77066160D01*
X135777149Y-76994731D01*
X135920006Y-76923302D01*
X136348577Y-76923302D01*
X136491434Y-76994731D01*
X136562863Y-77066160D01*
X136634291Y-77209017D01*
X136634291Y-77423302D01*
X136634291Y-76280445D02*
X135634291Y-76280445D01*
X135777149Y-76280445D02*
X135705720Y-76209017D01*
X135634291Y-76066159D01*
X135634291Y-75851874D01*
X135705720Y-75709017D01*
X135848577Y-75637588D01*
X136634291Y-75637588D01*
X135848577Y-75637588D02*
X135705720Y-75566159D01*
X135634291Y-75423302D01*
X135634291Y-75209017D01*
X135705720Y-75066159D01*
X135848577Y-74994731D01*
X136634291Y-74994731D01*
X135062863Y-73209017D02*
X136991434Y-74494731D01*
X135634291Y-72709016D02*
X137134291Y-72709016D01*
X135705720Y-72709016D02*
X135634291Y-72566159D01*
X135634291Y-72280445D01*
X135705720Y-72137588D01*
X135777149Y-72066159D01*
X135920006Y-71994730D01*
X136348577Y-71994730D01*
X136491434Y-72066159D01*
X136562863Y-72137588D01*
X136634291Y-72280445D01*
X136634291Y-72566159D01*
X136562863Y-72709016D01*
X136634291Y-70709016D02*
X135134291Y-70709016D01*
X136562863Y-70709016D02*
X136634291Y-70851873D01*
X136634291Y-71137587D01*
X136562863Y-71280445D01*
X136491434Y-71351873D01*
X136348577Y-71423302D01*
X135920006Y-71423302D01*
X135777149Y-71351873D01*
X135705720Y-71280445D01*
X135634291Y-71137587D01*
X135634291Y-70851873D01*
X135705720Y-70709016D01*
X135634291Y-69994730D02*
X137134291Y-69994730D01*
X135705720Y-69994730D02*
X135634291Y-69851873D01*
X135634291Y-69566159D01*
X135705720Y-69423302D01*
X135777149Y-69351873D01*
X135920006Y-69280444D01*
X136348577Y-69280444D01*
X136491434Y-69351873D01*
X136562863Y-69423302D01*
X136634291Y-69566159D01*
X136634291Y-69851873D01*
X136562863Y-69994730D01*
X135134291Y-68780444D02*
X135134291Y-67780444D01*
X136634291Y-68423301D01*
X135062863Y-66137588D02*
X136991434Y-67423302D01*
X136634291Y-65637587D02*
X135134291Y-65637587D01*
X136062863Y-65494730D02*
X136634291Y-65066159D01*
X135634291Y-65066159D02*
X136205720Y-65637587D01*
X136634291Y-64423301D02*
X135634291Y-64423301D01*
X135134291Y-64423301D02*
X135205720Y-64494730D01*
X135277149Y-64423301D01*
X135205720Y-64351873D01*
X135134291Y-64423301D01*
X135277149Y-64423301D01*
X136562863Y-63066158D02*
X136634291Y-63209015D01*
X136634291Y-63494729D01*
X136562863Y-63637587D01*
X136491434Y-63709015D01*
X136348577Y-63780444D01*
X135920006Y-63780444D01*
X135777149Y-63709015D01*
X135705720Y-63637587D01*
X135634291Y-63494729D01*
X135634291Y-63209015D01*
X135705720Y-63066158D01*
X136634291Y-61780444D02*
X135848577Y-61780444D01*
X135705720Y-61851873D01*
X135634291Y-61994730D01*
X135634291Y-62280444D01*
X135705720Y-62423301D01*
X136562863Y-61780444D02*
X136634291Y-61923301D01*
X136634291Y-62280444D01*
X136562863Y-62423301D01*
X136420006Y-62494730D01*
X136277149Y-62494730D01*
X136134291Y-62423301D01*
X136062863Y-62280444D01*
X136062863Y-61923301D01*
X135991434Y-61780444D01*
X136634291Y-60423301D02*
X135134291Y-60423301D01*
X136562863Y-60423301D02*
X136634291Y-60566158D01*
X136634291Y-60851872D01*
X136562863Y-60994730D01*
X136491434Y-61066158D01*
X136348577Y-61137587D01*
X135920006Y-61137587D01*
X135777149Y-61066158D01*
X135705720Y-60994730D01*
X135634291Y-60851872D01*
X135634291Y-60566158D01*
X135705720Y-60423301D01*
X136062863Y-59709015D02*
X136062863Y-58566158D01*
X135634291Y-58066158D02*
X135634291Y-57494729D01*
X135134291Y-57851872D02*
X136420006Y-57851872D01*
X136562863Y-57780444D01*
X136634291Y-57637586D01*
X136634291Y-57494729D01*
X136562863Y-56423301D02*
X136634291Y-56566158D01*
X136634291Y-56851872D01*
X136562863Y-56994729D01*
X136420006Y-57066158D01*
X135848577Y-57066158D01*
X135705720Y-56994729D01*
X135634291Y-56851872D01*
X135634291Y-56566158D01*
X135705720Y-56423301D01*
X135848577Y-56351872D01*
X135991434Y-56351872D01*
X136134291Y-57066158D01*
X136562863Y-55137587D02*
X136634291Y-55280444D01*
X136634291Y-55566158D01*
X136562863Y-55709015D01*
X136420006Y-55780444D01*
X135848577Y-55780444D01*
X135705720Y-55709015D01*
X135634291Y-55566158D01*
X135634291Y-55280444D01*
X135705720Y-55137587D01*
X135848577Y-55066158D01*
X135991434Y-55066158D01*
X136134291Y-55780444D01*
X135634291Y-54423301D02*
X136634291Y-54423301D01*
X135777149Y-54423301D02*
X135705720Y-54351873D01*
X135634291Y-54209015D01*
X135634291Y-53994730D01*
X135705720Y-53851873D01*
X135848577Y-53780444D01*
X136634291Y-53780444D01*
X136562863Y-53137587D02*
X136634291Y-52994730D01*
X136634291Y-52709015D01*
X136562863Y-52566158D01*
X136420006Y-52494730D01*
X136348577Y-52494730D01*
X136205720Y-52566158D01*
X136134291Y-52709015D01*
X136134291Y-52923301D01*
X136062863Y-53066158D01*
X135920006Y-53137587D01*
X135848577Y-53137587D01*
X135705720Y-53066158D01*
X135634291Y-52923301D01*
X135634291Y-52709015D01*
X135705720Y-52566158D01*
X135634291Y-51994729D02*
X136634291Y-51637586D01*
X135634291Y-51280444D02*
X136634291Y-51637586D01*
X136991434Y-51780444D01*
X137062863Y-51851872D01*
X137134291Y-51994729D01*
X136062863Y-50709015D02*
X136062863Y-49566158D01*
X136562863Y-48280444D02*
X136634291Y-48423301D01*
X136634291Y-48709015D01*
X136562863Y-48851872D01*
X136420006Y-48923301D01*
X135848577Y-48923301D01*
X135705720Y-48851872D01*
X135634291Y-48709015D01*
X135634291Y-48423301D01*
X135705720Y-48280444D01*
X135848577Y-48209015D01*
X135991434Y-48209015D01*
X136134291Y-48923301D01*
X135634291Y-47566158D02*
X137134291Y-47566158D01*
X135705720Y-47566158D02*
X135634291Y-47423301D01*
X135634291Y-47137587D01*
X135705720Y-46994730D01*
X135777149Y-46923301D01*
X135920006Y-46851872D01*
X136348577Y-46851872D01*
X136491434Y-46923301D01*
X136562863Y-46994730D01*
X136634291Y-47137587D01*
X136634291Y-47423301D01*
X136562863Y-47566158D01*
X136634291Y-45566158D02*
X135848577Y-45566158D01*
X135705720Y-45637587D01*
X135634291Y-45780444D01*
X135634291Y-46066158D01*
X135705720Y-46209015D01*
X136562863Y-45566158D02*
X136634291Y-45709015D01*
X136634291Y-46066158D01*
X136562863Y-46209015D01*
X136420006Y-46280444D01*
X136277149Y-46280444D01*
X136134291Y-46209015D01*
X136062863Y-46066158D01*
X136062863Y-45709015D01*
X135991434Y-45566158D01*
X135634291Y-44851872D02*
X137134291Y-44851872D01*
X135705720Y-44851872D02*
X135634291Y-44709015D01*
X135634291Y-44423301D01*
X135705720Y-44280444D01*
X135777149Y-44209015D01*
X135920006Y-44137586D01*
X136348577Y-44137586D01*
X136491434Y-44209015D01*
X136562863Y-44280444D01*
X136634291Y-44423301D01*
X136634291Y-44709015D01*
X136562863Y-44851872D01*
X136562863Y-42923301D02*
X136634291Y-43066158D01*
X136634291Y-43351872D01*
X136562863Y-43494729D01*
X136420006Y-43566158D01*
X135848577Y-43566158D01*
X135705720Y-43494729D01*
X135634291Y-43351872D01*
X135634291Y-43066158D01*
X135705720Y-42923301D01*
X135848577Y-42851872D01*
X135991434Y-42851872D01*
X136134291Y-43566158D01*
X136634291Y-42209015D02*
X135634291Y-42209015D01*
X135920006Y-42209015D02*
X135777149Y-42137587D01*
X135705720Y-42066158D01*
X135634291Y-41923301D01*
X135634291Y-41780444D01*
X141439091Y-83959017D02*
X139939091Y-83959017D01*
X139939091Y-83601874D01*
X140010520Y-83387589D01*
X140153377Y-83244731D01*
X140296234Y-83173303D01*
X140581949Y-83101874D01*
X140796234Y-83101874D01*
X141081949Y-83173303D01*
X141224806Y-83244731D01*
X141367663Y-83387589D01*
X141439091Y-83601874D01*
X141439091Y-83959017D01*
X141439091Y-82459017D02*
X140439091Y-82459017D01*
X140724806Y-82459017D02*
X140581949Y-82387589D01*
X140510520Y-82316160D01*
X140439091Y-82173303D01*
X140439091Y-82030446D01*
X141367663Y-80959018D02*
X141439091Y-81101875D01*
X141439091Y-81387589D01*
X141367663Y-81530446D01*
X141224806Y-81601875D01*
X140653377Y-81601875D01*
X140510520Y-81530446D01*
X140439091Y-81387589D01*
X140439091Y-81101875D01*
X140510520Y-80959018D01*
X140653377Y-80887589D01*
X140796234Y-80887589D01*
X140939091Y-81601875D01*
X140439091Y-80387589D02*
X141439091Y-80101875D01*
X140724806Y-79816161D01*
X141439091Y-79530446D01*
X140439091Y-79244732D01*
X140653377Y-77030446D02*
X140653377Y-77530446D01*
X141439091Y-77530446D02*
X139939091Y-77530446D01*
X139939091Y-76816160D01*
X140439091Y-75601875D02*
X141439091Y-75601875D01*
X140439091Y-76244732D02*
X141224806Y-76244732D01*
X141367663Y-76173304D01*
X141439091Y-76030446D01*
X141439091Y-75816161D01*
X141367663Y-75673304D01*
X141296234Y-75601875D01*
X141367663Y-74959018D02*
X141439091Y-74816161D01*
X141439091Y-74530446D01*
X141367663Y-74387589D01*
X141224806Y-74316161D01*
X141153377Y-74316161D01*
X141010520Y-74387589D01*
X140939091Y-74530446D01*
X140939091Y-74744732D01*
X140867663Y-74887589D01*
X140724806Y-74959018D01*
X140653377Y-74959018D01*
X140510520Y-74887589D01*
X140439091Y-74744732D01*
X140439091Y-74530446D01*
X140510520Y-74387589D01*
X140439091Y-73887589D02*
X140439091Y-73316160D01*
X139939091Y-73673303D02*
X141224806Y-73673303D01*
X141367663Y-73601875D01*
X141439091Y-73459017D01*
X141439091Y-73316160D01*
X141439091Y-72816160D02*
X140439091Y-72816160D01*
X139939091Y-72816160D02*
X140010520Y-72887589D01*
X140081949Y-72816160D01*
X140010520Y-72744732D01*
X139939091Y-72816160D01*
X140081949Y-72816160D01*
X140439091Y-72101874D02*
X141439091Y-72101874D01*
X140581949Y-72101874D02*
X140510520Y-72030446D01*
X140439091Y-71887588D01*
X140439091Y-71673303D01*
X140510520Y-71530446D01*
X140653377Y-71459017D01*
X141439091Y-71459017D01*
X141439091Y-70744731D02*
X140439091Y-70744731D01*
X139939091Y-70744731D02*
X140010520Y-70816160D01*
X140081949Y-70744731D01*
X140010520Y-70673303D01*
X139939091Y-70744731D01*
X140081949Y-70744731D01*
X140439091Y-67744731D02*
X140867663Y-68887588D01*
X141296234Y-67744731D01*
X141439091Y-66387588D02*
X139939091Y-66387588D01*
X141367663Y-66387588D02*
X141439091Y-66530445D01*
X141439091Y-66816159D01*
X141367663Y-66959017D01*
X141296234Y-67030445D01*
X141153377Y-67101874D01*
X140724806Y-67101874D01*
X140581949Y-67030445D01*
X140510520Y-66959017D01*
X140439091Y-66816159D01*
X140439091Y-66530445D01*
X140510520Y-66387588D01*
X141439091Y-65673302D02*
X140439091Y-65673302D01*
X140724806Y-65673302D02*
X140581949Y-65601874D01*
X140510520Y-65530445D01*
X140439091Y-65387588D01*
X140439091Y-65244731D01*
X141367663Y-64173303D02*
X141439091Y-64316160D01*
X141439091Y-64601874D01*
X141367663Y-64744731D01*
X141224806Y-64816160D01*
X140653377Y-64816160D01*
X140510520Y-64744731D01*
X140439091Y-64601874D01*
X140439091Y-64316160D01*
X140510520Y-64173303D01*
X140653377Y-64101874D01*
X140796234Y-64101874D01*
X140939091Y-64816160D01*
X140439091Y-63601874D02*
X141439091Y-63316160D01*
X140724806Y-63030446D01*
X141439091Y-62744731D01*
X140439091Y-62459017D01*
X140724806Y-60959017D02*
X140653377Y-61030445D01*
X140581949Y-61173302D01*
X140581949Y-61316160D01*
X140653377Y-61459017D01*
X140724806Y-61530445D01*
X140867663Y-61601874D01*
X141010520Y-61601874D01*
X141153377Y-61530445D01*
X141224806Y-61459017D01*
X141296234Y-61316160D01*
X141296234Y-61173302D01*
X141224806Y-61030445D01*
X141153377Y-60959017D01*
X140581949Y-60959017D02*
X141153377Y-60959017D01*
X141224806Y-60887588D01*
X141224806Y-60816160D01*
X141153377Y-60673302D01*
X141010520Y-60601874D01*
X140653377Y-60601874D01*
X140439091Y-60744731D01*
X140296234Y-60959017D01*
X140224806Y-61244731D01*
X140296234Y-61530445D01*
X140439091Y-61744731D01*
X140653377Y-61887588D01*
X140939091Y-61959017D01*
X141224806Y-61887588D01*
X141439091Y-61744731D01*
X141581949Y-61530445D01*
X141653377Y-61244731D01*
X141581949Y-60959017D01*
X141439091Y-60744731D01*
X141439091Y-59744731D02*
X141367663Y-59887589D01*
X141296234Y-59959017D01*
X141153377Y-60030446D01*
X140724806Y-60030446D01*
X140581949Y-59959017D01*
X140510520Y-59887589D01*
X140439091Y-59744731D01*
X140439091Y-59530446D01*
X140510520Y-59387589D01*
X140581949Y-59316160D01*
X140724806Y-59244731D01*
X141153377Y-59244731D01*
X141296234Y-59316160D01*
X141367663Y-59387589D01*
X141439091Y-59530446D01*
X141439091Y-59744731D01*
X141367663Y-58673303D02*
X141439091Y-58530446D01*
X141439091Y-58244731D01*
X141367663Y-58101874D01*
X141224806Y-58030446D01*
X141153377Y-58030446D01*
X141010520Y-58101874D01*
X140939091Y-58244731D01*
X140939091Y-58459017D01*
X140867663Y-58601874D01*
X140724806Y-58673303D01*
X140653377Y-58673303D01*
X140510520Y-58601874D01*
X140439091Y-58459017D01*
X140439091Y-58244731D01*
X140510520Y-58101874D01*
X141439091Y-57387588D02*
X139939091Y-57387588D01*
X141439091Y-56744731D02*
X140653377Y-56744731D01*
X140510520Y-56816160D01*
X140439091Y-56959017D01*
X140439091Y-57173302D01*
X140510520Y-57316160D01*
X140581949Y-57387588D01*
X140439091Y-56030445D02*
X141939091Y-56030445D01*
X140510520Y-56030445D02*
X140439091Y-55887588D01*
X140439091Y-55601874D01*
X140510520Y-55459017D01*
X140581949Y-55387588D01*
X140724806Y-55316159D01*
X141153377Y-55316159D01*
X141296234Y-55387588D01*
X141367663Y-55459017D01*
X141439091Y-55601874D01*
X141439091Y-55887588D01*
X141367663Y-56030445D01*
X141439091Y-54030445D02*
X140653377Y-54030445D01*
X140510520Y-54101874D01*
X140439091Y-54244731D01*
X140439091Y-54530445D01*
X140510520Y-54673302D01*
X141367663Y-54030445D02*
X141439091Y-54173302D01*
X141439091Y-54530445D01*
X141367663Y-54673302D01*
X141224806Y-54744731D01*
X141081949Y-54744731D01*
X140939091Y-54673302D01*
X140867663Y-54530445D01*
X140867663Y-54173302D01*
X140796234Y-54030445D01*
X141439091Y-53316159D02*
X140439091Y-53316159D01*
X140724806Y-53316159D02*
X140581949Y-53244731D01*
X140510520Y-53173302D01*
X140439091Y-53030445D01*
X140439091Y-52887588D01*
X141439091Y-52387588D02*
X139939091Y-52387588D01*
X140867663Y-52244731D02*
X141439091Y-51816160D01*
X140439091Y-51816160D02*
X141010520Y-52387588D01*
X141296234Y-51173302D02*
X141367663Y-51101874D01*
X141439091Y-51173302D01*
X141367663Y-51244731D01*
X141296234Y-51173302D01*
X141439091Y-51173302D01*
X141367663Y-49816159D02*
X141439091Y-49959016D01*
X141439091Y-50244730D01*
X141367663Y-50387588D01*
X141296234Y-50459016D01*
X141153377Y-50530445D01*
X140724806Y-50530445D01*
X140581949Y-50459016D01*
X140510520Y-50387588D01*
X140439091Y-50244730D01*
X140439091Y-49959016D01*
X140510520Y-49816159D01*
X141439091Y-48959016D02*
X141367663Y-49101874D01*
X141296234Y-49173302D01*
X141153377Y-49244731D01*
X140724806Y-49244731D01*
X140581949Y-49173302D01*
X140510520Y-49101874D01*
X140439091Y-48959016D01*
X140439091Y-48744731D01*
X140510520Y-48601874D01*
X140581949Y-48530445D01*
X140724806Y-48459016D01*
X141153377Y-48459016D01*
X141296234Y-48530445D01*
X141367663Y-48601874D01*
X141439091Y-48744731D01*
X141439091Y-48959016D01*
X141439091Y-47816159D02*
X140439091Y-47816159D01*
X140581949Y-47816159D02*
X140510520Y-47744731D01*
X140439091Y-47601873D01*
X140439091Y-47387588D01*
X140510520Y-47244731D01*
X140653377Y-47173302D01*
X141439091Y-47173302D01*
X140653377Y-47173302D02*
X140510520Y-47101873D01*
X140439091Y-46959016D01*
X140439091Y-46744731D01*
X140510520Y-46601873D01*
X140653377Y-46530445D01*
X141439091Y-46530445D01*
X140439091Y-45816159D02*
X140867663Y-44673302D01*
X141296234Y-45816159D01*
X76658501Y-46381017D02*
X76610120Y-46332636D01*
X76561739Y-46235874D01*
X76561739Y-45993970D01*
X76610120Y-45897208D01*
X76658501Y-45848827D01*
X76755263Y-45800446D01*
X76852025Y-45800446D01*
X76997168Y-45848827D01*
X77577739Y-46429398D01*
X77577739Y-45800446D01*
X76561739Y-45171493D02*
X76561739Y-45074732D01*
X76610120Y-44977970D01*
X76658501Y-44929589D01*
X76755263Y-44881208D01*
X76948787Y-44832827D01*
X77190691Y-44832827D01*
X77384215Y-44881208D01*
X77480977Y-44929589D01*
X77529358Y-44977970D01*
X77577739Y-45074732D01*
X77577739Y-45171493D01*
X77529358Y-45268255D01*
X77480977Y-45316636D01*
X77384215Y-45365017D01*
X77190691Y-45413398D01*
X76948787Y-45413398D01*
X76755263Y-45365017D01*
X76658501Y-45316636D01*
X76610120Y-45268255D01*
X76561739Y-45171493D01*
X77577739Y-43865208D02*
X77577739Y-44445779D01*
X77577739Y-44155493D02*
X76561739Y-44155493D01*
X76706882Y-44252255D01*
X76803644Y-44349017D01*
X76852025Y-44445779D01*
X76561739Y-43526541D02*
X76561739Y-42849208D01*
X77577739Y-43284636D01*
X77190691Y-42462160D02*
X77190691Y-41688065D01*
X76561739Y-41010731D02*
X76561739Y-40913970D01*
X76610120Y-40817208D01*
X76658501Y-40768827D01*
X76755263Y-40720446D01*
X76948787Y-40672065D01*
X77190691Y-40672065D01*
X77384215Y-40720446D01*
X77480977Y-40768827D01*
X77529358Y-40817208D01*
X77577739Y-40913970D01*
X77577739Y-41010731D01*
X77529358Y-41107493D01*
X77480977Y-41155874D01*
X77384215Y-41204255D01*
X77190691Y-41252636D01*
X76948787Y-41252636D01*
X76755263Y-41204255D01*
X76658501Y-41155874D01*
X76610120Y-41107493D01*
X76561739Y-41010731D01*
X76561739Y-40333398D02*
X76561739Y-39656065D01*
X77577739Y-40091493D01*
X77190691Y-39269017D02*
X77190691Y-38494922D01*
X76561739Y-37817588D02*
X76561739Y-37720827D01*
X76610120Y-37624065D01*
X76658501Y-37575684D01*
X76755263Y-37527303D01*
X76948787Y-37478922D01*
X77190691Y-37478922D01*
X77384215Y-37527303D01*
X77480977Y-37575684D01*
X77529358Y-37624065D01*
X77577739Y-37720827D01*
X77577739Y-37817588D01*
X77529358Y-37914350D01*
X77480977Y-37962731D01*
X77384215Y-38011112D01*
X77190691Y-38059493D01*
X76948787Y-38059493D01*
X76755263Y-38011112D01*
X76658501Y-37962731D01*
X76610120Y-37914350D01*
X76561739Y-37817588D01*
X76658501Y-37091874D02*
X76610120Y-37043493D01*
X76561739Y-36946731D01*
X76561739Y-36704827D01*
X76610120Y-36608065D01*
X76658501Y-36559684D01*
X76755263Y-36511303D01*
X76852025Y-36511303D01*
X76997168Y-36559684D01*
X77577739Y-37140255D01*
X77577739Y-36511303D01*
D12*
X133420120Y-40291160D02*
G75*
G03X133420120Y-40291160I-250000J0D01*
G01*
X131270120Y-33541160D02*
X131270120Y-34541160D01*
X131270120Y-34541160D02*
X130270120Y-34541160D01*
X130270120Y-34541160D02*
X130270120Y-33541160D01*
X132670120Y-39541160D02*
X133920120Y-39541160D01*
X133920120Y-39541160D02*
X133920120Y-41141160D01*
X133920120Y-41141160D02*
X134720120Y-41141160D01*
X134720120Y-41141160D02*
X134720120Y-37041160D01*
X133920120Y-39541160D02*
X134720120Y-39541160D01*
X128870120Y-39541160D02*
X127620120Y-39541160D01*
X127620120Y-39541160D02*
X127620120Y-41141160D01*
X127620120Y-41141160D02*
X126820120Y-41141160D01*
X126820120Y-41141160D02*
X126820120Y-37041160D01*
X127620120Y-39541160D02*
X126820120Y-39541160D01*
X132970120Y-33541160D02*
X128570120Y-33541160D01*
X132970120Y-38441160D02*
X132970120Y-35041160D01*
X132970120Y-35041160D02*
X131970120Y-35041160D01*
X131970120Y-35041160D02*
X131970120Y-38441160D01*
X131970120Y-38441160D02*
X132970120Y-38441160D01*
X128570120Y-38441160D02*
X128570120Y-35041160D01*
X128570120Y-35041160D02*
X129570120Y-35041160D01*
X129570120Y-35041160D02*
X129570120Y-38441160D01*
X129570120Y-38441160D02*
X128570120Y-38441160D01*
X130870120Y-39541160D02*
X130670120Y-39541160D01*
D13*
X76881840Y-51004800D02*
X80731840Y-51004800D01*
D10*
X80193643Y-69604800D02*
G75*
G03X80193643Y-69604800I-111803J0D01*
G01*
D13*
X76881840Y-51004800D02*
X76881840Y-70154800D01*
X80731840Y-70154800D02*
X80731840Y-51004800D01*
X76881840Y-70154800D02*
X80731840Y-70154800D01*
D12*
X85918120Y-71446160D02*
X86918120Y-71446160D01*
X86918120Y-69746160D02*
X85918120Y-69746160D01*
X106374120Y-39708160D02*
X105374120Y-39708160D01*
X105374120Y-41408160D02*
X106374120Y-41408160D01*
X80817340Y-82383260D02*
X79817340Y-82383260D01*
X79817340Y-84083260D02*
X80817340Y-84083260D01*
X86438120Y-76656160D02*
X87438120Y-76656160D01*
X87438120Y-74956160D02*
X86438120Y-74956160D01*
X96798120Y-38976160D02*
X97798120Y-38976160D01*
X97798120Y-37276160D02*
X96798120Y-37276160D01*
X96798120Y-51626160D02*
X97798120Y-51626160D01*
X97798120Y-49926160D02*
X96798120Y-49926160D01*
X96798120Y-48426160D02*
X97798120Y-48426160D01*
X97798120Y-46726160D02*
X96798120Y-46726160D01*
X96798120Y-45176160D02*
X97798120Y-45176160D01*
X97798120Y-43476160D02*
X96798120Y-43476160D01*
X96798120Y-36076160D02*
X97798120Y-36076160D01*
X97798120Y-34376160D02*
X96798120Y-34376160D01*
X96798120Y-41926160D02*
X97798120Y-41926160D01*
X97798120Y-40226160D02*
X96798120Y-40226160D01*
X78958440Y-77683360D02*
X78958440Y-78064360D01*
X78958440Y-76667360D02*
X78958440Y-77048360D01*
X78958440Y-77048360D02*
X79339440Y-77683360D01*
X79339440Y-77683360D02*
X78577440Y-77683360D01*
X78577440Y-77683360D02*
X78958440Y-77048360D01*
X79466440Y-77048360D02*
X78450440Y-77048360D01*
X78058440Y-75365860D02*
X78058440Y-78905860D01*
X79858440Y-75365860D02*
X79858440Y-78905860D01*
X82255360Y-77767180D02*
X82255360Y-78148180D01*
X82255360Y-76751180D02*
X82255360Y-77132180D01*
X82255360Y-77132180D02*
X82636360Y-77767180D01*
X82636360Y-77767180D02*
X81874360Y-77767180D01*
X81874360Y-77767180D02*
X82255360Y-77132180D01*
X82763360Y-77132180D02*
X81747360Y-77132180D01*
X81355360Y-75449680D02*
X81355360Y-78989680D01*
X83155360Y-75449680D02*
X83155360Y-78989680D01*
X75354180Y-77132180D02*
X75354180Y-76751180D01*
X75354180Y-78148180D02*
X75354180Y-77767180D01*
X75354180Y-77767180D02*
X74973180Y-77132180D01*
X74973180Y-77132180D02*
X75735180Y-77132180D01*
X75735180Y-77132180D02*
X75354180Y-77767180D01*
X74846180Y-77767180D02*
X75862180Y-77767180D01*
X76254180Y-79449680D02*
X76254180Y-75909680D01*
X74454180Y-79449680D02*
X74454180Y-75909680D01*
X88608120Y-84186160D02*
X87958120Y-84186160D01*
X88608120Y-83436160D02*
X88608120Y-84186160D01*
X88608120Y-79336160D02*
X88608120Y-82336160D01*
X85408120Y-82336160D02*
X85408120Y-79336160D01*
X97287940Y-82285360D02*
X97287940Y-82986400D01*
X97287940Y-82986400D02*
X97039020Y-82986400D01*
X94488960Y-82986400D02*
X94288300Y-82986400D01*
X94288300Y-82986400D02*
X94288300Y-82285360D01*
X90793120Y-82786160D02*
X90793120Y-81586160D01*
X92543120Y-81586160D02*
X92543120Y-82786160D01*
X130615359Y-43694731D02*
X130758216Y-43742350D01*
X130805835Y-43789970D01*
X130853454Y-43885208D01*
X130853454Y-44028065D01*
X130805835Y-44123303D01*
X130758216Y-44170922D01*
X130662978Y-44218541D01*
X130282025Y-44218541D01*
X130282025Y-43218541D01*
X130615359Y-43218541D01*
X130710597Y-43266160D01*
X130758216Y-43313779D01*
X130805835Y-43409017D01*
X130805835Y-43504255D01*
X130758216Y-43599493D01*
X130710597Y-43647112D01*
X130615359Y-43694731D01*
X130282025Y-43694731D01*
X131805835Y-44218541D02*
X131234406Y-44218541D01*
X131520120Y-44218541D02*
X131520120Y-43218541D01*
X131424882Y-43361398D01*
X131329644Y-43456636D01*
X131234406Y-43504255D01*
X78448507Y-70507181D02*
X78448507Y-71221467D01*
X78400887Y-71364324D01*
X78305649Y-71459562D01*
X78162792Y-71507181D01*
X78067554Y-71507181D01*
X78877078Y-70602419D02*
X78924697Y-70554800D01*
X79019935Y-70507181D01*
X79258031Y-70507181D01*
X79353269Y-70554800D01*
X79400888Y-70602419D01*
X79448507Y-70697657D01*
X79448507Y-70792895D01*
X79400888Y-70935752D01*
X78829459Y-71507181D01*
X79448507Y-71507181D01*
X84973454Y-69227303D02*
X84925835Y-69274922D01*
X84782978Y-69322541D01*
X84687740Y-69322541D01*
X84544882Y-69274922D01*
X84449644Y-69179684D01*
X84402025Y-69084446D01*
X84354406Y-68893970D01*
X84354406Y-68751112D01*
X84402025Y-68560636D01*
X84449644Y-68465398D01*
X84544882Y-68370160D01*
X84687740Y-68322541D01*
X84782978Y-68322541D01*
X84925835Y-68370160D01*
X84973454Y-68417779D01*
X85878216Y-68322541D02*
X85402025Y-68322541D01*
X85354406Y-68798731D01*
X85402025Y-68751112D01*
X85497263Y-68703493D01*
X85735359Y-68703493D01*
X85830597Y-68751112D01*
X85878216Y-68798731D01*
X85925835Y-68893970D01*
X85925835Y-69132065D01*
X85878216Y-69227303D01*
X85830597Y-69274922D01*
X85735359Y-69322541D01*
X85497263Y-69322541D01*
X85402025Y-69274922D01*
X85354406Y-69227303D01*
X106981454Y-42695303D02*
X106933835Y-42742922D01*
X106790978Y-42790541D01*
X106695740Y-42790541D01*
X106552882Y-42742922D01*
X106457644Y-42647684D01*
X106410025Y-42552446D01*
X106362406Y-42361970D01*
X106362406Y-42219112D01*
X106410025Y-42028636D01*
X106457644Y-41933398D01*
X106552882Y-41838160D01*
X106695740Y-41790541D01*
X106790978Y-41790541D01*
X106933835Y-41838160D01*
X106981454Y-41885779D01*
X107933835Y-42790541D02*
X107362406Y-42790541D01*
X107648120Y-42790541D02*
X107648120Y-41790541D01*
X107552882Y-41933398D01*
X107457644Y-42028636D01*
X107362406Y-42076255D01*
X77626483Y-83399926D02*
X77674102Y-83447545D01*
X77721721Y-83590402D01*
X77721721Y-83685640D01*
X77674102Y-83828498D01*
X77578864Y-83923736D01*
X77483626Y-83971355D01*
X77293150Y-84018974D01*
X77150292Y-84018974D01*
X76959816Y-83971355D01*
X76864578Y-83923736D01*
X76769340Y-83828498D01*
X76721721Y-83685640D01*
X76721721Y-83590402D01*
X76769340Y-83447545D01*
X76816959Y-83399926D01*
X76816959Y-83018974D02*
X76769340Y-82971355D01*
X76721721Y-82876117D01*
X76721721Y-82638021D01*
X76769340Y-82542783D01*
X76816959Y-82495164D01*
X76912197Y-82447545D01*
X77007435Y-82447545D01*
X77150292Y-82495164D01*
X77721721Y-83066593D01*
X77721721Y-82447545D01*
X90327454Y-76163303D02*
X90279835Y-76210922D01*
X90136978Y-76258541D01*
X90041740Y-76258541D01*
X89898882Y-76210922D01*
X89803644Y-76115684D01*
X89756025Y-76020446D01*
X89708406Y-75829970D01*
X89708406Y-75687112D01*
X89756025Y-75496636D01*
X89803644Y-75401398D01*
X89898882Y-75306160D01*
X90041740Y-75258541D01*
X90136978Y-75258541D01*
X90279835Y-75306160D01*
X90327454Y-75353779D01*
X90660787Y-75258541D02*
X91279835Y-75258541D01*
X90946501Y-75639493D01*
X91089359Y-75639493D01*
X91184597Y-75687112D01*
X91232216Y-75734731D01*
X91279835Y-75829970D01*
X91279835Y-76068065D01*
X91232216Y-76163303D01*
X91184597Y-76210922D01*
X91089359Y-76258541D01*
X90803644Y-76258541D01*
X90708406Y-76210922D01*
X90660787Y-76163303D01*
X100868454Y-38420303D02*
X100820835Y-38467922D01*
X100677978Y-38515541D01*
X100582740Y-38515541D01*
X100439882Y-38467922D01*
X100344644Y-38372684D01*
X100297025Y-38277446D01*
X100249406Y-38086970D01*
X100249406Y-37944112D01*
X100297025Y-37753636D01*
X100344644Y-37658398D01*
X100439882Y-37563160D01*
X100582740Y-37515541D01*
X100677978Y-37515541D01*
X100820835Y-37563160D01*
X100868454Y-37610779D01*
X101725597Y-37848874D02*
X101725597Y-38515541D01*
X101487501Y-37467922D02*
X101249406Y-38182208D01*
X101868454Y-38182208D01*
X100687454Y-51133303D02*
X100639835Y-51180922D01*
X100496978Y-51228541D01*
X100401740Y-51228541D01*
X100258882Y-51180922D01*
X100163644Y-51085684D01*
X100116025Y-50990446D01*
X100068406Y-50799970D01*
X100068406Y-50657112D01*
X100116025Y-50466636D01*
X100163644Y-50371398D01*
X100258882Y-50276160D01*
X100401740Y-50228541D01*
X100496978Y-50228541D01*
X100639835Y-50276160D01*
X100687454Y-50323779D01*
X101544597Y-50228541D02*
X101354120Y-50228541D01*
X101258882Y-50276160D01*
X101211263Y-50323779D01*
X101116025Y-50466636D01*
X101068406Y-50657112D01*
X101068406Y-51038065D01*
X101116025Y-51133303D01*
X101163644Y-51180922D01*
X101258882Y-51228541D01*
X101449359Y-51228541D01*
X101544597Y-51180922D01*
X101592216Y-51133303D01*
X101639835Y-51038065D01*
X101639835Y-50799970D01*
X101592216Y-50704731D01*
X101544597Y-50657112D01*
X101449359Y-50609493D01*
X101258882Y-50609493D01*
X101163644Y-50657112D01*
X101116025Y-50704731D01*
X101068406Y-50799970D01*
X100785454Y-47827303D02*
X100737835Y-47874922D01*
X100594978Y-47922541D01*
X100499740Y-47922541D01*
X100356882Y-47874922D01*
X100261644Y-47779684D01*
X100214025Y-47684446D01*
X100166406Y-47493970D01*
X100166406Y-47351112D01*
X100214025Y-47160636D01*
X100261644Y-47065398D01*
X100356882Y-46970160D01*
X100499740Y-46922541D01*
X100594978Y-46922541D01*
X100737835Y-46970160D01*
X100785454Y-47017779D01*
X101118787Y-46922541D02*
X101785454Y-46922541D01*
X101356882Y-47922541D01*
X100778454Y-44645303D02*
X100730835Y-44692922D01*
X100587978Y-44740541D01*
X100492740Y-44740541D01*
X100349882Y-44692922D01*
X100254644Y-44597684D01*
X100207025Y-44502446D01*
X100159406Y-44311970D01*
X100159406Y-44169112D01*
X100207025Y-43978636D01*
X100254644Y-43883398D01*
X100349882Y-43788160D01*
X100492740Y-43740541D01*
X100587978Y-43740541D01*
X100730835Y-43788160D01*
X100778454Y-43835779D01*
X101349882Y-44169112D02*
X101254644Y-44121493D01*
X101207025Y-44073874D01*
X101159406Y-43978636D01*
X101159406Y-43931017D01*
X101207025Y-43835779D01*
X101254644Y-43788160D01*
X101349882Y-43740541D01*
X101540359Y-43740541D01*
X101635597Y-43788160D01*
X101683216Y-43835779D01*
X101730835Y-43931017D01*
X101730835Y-43978636D01*
X101683216Y-44073874D01*
X101635597Y-44121493D01*
X101540359Y-44169112D01*
X101349882Y-44169112D01*
X101254644Y-44216731D01*
X101207025Y-44264350D01*
X101159406Y-44359589D01*
X101159406Y-44550065D01*
X101207025Y-44645303D01*
X101254644Y-44692922D01*
X101349882Y-44740541D01*
X101540359Y-44740541D01*
X101635597Y-44692922D01*
X101683216Y-44645303D01*
X101730835Y-44550065D01*
X101730835Y-44359589D01*
X101683216Y-44264350D01*
X101635597Y-44216731D01*
X101540359Y-44169112D01*
X100848454Y-35525303D02*
X100800835Y-35572922D01*
X100657978Y-35620541D01*
X100562740Y-35620541D01*
X100419882Y-35572922D01*
X100324644Y-35477684D01*
X100277025Y-35382446D01*
X100229406Y-35191970D01*
X100229406Y-35049112D01*
X100277025Y-34858636D01*
X100324644Y-34763398D01*
X100419882Y-34668160D01*
X100562740Y-34620541D01*
X100657978Y-34620541D01*
X100800835Y-34668160D01*
X100848454Y-34715779D01*
X101324644Y-35620541D02*
X101515120Y-35620541D01*
X101610359Y-35572922D01*
X101657978Y-35525303D01*
X101753216Y-35382446D01*
X101800835Y-35191970D01*
X101800835Y-34811017D01*
X101753216Y-34715779D01*
X101705597Y-34668160D01*
X101610359Y-34620541D01*
X101419882Y-34620541D01*
X101324644Y-34668160D01*
X101277025Y-34715779D01*
X101229406Y-34811017D01*
X101229406Y-35049112D01*
X101277025Y-35144350D01*
X101324644Y-35191970D01*
X101419882Y-35239589D01*
X101610359Y-35239589D01*
X101705597Y-35191970D01*
X101753216Y-35144350D01*
X101800835Y-35049112D01*
X100812263Y-41385303D02*
X100764644Y-41432922D01*
X100621787Y-41480541D01*
X100526549Y-41480541D01*
X100383691Y-41432922D01*
X100288453Y-41337684D01*
X100240834Y-41242446D01*
X100193215Y-41051970D01*
X100193215Y-40909112D01*
X100240834Y-40718636D01*
X100288453Y-40623398D01*
X100383691Y-40528160D01*
X100526549Y-40480541D01*
X100621787Y-40480541D01*
X100764644Y-40528160D01*
X100812263Y-40575779D01*
X101764644Y-41480541D02*
X101193215Y-41480541D01*
X101478929Y-41480541D02*
X101478929Y-40480541D01*
X101383691Y-40623398D01*
X101288453Y-40718636D01*
X101193215Y-40766255D01*
X102383691Y-40480541D02*
X102478930Y-40480541D01*
X102574168Y-40528160D01*
X102621787Y-40575779D01*
X102669406Y-40671017D01*
X102717025Y-40861493D01*
X102717025Y-41099589D01*
X102669406Y-41290065D01*
X102621787Y-41385303D01*
X102574168Y-41432922D01*
X102478930Y-41480541D01*
X102383691Y-41480541D01*
X102288453Y-41432922D01*
X102240834Y-41385303D01*
X102193215Y-41290065D01*
X102145596Y-41099589D01*
X102145596Y-40861493D01*
X102193215Y-40671017D01*
X102240834Y-40575779D01*
X102288453Y-40528160D01*
X102383691Y-40480541D01*
X78250345Y-74380241D02*
X78250345Y-73380241D01*
X78488440Y-73380241D01*
X78631298Y-73427860D01*
X78726536Y-73523098D01*
X78774155Y-73618336D01*
X78821774Y-73808812D01*
X78821774Y-73951670D01*
X78774155Y-74142146D01*
X78726536Y-74237384D01*
X78631298Y-74332622D01*
X78488440Y-74380241D01*
X78250345Y-74380241D01*
X79774155Y-74380241D02*
X79202726Y-74380241D01*
X79488440Y-74380241D02*
X79488440Y-73380241D01*
X79393202Y-73523098D01*
X79297964Y-73618336D01*
X79202726Y-73665955D01*
X81517265Y-81458061D02*
X81517265Y-80458061D01*
X81755360Y-80458061D01*
X81898218Y-80505680D01*
X81993456Y-80600918D01*
X82041075Y-80696156D01*
X82088694Y-80886632D01*
X82088694Y-81029490D01*
X82041075Y-81219966D01*
X81993456Y-81315204D01*
X81898218Y-81410442D01*
X81755360Y-81458061D01*
X81517265Y-81458061D01*
X82469646Y-80553299D02*
X82517265Y-80505680D01*
X82612503Y-80458061D01*
X82850599Y-80458061D01*
X82945837Y-80505680D01*
X82993456Y-80553299D01*
X83041075Y-80648537D01*
X83041075Y-80743775D01*
X82993456Y-80886632D01*
X82422027Y-81458061D01*
X83041075Y-81458061D01*
X74632085Y-81028061D02*
X74632085Y-80028061D01*
X74870180Y-80028061D01*
X75013038Y-80075680D01*
X75108276Y-80170918D01*
X75155895Y-80266156D01*
X75203514Y-80456632D01*
X75203514Y-80599490D01*
X75155895Y-80789966D01*
X75108276Y-80885204D01*
X75013038Y-80980442D01*
X74870180Y-81028061D01*
X74632085Y-81028061D01*
X75536847Y-80028061D02*
X76155895Y-80028061D01*
X75822561Y-80409013D01*
X75965419Y-80409013D01*
X76060657Y-80456632D01*
X76108276Y-80504251D01*
X76155895Y-80599490D01*
X76155895Y-80837585D01*
X76108276Y-80932823D01*
X76060657Y-80980442D01*
X75965419Y-81028061D01*
X75679704Y-81028061D01*
X75584466Y-80980442D01*
X75536847Y-80932823D01*
X90210501Y-81002826D02*
X90210501Y-81479017D01*
X89210501Y-81479017D01*
X90210501Y-80145683D02*
X90210501Y-80717112D01*
X90210501Y-80431398D02*
X89210501Y-80431398D01*
X89353358Y-80526636D01*
X89448596Y-80621874D01*
X89496215Y-80717112D01*
X95692882Y-86693779D02*
X95597644Y-86646160D01*
X95502406Y-86550922D01*
X95359549Y-86408065D01*
X95264310Y-86360446D01*
X95169072Y-86360446D01*
X95216691Y-86598541D02*
X95121453Y-86550922D01*
X95026215Y-86455684D01*
X94978596Y-86265208D01*
X94978596Y-85931874D01*
X95026215Y-85741398D01*
X95121453Y-85646160D01*
X95216691Y-85598541D01*
X95407168Y-85598541D01*
X95502406Y-85646160D01*
X95597644Y-85741398D01*
X95645263Y-85931874D01*
X95645263Y-86265208D01*
X95597644Y-86455684D01*
X95502406Y-86550922D01*
X95407168Y-86598541D01*
X95216691Y-86598541D01*
X96597644Y-86598541D02*
X96026215Y-86598541D01*
X96311929Y-86598541D02*
X96311929Y-85598541D01*
X96216691Y-85741398D01*
X96121453Y-85836636D01*
X96026215Y-85884255D01*
X94220501Y-82352826D02*
X93744310Y-82686160D01*
X94220501Y-82924255D02*
X93220501Y-82924255D01*
X93220501Y-82543302D01*
X93268120Y-82448064D01*
X93315739Y-82400445D01*
X93410977Y-82352826D01*
X93553834Y-82352826D01*
X93649072Y-82400445D01*
X93696691Y-82448064D01*
X93744310Y-82543302D01*
X93744310Y-82924255D01*
X94220501Y-81400445D02*
X94220501Y-81971874D01*
X94220501Y-81686160D02*
X93220501Y-81686160D01*
X93363358Y-81781398D01*
X93458596Y-81876636D01*
X93506215Y-81971874D01*
X124694977Y-44898541D02*
X125028310Y-45898541D01*
X125361644Y-44898541D01*
X125694977Y-45898541D02*
X125694977Y-44898541D01*
X126171167Y-45898541D02*
X126171167Y-44898541D01*
X126742596Y-45898541D01*
X126742596Y-44898541D01*
X122154787Y-42358541D02*
X122154787Y-43072827D01*
X122107167Y-43215684D01*
X122011929Y-43310922D01*
X121869072Y-43358541D01*
X121773834Y-43358541D01*
X123154787Y-43358541D02*
X122583358Y-43358541D01*
X122869072Y-43358541D02*
X122869072Y-42358541D01*
X122773834Y-42501398D01*
X122678596Y-42596636D01*
X122583358Y-42644255D01*
X124790215Y-48152827D02*
X125266406Y-48152827D01*
X124694977Y-48438541D02*
X125028310Y-47438541D01*
X125361644Y-48438541D01*
X126218787Y-47486160D02*
X126123549Y-47438541D01*
X125980692Y-47438541D01*
X125837834Y-47486160D01*
X125742596Y-47581398D01*
X125694977Y-47676636D01*
X125647358Y-47867112D01*
X125647358Y-48009970D01*
X125694977Y-48200446D01*
X125742596Y-48295684D01*
X125837834Y-48390922D01*
X125980692Y-48438541D01*
X126075930Y-48438541D01*
X126218787Y-48390922D01*
X126266406Y-48343303D01*
X126266406Y-48009970D01*
X126075930Y-48009970D01*
X126694977Y-48438541D02*
X126694977Y-47438541D01*
X127266406Y-48438541D01*
X127266406Y-47438541D01*
X127742596Y-48438541D02*
X127742596Y-47438541D01*
X127980691Y-47438541D01*
X128123549Y-47486160D01*
X128218787Y-47581398D01*
X128266406Y-47676636D01*
X128314025Y-47867112D01*
X128314025Y-48009970D01*
X128266406Y-48200446D01*
X128218787Y-48295684D01*
X128123549Y-48390922D01*
X127980691Y-48438541D01*
X127742596Y-48438541D01*
X124742596Y-49978541D02*
X125361644Y-49978541D01*
X125028310Y-50359493D01*
X125171168Y-50359493D01*
X125266406Y-50407112D01*
X125314025Y-50454731D01*
X125361644Y-50549970D01*
X125361644Y-50788065D01*
X125314025Y-50883303D01*
X125266406Y-50930922D01*
X125171168Y-50978541D01*
X124885453Y-50978541D01*
X124790215Y-50930922D01*
X124742596Y-50883303D01*
X125790215Y-50883303D02*
X125837834Y-50930922D01*
X125790215Y-50978541D01*
X125742596Y-50930922D01*
X125790215Y-50883303D01*
X125790215Y-50978541D01*
X126171167Y-49978541D02*
X126790215Y-49978541D01*
X126456881Y-50359493D01*
X126599739Y-50359493D01*
X126694977Y-50407112D01*
X126742596Y-50454731D01*
X126790215Y-50549970D01*
X126790215Y-50788065D01*
X126742596Y-50883303D01*
X126694977Y-50930922D01*
X126599739Y-50978541D01*
X126314024Y-50978541D01*
X126218786Y-50930922D01*
X126171167Y-50883303D01*
X127075929Y-49978541D02*
X127409262Y-50978541D01*
X127742596Y-49978541D01*
X124790215Y-52613779D02*
X124837834Y-52566160D01*
X124933072Y-52518541D01*
X125171168Y-52518541D01*
X125266406Y-52566160D01*
X125314025Y-52613779D01*
X125361644Y-52709017D01*
X125361644Y-52804255D01*
X125314025Y-52947112D01*
X124742596Y-53518541D01*
X125361644Y-53518541D01*
X125694977Y-52518541D02*
X126314025Y-52518541D01*
X125980691Y-52899493D01*
X126123549Y-52899493D01*
X126218787Y-52947112D01*
X126266406Y-52994731D01*
X126314025Y-53089970D01*
X126314025Y-53328065D01*
X126266406Y-53423303D01*
X126218787Y-53470922D01*
X126123549Y-53518541D01*
X125837834Y-53518541D01*
X125742596Y-53470922D01*
X125694977Y-53423303D01*
X124790215Y-55153779D02*
X124837834Y-55106160D01*
X124933072Y-55058541D01*
X125171168Y-55058541D01*
X125266406Y-55106160D01*
X125314025Y-55153779D01*
X125361644Y-55249017D01*
X125361644Y-55344255D01*
X125314025Y-55487112D01*
X124742596Y-56058541D01*
X125361644Y-56058541D01*
X125742596Y-55153779D02*
X125790215Y-55106160D01*
X125885453Y-55058541D01*
X126123549Y-55058541D01*
X126218787Y-55106160D01*
X126266406Y-55153779D01*
X126314025Y-55249017D01*
X126314025Y-55344255D01*
X126266406Y-55487112D01*
X125694977Y-56058541D01*
X126314025Y-56058541D01*
X124790215Y-57693779D02*
X124837834Y-57646160D01*
X124933072Y-57598541D01*
X125171168Y-57598541D01*
X125266406Y-57646160D01*
X125314025Y-57693779D01*
X125361644Y-57789017D01*
X125361644Y-57884255D01*
X125314025Y-58027112D01*
X124742596Y-58598541D01*
X125361644Y-58598541D01*
X126314025Y-58598541D02*
X125742596Y-58598541D01*
X126028310Y-58598541D02*
X126028310Y-57598541D01*
X125933072Y-57741398D01*
X125837834Y-57836636D01*
X125742596Y-57884255D01*
X124790215Y-60233779D02*
X124837834Y-60186160D01*
X124933072Y-60138541D01*
X125171168Y-60138541D01*
X125266406Y-60186160D01*
X125314025Y-60233779D01*
X125361644Y-60329017D01*
X125361644Y-60424255D01*
X125314025Y-60567112D01*
X124742596Y-61138541D01*
X125361644Y-61138541D01*
X125980691Y-60138541D02*
X126075930Y-60138541D01*
X126171168Y-60186160D01*
X126218787Y-60233779D01*
X126266406Y-60329017D01*
X126314025Y-60519493D01*
X126314025Y-60757589D01*
X126266406Y-60948065D01*
X126218787Y-61043303D01*
X126171168Y-61090922D01*
X126075930Y-61138541D01*
X125980691Y-61138541D01*
X125885453Y-61090922D01*
X125837834Y-61043303D01*
X125790215Y-60948065D01*
X125742596Y-60757589D01*
X125742596Y-60519493D01*
X125790215Y-60329017D01*
X125837834Y-60233779D01*
X125885453Y-60186160D01*
X125980691Y-60138541D01*
X125361644Y-63678541D02*
X124790215Y-63678541D01*
X125075929Y-63678541D02*
X125075929Y-62678541D01*
X124980691Y-62821398D01*
X124885453Y-62916636D01*
X124790215Y-62964255D01*
X125837834Y-63678541D02*
X126028310Y-63678541D01*
X126123549Y-63630922D01*
X126171168Y-63583303D01*
X126266406Y-63440446D01*
X126314025Y-63249970D01*
X126314025Y-62869017D01*
X126266406Y-62773779D01*
X126218787Y-62726160D01*
X126123549Y-62678541D01*
X125933072Y-62678541D01*
X125837834Y-62726160D01*
X125790215Y-62773779D01*
X125742596Y-62869017D01*
X125742596Y-63107112D01*
X125790215Y-63202350D01*
X125837834Y-63249970D01*
X125933072Y-63297589D01*
X126123549Y-63297589D01*
X126218787Y-63249970D01*
X126266406Y-63202350D01*
X126314025Y-63107112D01*
X125361644Y-66218541D02*
X124790215Y-66218541D01*
X125075929Y-66218541D02*
X125075929Y-65218541D01*
X124980691Y-65361398D01*
X124885453Y-65456636D01*
X124790215Y-65504255D01*
X125933072Y-65647112D02*
X125837834Y-65599493D01*
X125790215Y-65551874D01*
X125742596Y-65456636D01*
X125742596Y-65409017D01*
X125790215Y-65313779D01*
X125837834Y-65266160D01*
X125933072Y-65218541D01*
X126123549Y-65218541D01*
X126218787Y-65266160D01*
X126266406Y-65313779D01*
X126314025Y-65409017D01*
X126314025Y-65456636D01*
X126266406Y-65551874D01*
X126218787Y-65599493D01*
X126123549Y-65647112D01*
X125933072Y-65647112D01*
X125837834Y-65694731D01*
X125790215Y-65742350D01*
X125742596Y-65837589D01*
X125742596Y-66028065D01*
X125790215Y-66123303D01*
X125837834Y-66170922D01*
X125933072Y-66218541D01*
X126123549Y-66218541D01*
X126218787Y-66170922D01*
X126266406Y-66123303D01*
X126314025Y-66028065D01*
X126314025Y-65837589D01*
X126266406Y-65742350D01*
X126218787Y-65694731D01*
X126123549Y-65647112D01*
X125361644Y-68758541D02*
X124790215Y-68758541D01*
X125075929Y-68758541D02*
X125075929Y-67758541D01*
X124980691Y-67901398D01*
X124885453Y-67996636D01*
X124790215Y-68044255D01*
X125694977Y-67758541D02*
X126361644Y-67758541D01*
X125933072Y-68758541D01*
X125361644Y-71298541D02*
X124790215Y-71298541D01*
X125075929Y-71298541D02*
X125075929Y-70298541D01*
X124980691Y-70441398D01*
X124885453Y-70536636D01*
X124790215Y-70584255D01*
X126218787Y-70298541D02*
X126028310Y-70298541D01*
X125933072Y-70346160D01*
X125885453Y-70393779D01*
X125790215Y-70536636D01*
X125742596Y-70727112D01*
X125742596Y-71108065D01*
X125790215Y-71203303D01*
X125837834Y-71250922D01*
X125933072Y-71298541D01*
X126123549Y-71298541D01*
X126218787Y-71250922D01*
X126266406Y-71203303D01*
X126314025Y-71108065D01*
X126314025Y-70869970D01*
X126266406Y-70774731D01*
X126218787Y-70727112D01*
X126123549Y-70679493D01*
X125933072Y-70679493D01*
X125837834Y-70727112D01*
X125790215Y-70774731D01*
X125742596Y-70869970D01*
X125361644Y-73838541D02*
X124790215Y-73838541D01*
X125075929Y-73838541D02*
X125075929Y-72838541D01*
X124980691Y-72981398D01*
X124885453Y-73076636D01*
X124790215Y-73124255D01*
X126266406Y-72838541D02*
X125790215Y-72838541D01*
X125742596Y-73314731D01*
X125790215Y-73267112D01*
X125885453Y-73219493D01*
X126123549Y-73219493D01*
X126218787Y-73267112D01*
X126266406Y-73314731D01*
X126314025Y-73409970D01*
X126314025Y-73648065D01*
X126266406Y-73743303D01*
X126218787Y-73790922D01*
X126123549Y-73838541D01*
X125885453Y-73838541D01*
X125790215Y-73790922D01*
X125742596Y-73743303D01*
X125361644Y-76378541D02*
X124790215Y-76378541D01*
X125075929Y-76378541D02*
X125075929Y-75378541D01*
X124980691Y-75521398D01*
X124885453Y-75616636D01*
X124790215Y-75664255D01*
X126218787Y-75711874D02*
X126218787Y-76378541D01*
X125980691Y-75330922D02*
X125742596Y-76045208D01*
X126361644Y-76045208D01*
X125361644Y-78918541D02*
X124790215Y-78918541D01*
X125075929Y-78918541D02*
X125075929Y-77918541D01*
X124980691Y-78061398D01*
X124885453Y-78156636D01*
X124790215Y-78204255D01*
X125694977Y-77918541D02*
X126314025Y-77918541D01*
X125980691Y-78299493D01*
X126123549Y-78299493D01*
X126218787Y-78347112D01*
X126266406Y-78394731D01*
X126314025Y-78489970D01*
X126314025Y-78728065D01*
X126266406Y-78823303D01*
X126218787Y-78870922D01*
X126123549Y-78918541D01*
X125837834Y-78918541D01*
X125742596Y-78870922D01*
X125694977Y-78823303D01*
X104692120Y-47438541D02*
X104787359Y-47438541D01*
X104882597Y-47486160D01*
X104930216Y-47533779D01*
X104977835Y-47629017D01*
X105025454Y-47819493D01*
X105025454Y-48057589D01*
X104977835Y-48248065D01*
X104930216Y-48343303D01*
X104882597Y-48390922D01*
X104787359Y-48438541D01*
X104692120Y-48438541D01*
X104596882Y-48390922D01*
X104549263Y-48343303D01*
X104501644Y-48248065D01*
X104454025Y-48057589D01*
X104454025Y-47819493D01*
X104501644Y-47629017D01*
X104549263Y-47533779D01*
X104596882Y-47486160D01*
X104692120Y-47438541D01*
X102930216Y-44946160D02*
X102834978Y-44898541D01*
X102692121Y-44898541D01*
X102549263Y-44946160D01*
X102454025Y-45041398D01*
X102406406Y-45136636D01*
X102358787Y-45327112D01*
X102358787Y-45469970D01*
X102406406Y-45660446D01*
X102454025Y-45755684D01*
X102549263Y-45850922D01*
X102692121Y-45898541D01*
X102787359Y-45898541D01*
X102930216Y-45850922D01*
X102977835Y-45803303D01*
X102977835Y-45469970D01*
X102787359Y-45469970D01*
X103406406Y-45898541D02*
X103406406Y-44898541D01*
X103977835Y-45898541D01*
X103977835Y-44898541D01*
X104454025Y-45898541D02*
X104454025Y-44898541D01*
X104692120Y-44898541D01*
X104834978Y-44946160D01*
X104930216Y-45041398D01*
X104977835Y-45136636D01*
X105025454Y-45327112D01*
X105025454Y-45469970D01*
X104977835Y-45660446D01*
X104930216Y-45755684D01*
X104834978Y-45850922D01*
X104692120Y-45898541D01*
X104454025Y-45898541D01*
X105025454Y-50978541D02*
X104454025Y-50978541D01*
X104739739Y-50978541D02*
X104739739Y-49978541D01*
X104644501Y-50121398D01*
X104549263Y-50216636D01*
X104454025Y-50264255D01*
X104454025Y-52613779D02*
X104501644Y-52566160D01*
X104596882Y-52518541D01*
X104834978Y-52518541D01*
X104930216Y-52566160D01*
X104977835Y-52613779D01*
X105025454Y-52709017D01*
X105025454Y-52804255D01*
X104977835Y-52947112D01*
X104406406Y-53518541D01*
X105025454Y-53518541D01*
X104406406Y-55058541D02*
X105025454Y-55058541D01*
X104692120Y-55439493D01*
X104834978Y-55439493D01*
X104930216Y-55487112D01*
X104977835Y-55534731D01*
X105025454Y-55629970D01*
X105025454Y-55868065D01*
X104977835Y-55963303D01*
X104930216Y-56010922D01*
X104834978Y-56058541D01*
X104549263Y-56058541D01*
X104454025Y-56010922D01*
X104406406Y-55963303D01*
X104930216Y-57931874D02*
X104930216Y-58598541D01*
X104692120Y-57550922D02*
X104454025Y-58265208D01*
X105073073Y-58265208D01*
X104977835Y-60138541D02*
X104501644Y-60138541D01*
X104454025Y-60614731D01*
X104501644Y-60567112D01*
X104596882Y-60519493D01*
X104834978Y-60519493D01*
X104930216Y-60567112D01*
X104977835Y-60614731D01*
X105025454Y-60709970D01*
X105025454Y-60948065D01*
X104977835Y-61043303D01*
X104930216Y-61090922D01*
X104834978Y-61138541D01*
X104596882Y-61138541D01*
X104501644Y-61090922D01*
X104454025Y-61043303D01*
X104930216Y-62678541D02*
X104739739Y-62678541D01*
X104644501Y-62726160D01*
X104596882Y-62773779D01*
X104501644Y-62916636D01*
X104454025Y-63107112D01*
X104454025Y-63488065D01*
X104501644Y-63583303D01*
X104549263Y-63630922D01*
X104644501Y-63678541D01*
X104834978Y-63678541D01*
X104930216Y-63630922D01*
X104977835Y-63583303D01*
X105025454Y-63488065D01*
X105025454Y-63249970D01*
X104977835Y-63154731D01*
X104930216Y-63107112D01*
X104834978Y-63059493D01*
X104644501Y-63059493D01*
X104549263Y-63107112D01*
X104501644Y-63154731D01*
X104454025Y-63249970D01*
X104406406Y-65218541D02*
X105073073Y-65218541D01*
X104644501Y-66218541D01*
X104644501Y-68187112D02*
X104549263Y-68139493D01*
X104501644Y-68091874D01*
X104454025Y-67996636D01*
X104454025Y-67949017D01*
X104501644Y-67853779D01*
X104549263Y-67806160D01*
X104644501Y-67758541D01*
X104834978Y-67758541D01*
X104930216Y-67806160D01*
X104977835Y-67853779D01*
X105025454Y-67949017D01*
X105025454Y-67996636D01*
X104977835Y-68091874D01*
X104930216Y-68139493D01*
X104834978Y-68187112D01*
X104644501Y-68187112D01*
X104549263Y-68234731D01*
X104501644Y-68282350D01*
X104454025Y-68377589D01*
X104454025Y-68568065D01*
X104501644Y-68663303D01*
X104549263Y-68710922D01*
X104644501Y-68758541D01*
X104834978Y-68758541D01*
X104930216Y-68710922D01*
X104977835Y-68663303D01*
X105025454Y-68568065D01*
X105025454Y-68377589D01*
X104977835Y-68282350D01*
X104930216Y-68234731D01*
X104834978Y-68187112D01*
X104549263Y-71298541D02*
X104739739Y-71298541D01*
X104834978Y-71250922D01*
X104882597Y-71203303D01*
X104977835Y-71060446D01*
X105025454Y-70869970D01*
X105025454Y-70489017D01*
X104977835Y-70393779D01*
X104930216Y-70346160D01*
X104834978Y-70298541D01*
X104644501Y-70298541D01*
X104549263Y-70346160D01*
X104501644Y-70393779D01*
X104454025Y-70489017D01*
X104454025Y-70727112D01*
X104501644Y-70822350D01*
X104549263Y-70869970D01*
X104644501Y-70917589D01*
X104834978Y-70917589D01*
X104930216Y-70869970D01*
X104977835Y-70822350D01*
X105025454Y-70727112D01*
X104073073Y-73838541D02*
X103501644Y-73838541D01*
X103787358Y-73838541D02*
X103787358Y-72838541D01*
X103692120Y-72981398D01*
X103596882Y-73076636D01*
X103501644Y-73124255D01*
X104692120Y-72838541D02*
X104787359Y-72838541D01*
X104882597Y-72886160D01*
X104930216Y-72933779D01*
X104977835Y-73029017D01*
X105025454Y-73219493D01*
X105025454Y-73457589D01*
X104977835Y-73648065D01*
X104930216Y-73743303D01*
X104882597Y-73790922D01*
X104787359Y-73838541D01*
X104692120Y-73838541D01*
X104596882Y-73790922D01*
X104549263Y-73743303D01*
X104501644Y-73648065D01*
X104454025Y-73457589D01*
X104454025Y-73219493D01*
X104501644Y-73029017D01*
X104549263Y-72933779D01*
X104596882Y-72886160D01*
X104692120Y-72838541D01*
X104073073Y-76378541D02*
X103501644Y-76378541D01*
X103787358Y-76378541D02*
X103787358Y-75378541D01*
X103692120Y-75521398D01*
X103596882Y-75616636D01*
X103501644Y-75664255D01*
X105025454Y-76378541D02*
X104454025Y-76378541D01*
X104739739Y-76378541D02*
X104739739Y-75378541D01*
X104644501Y-75521398D01*
X104549263Y-75616636D01*
X104454025Y-75664255D01*
X104073073Y-78918541D02*
X103501644Y-78918541D01*
X103787358Y-78918541D02*
X103787358Y-77918541D01*
X103692120Y-78061398D01*
X103596882Y-78156636D01*
X103501644Y-78204255D01*
X104454025Y-78013779D02*
X104501644Y-77966160D01*
X104596882Y-77918541D01*
X104834978Y-77918541D01*
X104930216Y-77966160D01*
X104977835Y-78013779D01*
X105025454Y-78109017D01*
X105025454Y-78204255D01*
X104977835Y-78347112D01*
X104406406Y-78918541D01*
X105025454Y-78918541D01*
M02*
